<svg width="24" height="24" viewBox="0 0 24 24" fill="none" xmlns="http://www.w3.org/2000/svg">
<g clip-path="url(#clip0_6_7360)">
<path d="M22.7 9.324L21.5 8.869C21.3462 8.39826 21.1559 7.94021 20.931 7.499L21.467 6.318C21.6325 5.94795 21.6822 5.53652 21.6098 5.13769C21.5373 4.73885 21.3461 4.37122 21.061 4.083L19.905 2.931C19.616 2.6494 19.2488 2.46146 18.8513 2.39171C18.4539 2.32196 18.0446 2.37364 17.677 2.54L16.5 3.073C16.0585 2.84866 15.6005 2.65844 15.13 2.504L14.68 1.311C14.5402 0.927179 14.2859 0.595578 13.9514 0.361089C13.6169 0.1266 13.2185 0.000549133 12.81 5.58281e-09H11.19C10.7834 -3.04524e-05 10.3865 0.124566 10.0529 0.357004C9.71924 0.589442 9.46486 0.918554 9.324 1.3L8.869 2.5C8.39849 2.65444 7.94049 2.84466 7.499 3.069L6.319 2.534C5.94895 2.36804 5.53735 2.31791 5.13828 2.3902C4.73921 2.46248 4.37134 2.65379 4.083 2.939L2.932 4.1C2.65082 4.38843 2.46303 4.75487 2.39311 5.15156C2.32319 5.54826 2.37438 5.95682 2.54 6.324L3.073 7.5C2.84675 7.94077 2.65517 8.39848 2.5 8.869L1.308 9.318C0.924261 9.45814 0.592919 9.71294 0.358929 10.0478C0.12494 10.3827 -0.000369022 10.7815 3.33112e-06 11.19V12.81C-0.000741908 13.2168 0.123573 13.614 0.356107 13.9478C0.588641 14.2815 0.918153 14.5358 1.3 14.676L2.506 15.131C2.65983 15.6017 2.85007 16.0598 3.075 16.501L2.539 17.682C2.37353 18.0521 2.32376 18.4635 2.39621 18.8623C2.46866 19.2612 2.65996 19.6288 2.945 19.917L4.1 21.069C4.38895 21.3507 4.75615 21.5387 5.15363 21.6085C5.55112 21.6782 5.9604 21.6265 6.328 21.46L7.5 20.927C7.94149 21.1513 8.39949 21.3416 8.87 21.496L9.32 22.689C9.45978 23.0728 9.71413 23.4044 10.0486 23.6389C10.3831 23.8734 10.7815 23.9995 11.19 24H12.81C13.2166 24 13.6135 23.8754 13.9471 23.643C14.2808 23.4106 14.5351 23.0814 14.676 22.7L15.131 21.493C15.6015 21.3386 16.0595 21.1483 16.501 20.924L17.682 21.46C18.052 21.6259 18.4635 21.6759 18.8624 21.6034C19.2614 21.531 19.629 21.3394 19.917 21.054L21.068 19.902C21.3501 19.6131 21.5384 19.2458 21.6084 18.8481C21.6783 18.4504 21.6266 18.0408 21.46 17.673L20.927 16.5C21.1519 16.0588 21.3422 15.6007 21.496 15.13L22.687 14.681C23.0715 14.5417 23.4038 14.2874 23.6387 13.9527C23.8737 13.6179 23.9998 13.219 24 12.81V11.19C24.0007 10.7832 23.8764 10.386 23.6439 10.0522C23.4114 9.71847 23.0819 9.46424 22.7 9.324ZM22 12.805L20.33 13.435C19.438 13.859 19.555 15.235 18.95 15.954C18.499 16.599 19.358 17.704 19.65 18.503L18.5 19.639L16.87 18.899C15.896 18.578 15.092 19.613 14.106 19.715C13.342 19.859 13.173 21.215 12.806 22H11.2L10.57 20.33C10.144 19.439 8.77 19.553 8.049 18.95C7.405 18.501 6.306 19.355 5.502 19.65L4.36 18.5L5.1 16.874C5.427 15.916 4.385 15.093 4.285 14.11C4.141 13.345 2.785 13.176 1.999 12.81L2 11.2L3.67 10.57C4.562 10.146 4.445 8.77 5.05 8.051C5.5 7.4 4.645 6.3 4.357 5.5L5.5 4.361L7.13 5.101C8.104 5.422 8.908 4.387 9.894 4.285C10.658 4.141 10.827 2.785 11.194 2H12.809C13.176 2.782 13.352 4.139 14.109 4.282C15.095 4.382 15.9 5.42 16.873 5.098L18.503 4.354L19.64 5.5L18.9 7.126C18.573 8.084 19.615 8.907 19.715 9.89C19.858 10.653 21.215 10.827 22.001 11.19L22 12.805Z" fill="white" fill-opacity="0.8"/>
<path d="M12 6C10.8133 6 9.65328 6.35189 8.66658 7.01118C7.67989 7.67047 6.91085 8.60754 6.45673 9.7039C6.0026 10.8003 5.88378 12.0067 6.11529 13.1705C6.3468 14.3344 6.91825 15.4035 7.75736 16.2426C8.59648 17.0818 9.66558 17.6532 10.8295 17.8847C11.9933 18.1162 13.1997 17.9974 14.2961 17.5433C15.3925 17.0892 16.3295 16.3201 16.9888 15.3334C17.6481 14.3467 18 13.1867 18 12C17.9984 10.4092 17.3658 8.88399 16.2409 7.75911C15.116 6.63424 13.5908 6.00159 12 6ZM12 16C11.2089 16 10.4355 15.7654 9.77772 15.3259C9.11993 14.8864 8.60723 14.2616 8.30448 13.5307C8.00173 12.7998 7.92252 11.9956 8.07686 11.2196C8.2312 10.4437 8.61217 9.73098 9.17158 9.17157C9.73099 8.61216 10.4437 8.2312 11.2196 8.07686C11.9956 7.92252 12.7998 8.00173 13.5307 8.30448C14.2616 8.60723 14.8864 9.11992 15.3259 9.77772C15.7654 10.4355 16 11.2089 16 12C16 13.0609 15.5786 14.0783 14.8284 14.8284C14.0783 15.5786 13.0609 16 12 16Z" fill="white" fill-opacity="0.8"/>
</g>
<defs>
<clipPath id="clip0_6_7360">
<rect width="24" height="24" fill="white"/>
</clipPath>
</defs>
</svg>
