<svg width="22" height="27" viewBox="0 0 22 27" fill="none" xmlns="http://www.w3.org/2000/svg">
<path d="M11 27L7.33333 23.1429H1.83333C1.34444 23.1429 0.916667 22.9446 0.55 22.5482C0.183333 22.1518 0 21.7071 0 21.2143V1.92857C0 1.41429 0.183333 0.964286 0.55 0.578571C0.916667 0.192857 1.34444 0 1.83333 0H20.1667C20.6352 0 21.0579 0.192857 21.4347 0.578571C21.8116 0.964286 22 1.41429 22 1.92857V21.2143C22 21.7071 21.8116 22.1518 21.4347 22.5482C21.0579 22.9446 20.6352 23.1429 20.1667 23.1429H14.6667L11 27ZM1.83333 21.2143H8.06667L11 24.3L13.9333 21.2143H20.1667V1.92857H1.83333V21.2143ZM12.7417 13.4679L16.6528 11.6679L12.7417 9.86786L11.0306 5.75357L9.28889 9.86786L5.40833 11.6679L9.28889 13.4679L11.0306 17.5821L12.7417 13.4679Z" fill="white"/>
</svg>
