<svg width="60" height="60" viewBox="0 0 60 60" fill="none" xmlns="http://www.w3.org/2000/svg">
<path d="M30 5.625C43.5 5.625 54.375 16.5 54.375 30C54.375 43.5 43.5 54.375 30 54.375C16.5 54.375 5.625 43.5 5.625 30C5.625 16.5 16.5 5.625 30 5.625ZM30 0C13.5 0 0 13.5 0 30C0 46.5 13.5 60 30 60C46.5 60 60 46.5 60 30C60 13.5 46.5 0 30 0Z" fill="#404145"/>
<path d="M37.125 38.625C35.25 40.125 32.625 41.25 30 41.25C23.625 41.25 18.75 36.375 18.75 30C18.75 23.625 23.625 18.75 30 18.75C33 18.75 36 19.875 37.875 22.125L42 18C39 15 34.5 13.125 30 13.125C20.625 13.125 13.125 20.625 13.125 30C13.125 39.375 20.625 46.875 30 46.875C34.125 46.875 37.5 45.375 40.5 43.125L37.125 38.625Z" fill="#404145"/>
</svg>
