<svg width="40" height="40" viewBox="0 0 40 40" fill="none" xmlns="http://www.w3.org/2000/svg">
<g clip-path="url(#clip0_66:347)">
<path d="M39.9906 13.4458C39.9953 13.4184 39.9979 13.3918 39.9993 13.3638C40.0006 13.3311 39.9999 13.2998 39.9973 13.2671C39.9946 13.2391 39.9906 13.2124 39.9839 13.1851C39.9766 13.1531 39.9666 13.1224 39.9546 13.0917C39.9486 13.0757 39.9473 13.059 39.9399 13.0437C39.9346 13.0324 39.9253 13.0237 39.9193 13.0124C39.9133 13.001 39.9106 12.989 39.9039 12.9777L33.2357 2.30852C33.205 2.25985 33.169 2.21584 33.1283 2.17716C33.1277 2.17649 33.127 2.17649 33.1263 2.17583C33.069 2.12181 33.001 2.08314 32.9283 2.05246C32.919 2.04846 32.913 2.04046 32.903 2.03646C32.8956 2.03379 32.8876 2.03513 32.8803 2.03313C32.8129 2.01045 32.7436 1.99512 32.6709 1.99512H7.33165C7.25963 1.99512 7.19095 2.01045 7.12494 2.03246C7.1176 2.03446 7.11027 2.03313 7.1036 2.03579C7.0936 2.03913 7.08759 2.04713 7.07826 2.05113C7.00891 2.0798 6.94356 2.11715 6.88688 2.16782C6.88355 2.17116 6.87888 2.17316 6.87554 2.17583C6.8342 2.2145 6.79753 2.25918 6.76685 2.30786L0.0986296 12.977C0.0919614 12.9877 0.0892941 13.0004 0.0832927 13.0117C0.0772913 13.023 0.0679558 13.0317 0.0626212 13.043C0.0552862 13.0584 0.0539526 13.075 0.0472843 13.091C0.0352815 13.1217 0.0252792 13.1524 0.0179441 13.1844C0.0119428 13.2117 0.00727499 13.2391 0.0046077 13.2671C-6.00511e-05 13.2998 -0.000726873 13.3318 0.000606771 13.3638C0.00194042 13.3918 0.0046077 13.4184 0.00927546 13.4458C0.01461 13.4778 0.0232787 13.5091 0.0339479 13.5405C0.0426166 13.5665 0.0519521 13.5918 0.0639549 13.6172C0.0699563 13.6292 0.0719568 13.6425 0.078625 13.6545C0.0892941 13.6738 0.105298 13.6885 0.117301 13.7065C0.126636 13.7205 0.131971 13.7359 0.143307 13.7492L19.4738 37.7455C19.4752 37.7475 19.4765 37.7488 19.4778 37.7501L19.4812 37.7548C19.4832 37.7575 19.4865 37.7581 19.4885 37.7608C19.5432 37.8268 19.6112 37.8768 19.6852 37.9168C19.7052 37.9275 19.7239 37.9368 19.7445 37.9455C19.8252 37.9795 19.9106 38.0035 19.9999 38.0035C20.076 38.0035 20.1526 37.9902 20.2287 37.9628C20.24 37.9588 20.2473 37.9495 20.2587 37.9448C20.2927 37.9308 20.3193 37.9082 20.35 37.8888C20.4007 37.8568 20.448 37.8235 20.4874 37.7801C20.4967 37.7701 20.5107 37.7655 20.5194 37.7548L39.8572 13.7492C39.8679 13.7359 39.8732 13.7199 39.8832 13.7065C39.8959 13.6885 39.9113 13.6738 39.9219 13.6545C39.9286 13.6425 39.9306 13.6292 39.9366 13.6172C39.9486 13.5918 39.9579 13.5672 39.9666 13.5405C39.9759 13.5091 39.9853 13.4785 39.9906 13.4458ZM21.4016 3.32943H31.71L28.4692 12.0281L21.4016 3.32943ZM27.2676 12.6649H12.7329L19.9999 3.72085L27.2676 12.6649ZM11.484 12.0861L8.28387 3.32943H18.5989L11.484 12.0861ZM27.7351 13.9986L19.8832 35.0742L12.1821 13.9986H27.7351ZM32.8216 4.16496L38.1342 12.6656H29.6549L32.8216 4.16496ZM7.17228 4.17363L10.275 12.6649H1.86571L7.17228 4.17363ZM10.7625 13.9986L17.9901 33.7792L2.05575 13.9986H10.7625ZM21.5983 34.29L29.1581 13.9986H37.9441L21.5983 34.29Z" fill="white"/>
</g>
<defs>
<clipPath id="clip0_66:347">
<rect width="40" height="40" fill="white"/>
</clipPath>
</defs>
</svg>
