<svg width="60" height="60" viewBox="0 0 60 60" fill="none" xmlns="http://www.w3.org/2000/svg">
<path d="M59.5518 17.5897C59.2182 17.2173 58.7421 17.0045 58.2422 17.0045H51.384V10.8838C51.384 9.91301 50.597 9.12598 49.6262 9.12598H19.4577V7.02832C19.4577 6.05754 18.6707 5.27051 17.6999 5.27051H1.75781C0.787031 5.27051 0 6.05754 0 7.02832L0.00210937 52.9603C-0.00105469 53.3655 0.135 53.7632 0.395508 54.0825C0.729375 54.492 1.22953 54.7295 1.75781 54.7295H54.4575C55.3535 54.7295 56.1061 54.0555 56.2047 53.1649L59.9893 18.9554C60.0443 18.4588 59.8852 17.9621 59.5518 17.5897ZM3.51562 8.78613H15.9421V10.8838C15.9421 11.8546 16.7291 12.6416 17.6999 12.6416H47.8684V17.0045H8.78953C7.95516 17.0045 7.23574 17.591 7.06781 18.4084L3.51562 35.6897V8.78613ZM52.8834 51.2141H3.91359L10.2227 20.5202H56.2792L52.8834 51.2141Z" fill="#404145"/>
</svg>
