<svg width="40" height="40" viewBox="0 0 40 40" fill="none" xmlns="http://www.w3.org/2000/svg">
<g clip-path="url(#clip0_66:396)">
<path d="M19.9769 0.00195313C19.2599 0.00195313 18.5434 0.0404975 17.8305 0.117336C17.1771 0.18408 16.5316 0.293539 15.8949 0.426359C15.7717 0.452138 15.6484 0.479336 15.5252 0.507786C11.7736 1.36194 8.34797 3.28006 5.65913 6.03215C5.40909 6.28845 5.16431 6.55233 4.92495 6.82373C-2.33841 15.1623 -1.46674 27.8102 6.87194 35.0736C14.8551 42.0274 26.8719 41.5647 34.2968 34.0177C34.5473 33.7614 34.792 33.4975 35.0309 33.2261C38.2364 29.5758 40.0028 24.8829 40 20.0249C40 8.96645 31.0353 0.0018697 19.9769 0.00195313ZM6.54882 7.0333C6.65427 6.92384 6.76373 6.81906 6.87119 6.71293C6.99533 6.59079 7.11881 6.46799 7.24562 6.34985C7.35708 6.24573 7.47188 6.14561 7.58601 6.04416C7.71483 5.93003 7.84298 5.8159 7.97513 5.70577C8.09126 5.60766 8.21073 5.51355 8.32954 5.41878C8.46302 5.31199 8.59651 5.2052 8.734 5.10241C8.85547 5.01097 8.97895 4.9222 9.10309 4.83544C9.24125 4.73666 9.38008 4.63521 9.52091 4.5431C9.64705 4.45767 9.77453 4.37491 9.90268 4.29281C10.0455 4.20137 10.189 4.11127 10.3338 4.02584C10.4642 3.948 10.5955 3.87141 10.7276 3.79624C10.8754 3.71214 11.0237 3.63005 11.1728 3.54996C11.3063 3.47879 11.4398 3.40913 11.5733 3.34105C11.7254 3.26429 11.879 3.19021 12.0331 3.11746C12.1666 3.05405 12.3054 2.99065 12.4429 2.93058C12.5998 2.86383 12.7586 2.79709 12.9175 2.73035C13.0556 2.67361 13.1931 2.61822 13.3326 2.56482C13.4941 2.50342 13.6577 2.44602 13.8212 2.38862C13.9607 2.3399 14.1002 2.29117 14.2417 2.24512C14.4079 2.19173 14.5754 2.14234 14.7436 2.09361C14.8844 2.0529 15.0239 2.01085 15.1654 1.97281C15.2195 1.95879 15.2735 1.94744 15.3276 1.93343C13.352 3.85172 11.8859 6.23246 11.062 8.86007C9.47786 8.44226 7.94426 7.85208 6.48875 7.10005C6.51078 7.07669 6.52946 7.05333 6.54882 7.0333ZM5.58905 8.10787C7.19231 8.97654 8.89243 9.65316 10.6542 10.1235C9.79055 13.1267 9.3372 16.2328 9.30666 19.3575H1.30411C1.44953 15.237 2.95635 11.2809 5.58905 8.10787ZM5.58905 31.942C2.95652 28.7688 1.4497 24.8128 1.30411 20.6924H9.30666C9.3372 23.8171 9.79047 26.9232 10.6542 29.9263C8.89252 30.3969 7.19239 31.0734 5.58905 31.942ZM15.1614 38.0797C15.0266 38.0457 14.8871 38.0016 14.7483 37.9609C14.5794 37.9115 14.4099 37.8622 14.243 37.8081C14.1022 37.7627 13.9634 37.714 13.8245 37.6653C13.6603 37.6085 13.4962 37.5505 13.334 37.4884C13.1951 37.4357 13.0583 37.3803 12.9208 37.3242C12.7613 37.2575 12.6018 37.1907 12.4436 37.124C12.3074 37.0639 12.172 37.0021 12.0371 36.9384C11.8816 36.865 11.7268 36.7903 11.5699 36.7128C11.4364 36.6461 11.303 36.5793 11.1695 36.5066C11.0186 36.4258 10.8691 36.3431 10.7196 36.2576C10.5861 36.1836 10.4593 36.1075 10.3305 36.03C10.1837 35.9419 10.0395 35.8512 9.89534 35.7584C9.76853 35.6776 9.64171 35.5955 9.5169 35.5114C9.37474 35.4153 9.23391 35.3152 9.09442 35.2151C8.97228 35.1277 8.85014 35.0402 8.73 34.9481C8.59184 34.844 8.45635 34.7366 8.32153 34.6284C8.20339 34.5343 8.08592 34.4409 7.97046 34.3441C7.83697 34.2333 7.70815 34.1178 7.57867 34.003C7.46521 33.9023 7.35108 33.8028 7.24028 33.7C7.1128 33.5812 6.98933 33.4577 6.86518 33.3356C6.75773 33.2295 6.64827 33.1247 6.54281 33.0159C6.52346 32.9952 6.50477 32.9739 6.48541 32.9538C7.94084 32.2015 9.47444 31.611 11.0587 31.1931C11.8827 33.8207 13.3487 36.2013 15.3243 38.1198C15.2702 38.1058 15.2155 38.0944 15.1614 38.0797ZM19.3095 38.6604C16.4536 38.2546 13.95 35.2738 12.3749 30.8721C14.6521 30.3622 16.9761 30.0886 19.3095 30.0558V38.6604ZM19.3095 28.721C16.8342 28.7535 14.3692 29.0475 11.9557 29.598C11.1177 26.7024 10.6756 23.7066 10.6415 20.6924H19.3095V28.721ZM19.3095 19.3575H10.6415C10.6755 16.3433 11.1176 13.3475 11.9557 10.4519C14.3692 11.0023 16.8342 11.2963 19.3095 11.3289V19.3575ZM19.3095 9.99405C16.976 9.96151 14.6521 9.68794 12.3749 9.17777C13.95 4.77604 16.4536 1.79527 19.3095 1.38947V9.99405ZM34.3648 8.10787C36.9974 11.281 38.5042 15.2371 38.6498 19.3575H30.6472C30.6167 16.2328 30.1634 13.1267 29.2997 10.1235C31.0614 9.6529 32.7615 8.97638 34.3648 8.10787ZM24.7872 1.96947C24.9273 2.00418 25.0668 2.04823 25.2056 2.08894C25.3745 2.13833 25.544 2.18772 25.7109 2.24178C25.8517 2.28717 25.9905 2.33589 26.1294 2.38461C26.2936 2.44135 26.4577 2.49941 26.6199 2.56149C26.7588 2.61421 26.8956 2.66961 27.0331 2.72567C27.1926 2.79242 27.3521 2.85916 27.5103 2.9259C27.6464 2.98597 27.7819 3.0478 27.9168 3.11145C28.0723 3.18487 28.2271 3.25962 28.384 3.33705C28.5174 3.40379 28.6509 3.47053 28.7844 3.54328C28.9353 3.62404 29.0848 3.7068 29.2343 3.79224C29.3678 3.86632 29.4946 3.94241 29.6234 4.01983C29.7702 4.10793 29.9144 4.1987 30.0586 4.29148C30.1854 4.37224 30.3122 4.45433 30.437 4.53843C30.5792 4.63454 30.7193 4.73399 30.8588 4.8341C30.9816 4.92154 31.1038 5.00964 31.2246 5.10108C31.3621 5.20453 31.4969 5.31199 31.6324 5.42011C31.7498 5.51355 31.868 5.60699 31.9834 5.70444C32.1169 5.81523 32.2457 5.9307 32.3752 6.0455C32.4887 6.14628 32.6028 6.24573 32.7136 6.34851C32.8411 6.46732 32.9646 6.59079 33.0887 6.71293C33.1962 6.81906 33.3056 6.92384 33.4111 7.03264C33.4304 7.05333 33.4491 7.07468 33.4685 7.09471C32.0131 7.84707 30.4795 8.4375 28.8952 8.8554C28.0696 6.22754 26.6017 3.84705 24.6243 1.92942C24.6784 1.94344 24.7331 1.95479 24.7872 1.96947ZM20.6444 1.38947C23.5003 1.79527 26.0039 4.77604 27.579 9.17777C25.3017 9.68769 22.9778 9.96126 20.6444 9.99405V1.38947ZM20.6444 11.3289C23.1197 11.2964 25.5847 11.0024 27.9982 10.4519C28.8362 13.3475 29.2783 16.3433 29.3124 19.3575H20.6444V11.3289ZM20.6444 20.6924H29.3124C29.2784 23.7066 28.8363 26.7024 27.9982 29.598C25.5847 29.0476 23.1197 28.7536 20.6444 28.721V20.6924ZM20.6444 38.6604V30.0558C22.9779 30.0884 25.3017 30.3619 27.579 30.8721C26.0039 35.2738 23.5003 38.2546 20.6444 38.6604ZM33.4051 33.0166C33.2996 33.1254 33.1908 33.2301 33.0834 33.3363C32.9592 33.4584 32.8351 33.5819 32.7076 33.7007C32.5968 33.8041 32.4827 33.9009 32.3692 34.0044C32.2397 34.1192 32.1109 34.234 31.9788 34.3448C31.862 34.4422 31.7432 34.5363 31.6244 34.6311C31.4909 34.7379 31.3574 34.8447 31.2199 34.9475C31.0984 35.0389 30.9749 35.1277 30.8508 35.2144C30.7126 35.3132 30.5738 35.4147 30.433 35.5068C30.3068 35.5922 30.1794 35.675 30.0512 35.7564C29.9084 35.8485 29.7645 35.9375 29.6194 36.0234C29.4859 36.1015 29.3584 36.1775 29.2269 36.253C29.0792 36.3371 28.9306 36.4192 28.7811 36.4992C28.6476 36.5704 28.5141 36.6401 28.3806 36.7082C28.2284 36.7849 28.0749 36.859 27.9208 36.9317C27.7873 36.9952 27.6484 37.0586 27.511 37.1186C27.3541 37.1854 27.1953 37.2521 27.0364 37.3189C26.8982 37.3749 26.7608 37.431 26.6219 37.4837C26.4591 37.5458 26.2956 37.6039 26.1314 37.6606C25.9925 37.7093 25.8537 37.758 25.7129 37.8034C25.546 37.8575 25.3792 37.9069 25.209 37.9556C25.0695 37.997 24.9293 38.0384 24.7885 38.0764C24.7344 38.0904 24.6804 38.1018 24.6263 38.1158C26.6019 36.1975 28.068 33.8167 28.8919 31.1891C30.476 31.6069 32.0096 32.1971 33.4651 32.9492C33.4431 32.9732 33.4244 32.9965 33.4051 33.0166ZM34.3648 31.942C32.7616 31.0733 31.0615 30.3967 29.2997 29.9263C30.1633 26.9232 30.6167 23.8171 30.6472 20.6924H38.6498C38.5044 24.8128 36.9975 28.7689 34.3648 31.942Z" fill="white"/>
</g>
<defs>
<clipPath id="clip0_66:396">
<rect width="40" height="40" fill="white"/>
</clipPath>
</defs>
</svg>
