<svg width="40" height="40" viewBox="0 0 40 40" fill="none" xmlns="http://www.w3.org/2000/svg">
<g clip-path="url(#clip0_66:356)">
<path d="M39.9766 17.391L38.6766 12.3615C38.615 12.1231 38.4386 11.9311 38.2063 11.8496C37.9741 11.7681 37.7163 11.8076 37.5191 11.9551L33.3596 15.0669C33.2422 15.1547 33.1536 15.2754 33.1051 15.4136L31.1495 20.9817C30.6347 20.5072 30.074 20.0816 29.4749 19.7126L30.1923 13.5365C32.0123 11.1007 32.7544 8.65489 32.3965 6.26387C31.8446 2.57698 28.8702 0.419558 28.7439 0.32948C28.479 0.140729 28.1216 0.14737 27.8639 0.346355C27.6062 0.545261 27.5092 0.889246 27.6247 1.19347L27.971 2.10417C28.5331 3.58331 27.9707 5.27136 26.6339 6.11785C24.5122 7.46137 23.777 10.1592 24.9238 12.3934L25.2929 13.1125L25.0013 18.1747C24.6077 18.1312 24.208 18.1082 23.8031 18.1082C22.9574 18.1082 22.1214 18.2076 21.3093 18.3988L21.1781 17.8087C21.3772 17.679 21.5489 17.5086 21.6802 17.3022C21.9222 16.9219 22.0015 16.4701 21.9037 16.0301C21.8061 15.5901 21.5427 15.2144 21.1625 14.9725C20.9679 14.8487 20.7547 14.768 20.5339 14.7313L20.3574 13.9366C20.2833 13.6032 20.3 13.2667 20.4034 13.0136C20.8135 12.0085 20.5769 10.6678 19.8406 9.82551L15.8625 5.27433C15.6847 5.07097 15.4096 4.9809 15.1462 5.03949C14.8824 5.09808 14.6717 5.29613 14.5968 5.55574L12.921 11.3636C12.611 12.4384 12.9645 13.7531 13.7617 14.4898C13.9625 14.6754 14.1202 14.973 14.1943 15.3065L14.371 16.1014C14.1866 16.2283 14.0276 16.3915 13.9039 16.5859C13.6618 16.9662 13.5824 17.418 13.6802 17.858C13.7778 18.298 14.0412 18.6737 14.4215 18.9157C14.6282 19.0472 14.8558 19.1305 15.0912 19.1637L15.6722 21.7771C15.166 22.3502 14.7196 22.9764 14.3427 23.6468C14.142 23.6127 13.9402 23.5874 13.7379 23.5684L10.4388 18.4698C10.3323 18.3054 10.1649 18.1898 9.97338 18.1489C9.78205 18.1077 9.58182 18.1446 9.41736 18.251L1.48 23.3884C1.13758 23.6099 1.03961 24.0673 1.26117 24.4097L4.20079 28.953C1.79282 29.5409 0 31.715 0 34.3012C0 37.3373 2.47 39.8073 5.5061 39.8073H33.5579C36.594 39.8073 39.064 37.3373 39.064 34.3012C39.064 32.1272 37.7808 30.22 35.9167 29.33L39.9583 17.8205C40.0069 17.6823 40.0132 17.5329 39.9766 17.391ZM37.5223 13.7979L37.717 14.5513C37.5734 14.5336 37.4312 14.5009 37.2924 14.4522C37.1536 14.4034 37.022 14.3401 36.899 14.2642L37.5223 13.7979ZM34.1536 16.8858C34.5494 17.1615 34.9686 17.3996 35.4048 17.5992L33.2733 23.6695C32.9837 23.1531 32.6534 22.6625 32.2863 22.2025L34.1536 16.8858ZM27.4242 7.3659C28.8126 6.48668 29.6215 4.97777 29.6624 3.4055C30.2257 4.20769 30.7506 5.24691 30.9355 6.4827C31.2247 8.41512 30.6185 10.4315 29.135 12.4811L26.5126 12.2536L26.2381 11.7189C25.4425 10.1691 25.9524 8.29786 27.4242 7.3659ZM26.6734 14.8332L26.7355 13.7558L28.6602 13.9227L28.5356 14.9948L26.6734 14.8332ZM28.3651 16.4626L28.0722 18.9842C27.556 18.7623 27.0194 18.5793 26.4657 18.439L26.5884 16.3085L28.3651 16.4626ZM14.7638 13.4045C14.3745 13.0447 14.1842 12.3128 14.34 11.7729L15.2132 8.74637L15.7371 11.1031C15.8135 11.4474 16.1188 11.6815 16.4573 11.6815C16.5103 11.6815 16.5643 11.6758 16.6182 11.6638C17.0165 11.5753 17.2675 11.1808 17.1789 10.7825L16.6551 8.42598L18.7281 10.7975C19.0979 11.2206 19.2357 11.9643 19.0353 12.4554C18.8179 12.988 18.7752 13.6279 18.915 14.2569L19.065 14.932L15.7859 15.6608L15.6358 14.9858C15.496 14.3565 15.1864 13.795 14.7638 13.4045ZM15.5147 17.6653C15.5124 17.6658 15.5101 17.6667 15.5076 17.6672L15.3731 17.6972C15.3025 17.7126 15.2479 17.6907 15.2144 17.6693C15.1808 17.6479 15.1377 17.6077 15.1221 17.5373C15.1064 17.4671 15.1285 17.4123 15.15 17.3788C15.1713 17.3452 15.2115 17.302 15.2818 17.2863L15.3857 17.2633C15.3857 17.2633 15.3857 17.2633 15.3857 17.2633L20.2107 16.1908C20.2273 16.1872 20.2429 16.1856 20.2577 16.1856C20.3057 16.1856 20.3436 16.2023 20.3693 16.2187C20.4029 16.24 20.4461 16.2803 20.4617 16.3507C20.4773 16.421 20.4552 16.4758 20.4338 16.5092C20.4125 16.5428 20.3722 16.586 20.3019 16.6017L15.5147 17.6653ZM19.8933 18.8369C19.2364 19.0908 18.6027 19.4077 18.0021 19.7887C17.6237 20.0287 17.2617 20.2911 16.9178 20.5738L16.5561 18.9473L19.7594 18.2353L19.8933 18.8369ZM2.90219 24.2272L9.59963 19.8922L11.9924 23.5902C10.5705 23.7608 9.23158 24.3004 8.07455 25.1761C6.98704 25.9991 6.1179 27.0967 5.55892 28.3333L2.90219 24.2272ZM37.5869 34.3012C37.5869 36.5228 35.7794 38.3301 33.558 38.3301H5.5061C3.28462 38.3301 1.47719 36.5228 1.47719 34.3012C1.47719 32.0796 3.28469 30.2723 5.5061 30.2723C5.60368 30.2723 5.70993 30.277 5.83118 30.2866C6.18001 30.3144 6.49798 30.0954 6.59751 29.7616C7.43283 26.9632 10.0573 25.0087 12.9797 25.0087C13.5102 25.0087 14.0425 25.0728 14.5617 25.1993C14.8976 25.2809 15.2452 25.1191 15.3985 24.8092C16.9924 21.5871 20.2129 19.5855 23.803 19.5855C28.971 19.5855 33.1754 23.79 33.1754 28.9579C33.1754 29.1239 33.1698 29.3029 33.1583 29.5049C33.1352 29.9084 33.4407 30.2556 33.844 30.2838C35.9427 30.4306 37.5869 32.1954 37.5869 34.3012ZM34.6423 28.5009C34.6011 27.5148 34.4282 26.562 34.1398 25.6602L36.7986 18.0883C37.2635 18.2051 37.7391 18.2801 38.22 18.3123L34.6423 28.5009ZM35.0073 15.6791L35.6676 15.1854C35.9984 15.4733 36.3817 15.6979 36.803 15.846C37.1787 15.9779 37.5689 16.0441 37.9601 16.0441C38.0073 16.0441 38.0545 16.0415 38.1017 16.0396L38.3081 16.8384C37.1253 16.7575 35.9808 16.3555 35.0073 15.6791Z" fill="white"/>
<path d="M22.9355 29.7559C22.9335 29.7559 22.9314 29.7559 22.9293 29.7559C21.7636 28.0961 19.894 27.1182 17.8437 27.1182C14.4139 27.1182 11.6235 29.9086 11.6235 33.3383C11.6235 33.7462 11.9542 34.0769 12.3621 34.0769C12.7701 34.0769 13.1007 33.7462 13.1007 33.3383C13.1007 30.723 15.2284 28.5954 17.8438 28.5954C19.5218 28.5954 21.0418 29.455 21.9093 30.8947C22.0557 31.1377 22.328 31.2753 22.6109 31.2489C22.7227 31.2384 22.8319 31.233 22.9355 31.233C24.8236 31.233 26.3597 32.7691 26.3597 34.6572C26.3597 35.0651 26.6904 35.3958 27.0983 35.3958C27.5063 35.3958 27.8369 35.0651 27.8369 34.6572C27.8369 31.9547 25.6382 29.7559 22.9355 29.7559Z" fill="white"/>
</g>
<defs>
<clipPath id="clip0_66:356">
<rect width="40" height="40" fill="white"/>
</clipPath>
</defs>
</svg>
