<svg width="60" height="60" viewBox="0 0 60 60" fill="none" xmlns="http://www.w3.org/2000/svg">
<path d="M30 0C13.4577 0 0 13.4577 0 30C0 46.5424 13.4577 60 30 60C46.5424 60 60 46.5423 60 30C60 13.4577 46.5424 0 30 0ZM30 53.4426C17.0734 53.4426 6.55738 42.9266 6.55738 30C6.55738 17.074 17.0734 6.55738 30 6.55738C42.9266 6.55738 53.4426 17.074 53.4426 30C53.4426 42.9266 42.9266 53.4426 30 53.4426Z" fill="#404145"/>
<path d="M32.5964 30.0362V17.4625C32.5964 16.0586 31.4587 14.9209 30.0553 14.9209C28.6515 14.9209 27.5137 16.0586 27.5137 17.4625V30.8482C27.5137 30.8881 27.5235 30.9256 27.5255 30.9656C27.492 31.6567 27.7301 32.3584 28.2579 32.8863L37.7236 42.3512C38.7164 43.3441 40.3255 43.3441 41.3176 42.3512C42.3098 41.3584 42.3104 39.7493 41.3176 38.7571L32.5964 30.0362Z" fill="#404145"/>
</svg>
