<svg width="60" height="60" viewBox="0 0 60 60" fill="none" xmlns="http://www.w3.org/2000/svg">
<path d="M46.2276 23.074L49.906 16.7029L44.2703 11.974L42.9928 4.72894H35.6361L30.0004 0L24.3647 4.72883H17.0079L15.7304 11.9738L10.0947 16.7028L13.7732 23.0739L12.4956 30.319L15.8976 31.5572V59.9999H19.6348L30.0279 48.9958L40.4528 59.9999H44.1561V31.5381L47.5052 30.3191L46.2276 23.074ZM19.4298 55.0725V32.8719L23.0872 39.2066L28.2606 37.3236V45.7227L19.4298 55.0725ZM40.6237 55.0444L31.7929 45.723V37.3428L36.9135 39.2066L40.5919 32.8354L40.6237 32.8239V55.0444ZM42.5256 22.4214L43.5117 28.0136L38.1757 29.9557L35.3364 34.8735L30.0004 32.9313L24.6643 34.8735L21.8251 29.9557L16.489 28.0136L17.4751 22.4214L14.6359 17.5036L18.9859 13.8534L19.972 8.26114H25.6506L30.0006 4.61108L34.3507 8.26114H40.0292L41.0153 13.8534L45.3654 17.5036L42.5256 22.4214Z" fill="#404145"/>
<path d="M27.3209 20.7992L24.8654 17.9346L22.1836 20.2335L26.7928 25.6109L37.5361 17.5534L35.4167 14.7275L27.3209 20.7992Z" fill="#404145"/>
</svg>
