<svg width="40" height="40" viewBox="0 0 40 40" fill="none" xmlns="http://www.w3.org/2000/svg">
<path d="M26.3999 19.2188C26.8314 19.2188 27.1812 18.869 27.1812 18.4375C27.1812 18.006 26.8314 17.6562 26.3999 17.6562C25.9684 17.6562 25.6187 18.006 25.6187 18.4375C25.6187 18.869 25.9684 19.2188 26.3999 19.2188Z" fill="white"/>
<path d="M26.5342 21.7849C26.1077 21.7216 25.7101 22.0165 25.6469 22.4433C25.4334 23.8851 24.2147 25.0809 22.3869 25.6421C20.4332 26.242 17.7214 26.041 16.0671 24.2395C15.7752 23.9217 15.281 23.9007 14.9633 24.1924C14.6455 24.4843 14.6245 24.9785 14.9162 25.2963C15.8739 26.3392 17.1746 27.0499 18.6777 27.3517C19.2085 27.4583 19.7591 27.5112 20.3134 27.5112C21.1694 27.5112 22.034 27.385 22.8455 27.1358C25.2635 26.3934 26.8886 24.7248 27.1926 22.6722C27.2558 22.2454 26.961 21.8481 26.5342 21.7849Z" fill="white"/>
<path d="M37.3925 14.8759C35.9725 13.2297 34.0126 12.1623 31.6536 11.7337C33.9122 10.2095 35.8603 8.69258 37.2494 7.36898C39.3672 5.35094 40.0774 3.93281 39.4844 2.90633C38.8246 1.76305 36.9198 1.77094 33.4897 2.93141C30.5915 3.91188 26.981 5.61477 23.3235 7.72648C22.6917 8.09117 22.0658 8.46461 21.4535 8.84094C20.9994 7.55836 21.2989 6.09328 22.3009 4.82289C23.0515 3.87133 23.219 2.66273 22.7383 1.66859C22.2344 0.626641 21.1285 0.0028125 19.7781 0H19.7414C14.9753 0 10.3135 1.88055 6.61482 5.29523C2.91154 8.71414 0.644353 13.2401 0.230916 18.0392C-0.266506 23.8189 1.58099 29.3137 5.43295 33.5115C9.21685 37.6351 14.5813 40 20.1508 40C23.1492 40 25.964 39.4514 28.5169 38.3693C30.8513 37.3798 32.9243 35.967 34.6783 34.1699C36.3047 32.5036 37.5869 30.5854 38.4895 28.4684C39.3484 26.4541 39.8176 24.3194 39.8467 22.2952C39.889 19.3516 39.0403 16.7861 37.3925 14.8759ZM21.5448 10.6241C22.3717 10.1026 23.2329 9.58297 24.1047 9.07969C27.4864 7.12719 30.8539 5.51898 33.5869 4.55125C36.5955 3.48602 37.8273 3.55555 38.1145 3.69305C38.0897 3.87484 37.8639 4.68367 35.8896 6.5018C34.241 8.02 31.8336 9.80539 29.1108 11.5291C28.2501 12.0741 27.3544 12.6159 26.4485 13.139C25.1997 13.8598 23.9518 14.5337 22.727 15.1509C22.4826 14.4377 22.1694 13.7455 21.7883 13.0852C21.4188 12.4453 20.9903 11.8445 20.5113 11.2887C20.8503 11.0665 21.1952 10.8443 21.5448 10.6241ZM21.3115 15.8439C19.1055 16.8901 17.0813 17.6877 15.4648 18.1503C15.3807 17.7462 15.2327 17.3555 15.0228 16.9916C14.8238 16.6467 14.5742 16.3384 14.2857 16.0724C15.4958 14.9045 17.1991 13.5514 19.2047 12.1671C19.6704 12.6875 20.0832 13.2567 20.4351 13.8663C20.7991 14.4968 21.0921 15.1599 21.3115 15.8439ZM38.2844 22.2728C38.173 30.0469 31.2083 38.4375 20.1508 38.4375C15.0178 38.4375 10.073 36.257 6.58428 32.4552C3.0317 28.5837 1.32834 23.5116 1.78771 18.1733C2.5767 9.01406 10.6307 1.5625 19.7414 1.5625H19.7765C20.5239 1.56406 21.0908 1.85063 21.3316 2.34883C21.5531 2.8068 21.4569 3.36992 21.074 3.85523C19.666 5.64039 19.3129 7.83594 20.1084 9.68711C19.6896 9.95695 19.278 10.228 18.8802 10.4968C18.8783 10.498 18.8765 10.4993 18.8747 10.5005C16.3904 12.1769 14.2926 13.8443 12.8968 15.2475C11.8382 14.8857 10.6751 14.9912 9.68646 15.5618C8.06334 16.4994 5.93209 20.8685 5.52139 21.7348C5.41139 21.9667 5.4224 22.2379 5.55068 22.4602C5.67904 22.6824 5.90834 22.8275 6.16412 22.8483C6.59592 22.8833 7.82209 22.9717 9.18685 22.9717C10.8429 22.9717 12.7029 22.8414 13.5928 22.3274C14.5567 21.771 15.2248 20.8413 15.4562 19.7726C17.3721 19.2697 19.8753 18.2859 22.5864 16.965C24.1054 16.2257 25.6676 15.3938 27.2297 14.4922C28.0222 14.0345 28.8056 13.5627 29.567 13.0869C29.5716 13.0871 29.5761 13.0878 29.5807 13.088C36.0923 13.2747 38.3463 17.955 38.2844 22.2728ZM13.9797 19.0914C13.9297 19.8771 13.4931 20.5809 12.8115 20.9743C12.0727 21.4011 9.53459 21.4586 7.4506 21.3633C8.40959 19.5114 9.72826 17.3422 10.4679 16.915C11.1662 16.5119 12.0104 16.4942 12.7266 16.8679C13.1203 17.0729 13.4462 17.3856 13.6694 17.7724C13.9015 18.1748 14.0087 18.6309 13.9797 19.0914Z" fill="white"/>
<path d="M13.9004 4.83154C12.1773 4.83154 10.7754 6.23342 10.7754 7.95654C10.7754 9.67967 12.1773 11.0815 13.9004 11.0815C15.6235 11.0815 17.0254 9.67967 17.0254 7.95654C17.0254 6.23342 15.6235 4.83154 13.9004 4.83154ZM13.9004 9.51904C13.0388 9.51904 12.3379 8.81811 12.3379 7.95654C12.3379 7.09498 13.0388 6.39404 13.9004 6.39404C14.762 6.39404 15.4629 7.09498 15.4629 7.95654C15.4629 8.81811 14.762 9.51904 13.9004 9.51904Z" fill="white"/>
<path d="M9.99414 25.8242C8.27102 25.8242 6.86914 27.2261 6.86914 28.9492C6.86914 30.6723 8.27102 32.0742 9.99414 32.0742C11.7173 32.0742 13.1191 30.6723 13.1191 28.9492C13.1191 27.2261 11.7173 25.8242 9.99414 25.8242ZM9.99414 30.5117C9.13258 30.5117 8.43164 29.8108 8.43164 28.9492C8.43164 28.0877 9.13258 27.3867 9.99414 27.3867C10.8557 27.3867 11.5566 28.0877 11.5566 28.9492C11.5566 29.8108 10.8557 30.5117 9.99414 30.5117Z" fill="white"/>
<path d="M17.8066 30.5117C16.0835 30.5117 14.6816 31.9136 14.6816 33.6367C14.6816 35.3598 16.0835 36.7617 17.8066 36.7617C19.5298 36.7617 20.9316 35.3598 20.9316 33.6367C20.9316 31.9136 19.5298 30.5117 17.8066 30.5117ZM17.8066 35.1992C16.9451 35.1992 16.2441 34.4983 16.2441 33.6367C16.2441 32.7752 16.9451 32.0742 17.8066 32.0742C18.6682 32.0742 19.3691 32.7752 19.3691 33.6367C19.3691 34.4983 18.6682 35.1992 17.8066 35.1992Z" fill="white"/>
<path d="M27.1816 28.9492C25.4585 28.9492 24.0566 30.3511 24.0566 32.0742C24.0566 33.7973 25.4585 35.1992 27.1816 35.1992C28.9048 35.1992 30.3066 33.7973 30.3066 32.0742C30.3066 30.3511 28.9048 28.9492 27.1816 28.9492ZM27.1816 33.6367C26.3201 33.6367 25.6191 32.9358 25.6191 32.0742C25.6191 31.2127 26.3201 30.5117 27.1816 30.5117C28.0432 30.5117 28.7441 31.2127 28.7441 32.0742C28.7441 32.9358 28.0432 33.6367 27.1816 33.6367Z" fill="white"/>
<path d="M33.4316 21.1367C31.7085 21.1367 30.3066 22.5386 30.3066 24.2617C30.3066 25.9848 31.7085 27.3867 33.4316 27.3867C35.1548 27.3867 36.5566 25.9848 36.5566 24.2617C36.5566 22.5386 35.1548 21.1367 33.4316 21.1367ZM33.4316 25.8242C32.5701 25.8242 31.8691 25.1233 31.8691 24.2617C31.8691 23.4002 32.5701 22.6992 33.4316 22.6992C34.2932 22.6992 34.9941 23.4002 34.9941 24.2617C34.9941 25.1233 34.2932 25.8242 33.4316 25.8242Z" fill="white"/>
</svg>
