<svg width="39" height="40" viewBox="0 0 39 40" fill="none" xmlns="http://www.w3.org/2000/svg">
<path d="M20.2617 31.7188C20.2617 32.1503 19.9207 32.5 19.5 32.5C19.0793 32.5 18.7383 32.1503 18.7383 31.7188C18.7383 31.2872 19.0793 30.9375 19.5 30.9375C19.9207 30.9375 20.2617 31.2872 20.2617 31.7188Z" fill="white"/>
<path d="M36.4863 24.6875C36.4863 22.1027 34.4362 20 31.916 20C29.3958 20 27.3457 22.1027 27.3457 24.6875C27.3457 27.2723 29.3958 29.375 31.916 29.375C34.4362 29.375 36.4863 27.2723 36.4863 24.6875ZM31.916 27.8125C30.2361 27.8125 28.8691 26.4105 28.8691 24.6875C28.8691 22.9645 30.2361 21.5625 31.916 21.5625C33.596 21.5625 34.9629 22.9645 34.9629 24.6875C34.9629 26.4105 33.596 27.8125 31.916 27.8125Z" fill="white"/>
<path d="M31.916 29.375C29.9965 29.375 28.0824 30.1923 26.7786 31.5173C25.0623 29.2041 22.416 27.8125 19.5 27.8125C16.7075 27.8125 14.0016 29.1193 12.2217 31.5173C10.9176 30.1926 9.00375 29.375 7.08398 29.375C3.24415 29.375 0 32.5949 0 36.4062V37.9688C0 38.4003 0.340988 38.75 0.761719 38.75H38.2383C38.659 38.75 39 38.4003 39 37.9688V36.4062C39 32.5949 35.7559 29.375 31.916 29.375ZM1.52344 36.4062C1.52344 33.4418 4.06984 30.9375 7.08398 30.9375C8.73328 30.9375 10.3689 31.687 11.3814 32.8784C10.712 34.2047 10.3594 35.683 10.3594 37.1875H1.52344V36.4062ZM19.5 29.375C23.7385 29.375 27.1172 32.9022 27.1172 37.1875H11.8828C11.8828 32.8452 15.3305 29.375 19.5 29.375ZM37.4766 37.1875H28.6406C28.6406 35.683 28.288 34.2047 27.6186 32.8784C28.6311 31.687 30.2667 30.9375 31.916 30.9375C34.9302 30.9375 37.4766 33.4418 37.4766 36.4062V37.1875Z" fill="white"/>
<path d="M11.6543 24.6875C11.6543 22.1027 9.6042 20 7.08398 20C4.56377 20 2.51367 22.1027 2.51367 24.6875C2.51367 27.2723 4.56377 29.375 7.08398 29.375C9.6042 29.375 11.6543 27.2723 11.6543 24.6875ZM7.08398 27.8125C5.40404 27.8125 4.03711 26.4105 4.03711 24.6875C4.03711 22.9645 5.40404 21.5625 7.08398 21.5625C8.76393 21.5625 10.1309 22.9645 10.1309 24.6875C10.1309 26.4105 8.76393 27.8125 7.08398 27.8125Z" fill="white"/>
<path d="M25.5938 21.5625C25.5938 18.1161 22.8602 15.3125 19.5 15.3125C16.1398 15.3125 13.4062 18.1161 13.4062 21.5625C13.4062 25.0089 16.1398 27.8125 19.5 27.8125C22.8602 27.8125 25.5938 25.0089 25.5938 21.5625ZM19.5 26.25C16.9798 26.25 14.9297 24.1473 14.9297 21.5625C14.9297 18.9777 16.9798 16.875 19.5 16.875C22.0202 16.875 24.0703 18.9777 24.0703 21.5625C24.0703 24.1473 22.0202 26.25 19.5 26.25Z" fill="white"/>
<path d="M25.5285 5.79376C25.4389 5.51086 25.2006 5.30487 24.9135 5.26215L21.628 4.77295L20.1569 1.68823C20.0292 1.41998 19.7638 1.25 19.4728 1.25C19.1818 1.25 18.9164 1.41998 18.7885 1.68793L17.3177 4.77295L14.0322 5.26184C13.7451 5.30457 13.5067 5.51086 13.4172 5.79376C13.3276 6.07666 13.4023 6.38702 13.61 6.59454L15.9892 8.97278L15.4277 12.3312C15.3786 12.6242 15.4961 12.9205 15.7309 13.0951C15.9642 13.269 16.2748 13.2938 16.5331 13.1546L19.4728 11.5692L22.4138 13.1546C22.6703 13.2932 22.9812 13.27 23.216 13.0951C23.4504 12.9202 23.568 12.6242 23.5189 12.3309L22.9568 8.97278L25.3357 6.59454C25.5434 6.38702 25.6181 6.07666 25.5285 5.79376ZM21.6062 8.14056C21.4268 8.32001 21.3447 8.5788 21.3872 8.83209L21.7559 11.0352L19.8272 9.99512C19.6052 9.87549 19.3401 9.87549 19.1182 9.99512L17.1901 11.0352L17.5584 8.83209C17.6007 8.57849 17.5185 8.32001 17.3391 8.14056L15.7788 6.58081L17.9345 6.25977C18.1839 6.22284 18.399 6.06171 18.5094 5.82977L19.4728 3.80951L20.436 5.82977C20.5467 6.06201 20.7618 6.22284 21.0109 6.25977L23.1669 6.58081L21.6062 8.14056Z" fill="white"/>
<path d="M36.9135 11.6492C36.824 11.3663 36.5857 11.1603 36.2985 11.1176L34.0726 10.7858L33.0773 8.71674C32.949 8.45001 32.6845 8.28125 32.3944 8.28125C32.3944 8.28125 32.3944 8.28125 32.3941 8.28125C32.1043 8.28125 31.8395 8.45001 31.7112 8.71674L30.7154 10.7858L28.4891 11.1176C28.2023 11.1603 27.9639 11.3663 27.8744 11.6492C27.7845 11.9321 27.8592 12.2424 28.0669 12.45L29.6775 14.061L29.2973 16.3345C29.2485 16.6275 29.3657 16.9235 29.6005 17.0984C29.8349 17.2733 30.1459 17.2964 30.4023 17.1582L32.3941 16.0849L34.3853 17.1582C34.6418 17.2964 34.953 17.2733 35.1875 17.0984C35.4219 16.9238 35.5392 16.6275 35.4904 16.3345L35.1101 14.061L36.721 12.45C36.9287 12.2424 37.0031 11.9321 36.9135 11.6492ZM33.7602 13.2291C33.5804 13.4085 33.4986 13.667 33.5412 13.9203L33.728 15.0385L32.7488 14.5108C32.5268 14.3912 32.2617 14.3912 32.04 14.5108L31.0599 15.0388L31.2471 13.9203C31.2893 13.667 31.2075 13.4085 31.0281 13.2291L30.2354 12.4362L31.3307 12.2733C31.5788 12.2363 31.7934 12.0764 31.9044 11.846L32.3941 10.8282L32.8836 11.8457C32.9946 12.0764 33.2091 12.2363 33.4572 12.2733L34.5525 12.4362L33.7602 13.2291Z" fill="white"/>
<path d="M11.0151 11.6492C10.9256 11.3663 10.6872 11.1603 10.4001 11.1176L8.17414 10.7858L7.17885 8.71674C7.0506 8.45001 6.78609 8.28125 6.49598 8.28125C6.20587 8.28125 5.94105 8.45001 5.81281 8.71674L4.81692 10.7858L2.59068 11.1176C2.30385 11.1603 2.06551 11.3663 1.97595 11.6492C1.88609 11.9321 1.96078 12.2424 2.16846 12.45L3.77908 14.061L3.39911 16.3345C3.35002 16.6275 3.46755 16.9235 3.70202 17.0984C3.93648 17.2733 4.24742 17.2964 4.5042 17.1582L6.49568 16.0849L8.48686 17.1582C8.74513 17.2974 9.05577 17.2723 9.28905 17.0984C9.52351 16.9238 9.64104 16.6275 9.59195 16.3345L9.21168 14.061L10.8226 12.45C11.0303 12.2424 11.1047 11.9321 11.0151 11.6492ZM7.86142 13.2291C7.682 13.4085 7.60017 13.667 7.64242 13.9203L7.82958 15.0385L6.85006 14.5108C6.62839 14.3912 6.36327 14.3912 6.1416 14.5108L5.16118 15.0388L5.34834 13.9203C5.39089 13.667 5.30877 13.4085 5.12935 13.2291L4.33668 12.4362L5.43225 12.2733C5.68011 12.2363 5.89464 12.0764 6.00562 11.846L6.49538 10.8282L6.98485 11.8457C7.09583 12.0764 7.31036 12.2363 7.55852 12.2733L8.65378 12.4362L7.86142 13.2291Z" fill="white"/>
<path d="M22.8378 31.9605C22.4861 31.7234 22.0139 31.8238 21.783 32.1845C21.5518 32.5449 21.6497 33.0293 22.0014 33.2664C22.7057 33.7409 23.2687 34.4026 23.6293 35.1795C23.8096 35.5686 24.2636 35.7349 24.6442 35.5491C25.0242 35.3639 25.1854 34.8975 25.0048 34.5081C24.5246 33.473 23.7751 32.5919 22.8378 31.9605Z" fill="white"/>
</svg>
