<svg width="70" height="38" viewBox="0 0 70 38" fill="none" xmlns="http://www.w3.org/2000/svg">
<path d="M65.2738 5.78258C62.0569 2.1393 57.5206 0.132812 52.5 0.132812C46.3091 0.132812 41.6489 3.69912 38.3834 7.65549C39.6242 9.56107 40.591 11.3852 41.2959 12.8653C43.8043 9.25209 47.5606 5.60156 52.5 5.60156C59.4714 5.60156 64.5312 11.2364 64.5312 19C64.5312 26.7636 59.4714 32.3984 52.5 32.3984C42.5339 32.3984 37.6399 18.2707 37.593 18.132L37.5795 18.0927C37.3216 17.3594 31.1065 0.132812 17.5 0.132812C12.4794 0.132812 7.94309 2.1393 4.72623 5.78258C1.6785 9.23445 0 13.9286 0 19C0 24.0714 1.6785 28.7655 4.72623 32.2174C7.94309 35.8607 12.4794 37.8672 17.5 37.8672C23.7418 37.8672 28.3782 34.3904 31.6154 30.4911C30.3775 28.5859 29.419 26.7596 28.7154 25.2556C26.2403 28.8258 22.5117 32.3984 17.5 32.3984C10.5286 32.3984 5.46875 26.7636 5.46875 19C5.46875 11.2364 10.5286 5.60156 17.5 5.60156C27.1186 5.60156 32.253 19.4464 32.4168 19.897C32.7801 20.9678 38.7398 37.8672 52.5 37.8672C57.5206 37.8672 62.0569 35.8607 65.2738 32.2174C68.3215 28.7655 70 24.0714 70 19C70 13.9286 68.3215 9.23445 65.2738 5.78258Z" fill="#404145"/>
</svg>
