<svg width="50" height="45" viewBox="0 0 50 45" fill="none" xmlns="http://www.w3.org/2000/svg">
<g clip-path="url(#clip0_108:220)">
<path d="M48.0204 9.92914L25.3185 0.0655225C25.1172 -0.0218408 24.8828 -0.0218408 24.6816 0.0655225L1.97959 9.92914C1.72647 10.0391 1.56563 10.2698 1.56563 10.5227V34.4772C1.56563 34.7302 1.72647 34.9609 1.97959 35.0709L24.6815 44.9345C24.7821 44.9782 24.8911 45 25 45C25.1089 45 25.2178 44.9782 25.3185 44.9345L48.0204 35.0709C48.2735 34.9609 48.4344 34.7302 48.4344 34.4772V10.5228C48.4344 10.2697 48.2734 10.0392 48.0204 9.92914ZM25 1.39118L46.0173 10.5227L39.9248 13.1698C39.8862 13.1434 39.8455 13.119 39.8008 13.0995L18.9263 4.03009L25 1.39118ZM17.2722 4.77541L38.2589 13.8937L33.9605 15.7613L12.9825 6.64669L17.2722 4.77541ZM38.7499 15.1442V22.0477L34.735 23.7921V16.8887L38.7499 15.1442ZM46.9695 34.0636L25.7324 43.2906V20.8001L30.7981 18.5991C31.1624 18.4408 31.3151 18.0468 31.1393 17.7189C30.9634 17.3911 30.5256 17.2535 30.1612 17.4119L25 19.6544L22.9691 18.772C22.6048 18.6135 22.167 18.7512 21.9911 19.079C21.8152 19.4068 21.968 19.8009 22.3322 19.9592L24.2676 20.8001V43.2906L3.03047 34.0635V11.573L19.2023 18.5994C19.305 18.644 19.4135 18.6651 19.5202 18.6651C19.7925 18.6651 20.054 18.5278 20.1803 18.2924C20.3562 17.9645 20.2034 17.5704 19.8392 17.4121L3.98272 10.5227L11.2586 7.3615L33.26 16.9207C33.2632 16.9248 33.2668 16.9284 33.2701 16.9323V24.8424C33.2701 25.0693 33.3997 25.2801 33.6132 25.4008C33.7317 25.4678 33.867 25.5016 34.0026 25.5016C34.1112 25.5016 34.2201 25.4799 34.321 25.436L39.8008 23.0552C40.0539 22.9452 40.2147 22.7146 40.2147 22.4615V14.5079L46.9695 11.573V34.0636Z" fill="white"/>
<path d="M9.07481 31.5072L5.74326 30.0597C5.37881 29.9012 4.94112 30.0389 4.76524 30.3667C4.58936 30.6945 4.74209 31.0886 5.10635 31.2469L8.43789 32.6944C8.54053 32.739 8.64903 32.7601 8.75576 32.7601C9.02803 32.7601 9.28955 32.6228 9.41582 32.3874C9.5918 32.0595 9.43906 31.6655 9.07481 31.5072Z" fill="white"/>
<path d="M12.1409 29.7106L5.74786 26.9329C5.3835 26.7746 4.94571 26.9121 4.76983 27.24C4.59405 27.5678 4.74678 27.9619 5.11104 28.1202L11.5041 30.8979C11.6067 30.9425 11.7152 30.9637 11.822 30.9637C12.0942 30.9637 12.3558 30.8264 12.482 30.5909C12.6579 30.2629 12.5052 29.8688 12.1409 29.7106Z" fill="white"/>
</g>
<defs>
<clipPath id="clip0_108:220">
<rect width="50" height="45" fill="white"/>
</clipPath>
</defs>
</svg>
