<svg width="50" height="47" viewBox="0 0 50 47" fill="none" xmlns="http://www.w3.org/2000/svg">
<path d="M33.3939 30.1421C32.2092 30.1421 31.2455 29.358 31.2455 28.3942C31.2455 27.4303 32.2092 26.6462 33.3939 26.6462C34.5786 26.6462 35.5423 27.4303 35.5423 28.3942C35.5423 28.9011 35.9797 29.3122 36.5189 29.3122C37.0582 29.3122 37.4955 28.9011 37.4955 28.3942C37.4955 26.712 36.1621 25.2976 34.3705 24.9137V24.4363C34.3705 23.9294 33.9332 23.5183 33.3939 23.5183C32.8547 23.5183 32.4174 23.9294 32.4174 24.4363V24.9137C30.6258 25.2976 29.2924 26.712 29.2924 28.3942C29.2924 30.3703 31.1323 31.978 33.3939 31.978C34.5786 31.978 35.5423 32.7622 35.5423 33.726C35.5423 34.6899 34.5786 35.474 33.3939 35.474C32.2092 35.474 31.2455 34.6899 31.2455 33.726C31.2455 33.2191 30.8082 32.8081 30.2689 32.8081C29.7297 32.8081 29.2924 33.2191 29.2924 33.726C29.2924 35.4082 30.6258 36.8226 32.4174 37.2065V37.6031C32.4174 38.11 32.8547 38.521 33.3939 38.521C33.9332 38.521 34.3705 38.11 34.3705 37.6031V37.2065C36.1621 36.8226 37.4955 35.4082 37.4955 33.726C37.4955 31.7498 35.6555 30.1421 33.3939 30.1421Z" fill="white"/>
<path d="M44.09 24.682C42.8143 22.8134 41.017 21.3182 38.8925 20.3582C38.4063 20.1385 37.8228 20.3309 37.5892 20.7878C37.3555 21.2448 37.5601 21.7932 38.0462 22.0129C41.7485 23.6858 44.1406 27.2602 44.1406 31.1192C44.1406 32.7704 43.7076 34.408 42.8885 35.8551C42.6352 36.3026 42.8158 36.8585 43.2919 37.0966C43.438 37.1697 43.5951 37.2044 43.7497 37.2044C44.0992 37.2044 44.4371 37.0276 44.6127 36.7174C45.5816 35.006 46.0937 33.0701 46.0937 31.1192C46.0937 28.8279 45.4008 26.602 44.09 24.682Z" fill="white"/>
<path d="M34.929 19.1859L34.8633 19.1858C34.324 19.1858 33.8867 19.5968 33.8867 20.1038C33.8867 20.6108 34.324 21.0217 34.8633 21.0217L34.9198 21.0218C34.9214 21.0218 34.9229 21.0218 34.9245 21.0218C35.4617 21.0218 35.8984 20.6137 35.901 20.1082C35.9034 19.6012 35.4683 19.1883 34.929 19.1859Z" fill="white"/>
<path d="M28.7506 40.2254C25.0485 38.5524 22.6564 34.978 22.6564 31.1191C22.6564 29.4679 23.0894 27.8303 23.9084 26.3832C24.1617 25.9357 23.9812 25.3798 23.505 25.1417C23.029 24.9036 22.4374 25.0733 22.1842 25.5209C21.2154 27.2324 20.7032 29.1683 20.7032 31.1191C20.7032 33.4104 21.3961 35.6363 22.707 37.5564C23.9826 39.4249 25.7799 40.9201 27.9044 41.8802C28.0408 41.9419 28.185 41.971 28.3269 41.971C28.6905 41.971 29.0396 41.7792 29.2077 41.4506C29.4412 40.9936 29.2367 40.4451 28.7506 40.2254Z" fill="white"/>
<path d="M31.9337 41.2167L31.8772 41.2166C31.3354 41.2156 30.8987 41.6231 30.8963 42.1302C30.8937 42.6372 31.3291 43.0501 31.8683 43.0525L31.9337 43.0527C32.473 43.0527 32.9103 42.6416 32.9103 42.1347C32.9103 41.6278 32.473 41.2167 31.9337 41.2167Z" fill="white"/>
<path d="M37.8328 16.0808C37.714 15.8146 37.5684 15.5637 37.399 15.331H39.9413C42.4183 15.331 44.4335 13.4367 44.4335 11.1084C44.4335 8.78005 42.4183 6.88573 39.9413 6.88573H32.121C32.6182 6.20625 32.9101 5.38421 32.9101 4.49902C32.9101 2.17068 30.8949 0.276367 28.4179 0.276367H4.49218C2.01523 0.276367 0 2.17068 0 4.49902C0 6.82735 2.01523 8.72166 4.49218 8.72166H12.3125C11.8153 9.40114 11.5234 10.2232 11.5234 11.1084C11.5234 11.9936 11.8152 12.8156 12.3125 13.4951H9.76561C7.28866 13.4951 5.27343 15.3894 5.27343 17.7177C5.27343 19.0549 5.93886 20.2482 6.97411 21.0224C5.93886 21.7966 5.27343 22.9899 5.27343 24.3271C5.27343 25.6643 5.93886 26.8576 6.97411 27.6318C5.93886 28.406 5.27343 29.5993 5.27343 30.9365C5.27343 32.2737 5.93886 33.4669 6.97411 34.2411C5.93886 35.0154 5.27343 36.2086 5.27343 37.5458C5.27343 39.8742 7.28866 41.7685 9.76561 41.7685H21.2744C24.3062 44.8168 28.6193 46.7256 33.3985 46.7256C42.5526 46.7256 50 39.725 50 31.1201C50 23.9584 44.8408 17.909 37.8328 16.0808ZM39.9413 8.72166C41.3414 8.72166 42.4804 9.79238 42.4804 11.1084C42.4804 12.4244 41.3414 13.4951 39.9413 13.4951H33.6913H16.0156C14.6155 13.4951 13.4765 12.4244 13.4765 11.1084C13.4765 9.79238 14.6155 8.72166 16.0156 8.72166H39.9413ZM4.49218 6.88573C3.09208 6.88573 1.95312 5.81501 1.95312 4.49902C1.95312 3.18302 3.09208 2.1123 4.49218 2.1123H28.4179C29.818 2.1123 30.957 3.18302 30.957 4.49902C30.957 5.81501 29.818 6.88573 28.4179 6.88573H4.49218ZM9.76561 15.331H33.6913C34.0847 15.331 34.4614 15.4169 34.7993 15.5708C34.3373 15.5344 33.8703 15.5147 33.3985 15.5147C28.814 15.5147 24.6578 17.2707 21.6505 20.1045H9.76561C8.36561 20.1045 7.22655 19.0337 7.22655 17.7177C7.22655 16.4017 8.36561 15.331 9.76561 15.331ZM9.76561 21.9404H19.9819C18.8733 23.3681 18.0162 24.9784 17.4718 26.7138H9.76561C8.36551 26.7138 7.22655 25.6432 7.22655 24.3271C7.22655 23.0111 8.36551 21.9404 9.76561 21.9404ZM9.76561 28.5497H17.0234C16.8753 29.3863 16.7969 30.2447 16.7969 31.1201C16.7969 31.8679 16.8545 32.6032 16.9632 33.3232H9.76561C8.36551 33.3232 7.22655 32.2526 7.22655 30.9365C7.22655 29.6204 8.36551 28.5497 9.76561 28.5497ZM9.76561 39.9325C8.36551 39.9325 7.22655 38.8619 7.22655 37.5458C7.22655 36.2297 8.36551 35.1591 9.76561 35.1591H17.3619C17.8547 36.8861 18.6551 38.4956 19.7049 39.9325H9.76561ZM33.3985 44.8897C25.3213 44.8897 18.7501 38.7127 18.7501 31.1201C18.7501 23.5276 25.3213 17.3506 33.3985 17.3506C41.4756 17.3506 48.0469 23.5276 48.0469 31.1201C48.0469 38.7127 41.4756 44.8897 33.3985 44.8897Z" fill="white"/>
</svg>
