<svg width="57" height="55" viewBox="0 0 57 55" fill="none" xmlns="http://www.w3.org/2000/svg">
<path d="M47.0121 21.0052C46.5773 20.5858 45.8724 20.5858 45.4376 21.0052C45.0029 21.4248 45.0029 22.105 45.4376 22.5245C45.4548 22.541 45.4726 22.5579 45.4898 22.5733C45.7047 22.7674 45.978 22.8635 46.2508 22.8635C46.5478 22.8635 46.8444 22.7493 47.0635 22.5236C47.4838 22.0908 47.4608 21.4108 47.0121 21.0052Z" fill="white"/>
<path d="M44.7503 19.2413C44.113 18.8237 43.4588 18.4513 42.8057 18.1341C39.1112 16.3403 35.1961 15.9802 31.4836 17.0926C30.8964 17.2687 30.5681 17.8706 30.7506 18.4371C30.9329 19.0038 31.5565 19.3202 32.144 19.1444C35.295 18.2 38.6356 18.5144 41.8047 20.0531C42.3636 20.3247 42.9498 20.6588 43.4997 21.0188C43.6913 21.1442 43.9088 21.2045 44.124 21.2045C44.4804 21.2045 44.8308 21.0396 45.0461 20.7335C45.3914 20.2427 45.2589 19.5745 44.7503 19.2413Z" fill="white"/>
<path d="M54.8785 33.1425C54.4221 32.2187 53.6663 30.6888 53.6527 30.1828C54.9546 27.0864 54.4797 23.66 52.3112 20.5258C48.9766 15.7055 42.1422 12.2067 36.0607 12.2067C32.846 12.2067 29.7069 12.9464 26.8827 14.3585C26.0725 10.0749 22.1792 6.81665 17.5094 6.81665C12.2541 6.81665 7.97864 10.9421 7.97864 16.0129C7.97864 19.2391 9.68262 22.1724 12.5364 23.8595C13.3591 24.3459 13.5452 24.7663 13.6114 25.4552V29.1229V31.7411C13.6114 32.9406 14.6225 33.9164 15.8652 33.9164H16.2437C16.8552 38.6189 19.2138 42.8883 22.9578 46.0301C22.9931 46.1362 23.096 46.6337 22.6536 48.1179C22.3091 49.2742 21.7803 50.5587 21.3139 51.692C21.0017 52.4503 20.7321 53.1052 20.5691 53.6004C20.4617 53.9269 20.522 54.2833 20.7317 54.5599C20.9414 54.8364 21.2752 54.9999 21.6302 54.9999H37.5217C38.0438 54.9999 38.761 54.7743 39.2124 53.6996C39.4089 53.2319 39.5371 52.6692 39.6731 52.0733C39.8053 51.4928 40.1155 50.1332 40.4239 49.9689C40.4241 49.9689 40.4421 49.966 40.4856 49.9725C40.5428 49.9813 40.6005 49.9855 40.6584 49.9855C42.3227 49.9855 43.6825 50.0583 44.8823 50.1224C48.4013 50.3108 50.5254 50.4246 52.3887 47.8349C53.3363 46.5177 53.2289 44.5967 53.1152 42.5629C53.0567 41.5146 52.9962 40.4327 53.1035 39.5333C53.2978 39.3486 53.7843 39.0263 54.0893 38.8243C55.1388 38.1287 56.13 37.472 56.13 36.4736C56.1303 35.7146 55.6546 34.7134 54.8785 33.1425ZM13.6998 22.0273C11.5116 20.734 10.2053 18.4856 10.2053 16.0128C10.2053 12.1265 13.482 8.96497 17.5095 8.96497C21.5371 8.96497 24.8137 12.1266 24.8137 16.0128C24.8137 18.4856 23.5075 20.7341 21.3193 22.0275C20.2793 22.6425 19.6613 23.3598 19.3679 24.3289L17.5092 24.3283L15.6513 24.3289C15.3578 23.3599 14.7398 22.6425 13.6998 22.0273ZM19.1811 26.4776V28.0486H15.8381V26.4776H19.1811V26.4776ZM15.8654 31.7679C15.8531 31.7679 15.8381 31.753 15.8381 31.741V30.197H19.1811V31.741C19.1811 31.7531 19.1661 31.7679 19.1535 31.7679H15.8654ZM52.8292 37.053C51.871 37.6881 51.0434 38.2364 50.9214 39.0661C50.7537 40.2043 50.8241 41.4621 50.892 42.6783C50.9764 44.1873 51.0719 45.8976 50.5598 46.6095C49.4521 48.1493 48.494 48.1642 45.0058 47.9772C43.8549 47.9156 42.4268 47.8392 40.7336 47.8368C40.0833 47.7629 38.9831 47.8807 38.2489 49.2579C37.8759 49.9572 37.6755 50.836 37.4987 51.6113C37.4099 52.0009 37.2851 52.5483 37.1682 52.8513H23.2329C23.2816 52.7326 23.3319 52.6102 23.3836 52.4847C24.9874 48.5882 26.0031 45.7304 24.457 44.4407C21.18 41.7058 19.0901 38.0026 18.4909 33.9163H19.1536C20.3966 33.9163 21.4078 32.9405 21.4078 31.741V29.1228V25.4573C21.4738 24.7671 21.6594 24.3463 22.4827 23.8594C25.118 22.3016 26.7714 19.6808 27.0094 16.7483C29.7419 15.1816 32.8586 14.3551 36.0608 14.3551C41.3654 14.3551 47.5555 17.5207 50.4595 21.7185C51.7041 23.5176 52.9064 26.3164 51.5651 29.4327C51.1282 30.4475 51.7759 31.855 52.8687 34.067C53.2225 34.7831 53.7346 35.8197 53.8702 36.3039C53.6402 36.5157 53.1457 36.8433 52.8292 37.053Z" fill="white"/>
<path d="M22.9703 14.495C22.6416 13.3193 21.8243 12.3776 20.6067 11.7715C20.0603 11.4998 19.3889 11.7065 19.1069 12.2339C18.8252 12.7612 19.0396 13.4091 19.5861 13.681C20.2508 14.0118 20.6547 14.4613 20.8206 15.0546C21.0832 15.9939 20.686 17.0102 20.5117 17.2741C20.1811 17.7745 20.3335 18.4386 20.852 18.7575C21.0375 18.8717 21.2446 18.9259 21.4494 18.9259C21.8171 18.9259 22.1769 18.7505 22.3891 18.4291C22.864 17.7106 23.4106 16.0696 22.9703 14.495Z" fill="white"/>
<path d="M17.5095 0C16.8947 0 16.3962 0.481141 16.3962 1.07421V4.13659C16.3962 4.72966 16.8947 5.2108 17.5095 5.2108C18.1243 5.2108 18.6228 4.72966 18.6228 4.13659V1.07421C18.6228 0.481141 18.1243 0 17.5095 0Z" fill="white"/>
<path d="M5.15703 14.9817H1.9833C1.36844 14.9817 0.870026 15.4628 0.870026 16.0559C0.870026 16.6492 1.36844 17.1301 1.9833 17.1301H5.15714C5.7719 17.1301 6.27031 16.6492 6.27031 16.0559C6.27031 15.4628 5.77178 14.9817 5.15703 14.9817Z" fill="white"/>
<path d="M12.2969 5.19523L10.7105 2.54428C10.403 2.03048 9.72203 1.85463 9.18966 2.15112C8.65729 2.44782 8.47483 3.1047 8.78231 3.61849L10.3687 6.26944C10.575 6.61416 10.9491 6.80676 11.3338 6.80676C11.5228 6.80676 11.7142 6.76036 11.8895 6.6626C12.4219 6.36591 12.6044 5.70902 12.2969 5.19523Z" fill="white"/>
<path d="M7.36743 9.16596L4.61976 7.6352C4.08739 7.33872 3.4064 7.51478 3.09902 8.02836C2.79153 8.54216 2.974 9.19904 3.50648 9.49574L6.25416 11.0265C6.42939 11.1242 6.62087 11.1707 6.80968 11.1707C7.19443 11.1707 7.5686 10.978 7.77489 10.6333C8.08238 10.1197 7.89992 9.46265 7.36743 9.16596Z" fill="white"/>
<path d="M31.9204 8.02802C31.6128 7.51422 30.9321 7.33816 30.3997 7.63486L27.652 9.16561C27.1195 9.46231 26.9371 10.1194 27.2446 10.633C27.4507 10.9777 27.8249 11.1703 28.2097 11.1703C28.3985 11.1703 28.59 11.1239 28.7653 11.0262L31.513 9.49539C32.0455 9.1987 32.2279 8.54182 31.9204 8.02802Z" fill="white"/>
<path d="M7.77546 21.4787C7.46819 20.9649 6.78753 20.789 6.25494 21.0853L3.5066 22.6161C2.97412 22.9125 2.79154 23.5696 3.09891 24.0834C3.30509 24.4281 3.67938 24.6208 4.06413 24.6208C4.25294 24.6208 4.44431 24.5743 4.61965 24.4768L7.36789 22.946C7.90037 22.6496 8.08294 21.9925 7.77546 21.4787Z" fill="white"/>
<path d="M11.6605 25.8315C11.1282 25.535 10.4472 25.7111 10.1397 26.2247L8.7822 28.4937C8.47482 29.0075 8.65729 29.6646 9.18977 29.9611C9.36511 30.0589 9.55648 30.1053 9.7453 30.1053C10.13 30.1053 10.5043 29.9127 10.7105 29.5679L12.068 27.2989C12.3755 26.7851 12.1931 26.1282 11.6605 25.8315Z" fill="white"/>
<path d="M25.8297 2.15121C25.2971 1.85452 24.6164 2.03058 24.3089 2.54438L22.7225 5.19532C22.415 5.70912 22.5974 6.36611 23.1299 6.6627C23.3052 6.76045 23.4967 6.80686 23.6855 6.80686C24.0703 6.80686 24.4444 6.61425 24.6507 6.26954L26.2371 3.61859C26.5446 3.10479 26.3622 2.44791 25.8297 2.15121Z" fill="white"/>
</svg>
