<svg width="59" height="51" viewBox="0 0 59 51" fill="none" xmlns="http://www.w3.org/2000/svg">
<g clip-path="url(#clip0_108:210)">
<path d="M50.3105 0.391602H47.8354C46.7474 0.391602 46.7474 1.85041 47.8354 1.85041H50.3105C52.8665 1.85041 54.9461 3.6424 54.9461 5.845V22.7255C54.9461 24.9282 52.8666 26.7202 50.3105 26.7202H47.5033C47.3181 26.7202 47.138 26.7729 46.9908 26.8702L41.8398 30.2778V27.4496C41.8398 27.0468 41.4623 26.7202 40.9964 26.7202H30.7316C29.891 26.7202 29.0832 26.5283 28.3707 26.1635V17.9755C28.3707 16.4418 27.4674 15.0868 26.0959 14.2851V5.845C26.0959 3.6424 28.1755 1.85041 30.7316 1.85041H42.55C43.6379 1.85041 43.6379 0.391602 42.55 0.391602H30.7316C27.2454 0.391602 24.409 2.83802 24.409 5.845V13.6441C24.0229 13.5643 23.6205 13.5208 23.2065 13.5208H7.76706C4.91962 13.5208 2.60297 15.5192 2.60297 17.9755V19.5506C2.60297 20.4914 4.28977 20.4914 4.28977 19.5506V17.9755C4.28977 16.3236 5.84961 14.9796 7.76706 14.9796H23.2066C25.124 14.9796 26.684 16.3236 26.684 17.9755V26.4539C26.6739 26.5183 26.6743 26.5832 26.684 26.647V31.2872C26.684 31.3789 26.6776 31.4702 26.668 31.5611H24.9287C23.0122 31.5611 21.4144 32.7574 21.0831 34.3297C21.0064 34.3547 20.9328 34.3896 20.8645 34.4351L17.0923 36.9541V35.0125C17.0923 34.6097 16.7148 34.2831 16.2489 34.2831H7.76706C5.84961 34.2831 4.28977 32.9392 4.28977 31.2872V23.927C4.28977 22.9861 2.60297 22.9861 2.60297 23.927V31.2873C2.60297 33.7436 4.91962 35.742 7.76706 35.742H15.4056V38.4389C15.4056 39.0239 16.227 39.3749 16.7645 39.0162L21.0191 36.1752V44.3809C21.0191 46.2409 22.7731 47.754 24.9288 47.754H30.1045V49.456C30.1045 50.0409 30.926 50.3923 31.4633 50.0334L34.8769 47.754H35.8854C38.0411 47.754 39.795 46.2408 39.795 44.3809V43.0859C39.795 42.1451 38.1082 42.1451 38.1082 43.0859V44.3809C38.1082 45.4365 37.1111 46.2952 35.8854 46.2952H34.5891C34.4026 46.2952 34.2213 46.3487 34.0738 46.4472L31.7912 47.9713V47.0245C31.7912 46.6217 31.4137 46.2951 30.9478 46.2951H24.9287C23.7031 46.2951 22.7058 45.4363 22.7058 44.3808V34.9342C22.7058 33.8786 23.703 33.02 24.9287 33.02H35.8854C37.111 33.02 38.1082 33.8787 38.1082 34.9342V38.515C38.1082 39.4558 39.795 39.4558 39.795 38.515V34.9343C39.795 33.0743 38.0411 31.5613 35.8854 31.5613H28.3611C28.3675 31.4701 28.3708 27.7861 28.3708 27.7861C29.1144 28.0447 29.9117 28.1791 30.7317 28.1791H40.1531V31.7541C40.1531 32.3377 40.9711 32.6891 41.509 32.3335L47.789 28.1791H50.3106C53.7967 28.1791 56.633 25.7327 56.633 22.7256V5.845C56.6329 2.83802 53.7966 0.391602 50.3105 0.391602V0.391602Z" fill="white"/>
<path d="M42.6285 5.78068C41.5576 5.54426 40.4663 6.27599 40.4663 7.23297C40.4663 8.27854 40.0257 9.28619 39.2263 10.0698L36.9025 12.3438C36.7521 12.1442 36.4921 12.012 36.196 12.012H31.6596C31.1937 12.012 30.8162 12.3386 30.8162 12.7414V21.5686C30.8162 21.9715 31.1937 22.298 31.6596 22.298H36.196C36.5368 22.298 36.8297 22.1229 36.9627 21.8714C37.8811 22.3567 38.9454 22.6191 40.0282 22.6191H48.0452C49.2703 22.6191 50.2809 21.6997 50.2234 20.643C50.1979 20.175 50.2258 13.8911 50.2258 13.7516C50.2258 12.7117 49.2476 11.8656 48.0477 11.8656L43.8787 11.8548L44.0513 11.5013C44.8402 9.88566 44.7103 8.01217 43.7043 6.48947C43.4695 6.13371 43.0873 5.88212 42.6285 5.78068C43.0873 5.88212 42.1694 5.67934 42.6285 5.78068C43.0873 5.88212 41.5577 5.54426 42.6285 5.78068ZM35.3526 20.8392H32.503V13.4708H35.3526V20.8392ZM48.0452 13.3244C48.3176 13.3244 48.5391 13.5159 48.5391 13.7515C48.5391 13.8903 48.5374 14.2669 48.5352 14.7776C48.5227 17.5972 48.5144 20.2676 48.5384 20.7114C48.5472 20.8716 48.4571 20.9784 48.4027 21.0278C48.3085 21.1132 48.1815 21.1602 48.0452 21.1602H40.0282C39.0726 21.1602 38.1373 20.8738 37.3944 20.3537L37.0394 20.1052V14.4128L40.4907 11.0353C41.5627 9.98457 42.1531 8.6342 42.1531 7.23287C42.1531 7.19164 42.2182 7.18094 42.2398 7.21303C42.9867 8.34341 43.083 9.73423 42.4974 10.9337L41.8318 12.2971C41.722 12.522 41.7496 12.7794 41.9051 12.9831C42.0609 13.1867 42.324 13.3095 42.6062 13.3102L48.0452 13.3244Z" fill="white"/>
<path d="M9.82472 25.7261C9.35883 25.7261 8.98132 26.0527 8.98132 26.4555C8.98132 26.8583 9.35883 27.1849 9.82472 27.1849H12.3108L11.8464 29.6142C11.7704 30.0116 12.0814 30.3871 12.5409 30.4528C12.5876 30.4595 12.6338 30.4628 12.6795 30.4628C13.0848 30.4628 13.4422 30.2094 13.5106 29.8522L14.0205 27.185H16.0551L15.5907 29.6143C15.5146 30.0117 15.8257 30.3872 16.2852 30.4529C16.3318 30.4596 16.3781 30.4629 16.4237 30.4629C16.829 30.4629 17.1865 30.2095 17.2549 29.8523L17.7647 27.1851H21.1488C21.6147 27.1851 21.9922 26.8585 21.9922 26.4557C21.9922 26.0529 21.6147 25.7263 21.1488 25.7263H18.0436L18.3838 23.947H21.1488C21.6147 23.947 21.9922 23.6204 21.9922 23.2176C21.9922 22.8147 21.6147 22.4882 21.1488 22.4882H18.6627L19.1271 20.0589C19.2031 19.6615 18.8921 19.286 18.4326 19.2202C17.9725 19.1543 17.5389 19.4235 17.4629 19.8209L16.953 22.4881H14.9184L15.3828 20.0588C15.4589 19.6614 15.1478 19.2859 14.6883 19.2201C14.2277 19.1542 13.7948 19.4234 13.7187 19.8208L13.2088 22.488H9.82472C9.35883 22.488 8.98132 22.8145 8.98132 23.2174C8.98132 23.6202 9.35883 23.9468 9.82472 23.9468H12.9299L12.5897 25.7261H9.82472ZM14.6396 23.9468H16.6743L16.3341 25.7261H14.2995L14.6396 23.9468Z" fill="white"/>
<path d="M30.3969 36.7835C29.7159 36.2986 28.8098 36.1073 27.901 36.2984C26.7363 36.543 25.561 37.4846 25.561 39.0367C25.561 40.0027 25.9687 40.8412 26.8072 41.6002C27.4922 42.2202 28.4807 42.8097 30.0121 43.5119C30.1356 43.5686 30.2714 43.5969 30.4071 43.5969C30.5428 43.5969 30.6786 43.5686 30.8022 43.5119C33.4738 42.287 35.2531 41.0572 35.2531 39.0367C35.2531 37.4762 34.0361 36.5442 32.8299 36.3128C31.9238 36.1389 31.0453 36.3235 30.3969 36.7835ZM33.5662 39.0367C33.5662 40.1265 32.7303 40.9325 30.407 42.0385C28.0837 40.9324 27.2477 40.1264 27.2477 39.0367C27.2477 38.2258 27.7907 37.8228 28.2988 37.716C28.3925 37.6963 28.4928 37.6853 28.5959 37.6853C28.9782 37.6853 29.3984 37.8379 29.6575 38.2724C29.8051 38.5196 30.1036 38.6729 30.4238 38.6671C30.7453 38.6616 31.0353 38.4984 31.1712 38.2463C31.4442 37.7404 32.0181 37.6514 32.4643 37.7371C32.9971 37.8391 33.5662 38.2343 33.5662 39.0367Z" fill="white"/>
</g>
<defs>
<clipPath id="clip0_108:210">
<rect width="57.5679" height="49.7866" fill="white" transform="translate(0.833984 0.391602)"/>
</clipPath>
</defs>
</svg>
