<svg width="55" height="49" viewBox="0 0 55 49" fill="none" xmlns="http://www.w3.org/2000/svg">
<path d="M18.8966 22.9687C22.6875 22.9687 25.7716 20.7362 25.7716 17.9921C25.7716 17.7891 25.681 17.5943 25.5199 17.4508C25.3587 17.3072 25.1401 17.2265 24.9122 17.2265C24.6843 17.2265 24.4657 17.3072 24.3045 17.4508C24.1434 17.5943 24.0528 17.7891 24.0528 17.9921C24.0528 19.6962 22.1913 21.1145 19.756 21.3886V18.9587C19.8469 18.9184 19.9341 18.8717 20.0168 18.8191L21.4752 17.8918C21.7429 17.7188 21.9604 17.4914 22.1097 17.2286C22.2591 16.9657 22.3359 16.6749 22.334 16.3803C22.334 15.3695 21.4462 14.5471 20.355 14.5471H17.438C16.3468 14.5471 15.4591 15.3695 15.4591 16.3803C15.4571 16.6749 15.534 16.9657 15.6833 17.2286C15.8327 17.4914 16.0502 17.7188 16.3178 17.8918L17.7763 18.8191C17.859 18.8717 17.9462 18.9184 18.0372 18.9587V21.3886C15.6018 21.1145 13.7403 19.6962 13.7403 17.9921C13.7403 17.7891 13.6498 17.5943 13.4886 17.4508C13.3275 17.3072 13.1089 17.2265 12.881 17.2265C12.653 17.2265 12.4344 17.3072 12.2733 17.4508C12.1121 17.5943 12.0216 17.7891 12.0216 17.9921C12.0216 20.7362 15.1057 22.9687 18.8966 22.9687ZM17.3164 16.6452C17.2718 16.6137 17.236 16.5733 17.212 16.5272C17.188 16.4812 17.1763 16.4308 17.178 16.38C17.178 16.2164 17.2973 16.0781 17.4382 16.0781H20.3554C20.4964 16.0781 20.6155 16.2164 20.6155 16.38C20.6172 16.4308 20.6056 16.4812 20.5815 16.5272C20.5575 16.5733 20.5217 16.6137 20.4771 16.6452L19.0186 17.5724C18.9837 17.5964 18.9408 17.6094 18.8967 17.6094C18.8526 17.6094 18.8098 17.5964 18.7749 17.5724L17.3164 16.6452Z" fill="white"/>
<path d="M24.0528 14.5469C24.5274 14.5469 24.9122 14.2041 24.9122 13.7812C24.9122 13.3584 24.5274 13.0156 24.0528 13.0156C23.5782 13.0156 23.1935 13.3584 23.1935 13.7812C23.1935 14.2041 23.5782 14.5469 24.0528 14.5469Z" fill="white"/>
<path d="M13.7403 14.5469C14.2149 14.5469 14.5997 14.2041 14.5997 13.7812C14.5997 13.3584 14.2149 13.0156 13.7403 13.0156C13.2657 13.0156 12.881 13.3584 12.881 13.7812C12.881 14.2041 13.2657 14.5469 13.7403 14.5469Z" fill="white"/>
<path d="M41.25 29.8594C41.9299 29.8594 42.5945 29.6798 43.1598 29.3433C43.7251 29.0068 44.1657 28.5285 44.4259 27.9689C44.686 27.4093 44.7541 26.7935 44.6215 26.1994C44.4888 25.6054 44.1614 25.0597 43.6807 24.6314C43.1999 24.2031 42.5874 23.9114 41.9206 23.7932C41.2538 23.6751 40.5627 23.7357 39.9345 23.9675C39.3064 24.1993 38.7695 24.5918 38.3918 25.0954C38.0141 25.5991 37.8125 26.1912 37.8125 26.7969C37.8135 27.6088 38.176 28.3873 38.8205 28.9614C39.4649 29.5355 40.3386 29.8585 41.25 29.8594ZM41.25 25.2656C41.5899 25.2656 41.9223 25.3554 42.2049 25.5237C42.4875 25.6919 42.7078 25.9311 42.8379 26.2109C42.968 26.4907 43.0021 26.7986 42.9357 27.0956C42.8694 27.3927 42.7057 27.6655 42.4654 27.8796C42.225 28.0938 41.9187 28.2396 41.5853 28.2987C41.2519 28.3578 40.9063 28.3275 40.5923 28.2116C40.2782 28.0957 40.0098 27.8994 39.8209 27.6476C39.6321 27.3958 39.5313 27.0997 39.5313 26.7969C39.5318 26.3909 39.713 26.0017 40.0353 25.7147C40.3575 25.4276 40.7943 25.2661 41.25 25.2656Z" fill="white"/>
<path d="M53.2812 31.3906H48.125V21.4375C48.1251 21.2804 48.0707 21.1271 47.9692 20.9987L41.9536 13.3424C41.8744 13.2416 41.769 13.1592 41.6464 13.1024C41.5239 13.0455 41.3877 13.0158 41.2496 13.0158C41.1114 13.0158 40.9752 13.0455 40.8527 13.1024C40.7301 13.1592 40.6248 13.2416 40.5455 13.3424L34.5299 20.9987C34.4287 21.1272 34.3746 21.2805 34.375 21.4375V26.2287C33.1982 24.8192 31.6281 23.6497 29.6895 22.7476C31.6035 20.7432 32.6466 18.1387 32.6466 15.3125C32.6511 14.0637 32.4385 12.8218 32.0163 11.631C32.8534 11.2373 33.5743 10.6733 34.1206 9.98472C34.6669 9.29613 35.0231 8.5024 35.1603 7.66807C35.2975 6.83374 35.2117 5.98235 34.9101 5.18309C34.6084 4.38384 34.0993 3.65929 33.4241 3.06833C32.7489 2.47737 31.9268 2.03669 31.0245 1.78209C30.1221 1.5275 29.1651 1.46619 28.2312 1.60314C27.2973 1.74008 26.4128 2.07143 25.6497 2.57024C24.8866 3.06905 24.2663 3.72125 23.8394 4.47382C22.2386 4.03439 20.5716 3.81662 18.8966 3.82811C17.2217 3.81662 15.5547 4.03443 13.9541 4.47391C13.5272 3.72134 12.9069 3.06913 12.1438 2.57032C11.3807 2.0715 10.4962 1.74014 9.5623 1.60318C8.62838 1.46622 7.67137 1.52753 6.76905 1.78211C5.86673 2.03669 5.04457 2.47737 4.3694 3.06832C3.69423 3.65927 3.1851 4.38381 2.88341 5.18306C2.58171 5.98231 2.49595 6.8337 2.63311 7.66804C2.77027 8.50237 3.12647 9.29609 3.67276 9.98469C4.21905 10.6733 4.94001 11.2373 5.77704 11.631C5.35482 12.8218 5.14214 14.0637 5.14658 15.3125C5.14658 18.1387 6.19007 20.7433 8.1038 22.7476C3.91993 24.6944 1.45309 27.8873 0.947029 32.0441C0.945954 32.0536 0.94488 32.0632 0.944128 32.0728L0.861521 33.1238C0.858782 33.1583 0.858782 33.193 0.861521 33.2275C0.930234 34.1237 1.29175 34.9824 1.90153 35.6978C2.5113 36.4132 3.34268 36.954 4.29322 37.2536C3.72622 38.2888 3.43347 39.4262 3.4375 40.5781C3.4375 44.3775 6.52158 47.4687 10.3125 47.4687C12.3535 47.4687 14.1886 46.5718 15.4489 45.1516C16.5093 45.6672 17.6981 45.9375 18.9062 45.9375C20.1144 45.9375 21.3032 45.6672 22.3636 45.1516C23.6239 46.5718 25.459 47.4687 27.5 47.4687C30.1937 47.4687 32.5292 45.9072 33.6562 43.6406H53.2812C53.5092 43.6406 53.7277 43.5599 53.8889 43.4164C54.0501 43.2728 54.1406 43.078 54.1406 42.875V32.1562C54.1406 31.9532 54.0501 31.7584 53.8889 31.6149C53.7277 31.4713 53.5092 31.3906 53.2812 31.3906ZM41.25 15.1163L45.6151 20.6719H36.8849L41.25 15.1163ZM36.0937 22.2031H46.4062V31.3906H36.7472C36.6117 30.6082 36.3929 29.8391 36.0937 29.0937V22.2031ZM33.5164 37.2482C34.3262 36.9892 35.0509 36.5549 35.6255 35.9844H36.9531V39.0469H34.2017C34.0611 38.4235 33.8308 37.819 33.5164 37.2482ZM35.1355 32.1951L35.2129 33.1763C35.151 33.8244 34.8597 34.4382 34.3809 34.9291C33.902 35.4201 33.2605 35.7628 32.5488 35.9078C31.4715 34.7388 29.9965 33.9447 28.3412 33.7413C28.1847 30.6272 27.0065 27.7538 25.0815 25.7421C26.2952 25.2853 27.4206 24.6612 28.4166 23.8927C32.3531 25.5727 34.6726 28.4326 35.1355 32.1945V32.1951ZM29.2091 3.06248C30.1533 3.06221 31.0713 3.33904 31.8213 3.85018C32.5712 4.36131 33.1113 5.0783 33.358 5.89029C33.6048 6.70229 33.5444 7.56408 33.1863 8.34246C32.8282 9.12084 32.1923 9.77245 31.3768 10.1966C30.777 9.07663 29.9627 8.05832 28.9706 7.18729C27.9469 6.29271 26.7571 5.5627 25.4539 5.02957C25.827 4.43387 26.3717 3.93758 27.0317 3.59182C27.6918 3.24606 28.4434 3.06334 29.2091 3.06248ZM4.2872 6.89061C4.28695 6.0425 4.60283 5.21833 5.18525 4.54747C5.76767 3.87662 6.58366 3.39707 7.50512 3.1841C8.42658 2.97114 9.40133 3.03682 10.2763 3.37084C11.1514 3.70486 11.8771 4.2883 12.3397 5.02957C11.0365 5.56265 9.84669 6.29267 8.82298 7.18729C7.83084 8.05825 7.01659 9.07654 6.41674 10.1965C5.76924 9.85851 5.23212 9.37567 4.85859 8.7958C4.48506 8.21594 4.28809 7.55918 4.2872 6.89061ZM10.0281 8.27907C12.2084 6.36903 15.2754 5.35936 18.8966 5.35936C22.5178 5.35936 25.5848 6.36903 27.7651 8.27917C29.8046 10.0659 30.9278 12.5637 30.9278 15.3125C30.9278 18.0613 29.8046 20.559 27.7651 22.3458C25.5848 24.2559 22.5181 25.2656 18.8966 25.2656C15.2751 25.2656 12.2084 24.2559 10.0281 22.3459C7.98853 20.559 6.86533 18.0613 6.86533 15.3125C6.86533 12.5637 7.98853 10.0659 10.0281 8.27907ZM2.58038 33.1761L2.65751 32.1948C3.1206 28.4325 5.43973 25.5726 9.37642 23.8925C10.3768 24.6642 11.5077 25.2904 12.7274 25.7478C10.8081 27.76 9.62865 30.6418 9.47128 33.7409C7.81451 33.9445 6.33789 34.7402 5.26055 35.9107C4.54539 35.7682 3.89988 35.4262 3.41787 34.9344C2.93586 34.4426 2.64248 33.8267 2.58038 33.1761ZM10.3125 45.9375C7.46925 45.9375 5.15625 43.5333 5.15625 40.5781C5.15625 37.6229 7.46925 35.2187 10.3125 35.2187C13.1557 35.2187 15.4687 37.6229 15.4687 40.5781C15.4687 43.5333 13.1557 45.9375 10.3125 45.9375ZM18.9062 44.4062C18.0205 44.4036 17.1483 44.2123 16.3625 43.8483C16.9096 42.8272 17.1916 41.7095 17.1875 40.5781C17.1875 37.0775 14.5689 34.1803 11.1921 33.7459C11.3573 30.7599 12.5614 28.0305 14.4949 26.2929C15.9303 26.6352 17.4107 26.8047 18.8966 26.7969C20.3875 26.8049 21.8729 26.6343 23.3128 26.2896C25.2524 28.0267 26.4565 30.7454 26.6207 33.7461C23.2438 34.1801 20.625 37.0773 20.625 40.5781C20.6209 41.7095 20.9029 42.8272 21.45 43.8483C20.6642 44.2123 19.792 44.4036 18.9062 44.4062ZM27.5 45.9375C24.6568 45.9375 22.3437 43.5333 22.3437 40.5781C22.3437 37.6229 24.6568 35.2187 27.5 35.2187C30.3432 35.2187 32.6562 37.6229 32.6562 40.5781C32.6562 43.5333 30.3432 45.9375 27.5 45.9375ZM34.375 40.5781H37.8125C38.0404 40.5781 38.259 40.4974 38.4202 40.3539C38.5813 40.2103 38.6719 40.0155 38.6719 39.8125V35.2187C38.6719 35.0157 38.5813 34.8209 38.4202 34.6774C38.259 34.5338 38.0404 34.4531 37.8125 34.4531H36.6477C36.8053 34.0582 36.9009 33.6458 36.932 33.2275C36.9346 33.193 36.9346 33.1583 36.932 33.1238L36.9161 32.9219H40.3906V42.1094H34.2017C34.3167 41.6054 34.3748 41.0924 34.375 40.5781ZM52.4219 42.1094H42.1094V32.9219H52.4219V42.1094Z" fill="white"/>
<path d="M44.6875 40.5781H49.8437C49.9902 40.5781 50.1343 40.5447 50.2622 40.4811C50.3902 40.4176 50.4978 40.326 50.5748 40.2149C50.6518 40.1039 50.6956 39.9772 50.7022 39.8468C50.7088 39.7165 50.6779 39.5867 50.6124 39.47L48.0342 34.8763C47.9628 34.7491 47.8531 34.6422 47.7174 34.5674C47.5816 34.4927 47.4252 34.4531 47.2656 34.4531C47.106 34.4531 46.9496 34.4927 46.8139 34.5674C46.6781 34.6422 46.5684 34.7491 46.497 34.8763L43.9189 39.47C43.8534 39.5867 43.8224 39.7165 43.829 39.8468C43.8356 39.9772 43.8795 40.1039 43.9565 40.2149C44.0335 40.326 44.1411 40.4176 44.269 40.4811C44.397 40.5447 44.541 40.5781 44.6875 40.5781ZM47.2656 36.9307L48.4533 39.0468H46.078L47.2656 36.9307Z" fill="white"/>
</svg>
