<svg width="53" height="51" viewBox="0 0 53 51" fill="none" xmlns="http://www.w3.org/2000/svg">
<path d="M42.9427 26.2471H45.2509C45.6121 27.9668 47.1946 29.2657 49.0867 29.2657C51.2445 29.2657 53 27.5765 53 25.5C53 23.4235 51.2445 21.7343 49.0866 21.7343C47.1945 21.7343 45.612 23.0332 45.2508 24.7529H42.9426C42.7581 20.9476 41.1722 17.4887 38.6705 14.8452L42.8281 10.8446C43.6465 11.418 44.6528 11.7576 45.7404 11.7576C48.4749 11.7576 50.6995 9.61689 50.6995 6.98561C50.6995 4.35432 48.4749 2.21372 45.7404 2.21372C43.006 2.21372 40.7814 4.35442 40.7814 6.98561C40.7814 8.0322 41.1342 9.0005 41.7303 9.78802L37.5727 13.7886C34.8255 11.3815 31.231 9.85535 27.2764 9.67785V7.45676C29.0636 7.10922 30.4134 5.58639 30.4134 3.76573C30.4134 1.68928 28.6579 0 26.5 0C24.3421 0 22.5866 1.68928 22.5866 3.76573C22.5866 5.58639 23.9364 7.10922 25.7236 7.45676V9.67775C21.769 9.85535 18.1745 11.3814 15.4273 13.7885L11.2701 9.78821C11.8661 9.0006 12.219 8.0322 12.219 6.98561C12.219 5.39664 11.4011 3.91694 10.0312 3.02743C9.6755 2.79673 9.19302 2.88678 8.95338 3.22884C8.71353 3.5709 8.80721 4.03518 9.16258 4.26597C10.1042 4.87727 10.6661 5.89399 10.6661 6.98561C10.6661 8.79312 9.13784 10.2638 7.25945 10.2638C5.38105 10.2638 3.85285 8.79312 3.85285 6.98561C3.85285 5.52593 4.87093 4.22852 6.32863 3.83058C6.74114 3.71792 6.98068 3.30484 6.8636 2.9079C6.74653 2.51095 6.31704 2.28076 5.90484 2.39312C3.78236 2.97264 2.30012 4.86114 2.30012 6.98561C2.30012 9.61709 4.52487 11.7579 7.25955 11.7579C8.34729 11.7579 9.35367 11.4183 10.1721 10.8448L14.3294 14.8451C11.8277 17.4886 10.2418 20.9475 10.0573 24.7528H7.74918C7.38801 23.0331 5.80547 21.7342 3.91341 21.7342C1.75552 21.7343 0 23.4235 0 25.5C0 27.5765 1.75552 29.2657 3.91341 29.2657C5.80547 29.2657 7.38801 27.9668 7.74918 26.2471H10.0574C10.2419 30.0524 11.8278 33.5113 14.3295 36.1548L10.1719 40.1554C9.35347 39.582 8.34719 39.2424 7.25955 39.2424C4.52508 39.2424 2.30053 41.3831 2.30053 44.0144C2.30053 46.6457 4.52508 48.7863 7.25955 48.7863C9.99402 48.7863 12.2186 46.6456 12.2186 44.0144C12.2186 42.9678 11.8658 41.9995 11.2697 41.212L15.4273 37.2114C18.1745 39.6185 21.769 41.1446 25.7236 41.3222V43.5431C23.9364 43.8907 22.5866 45.4135 22.5866 47.2342C22.5866 49.3107 24.3421 51 26.5 51C28.6579 51 30.4134 49.3107 30.4134 47.2343C30.4134 45.4136 29.0636 43.8908 27.2764 43.5432V41.3223C31.231 41.1446 34.8255 39.6186 37.5727 37.2115L41.7299 41.2118C41.1339 41.9994 40.781 42.9678 40.781 44.0144C40.781 46.6458 43.0058 48.7867 45.7404 48.7867C48.4751 48.7867 50.6999 46.6459 50.6999 44.0144C50.6999 43.4978 50.6144 42.9891 50.4458 42.5021C50.31 42.1108 49.8702 41.8992 49.4638 42.0296C49.057 42.1601 48.8371 42.5831 48.9727 42.9746C49.0885 43.3088 49.1473 43.6587 49.1473 44.0143C49.1473 45.8218 47.6189 47.2924 45.7406 47.2924C43.8622 47.2924 42.3339 45.8219 42.3339 44.0143C42.3339 42.2067 43.8622 40.7362 45.7406 40.7362C46.1705 40.7362 46.5897 40.8123 46.9866 40.9624C47.3852 41.1133 47.8362 40.9243 47.9932 40.5403C48.15 40.1563 47.9536 39.7227 47.5546 39.5717C46.976 39.353 46.3658 39.242 45.7407 39.242C44.6529 39.242 43.6465 39.5816 42.8281 40.1551L38.6709 36.1548C41.1722 33.5113 42.7582 30.0524 42.9427 26.2471ZM49.0866 23.2284C50.3883 23.2284 51.4473 24.2474 51.4473 25.5C51.4473 26.7526 50.3883 27.7716 49.0866 27.7716C47.7849 27.7716 46.7259 26.7526 46.7259 25.5C46.7259 24.2474 47.785 23.2284 49.0866 23.2284ZM45.7404 3.70786C47.6187 3.70786 49.1467 5.17829 49.1467 6.98561C49.1467 8.79302 47.6186 10.2635 45.7404 10.2635C43.8623 10.2635 42.3342 8.79302 42.3342 6.98561C42.3342 5.17819 43.8623 3.70786 45.7404 3.70786ZM24.1393 3.76573C24.1393 2.51314 25.1984 1.49414 26.5 1.49414C27.8016 1.49414 28.8607 2.51314 28.8607 3.76573C28.8607 5.01832 27.8016 6.03732 26.5 6.03732C25.1984 6.03732 24.1393 5.01822 24.1393 3.76573ZM3.91341 27.7716C2.6117 27.7716 1.55273 26.7526 1.55273 25.5C1.55273 24.2474 2.6117 23.2284 3.91341 23.2284C5.21512 23.2284 6.27398 24.2474 6.27398 25.5C6.27398 26.7526 5.21501 27.7716 3.91341 27.7716ZM26.5 11.1539C34.7207 11.1539 41.4087 17.5895 41.4087 25.5C41.4087 33.4105 34.7207 39.8461 26.5 39.8461C18.2793 39.8461 11.5913 33.4106 11.5913 25.5C11.5913 17.5894 18.2793 11.1539 26.5 11.1539ZM7.25955 47.2921C5.38126 47.2921 3.85327 45.8217 3.85327 44.0144C3.85327 42.207 5.38136 40.7365 7.25955 40.7365C9.13774 40.7365 10.6658 42.207 10.6658 44.0144C10.6658 45.8218 9.13774 47.2921 7.25955 47.2921ZM28.8607 47.2343C28.8607 48.4869 27.8016 49.5059 26.5 49.5059C25.1984 49.5059 24.1393 48.4869 24.1393 47.2343C24.1393 45.9817 25.1984 44.9627 26.5 44.9627C27.8016 44.9627 28.8607 45.9818 28.8607 47.2343Z" fill="white"/>
<path d="M17.7167 34.699H22.1011C22.1035 34.699 22.1058 34.6993 22.1082 34.6993C22.1105 34.6993 22.1128 34.699 22.1152 34.699H24.6885C25.1174 34.699 25.4649 34.3646 25.4649 33.952C25.4649 33.5394 25.1174 33.2049 24.6885 33.2049H22.8845V31.9399C22.8845 31.5273 22.537 31.1928 22.1082 31.1928C21.6793 31.1928 21.3318 31.5273 21.3318 31.9399V33.2049H18.4931V29.5253C18.4931 27.7178 20.0209 26.2472 21.8986 26.2472H31.1012C32.9791 26.2472 34.5067 27.7178 34.5067 29.5253V33.2049H31.668V31.9399C31.668 31.5273 31.3205 31.1928 30.8917 31.1928C30.4628 31.1928 30.1153 31.5273 30.1153 31.9399V33.2049H28.3115C27.8827 33.2049 27.5352 33.5394 27.5352 33.952C27.5352 34.3646 27.8827 34.699 28.3115 34.699H30.8848C30.8872 34.699 30.8895 34.6993 30.8919 34.6993C30.8943 34.6993 30.8965 34.699 30.8989 34.699H35.2833C35.7122 34.699 36.0597 34.3646 36.0597 33.952V29.5253C36.0597 26.8939 33.8354 24.7531 31.1014 24.7531H30.525C31.7401 23.695 32.5049 22.1664 32.5049 20.4691C32.5049 17.283 29.8112 14.6909 26.5001 14.6909C23.1891 14.6909 20.4954 17.283 20.4954 20.4691C20.4954 22.1664 21.2602 23.695 22.4752 24.7531H21.8988C19.1648 24.7531 16.9406 26.8939 16.9406 29.5253V33.952C16.9403 34.3646 17.288 34.699 17.7167 34.699ZM22.048 20.4691C22.048 18.1069 24.0451 16.1851 26.5 16.1851C28.9549 16.1851 30.952 18.1068 30.952 20.4691C30.952 22.8313 28.9549 24.7531 26.5 24.7531C24.0451 24.7531 22.048 22.8313 22.048 20.4691Z" fill="white"/>
</svg>
