<svg id="Layer_1" data-name="Layer 1" xmlns="http://www.w3.org/2000/svg" xmlns:xlink="http://www.w3.org/1999/xlink" viewBox="0 0 1000 1000"><defs><style>.cls-1{fill:#3a3a3a;}.cls-2{fill:url(#linear-gradient);}.cls-3{fill:url(#linear-gradient-2);}.cls-4{fill:url(#linear-gradient-3);}.cls-5{fill:url(#linear-gradient-4);}.cls-6{fill:url(#linear-gradient-5);}.cls-7{fill:url(#linear-gradient-6);}.cls-8{fill:url(#linear-gradient-7);}.cls-9{fill:url(#linear-gradient-8);}.cls-10{fill:url(#linear-gradient-9);}.cls-11{fill:url(#linear-gradient-10);}.cls-12{fill:url(#linear-gradient-11);}.cls-13{fill:url(#linear-gradient-12);}.cls-14{fill:url(#linear-gradient-13);}.cls-15{fill:url(#linear-gradient-14);}</style><linearGradient id="linear-gradient" x1="-8091.54" y1="-1770.22" x2="1101.11" y2="719.45" gradientUnits="userSpaceOnUse"><stop offset="0" stop-color="#fcb913"/><stop offset="0.23" stop-color="#fcc909"/><stop offset="0.4" stop-color="#fcd700"/><stop offset="0.54" stop-color="#fdde00"/><stop offset="0.97" stop-color="#fcda00"/><stop offset="1" stop-color="#fcbd12"/></linearGradient><linearGradient id="linear-gradient-2" x1="-3326.81" y1="-605.2" x2="963.1" y2="556.65" xlink:href="#linear-gradient"/><linearGradient id="linear-gradient-3" x1="-725.44" y1="120.99" x2="829.78" y2="542.19" xlink:href="#linear-gradient"/><linearGradient id="linear-gradient-4" x1="101.86" y1="309.92" x2="744.57" y2="483.99" xlink:href="#linear-gradient"/><linearGradient id="linear-gradient-5" x1="-2422.11" y1="-362.99" x2="1080.24" y2="585.56" xlink:href="#linear-gradient"/><linearGradient id="linear-gradient-6" x1="-312.01" y1="379.18" x2="464.57" y2="589.5" xlink:href="#linear-gradient"/><linearGradient id="linear-gradient-7" x1="-316.98" y1="362.76" x2="526.94" y2="591.33" xlink:href="#linear-gradient"/><linearGradient id="linear-gradient-8" x1="-92.91" y1="408.09" x2="568.65" y2="587.27" xlink:href="#linear-gradient"/><linearGradient id="linear-gradient-9" x1="-350.65" y1="322.44" x2="655.7" y2="594.99" xlink:href="#linear-gradient"/><linearGradient id="linear-gradient-10" x1="-55.32" y1="385.99" x2="695.4" y2="589.31" xlink:href="#linear-gradient"/><linearGradient id="linear-gradient-11" x1="100.23" y1="412.8" x2="733.63" y2="584.35" xlink:href="#linear-gradient"/><linearGradient id="linear-gradient-12" x1="482.09" y1="505.64" x2="750.62" y2="578.37" xlink:href="#linear-gradient"/><linearGradient id="linear-gradient-13" x1="64.93" y1="379.18" x2="841.51" y2="589.5" xlink:href="#linear-gradient"/><linearGradient id="linear-gradient-14" x1="223.25" y1="408.09" x2="884.82" y2="587.27" xlink:href="#linear-gradient"/></defs><rect class="cls-1" width="1000" height="1000"/><path class="cls-2" d="M507.13,492c.23-1.44.46-3.36-.92-4.08-3.23-2.4-8.07-1.44-11.76-.72-1.84.48-3.92.72-6,1.2-1.15.24-2.07.48-3.23.72h-1.15a40.49,40.49,0,0,0,5.76-13.43c.69-2.87,1.16-6.95-1.61-8.87-3.92-2.87-9.45-1.2-13.14,1.68a22.59,22.59,0,0,0-4.61,4.8,16.9,16.9,0,0,0-3.22,6.47c-.93,4.08,0,8.39,3.45,10.79a14,14,0,0,0,6,2.16c-1.12,1.74-2.26,3.4-3.48,5-.31-.2-.69-.36-.9-.47-.92-.24-2.77-.24-3.69.72a98.25,98.25,0,0,1-14.75,14.87,43.74,43.74,0,0,1-6.68,4.79,29.6,29.6,0,0,1-6.23,2.88,37.39,37.39,0,0,1-5.07,1h-.46a.79.79,0,0,1-.46-.24h-1.61c-.23,0-.46-.24-.69-.24a3.26,3.26,0,0,1-1.39-.48h-.23a.82.82,0,0,0-.69-.24l-1.38-.72a10.26,10.26,0,0,1-2.07-1.68,17.88,17.88,0,0,1-4.38-5,13.65,13.65,0,0,1-1.85-7.44c1.16,1.2,3.46,1.68,5.3,1.92a10.55,10.55,0,0,0,6-1.92,13.85,13.85,0,0,0,6.45-9.59c.69-3.83-1.61-6.95-5.3-7.91-4.61-1.2-9.68,1-12.91,4.32a21.74,21.74,0,0,0-5.53,13.18,13.84,13.84,0,0,0,.1,2.42,7.91,7.91,0,0,0-1.94-.26c-9.45.24-18.9.48-28.12,1.2-4.61.24-9.22.48-13.83,1-1.61.24-3.22.24-4.61.48a30.44,30.44,0,0,0-6.45-3.84c-7.61-3.59-15.67-5-23.74-6-20.05-2.64-40.56-2.16-60.84-2.16-5.07,0-10.14-.24-15.45-.24a3.76,3.76,0,0,1-1.61-.24h-4.84c-2.3-.24-4.61-.24-7.14-.48a133.23,133.23,0,0,1-13.37-1.44,15.42,15.42,0,0,1-3-.48h-.46a3.76,3.76,0,0,0-1.61-.24l-5.53-1.43c-.92-.24-1.62-.48-2.54-.72-.23,0-.46-.24-.69-.24a3.22,3.22,0,0,1-.92-.48,34.72,34.72,0,0,1-4.38-1.92,1.18,1.18,0,0,0-.92-.48c0-.24,0-.24-.23-.24-.69-.48-1.15-1-1.85-1.44a6.16,6.16,0,0,1-1.38-1.2l-.69-.72a.85.85,0,0,1-.23-.48,9.29,9.29,0,0,1-2.08-3.11,3.51,3.51,0,0,1-.46-1.44c0-.24-.23-.72-.23-1a1.49,1.49,0,0,1-.23-1,28.71,28.71,0,0,1,.23-8.87c0,.24.23-.48.23-.72,0-.48.23-.72.23-1.2a8.76,8.76,0,0,1,.93-2.16,16.3,16.3,0,0,1,2.07-4.55c.92-1.68,1.84-3.12,2.77-4.56a24.91,24.91,0,0,1,3.22-4.07,76.66,76.66,0,0,1,8.76-8.87c3.69-3.12,7.38-6,10.6-8.4a233.27,233.27,0,0,1,27.89-15.82c5.3-2.4,10.14-4.55,15.9-6.71q8.64-3.6,17.29-6.48A329.91,329.91,0,0,1,370,391.3c23.74-2.16,47.48-1.44,70.3,4.8a77.63,77.63,0,0,1,11.29,3.59,5.18,5.18,0,0,0,4.61,0c1.15-.72,1.15-1.92,0-2.4-22.13-8.63-46.33-11-69.84-10.31-26,.48-51.85,4.8-77.2,11.51-23.28,6.24-46.33,14.63-67.53,26.38a176.33,176.33,0,0,0-24.89,17,66.62,66.62,0,0,0-16.14,18.22c-3.22,5.51-5.3,12-4.84,18.46.46,6,4.15,10.79,9,13.91,6.69,4.31,14.29,6.23,21.9,7.67a170.9,170.9,0,0,0,27.19,2.4c10.6.48,21.21.48,31.81.72h15.67c2.53,0,5.07,0,7.61.24h2.53a21.51,21.51,0,0,1,3.92.24c4.84.24,9.45.47,14.06.95l6.68.72c.92.24,1.85.24,3,.48a.7.7,0,0,1,.46.24,3.76,3.76,0,0,1,1.61.24,46.4,46.4,0,0,1,5.53,1.44c.93.24,1.85.48,2.54.72a.82.82,0,0,1,.69.24c.23,0,.92.24,1.15.24,1.39.72,3,1.44,4.38,2.16h.23q-25.57,2.88-50.47,7.91c-29.5,5.75-58.77,13.43-87.12,24.22C198.3,550.74,178,559.85,161,573A56.7,56.7,0,0,0,146.9,587.9c-2.3,4.08-3.92,9.11-2.76,13.67a12.64,12.64,0,0,0,7.6,8.87c4.84,1.91,10.14,2.39,15.44,2.63,15.45.48,31.12-1.91,46.33-4.79a461.84,461.84,0,0,0,56.93-14.63,416.88,416.88,0,0,0,54.85-21.81c13.6-6.72,27.66-14.63,38.49-25.66,7.14-7.43,13.14-17.5,8.76-28a14.52,14.52,0,0,0-2.08-3.6c10.37-1.19,20.74-1.91,31.12-2.63l11.29-.72a6.4,6.4,0,0,0,2.53-.55,20.82,20.82,0,0,0,5.07,8.22c6.92,6.71,17.06,6.95,25.58,3.6,9.45-3.61,17.28-10.75,23.77-18.88l.43.18a3,3,0,0,0,2.77-.48A73.65,73.65,0,0,0,481.78,493c.92,0,1.84-.24,2.53-.24,4.38-.48,8.53-1.68,12.68-2.4.46,0,.92,0,1.15-.24h2.54v1.2a2.16,2.16,0,0,0-.24,1.2c0,.24-.23.48-.23.72v.48c-1.61,6.71-4.14,13.18-6.22,19.66a256.86,256.86,0,0,0-7.83,25.89c-1.85,7.91-3.69,16.54-2.31,24.69a18.56,18.56,0,0,0,1.15,3.84,12,12,0,0,0,.69,1.68,6.11,6.11,0,0,1,1.16,1.44c.69,1.67,5.3,1,4.61-.72a6.2,6.2,0,0,1-.23-2.16v-2.4c0-1.68-.46-3.59-.46-5.27a73,73,0,0,1,.92-12.23A147.7,147.7,0,0,1,497.91,522c2.07-7.44,4.61-15.11,7.14-22.54C505.75,497,506.67,494.4,507.13,492Zm-85,6.95a18.54,18.54,0,0,1,3.68-5.75,13.22,13.22,0,0,1,2.08-1.68,6,6,0,0,0,1.08-.66c.06,0,1.19-.3,1-.3h.69a.79.79,0,0,1,.46.24h.47c-.24,0,.23.24.23.24.23.24.23.48.46.48a5,5,0,0,1,.92,4.07,11,11,0,0,1-5.3,8.4c-.23.23-.46.23-.46.47-.23,0-.69.24-.92.24h-.93a2.35,2.35,0,0,1-1.15-.95c-.23-.24-.23-1-.69-1.2-.23-.24-.46-.24-.69-.48.23,0-.46-.24-.46-.24,0-.24-.46-.24-.69,0a.84.84,0,0,0-.7.24C421.39,500.87,421.86,499.91,422.09,499ZM364.7,528.2c-.23.48-.23,1-.46,1.44v.24c0,.48-.23.72-.23,1a25.6,25.6,0,0,1-3.23,6.71,10.56,10.56,0,0,0-.92,1.68.51.51,0,0,0-.46.48l-.69.72c-.92,1.2-1.85,2.16-2.77,3.35-2.3,2.16-4.84,4.32-7.14,6.48l-2.08,1.44c-.46.24-.69.72-.92,1-.23,0-.92.47-1.15.47a29.37,29.37,0,0,1-4.38,3.12c-3.23,2.16-6.68,4.32-10.14,6.24-3.92,2.15-7.84,4.31-11.75,6.23-2.08,1-3.92,1.92-6,2.88-1.15.48-2.07.95-3.22,1.43-.23.24-.7.24-1.16.48-.23,0-.23.24-.46.24a1.72,1.72,0,0,0-.92.48c-9,3.84-18.21,7.44-27.43,10.55-9.44,3.36-18.89,6.48-28.57,9.35-2.31.72-4.84,1.2-7.15,1.92-1.15.24-2.3.72-3.46,1a4.13,4.13,0,0,0-1.61.48h-.46a2.25,2.25,0,0,0-.69.24c-4.61,1.2-9.45,2.4-14.06,3.36-8.53,1.91-17.29,3.59-26,4.79a52,52,0,0,1-6,1c-.92,0-1.84.24-2.76.24-.46,0-.92.24-1.38.24h-.47a75.2,75.2,0,0,1-10.37.72,32.63,32.63,0,0,1-4.84.24H169c-.23,0-.46-.24-.92-.24a22.74,22.74,0,0,1-3.92-.24,4.32,4.32,0,0,1-1.61-.24h-.7c-.92-.24-2.07-.48-3-.72,0-.24-.23-.24-.46-.24-.23-.24-.69-.24-1.16-.48a.79.79,0,0,0-.46-.24c-.23-.24-.46-.48-.69-.48l-.69-.72-.23-.24-1.38-2.87v-.48c-.23,0-.23-.24-.23-.48,0-.48-.23-1-.23-1.44v-3.36a.91.91,0,0,0,.23-.72v-.24c.23-.72.46-1.2.69-1.92a22.15,22.15,0,0,1,3.69-6.47c0-.24.46-.72.46-.72a3.3,3.3,0,0,0,.69-1l1.61-1.68c1.15-1.43,2.54-2.63,3.69-3.83,1.38-1.2,3-2.4,4.38-3.6.69-.48,1.61-1.2,2.3-1.68.23-.24.69-.48.92-.72a2.28,2.28,0,0,0,1.16-.95c3.91-2.64,7.83-5,11.75-7.44,4.61-2.63,9.45-5,14.06-7.19l7.61-3.6a2.25,2.25,0,0,0,.69-.24c.23-.24.69-.24.92-.48l2.07-.71a35.36,35.36,0,0,1,4.38-1.92,363,363,0,0,1,38.26-13.43c15-4.55,28.81-8.15,44.25-11.51,21.21-4.31,42.41-7.67,63.84-10.31.69,1,1.39,2.16,2.08,3.36l.69,1.44c0,.24.23.72.23,1v.24h.23a16.87,16.87,0,0,1,.46,3.35Zm115.69-41.72a17.6,17.6,0,0,1-1.61,2.87,1.31,1.31,0,0,1-.69-.23h-.69a1.18,1.18,0,0,0-.92-.48c.23,0-.23-.24-.23-.24-.24-.24-.47-.24-.47-.48-.46-.24-.46-.48-.69-.72a7.35,7.35,0,0,1-1.38-5.27,24.36,24.36,0,0,1,5.3-11.51,19.42,19.42,0,0,1,2.31-1.44c.23-.24.23-.24.46-.24-.23,0,.46-.24.46-.24a.23.23,0,0,0,.23-.24h.92c-.23,0,0,0,0,.24h.46l.23.24c.23.24.23.48.46.48.69,1.2.46,2.88.46,4.32C484.54,478.09,482.47,482.65,480.39,486.48Z"/><path class="cls-3" d="M660.85,544a5.62,5.62,0,0,0-4.84.72l-.46.48c-.46.24-.69.48-1.15.72-.46,0-.69.24-1.16.48a.79.79,0,0,0-.46.24c-.92.24-1.84.72-2.76,1h-.46a4.39,4.39,0,0,1-1.62.24,3.28,3.28,0,0,1-1.61.24l-.23.24H642a4.87,4.87,0,0,1-1.84-.24h-1.62a.23.23,0,0,0-.23-.24h-.69c-1.15-.24-2.3-.72-3.46-1a.23.23,0,0,1-.23-.24.82.82,0,0,1-.69-.24c-.69-.24-1.15-.48-1.84-.72a11,11,0,0,0-1.61-.72c-.23-.24-.47-.24-.7-.48-.23,0-.23-.24-.46-.24a27.83,27.83,0,0,1-3.22-2.39,16.65,16.65,0,0,1-3-2.88c-.23,0-.23-.24-.46-.48l-.46-.48c-.46-.72-.92-1.2-1.38-1.92a38,38,0,0,1-4.61-8.63c-.23-.72-.69-1.44-.93-2.4,0-.48-.23-.72-.46-1.2v-.23c0-.24-.23-.72-.23-1a51,51,0,0,1-1.15-5.76c-.46-2.87-.69-5.51-.92-8.39a61.66,61.66,0,0,0,11.06-5.75A129.32,129.32,0,0,0,644.49,485a183.13,183.13,0,0,0,32.26-45.55,106.71,106.71,0,0,0,8.53-20.62c1.38-5,2.77-10.55,1.84-15.58a8.49,8.49,0,0,0-2.3-5.28c-1.84-2.15-5.07-3.35-7.61-4.07-7.37-2.16-15.21-.24-21.66,3.83-6.91,4.08-12.91,10.31-18,16.79a160.71,160.71,0,0,0-15.67,23.73,184.8,184.8,0,0,0-11.29,24.94,111,111,0,0,0-6.46,24.69,106.68,106.68,0,0,0-1.28,13.57c-.2,0-.4.06-.56.1-14.29,2.63-29.27,5-43.79,4.31l-6.45-.72a50,50,0,0,0,3-14.14,20.63,20.63,0,0,0-1.61-9.83c-1.38-3.36-4.38-5.28-7.61-6.24-5.76-1.91-12.9.48-16.59,5.52a12.87,12.87,0,0,0-2.3,6.23,19.8,19.8,0,0,0-10.38,11.75,24,24,0,0,0,.24,16.06,16,16,0,0,0,12.44,9.83c7.84,1,14.29-4.55,18.44-10.78.92-1.44,1.84-3.12,2.76-4.8a75.21,75.21,0,0,0,12.68,1c13.46.23,26.48-2.49,39.7-5.28,0,2,0,4,.17,6a32.77,32.77,0,0,1-4.38,1.68c-.46,0,0,.48.46.24,1.16-.24,2.54-.48,3.92-.72.69,9.35,3.23,18.7,8.53,26.37,7.14,9.83,18.44,14.63,30,14.87a31.52,31.52,0,0,0,12.45-1.68,26.76,26.76,0,0,0,4.6-1.92c.7-.48,1.16-.72,1.85-1.2a4.07,4.07,0,0,0,1.15-1c.23,0,.23-.24.46-.24l.16-.24h.07C663.62,545.46,661.77,544.26,660.85,544Zm-49.09-41a141.62,141.62,0,0,1,1.38-17c.46-2.39.92-5,1.38-7.67l.24-.72a2.71,2.71,0,0,0,.23-1.2c.23-1,.46-1.91.69-2.63a167.91,167.91,0,0,1,9-23.5,229.64,229.64,0,0,1,13.82-24.69c4.84-7.44,9.91-14.15,16.6-19.91l4.15-3.59.69-.48a5,5,0,0,0,1.15-.72c.69-.48,1.61-1,2.31-1.44.46,0,.69-.24,1.15-.48a2.25,2.25,0,0,1,.69-.24l2.07-.72c.23-.24.46-.24.92-.48h.24c.46,0,.69-.24,1.15-.24h3.22l.7.24c.46,0,.69.24,1.15.24h.23l.23.24c.46,0,.69.24,1.15.48s.69.24.92.48c.23,0,.46.24.7.24l.69.72.23.24.23.24c.23.48.46.72.69,1.2s.23.72.46,1.2v.24a.91.91,0,0,1,.23.72,16.47,16.47,0,0,1,.23,3.35,30.47,30.47,0,0,1-.92,7.68,49.16,49.16,0,0,1-2.54,9.11c-1.15,3.59-2.76,7.19-4.15,10.55a198.15,198.15,0,0,1-12.67,23c-10.14,15.59-22.59,30.21-37.34,41.48-3.69,2.64-7.37,5-11.29,7.43ZM538,479.29a7.54,7.54,0,0,1,1.38-.72c.23-.24.46-.24,1.15-.48H541v-.24h.7l.23.24h.23s.69.24.69,0c0,.24,0,.24.23.24s.46.24.69.48H544l.23.24a3.19,3.19,0,0,1,.92.72l.23.24.23.24c.23.24.47.72.7,1a14.5,14.5,0,0,1,.92,1.92,18.52,18.52,0,0,1,.92,3.83A30.77,30.77,0,0,0,534.32,485,10.78,10.78,0,0,1,538,479.29Zm1.84,35.24c-.23.24-.92,1.2-1.38,1.68a14.19,14.19,0,0,1-1.84,1.92c-.23.24-.7.48-.93.72l-.23.24a.79.79,0,0,1-.46.24,5.71,5.71,0,0,1-1.61,1,3.22,3.22,0,0,0-.92.48H530.4c-.23,0-.46,0-.46-.24a5,5,0,0,0-.92-.24c-.23,0-.46-.24-.69-.24a.23.23,0,0,0-.23-.24c-.46-.48-.92-.72-1.38-1.2-.23-.24-.47-.24-.7-.48,0-.24-.46-.48-.46-.48a5,5,0,0,1-.92-1.44,20.73,20.73,0,0,1-2.76-14.86,25.71,25.71,0,0,1,2.76-7.2c.23-.23.46-.47.46-.71h.23v-.24l.23-.24,1.39-1.44.23-.24a24.86,24.86,0,0,0,2.3,5.75c3.46,5.52,8.76,8.63,14.52,10.55A41.18,41.18,0,0,1,539.85,514.53Zm8.3-21.57a43.06,43.06,0,0,1-2.31,10.55,21.64,21.64,0,0,1-5.07-2.88,16.32,16.32,0,0,1-6.68-12.95h.46a5,5,0,0,0,.92-.24h3.69a2.81,2.81,0,0,1,1.38.24c1.16,0,2.08.24,3.23.24,1.61.48,3,.72,4.61,1.2A21.53,21.53,0,0,1,548.15,493Z"/><path class="cls-4" d="M731.83,497.51c.69-1-.23-1.44-.92-1.68a3.29,3.29,0,0,0-3,.48c-5.08,4.8-10.15,9.35-15.68,13.67a79.47,79.47,0,0,1-11.75,8.15c-.69.48-1.61,1-2.31,1.44-.23,0-.69.24-.92.24-.23.24-.69.24-.92.48l-2.07.72H694a1.36,1.36,0,0,0-.93.24h-.69c0-.24,0-.24-.23-.24s-.23,0-.23-.24c-.23,0-.23,0-.46-.24a.23.23,0,0,0-.23-.24c-.23-.48-.23-.72-.46-1.2v-.24a1.88,1.88,0,0,1-.23-1,18.94,18.94,0,0,1,.23-3.6A119.6,119.6,0,0,1,694,501.11c.46-2.4.92-4.56,1.38-7a12.35,12.35,0,0,0,0-5,2.83,2.83,0,0,0-1.15-1.2,3.22,3.22,0,0,0-1.39-.48s-1.84-.24-.46,0c-.69,0-1.15-.24-1.84-.24a13.46,13.46,0,0,0-5.3,1.44,25.82,25.82,0,0,0-5.3,3.6,42.07,42.07,0,0,0-3.23,3.11,13.33,13.33,0,0,0-3,4.08c-.46,1.44,2.77,1.2,3.46.48,1.85-1.44,3.46-3.6,5.3-5.51a29.89,29.89,0,0,1,4.38-3.12,12.83,12.83,0,0,1,1.85-1c.23,0,.46-.24.69-.24l.23-.24h.92c.23.24.23.24.23.48a9.38,9.38,0,0,1-.23,2.4,64.1,64.1,0,0,1-1.15,6.47c-1.16,4.56-2.77,9.11-3.92,13.91-.46,2.39-.92,5,0,7.19.92,2.4,3.23,3.36,5.3,3.83,5.76,1,12-2.63,16.59-5.51C716.62,512.86,724.46,505.18,731.83,497.51Z"/><path class="cls-5" d="M678.13,474.5a2.67,2.67,0,0,0,2.31.23c7.6-3.11,15.44-5.75,23-9.11.46-.24,1.15-.72.69-1.19a3.07,3.07,0,0,0-2.08,0c-7.83,2.63-15.67,5.75-23.28,8.87C678.36,473.54,677.67,474,678.13,474.5Z"/><path class="cls-6" d="M854.9,497.27a4.22,4.22,0,0,0-3.69.72,97.33,97.33,0,0,1-14.75,14.87,43.26,43.26,0,0,1-6.68,4.79,29.53,29.53,0,0,1-6.22,2.88,38,38,0,0,1-5.07,1H818a.79.79,0,0,1-.46-.24H816c-.23,0-.46-.24-.69-.24a3.18,3.18,0,0,1-1.38-.48h-.23a.82.82,0,0,0-.69-.24l-1.39-.72a10.26,10.26,0,0,1-2.07-1.68,17.88,17.88,0,0,1-4.38-5,13.73,13.73,0,0,1-1.84-7.44c1.15,1.2,3.45,1.68,5.3,1.92a10.52,10.52,0,0,0,6-1.92,13.82,13.82,0,0,0,6.45-9.59c.69-3.83-1.61-6.95-5.3-7.91-4.61-1.2-9.68,1-12.9,4.32a21.81,21.81,0,0,0-5.46,12.35c-3.38,2.34-7.35,4.7-11.14,4.91a6.35,6.35,0,0,1-3.69-.48,11.54,11.54,0,0,1-3.68-2.16,23.55,23.55,0,0,1-5.3-6.47,29.17,29.17,0,0,0-4.61-6c-2.08-2.16-5.77-2.4-8.53-1.44-3.23.72-5.76,3.35-7.84,6-3.68,4.56-5.76,9.83-8.52,14.86a24.66,24.66,0,0,0,.46-3.83c.69-4.08,1.15-7.91,1.61-11.75a54.11,54.11,0,0,0,.23-8.63c-.46-1.92-1.84-2.88-3.69-2.16-1.84.48-3.22,2.4-4.38,3.6-2.53,2.64-5.07,5.51-7.6,8.15-1.61,1.68-3,3.36-4.38,5l-2.07,2.16c-.24.72-.24,1.68-.47,2.64H724a25.53,25.53,0,0,0,4.15-2.88c1.16-1.2,2.31-2.63,3.46-3.83,2.07-2.16,4.15-4.56,6.22-6.72,1.62-1.67,3.23-3.11,4.84-4.79,0,1.44-.23,2.88-.23,4.31a100.3,100.3,0,0,1-1.38,11.27l-1.38,10.07c0,1-.23,1.92-.23,2.88,0,1.68,1.61,1.68,2.76,1.44,2.31-.24,3.69-2.88,4.61-4.8l4.84-9.35a36,36,0,0,1,6.45-9.11,11.38,11.38,0,0,1,1.62-1.68,13.44,13.44,0,0,0,1.84-1,.7.7,0,0,0,.46-.24h.92c.47-.23.7-.23,1.62,0a.23.23,0,0,0,.23.24.23.23,0,0,1,.23.24,4.07,4.07,0,0,1,1.15,1,12.9,12.9,0,0,1,1.85,2.64,72.36,72.36,0,0,0,5.07,7,17.15,17.15,0,0,0,10.83,6c5,.18,9.45-1.64,13.41-4.27a19.13,19.13,0,0,0,5.72,11.46c6.91,6.71,17.05,6.95,25.58,3.6,11.29-4.32,20.28-13.67,27.42-23.74C856.75,498,855.36,497.51,854.9,497.27ZM804.66,499a18.38,18.38,0,0,1,3.69-5.75,12.73,12.73,0,0,1,2.07-1.68,5.66,5.66,0,0,0,1.08-.66c.06,0,1.19-.3,1-.3h.7a.79.79,0,0,1,.46.24h.46c-.23,0,.23.24.23.24.23.24.23.48.46.48a5,5,0,0,1,.92,4.07,11,11,0,0,1-5.3,8.4c-.23.23-.46.23-.46.47-.23,0-.69.24-.92.24h-.92a2.33,2.33,0,0,1-1.16-.95c-.23-.24-.23-1-.69-1.2-.23-.24-.46-.24-.69-.48.23,0-.46-.24-.46-.24,0-.24-.46-.24-.69,0a.82.82,0,0,0-.69.24C804,500.87,804.43,499.91,804.66,499Z"/><path class="cls-7" d="M394.6,561.23a13.43,13.43,0,0,1,6.62-1.65,12.12,12.12,0,0,1,8.9,3.43l1.32-1.36a11.76,11.76,0,0,0-4.51-3,15.94,15.94,0,0,0-5.79-1,15.51,15.51,0,0,0-7.68,1.91,14.13,14.13,0,0,0-5.38,5.25,15.46,15.46,0,0,0,0,15.07,14.13,14.13,0,0,0,5.38,5.25,15.51,15.51,0,0,0,7.68,1.91,15.82,15.82,0,0,0,5.77-1,12,12,0,0,0,4.53-3l-1.32-1.36a12.17,12.17,0,0,1-8.9,3.47,13.43,13.43,0,0,1-6.62-1.65,12.12,12.12,0,0,1-4.68-4.58,13.4,13.4,0,0,1,0-13A12.12,12.12,0,0,1,394.6,561.23Z"/><path class="cls-8" d="M464.47,559.54a16.38,16.38,0,0,0-15.39,0,14.17,14.17,0,0,0-5.4,5.27,15.24,15.24,0,0,0,0,15,14.17,14.17,0,0,0,5.4,5.27,15.42,15.42,0,0,0,7.7,1.93,15.58,15.58,0,0,0,7.69-1.91,14,14,0,0,0,5.4-5.25,15.4,15.4,0,0,0,0-15.07A14,14,0,0,0,464.47,559.54Zm3.52,19.3a12.19,12.19,0,0,1-4.63,4.58,14,14,0,0,1-13.18,0,12.13,12.13,0,0,1-4.66-4.58,13.33,13.33,0,0,1,0-13,12.13,12.13,0,0,1,4.66-4.58,14,14,0,0,1,13.18,0,12.19,12.19,0,0,1,4.63,4.58,13.33,13.33,0,0,1,0,13Z"/><path class="cls-9" d="M519.17,573a41.24,41.24,0,0,0-5.09-1.53,40.07,40.07,0,0,1-4.51-1.33,7.27,7.27,0,0,1-2.78-1.78,4.28,4.28,0,0,1-1.11-3.1,5.08,5.08,0,0,1,2.06-4.18c1.38-1.08,3.41-1.61,6.09-1.61a14.26,14.26,0,0,1,4.12.62,13.19,13.19,0,0,1,3.82,1.82l.79-1.7a13.92,13.92,0,0,0-4-1.9,16.17,16.17,0,0,0-4.72-.71,13.94,13.94,0,0,0-5.73,1,7.65,7.65,0,0,0-3.42,2.79,7.12,7.12,0,0,0-1.11,3.87,6.1,6.1,0,0,0,1.34,4.16,8.19,8.19,0,0,0,3.27,2.3,46.23,46.23,0,0,0,5.11,1.53,38.22,38.22,0,0,1,4.47,1.28,7.48,7.48,0,0,1,2.77,1.78,4.27,4.27,0,0,1,1.12,3.11,4.87,4.87,0,0,1-2.11,4.09q-2.12,1.57-6.25,1.57a14.68,14.68,0,0,1-5.44-1,11,11,0,0,1-4.12-2.63l-1,1.58a11.71,11.71,0,0,0,4.49,2.83,16.91,16.91,0,0,0,6.06,1.1,14.46,14.46,0,0,0,5.8-1,7.73,7.73,0,0,0,3.49-2.77,6.87,6.87,0,0,0,1.14-3.85,6,6,0,0,0-1.34-4.08A8.49,8.49,0,0,0,519.17,573Z"/><polygon class="cls-10" points="584.99 557.84 572.03 580.23 559.08 557.84 557.3 557.84 557.3 586.81 559.37 586.81 559.37 562.1 571.49 582.96 572.53 582.96 584.65 562.02 584.7 586.81 586.76 586.81 586.72 557.84 584.99 557.84"/><polygon class="cls-11" points="625.13 573.03 640.56 573.03 640.56 571.17 625.13 571.17 625.13 559.75 642.38 559.75 642.38 557.84 623.02 557.84 623.02 586.81 643 586.81 643 584.91 625.13 584.91 625.13 573.03"/><polygon class="cls-12" points="672.54 559.75 682.97 559.75 682.97 586.81 685.09 586.81 685.09 559.75 695.51 559.75 695.51 557.84 672.54 557.84 672.54 559.75"/><rect class="cls-13" x="727.24" y="557.84" width="2.11" height="28.97"/><path class="cls-14" d="M771.54,561.23a13.41,13.41,0,0,1,6.62-1.65,12.14,12.14,0,0,1,8.9,3.43l1.32-1.36a11.83,11.83,0,0,0-4.51-3,16,16,0,0,0-5.8-1,15.45,15.45,0,0,0-7.67,1.91,14.06,14.06,0,0,0-5.38,5.25,15.4,15.4,0,0,0,0,15.07,14.06,14.06,0,0,0,5.38,5.25,15.45,15.45,0,0,0,7.67,1.91,15.87,15.87,0,0,0,5.78-1,12,12,0,0,0,4.53-3l-1.32-1.36a12.18,12.18,0,0,1-8.9,3.47,13.41,13.41,0,0,1-6.62-1.65,12.12,12.12,0,0,1-4.68-4.58,13.33,13.33,0,0,1,0-13A12.12,12.12,0,0,1,771.54,561.23Z"/><path class="cls-15" d="M835.33,573a40.7,40.7,0,0,0-5.09-1.53,41.39,41.39,0,0,1-4.51-1.33,7.31,7.31,0,0,1-2.77-1.78,4.29,4.29,0,0,1-1.12-3.1,5.07,5.07,0,0,1,2.07-4.18c1.38-1.08,3.41-1.61,6.09-1.61a14.14,14.14,0,0,1,4.11.62,13.25,13.25,0,0,1,3.83,1.82l.79-1.7a13.86,13.86,0,0,0-4-1.9,16.05,16.05,0,0,0-4.71-.71,14,14,0,0,0-5.74,1,7.57,7.57,0,0,0-3.41,2.79,7,7,0,0,0-1.12,3.87,6.11,6.11,0,0,0,1.35,4.16,8.06,8.06,0,0,0,3.27,2.3,45.57,45.57,0,0,0,5.11,1.53,39.42,39.42,0,0,1,4.47,1.28,7.56,7.56,0,0,1,2.77,1.78,4.31,4.31,0,0,1,1.12,3.11,4.89,4.89,0,0,1-2.11,4.09q-2.12,1.57-6.25,1.57a14.64,14.64,0,0,1-5.44-1,11,11,0,0,1-4.12-2.63l-.95,1.58a11.71,11.71,0,0,0,4.49,2.83,16.83,16.83,0,0,0,6.06,1.1,14.38,14.38,0,0,0,5.79-1,7.76,7.76,0,0,0,3.5-2.77,6.87,6.87,0,0,0,1.14-3.85,5.91,5.91,0,0,0-1.35-4.08A8.42,8.42,0,0,0,835.33,573Z"/></svg>