<svg id="Layer_1" data-name="Layer 1" xmlns="http://www.w3.org/2000/svg" xmlns:xlink="http://www.w3.org/1999/xlink" viewBox="0 0 1000 1000"><defs><style>.cls-1{fill:#d9ffe5;}.cls-2{fill:url(#linear-gradient);}.cls-3{fill:url(#linear-gradient-2);}.cls-4{fill:url(#linear-gradient-3);}.cls-5{fill:#692eaf;}</style><linearGradient id="linear-gradient" x1="350.29" y1="570.79" x2="511.85" y2="566.88" gradientUnits="userSpaceOnUse"><stop offset="0" stop-color="#a8b2f7"/><stop offset="0.39" stop-color="#d2ddfb"/><stop offset="1" stop-color="#d9ffe5"/></linearGradient><linearGradient id="linear-gradient-2" x1="517.01" y1="356.73" x2="427.84" y2="382.78" xlink:href="#linear-gradient"/><linearGradient id="linear-gradient-3" x1="484.15" y1="183.19" x2="503.69" y2="635.56" gradientUnits="userSpaceOnUse"><stop offset="0" stop-color="#2e7ceb"/><stop offset="0.51" stop-color="#663dd9"/><stop offset="1" stop-color="#8522df"/></linearGradient></defs><rect class="cls-1" width="1000" height="1000"/><path class="cls-2" d="M476.73,502.79c1.66,3.69-11.61,8.91-25.55,27.81a118.43,118.43,0,0,0-20.33,46.68,191.79,191.79,0,0,0,56.9,24.7c56.17,14.08,103.57-1.63,123.24-9.51-13.53,10.27-62.86,45.16-134.26,42.58-73.22-2.65-120.66-42.93-133-54.11a148.66,148.66,0,0,1,33.06-42.08C417.75,502.89,473.45,495.53,476.73,502.79Z"/><path class="cls-3" d="M537.1,333.71c-7.92-5.87-26.78-18-51.35-16.77-35.21,1.77-67.59,30.28-79.66,71.64q16.62,20.88,33.23,41.78c-2.43-7-7.65-25.25-.16-44.79,8.1-21.13,26.11-30.82,39.57-38.07A118.77,118.77,0,0,1,537.1,333.71Z"/><path class="cls-4" d="M670.61,485.34c-13.36-81.35-68.72-135.14-104.35-162a47.27,47.27,0,0,0,1.82-13.05l0-9.15-9.13-.23a28.26,28.26,0,0,1-10.36-2.25A28.78,28.78,0,0,1,534,284.83a38.24,38.24,0,0,1-2.67-8.66l0-.22c-.3-1.44-.53-2.9-.71-4.35A48.49,48.49,0,0,0,530,265a47.63,47.63,0,0,0-33.68-38.49c-.74-.22-1.51-.43-2.31-.61a39.44,39.44,0,0,1-14.22-12.46,40.1,40.1,0,0,1-7-23l.16-14-13,5.11a60.26,60.26,0,0,0-36.84,43.22,183.29,183.29,0,0,0-57.42,71.89,183,183,0,0,0,5.1,159.15,184.07,184.07,0,0,0,42.34,53.29c-4.55,2.36-9,4.89-13.35,7.64l.31.51a240.25,240.25,0,0,0-67.93,59.33L326.48,584l7.28,5.81a238,238,0,0,0,148.6,51.85,242.67,242.67,0,0,0,71.07-10.76c56.31-17.55,94.61-53.77,116.83-81.07l1.77-2.17.29-2.8A225.59,225.59,0,0,0,670.61,485.34Zm-16,42c0,.41,0,.81,0,1.21,0,.74-.05,1.46-.09,2.19-.07,1.56-.16,3.12-.25,4.68l-.18,2.35c-.06.78-.12,1.56-.19,2.35-20.82,25-55.69,57.12-106,72.81a226.23,226.23,0,0,1-65.49,9.91,217.51,217.51,0,0,1-114.65-32.16q15.18.92,30.19.91A479.45,479.45,0,0,0,457,588c54.13-6.72,104.8-22.8,150.63-47.78q12.54-6.86,24.67-14.63c-5.83-3.56-12-7.09-18.66-10.51q-7.43,4.5-15,8.64c-85.12,46.42-173,52.41-237,47.72a220.68,220.68,0,0,1,73.94-50.82l14.89-6.24.35-.12a260.81,260.81,0,0,1,44.09-11.54c7.54-1.24,15.14-2.22,22.78-2.76,1.91-.13,3.83-.25,5.75-.34s3.85-.16,5.78-.21,3.86-.06,5.79-.11,3.87,0,5.8,0,3.89.09,5.83.18,3.88.18,5.83.3c3.89.23,7.79.52,11.69,1,7.82.76,15.62,2,23.5,3.29a166.58,166.58,0,0,0-22.33-8.87c-3.84-1.21-7.73-2.28-11.64-3.29s-7.88-1.82-11.87-2.52a190.47,190.47,0,0,0-24.25-2.79c-4.08-.21-8.18-.3-12.27-.22s-8.18.24-12.27.54a214.67,214.67,0,0,0-48.29,9.26c-3.9,1.33-7.83,2.56-11.65,4.13l-.66.26A164.28,164.28,0,0,1,368.77,371a163.34,163.34,0,0,1,49.81-117.64l.15,1.87c.21,1.88.49,3.75.86,5.61a67.59,67.59,0,0,0,3.17,10.82A64.51,64.51,0,0,0,434,290.59a55.13,55.13,0,0,0,16.51,13.21c-.85-1.52-1.68-3-2.47-4.51s-1.51-3-2.21-4.51a95.9,95.9,0,0,1-3.62-9,79.8,79.8,0,0,1-4.33-26.88c0-.74,0-1.46,0-2.19s.07-1.45.07-2.18l.13-2.17c0-.65.1-1.31.18-2,.27-2.87.66-5.83,1.07-8.71.29-2,.61-4,.92-6l.14-.1.59-3.93a41.64,41.64,0,0,1,9-20.29,40.47,40.47,0,0,1,5.86-5.8,57.78,57.78,0,0,0,8.48,18.68,58.39,58.39,0,0,0,22.32,19.1l1.17.55,1.12.23c.73.15,1.41.32,2.08.52a28.78,28.78,0,0,1,20.72,27.58v.51l.06.51c.24,2.2.59,4.42,1,6.6l0,.09a57,57,0,0,0,4.22,13.24,47.56,47.56,0,0,0,24.12,22.8,48.65,48.65,0,0,0,6.9,2.32c-.24.81-.5,1.61-.8,2.4a29.2,29.2,0,0,1-3.3,6.16,28.53,28.53,0,0,1-4.7,5.18,27.32,27.32,0,0,1-2.24,1.74,78,78,0,0,0-17.6-4.66,80.75,80.75,0,0,0-11.63-.75c-1.94.08-3.89.1-5.83.31-1,.11-1.94.16-2.91.3l-2.88.45A76,76,0,0,0,456,350.09a77,77,0,0,0-13.55,17.79,71.44,71.44,0,0,0-3.14,62.48c-2.46-13.61-1.51-27.5,3.06-39.73a68.48,68.48,0,0,1,9.2-16.94,70.9,70.9,0,0,1,13.34-13.41,65.71,65.71,0,0,1,16.16-9l2.14-.83,2.18-.7c1.43-.52,2.93-.82,4.38-1.23A21.48,21.48,0,0,1,492,348l2.22-.45c.74-.13,1.49-.2,2.24-.31s1.48-.23,2.24-.27a74.61,74.61,0,0,1,9-.27,83.91,83.91,0,0,1,8.94,1,79.6,79.6,0,0,1,17.28,5.17l4.38,1.85,3.77-2h0a47.59,47.59,0,0,0,9.58-6.45,45.7,45.7,0,0,0,5.8-6c27.61,21.32,66.31,58.95,85.54,113a202.46,202.46,0,0,1,9.1,35.24c0,.05,0,.09,0,.13l-.1.08a204.27,204.27,0,0,1,2.41,21.75l0,0C654.75,516,654.81,521.64,654.64,527.33Z"/><path class="cls-5" d="M259,720.38h31.28v12.55H259v24.62H243.34V690h51.07v12.55H259Z"/><path class="cls-5" d="M303.47,741.67a35.94,35.94,0,0,1,0-35.82,33.68,33.68,0,0,1,13.23-12.5,41.8,41.8,0,0,1,37.89,0,34.46,34.46,0,0,1,0,60.82,41.8,41.8,0,0,1-37.89,0A33.68,33.68,0,0,1,303.47,741.67ZM354.06,735a24.18,24.18,0,0,0,0-22.4,19.77,19.77,0,0,0-7.58-7.68,22.62,22.62,0,0,0-21.62,0,19.77,19.77,0,0,0-7.58,7.68,24.18,24.18,0,0,0,0,22.4,19.77,19.77,0,0,0,7.58,7.68,22.62,22.62,0,0,0,21.62,0A19.77,19.77,0,0,0,354.06,735Z"/><path class="cls-5" d="M406.86,734.09l-16,23.46h-18l25-34.37L374.13,690h17.76l15.55,21.92L422.69,690h16.9L416,722.6l25.2,34.95H423.18Z"/><path class="cls-5" d="M459.85,690v59.18h36.59v8.4H450.2V690Z"/><path class="cls-5" d="M555.18,757.55h-49V690h47.7v8.4h-38v20.76h33.88v8.2H515.79v21.82h39.39Z"/><path class="cls-5" d="M627,719.61v37.94H617.3V738.92h-39v18.63h-9.46V719.61q0-14.67,7.82-22.55t21.15-7.86q13.51,0,21.33,7.86T627,719.61Zm-9.65-.87q0-10.34-5.17-15.64t-14.33-5.31q-9.18,0-14.34,5.31t-5.17,15.64v11.78h39Z"/><path class="cls-5" d="M670.78,757.55h-9.56L631.48,690h10.43l24.33,55.51L690.76,690h9.66Z"/><path class="cls-5" d="M756.66,757.55h-49V690h47.69v8.4h-38v20.76h33.89v8.2H717.27v21.82h39.39Z"/><path class="cls-5" d="M363.93,819.09l1.41-2.77a13.5,13.5,0,0,0,4.91,3,18,18,0,0,0,6.32,1.14c3,0,5.33-.56,6.85-1.68a5.14,5.14,0,0,0,2.28-4.34,4.33,4.33,0,0,0-1.24-3.26,8.39,8.39,0,0,0-3-1.87,46.65,46.65,0,0,0-5-1.43A52.35,52.35,0,0,1,370.3,806a10,10,0,0,1-3.91-2.74,7.28,7.28,0,0,1-1.63-5,8.48,8.48,0,0,1,1.36-4.69,9.3,9.3,0,0,1,4.18-3.37,17,17,0,0,1,7-1.27,20.36,20.36,0,0,1,5.71.81,16.22,16.22,0,0,1,4.84,2.21l-1.22,2.86a16.58,16.58,0,0,0-4.56-2.11,17.08,17.08,0,0,0-4.77-.71q-4.47,0-6.73,1.73a5.36,5.36,0,0,0-2.25,4.45,4.46,4.46,0,0,0,1.23,3.28,8.3,8.3,0,0,0,3.11,1.89q1.88.66,5,1.43a50.89,50.89,0,0,1,6.05,1.83,9.91,9.91,0,0,1,3.92,2.72,7.24,7.24,0,0,1,1.6,4.93,8.32,8.32,0,0,1-1.39,4.69,9.24,9.24,0,0,1-4.25,3.35,17.68,17.68,0,0,1-7,1.24,21.88,21.88,0,0,1-7.27-1.21A13.35,13.35,0,0,1,363.93,819.09Z"/><path class="cls-5" d="M406.89,815.06a18.09,18.09,0,0,1,0-17.69,16.57,16.57,0,0,1,6.42-6.2,19.67,19.67,0,0,1,18.27,0,16.6,16.6,0,0,1,6.39,6.19,18,18,0,0,1,0,17.74,16.62,16.62,0,0,1-6.39,6.2,19.71,19.71,0,0,1-18.27,0A16.48,16.48,0,0,1,406.89,815.06Zm28-1.63a15.07,15.07,0,0,0,0-14.43,13.22,13.22,0,0,0-5.11-5.06,14.7,14.7,0,0,0-7.28-1.82,14.88,14.88,0,0,0-7.32,1.82A13.32,13.32,0,0,0,410,799a14.85,14.85,0,0,0,0,14.43,13.29,13.29,0,0,0,5.15,5.05,14.78,14.78,0,0,0,7.32,1.82,14.6,14.6,0,0,0,7.28-1.82A13.19,13.19,0,0,0,434.86,813.43Z"/><path class="cls-5" d="M458.18,815.08a18.18,18.18,0,0,1,0-17.74,16.33,16.33,0,0,1,6.39-6.19,19.81,19.81,0,0,1,16.13-1,14.48,14.48,0,0,1,5.45,3.69l-2.29,2.28a13.57,13.57,0,0,0-10.06-4,14.76,14.76,0,0,0-7.33,1.85,13.45,13.45,0,0,0-5.18,5,14.76,14.76,0,0,0,0,14.38,13.47,13.47,0,0,0,5.18,5.06,14.75,14.75,0,0,0,7.33,1.84,13.37,13.37,0,0,0,10.06-4.08l2.29,2.29a14.64,14.64,0,0,1-5.47,3.71,18.81,18.81,0,0,1-7,1.29,18.54,18.54,0,0,1-9.11-2.23A16.37,16.37,0,0,1,458.18,815.08Z"/><path class="cls-5" d="M508,789.21v34h-3.6v-34Z"/><path class="cls-5" d="M553.61,823.22H529.56v-34h23.32v3.1H533.16v12.1h17.59v3.07H533.16v12.63h20.45Z"/><path class="cls-5" d="M567.26,792.31v-3.1h27.51v3.1h-12v30.91h-3.59V792.31Z"/><path class="cls-5" d="M622.46,823.22h-3.55V811.46l-13.6-22.25h3.84l11.66,19.09,11.66-19.09h3.6l-13.61,22.25Z"/></svg>