<svg id="Layer_1" data-name="Layer 1" xmlns="http://www.w3.org/2000/svg" xmlns:xlink="http://www.w3.org/1999/xlink" viewBox="0 0 1000 1000"><defs><style>.cls-1{fill:#f4e1b5;}.cls-2{fill:#bf9b51;}.cls-3{fill:url(#linear-gradient);}.cls-4{fill:url(#linear-gradient-2);}.cls-5{fill:url(#linear-gradient-3);}.cls-6{fill:url(#linear-gradient-4);}.cls-7{fill:url(#linear-gradient-5);}.cls-8{fill:url(#linear-gradient-6);}</style><linearGradient id="linear-gradient" x1="441.09" y1="518.87" x2="392.1" y2="490.68" gradientUnits="userSpaceOnUse"><stop offset="0.34" stop-color="#b28e4f"/><stop offset="0.81" stop-color="#bf9b51"/></linearGradient><linearGradient id="linear-gradient-2" x1="525.48" y1="521.38" x2="571.69" y2="503.82" gradientUnits="userSpaceOnUse"><stop offset="0.77" stop-color="#b28e4f"/><stop offset="1" stop-color="#bf9b51"/></linearGradient><linearGradient id="linear-gradient-3" x1="547.66" y1="350.56" x2="512.43" y2="314.68" gradientUnits="userSpaceOnUse"><stop offset="0.32" stop-color="#9b7c45"/><stop offset="0.46" stop-color="#aa894a"/><stop offset="0.67" stop-color="#ba964f"/><stop offset="0.83" stop-color="#bf9b51"/></linearGradient><linearGradient id="linear-gradient-4" x1="-5492.6" y1="350.13" x2="-5527.84" y2="314.25" gradientTransform="matrix(-1, 0, 0, 1, -5058.51, 0)" xlink:href="#linear-gradient-3"/><linearGradient id="linear-gradient-5" x1="360.63" y1="418.11" x2="330.23" y2="459.37" gradientUnits="userSpaceOnUse"><stop offset="0.37" stop-color="#9b7c45" stop-opacity="0.86"/><stop offset="0.82" stop-color="#bf9b51"/></linearGradient><linearGradient id="linear-gradient-6" x1="-6050.36" y1="418.11" x2="-6080.77" y2="459.37" gradientTransform="matrix(-1, 0, 0, 1, -5427.08, 0)" xlink:href="#linear-gradient-5"/></defs><rect class="cls-1" x="0.15" width="999.85" height="999.85"/><path class="cls-2" d="M478.88,548.44a79.32,79.32,0,0,1-14-32.18c-.24-1.37-.43-2.72-.58-4a107.67,107.67,0,0,1-16.21-5.69,110.6,110.6,0,0,1-19.58-11.17,112.18,112.18,0,0,1-22.77-21.66,111,111,0,0,1-18.27-33.49,109.55,109.55,0,0,1-5.72-37.49v-.16q-9,1.71-18.57,3.9-9.07,2.1-17.53,4.38a165,165,0,0,0,9.06,40.41,162.73,162.73,0,0,0,6.59,15.58,154.79,154.79,0,0,0,44.87,55.33,144.44,144.44,0,0,0,28,16.82,138,138,0,0,0,46.72,12C480.18,550.19,479.53,549.33,478.88,548.44ZM638,398.22c-15.1,4.44-30.45,4.39-35.45,4.29h-.16A109.21,109.21,0,0,1,594,447a112.08,112.08,0,0,1-38.29,48.19A110.47,110.47,0,0,1,520,512.16c-.15,1.34-.34,2.71-.58,4.1a79.32,79.32,0,0,1-14,32.18c-.63.85-1.25,1.68-1.9,2.49a137.11,137.11,0,0,0,15.9-2.31,138.66,138.66,0,0,0,31-10.29,143.26,143.26,0,0,0,26.29-16,154.16,154.16,0,0,0,42.32-50,161.08,161.08,0,0,0,9.79-22.19,165.71,165.71,0,0,0,9.35-49.37c0-.88.06-1.76.07-2.65Z"/><path class="cls-3" d="M463.46,548.56A138.08,138.08,0,0,1,434.14,539a144.44,144.44,0,0,1-28-16.82,87,87,0,0,1-3.66-27.55,86,86,0,0,1,3.23-20.91,112.18,112.18,0,0,0,22.77,21.66,110.6,110.6,0,0,0,19.58,11.17C449.19,525,457.73,540.14,463.46,548.56Z"/><path class="cls-4" d="M576.63,522.37a143.26,143.26,0,0,1-26.29,16,138.66,138.66,0,0,1-31,10.29c5.67-8.32,14.14-23.31,15.36-41.57a109.91,109.91,0,0,0,21-11.83,112.93,112.93,0,0,0,21.71-20.41,86.21,86.21,0,0,1-.82,47.56Z"/><path class="cls-2" d="M526.83,295c-11.89-12.31-23.66-23.59-35.12-33.9-12.79,11.08-23.09,20.74-30.51,27.89-5.43,5.25-10.28,9.94-14.84,14.53a305.94,305.94,0,0,0-20.92,23.09c-4.07,5-7.66,9.7-10.81,14.05l33.29,16.5,10.52,2.2-7.7-7.37c.76-1,1.53-1.92,2.3-2.87a273.24,273.24,0,0,1,20.12-22c3.8-3.78,8-7.83,12.79-12.48,1.73-1.67,3.48-3.35,5.25-5,3.37,3.35,6.72,6.74,10,10.14q15.82,16.4,30.63,34L513.91,371l13.38,2.8q20.51-15.88,41-31.77C556,326.72,542.26,310.93,526.83,295Z"/><path class="cls-5" d="M532.2,353.67l-7.7,7.38L535,358.84q16.65-8.23,33.29-16.5c-3.15-4.35-6.74-9.08-10.81-14a303.8,303.8,0,0,0-20.92-23.08l-26.8,23.57a276.67,276.67,0,0,1,20.12,22C530.67,351.76,531.44,352.71,532.2,353.67Z"/><path class="cls-6" d="M449.55,353.25l7.7,7.37-10.52-2.2-33.29-16.5c3.15-4.36,6.75-9.08,10.81-14.05a305.94,305.94,0,0,1,20.92-23.09L472,328.36a275.1,275.1,0,0,0-20.12,22C451.08,351.33,450.31,352.29,449.55,353.25Z"/><path class="cls-2" d="M680.72,486.28a106.37,106.37,0,0,0-9.58-34.73A125.29,125.29,0,0,0,638.2,409.1c0-2.58,0-5.35-.11-8.29,0-.85-.08-1.71-.14-2.59-.14-2.28-.35-4.66-.64-7.11h0a131.94,131.94,0,0,0-5.11-24.05c-11.49-36.66-36.08-58.49-47.6-67.48-27.66,29.66-51.05,52.46-67.48,67.94-5.14,4.84-14,13.1-25,24.44-7.25,7.46-15.44,16.25-24.14,26.28q-4.46,5.14-9.1,10.74c-13.5,16.32-20.2,26.17-24.95,39.75a104.53,104.53,0,0,0-5.43,26.63,109.53,109.53,0,0,0,1.27,27A104.75,104.75,0,0,0,434.14,539a116,116,0,0,0,24.62,41,120.09,120.09,0,0,0,33.37,25,128.74,128.74,0,0,0,59.62,14,136.25,136.25,0,0,0,25.45-2.4c37.38-7.12,60.35-27.85,64.7-31.89a123.31,123.31,0,0,0,28.19-38.82C673.52,538.39,683.61,515.56,680.72,486.28Zm-43,44.81a87.42,87.42,0,0,1-20,27.51c-4.46,4.14-21,18-47.13,23a99.94,99.94,0,0,1-18.79,1.77,101.32,101.32,0,0,1-26.26-3.43c-3-.84-5.39-1.65-6.87-2.21a88.32,88.32,0,0,1-26.49-15.13A79.28,79.28,0,0,1,480.86,551c-.68-.83-1.33-1.69-2-2.58a79.32,79.32,0,0,1-14-32.18c-.24-1.37-.43-2.72-.58-4a73.07,73.07,0,0,1,3.26-31.72c2.56-7.33,5.88-13.23,18.78-28.81q2.93-3.53,5.79-6.88c8.66-10.15,16.86-19,24.14-26.57,10.36-10.75,18.87-18.76,24.25-23.82l1-1c14.47-13.65,29-27.9,43.33-42.59a96.77,96.77,0,0,1,13.31,26.85c.4,1.3.79,2.61,1.14,3.94a96.57,96.57,0,0,1,3.16,20.88c.1,2,.12,4,.09,6l-.29,17.12,13.18,10.92a91.16,91.16,0,0,1,13.26,13.64,81.06,81.06,0,0,1,13.17,24,70.39,70.39,0,0,1,3.36,15.58C646.6,503.26,644.05,517.16,637.68,531.09Z"/><path class="cls-2" d="M555.74,495.22a104.68,104.68,0,0,0-5.42-26.5c-4.76-13.58-11.46-23.43-25-39.75q-4.62-5.58-9.09-10.74c-8.7-10-16.89-18.82-24.14-26.28-11-11.34-19.85-19.6-25-24.44-16.43-15.48-39.83-38.28-67.48-67.94-11.52,9-36.11,30.82-47.6,67.48a131.89,131.89,0,0,0-4,16.42,133.91,133.91,0,0,0-2,25.63c-5.6,4.63-24.53,21.1-35.33,47.95a106,106,0,0,0-7.19,29.23c-2.89,29.28,7.2,52.11,10.63,59.61a123.31,123.31,0,0,0,28.19,38.82c4.34,4,27.31,24.77,64.7,31.89A136.14,136.14,0,0,0,432.5,619a128.75,128.75,0,0,0,59.63-14,119.92,119.92,0,0,0,33.36-25,115.49,115.49,0,0,0,8.66-10.48,116.78,116.78,0,0,0,16.19-31.13,103.61,103.61,0,0,0,4.14-16A109.08,109.08,0,0,0,555.74,495.22ZM492.13,562.6a88.45,88.45,0,0,1-26.5,15.13c-1.48.56-3.82,1.37-6.87,2.21a101.19,101.19,0,0,1-26.26,3.43,99.91,99.91,0,0,1-18.78-1.77c-26.08-5-42.67-18.86-47.13-23a87.64,87.64,0,0,1-20-27.51c-6.36-13.93-8.91-27.83-7.58-41.32a68.35,68.35,0,0,1,1.63-9.58,78.14,78.14,0,0,1,14.09-28.95,90.57,90.57,0,0,1,14.07-14.7L382,425.62l-.29-17.12c0-1.93,0-3.87.08-5.79a96.74,96.74,0,0,1,2.36-17.79c.55-2.44,1.21-4.85,1.95-7.23a96.76,96.76,0,0,1,13.3-26.85c14.37,14.69,28.86,28.94,43.34,42.59l1,1c5.38,5.06,13.89,13.07,24.26,23.82,7.28,7.54,15.47,16.42,24.14,26.57q2.87,3.34,5.79,6.88c12.89,15.58,16.21,21.48,18.78,28.81A73,73,0,0,1,520,512.16c-.15,1.34-.34,2.71-.58,4.1a79.32,79.32,0,0,1-14,32.18c-.63.85-1.25,1.68-1.9,2.49A80,80,0,0,1,492.13,562.6Z"/><path class="cls-7" d="M354.56,451.44a78,78,0,0,0-13.94,28.75l0,0c-2.12-3.62-4.12-7.34-6-11.15A162.66,162.66,0,0,1,328,453.44,160.72,160.72,0,0,1,322.57,435a126,126,0,0,1,23.48-25.9c0-.84,0-1.67,0-2.55A128.28,128.28,0,0,0,354.56,451.44Z"/><path class="cls-8" d="M629.35,451.44a78,78,0,0,1,13.95,28.75l0,0c2.12-3.62,4.12-7.34,6-11.15a162.55,162.55,0,0,0,12.05-34,126.29,126.29,0,0,0-23.49-25.9c0-.84,0-1.67,0-2.55A128.05,128.05,0,0,1,629.35,451.44Z"/><path class="cls-2" d="M229.48,665.33h49.87v6.17h-36.5v26.73H274v6.17H242.85v32.9H229.48Z"/><path class="cls-2" d="M290.14,665.33h13.37v65.8H340v6.17H290.14Z"/><path class="cls-2" d="M376,663.68a39.81,39.81,0,0,1,14.86,2.68,32.79,32.79,0,0,1,11.51,7.55,34.39,34.39,0,0,1,7.46,11.83,46.76,46.76,0,0,1,0,31.15,34.06,34.06,0,0,1-7.51,11.83,33.53,33.53,0,0,1-11.51,7.55,42.26,42.26,0,0,1-29.62,0,33,33,0,0,1-19-19.38,46.76,46.76,0,0,1,0-31.15,34.24,34.24,0,0,1,7.46-11.83,32.79,32.79,0,0,1,11.51-7.55A39.77,39.77,0,0,1,376,663.68Zm0,69.1a18.54,18.54,0,0,0,9.51-2.37,19.73,19.73,0,0,0,6.74-6.53,32.28,32.28,0,0,0,4.06-10,54.42,54.42,0,0,0,1.38-12.6,56,56,0,0,0-1.33-12.64,30.65,30.65,0,0,0-4.06-9.92,20.14,20.14,0,0,0-6.79-6.53,20.27,20.27,0,0,0-19,0,20.14,20.14,0,0,0-6.79,6.53,30.65,30.65,0,0,0-4.06,9.92,56,56,0,0,0-1.34,12.64,54.41,54.41,0,0,0,1.39,12.6,32.28,32.28,0,0,0,4.06,10,19.61,19.61,0,0,0,6.79,6.53A18.59,18.59,0,0,0,376,732.78Z"/><path class="cls-2" d="M423.3,737.3v-72h29.3A46,46,0,0,1,464,666.72a31.48,31.48,0,0,1,9.77,4.21,22.28,22.28,0,0,1,6.84,7.1,19.05,19.05,0,0,1,2.57,10,19.69,19.69,0,0,1-1.44,7.66,20,20,0,0,1-3.91,6.07,23.34,23.34,0,0,1-5.81,4.47,34.91,34.91,0,0,1-7.25,3l16.35,28.07-15.42.1-15.42-26.63H436.66V737.3Zm13.36-65.8v33.1H452.6a18.66,18.66,0,0,0,6.27-1,13.72,13.72,0,0,0,5-3.09,14.13,14.13,0,0,0,3.29-5.19,23,23,0,0,0,0-14.55,14.17,14.17,0,0,0-3.29-5.14,13.72,13.72,0,0,0-5-3.09,18.66,18.66,0,0,0-6.27-1Z"/><path class="cls-2" d="M493.93,665.33H543.8v6.17H507.3v26.73h31.16v6.17H507.3v26.73h36.5v6.17H493.93Z"/><path class="cls-2" d="M560.77,675.3v62H554.6v-72h15.73l38.14,62v-62h6.17v72H598.91Z"/><path class="cls-2" d="M670.27,671.5H625.44v-6.17h61.49v6.17L642.2,731.13h44.73v6.17H625.44v-6.17Z"/><path class="cls-2" d="M729.8,665.33h8.43l32.29,72h-14.6l-10.8-24h-30l-10.59,24h-6.79Zm12.55,41.85-12.24-27.36-12.24,27.36Z"/></svg>