<svg id="Layer_1" data-name="Layer 1" xmlns="http://www.w3.org/2000/svg" viewBox="0 0 1000 1000"><defs><style>.cls-1{fill:#e8e4dd;}.cls-2{fill:#ce5e54;}.cls-3{fill:#fff;}.cls-4{fill:#d6d1ce;}</style></defs><rect class="cls-1" x="0.15" width="1000" height="1000"/><path class="cls-2" d="M459.71,477.18c-12.26,9.89-24.84,19.36-39.63,26.35-17.83,8.43-35.46,12-53.14,9.27-12-1.83-21.77-6.08-29.79-12.79-7-5.9-11.89-12.74-14.36-20.53a89.41,89.41,0,0,1,1-10.54c2.85-18.42,11.63-35.84,26.06-52.25,10.45-11.89,23.35-21.86,38-30.2a2.8,2.8,0,0,1,2.41-.63c-.45,1.25-1.83,2-2.87,2.87-15.88,13.33-25.28,28.49-27.64,45.12s3.21,29.93,15.73,40.42c8,6.71,17.81,11,29.79,12.78,17.68,2.69,35.31-.82,53.14-9.25Z"/><path class="cls-2" d="M671,462.45c-1.43,3-3,6-4.58,8.93-.41.79-.75,1.83-1.92,2s-1.24-.71-1.62-1.27a17.91,17.91,0,0,0-5.78-5.81c-5.29-3.06-11.49-3.26-18.23-1.84-1.08.23-2.17.5-3.28.81-10.26,2.84-19.41,8-28.14,13.72-5.39,3.56-10.49,7.47-15.68,11.25-.64.47-2,1-1.39,1.79.4.58,1.43,0,2.18-.17a43.2,43.2,0,0,1,4.26-.73c6.16-.74,11.53.17,15.59,3.78.66.59,1.75,1.19,1.13,2.16s-1.8.35-2.69.37a25,25,0,0,0-11.54,3,203.19,203.19,0,0,0-20.62,12.89c-2.52,1.77-5,3.53-7.59,5.27a387.25,387.25,0,0,1-35.55,22c-23,12.39-47,22-72.35,26.33-19.28,3.3-37.68,3.14-55.08-.56A120.36,120.36,0,0,1,370,551.62c-21.18-13-37.27-29.5-44.58-51.63a58.41,58.41,0,0,1-2.65-20.51c2.47,7.79,7.31,14.63,14.36,20.53,8,6.71,17.8,11,29.79,12.79,17.68,2.68,35.31-.84,53.14-9.27,14.79-7,27.37-16.46,39.63-26.35,14.37-7,26.67-16.3,38.67-26C511.08,441,522.93,430,535.6,419.77c3.49-2.84,7-5.63,10.71-8.33,13.36-9.9,27.49-18.8,43.81-24a78.93,78.93,0,0,1,33.74-3.31c.5.07.95.26,2.37.66-11.66,2.61-21.76,6.17-29.93,13.86,5.06-1.05,10.05-2.07,15.05-2.74,15.66-2.08,29.4,0,41.47,5.63,13.09,6.08,21.15,15.63,23.68,28.47C678.57,440.48,676.28,451.4,671,462.45Z"/><path class="cls-3" d="M665.35,457.74c-1.4,3.23-1.54,3.2-4.34,1.6a18.49,18.49,0,0,0-4.43-1.8,55.68,55.68,0,0,0-18.64-12.17c-20-7.8-38.67-1.26-49.87,2.84-40.51,14.81-44,44.27-83.86,65.73-13.4,7.21-30.54,13.32-52.46,15.4-1.75-.19-3.51-.42-5.26-.66,33.2-12.09,55.61-33.92,75.86-57.94-20.22,14.35-41.28,22-64.09,18.38-.05-1.33.79-1.5,1.37-1.76,18.55-8.45,34-20.3,48.52-33.19C521.9,442,535,429.28,549.56,417.71c10.89-8.62,22.48-16.34,35.76-21.8.81-.33,1.64-.92,2.88-.43-4.62,3.54-8.88,7.17-13,10.93-3.46,3.17-5.89,6.74-8.52,10.24-.49.66-1.38,1.51-.72,2s1.65-.37,2.39-.79c10.33-5.75,21.15-10,32.55-11.89,21-3.41,39.82-1.75,54.29,8.24C670.35,424.72,673.23,439.56,665.35,457.74Z"/><path class="cls-4" d="M656.58,457.54c-5.77-1.57-12.42-.73-19.12.57-14.91,2.88-27.92,10-40.06,18.7-13.12,9.41-23.91,20.38-33.6,32a7.84,7.84,0,0,0-.55,1.2c8.73-4.19,16.72-9.46,26.15-10.17.21,1-.81,1.21-1.41,1.57-11.91,7-22.85,15.26-34.6,22.49-13.1,8.07-26.44,15.68-41.85,18.37-2.32.41-5.53,1.35-6.41-.16-.75-1.28,2.47-2.63,3.94-3.9,7.95-6.88,14.08-14.65,20-22.53a7.88,7.88,0,0,0,.8-1.32c.07-.15,0-.33-.14-1-26.23,16.58-52.11,18.84-78,15.91,21.92-2.08,39.06-8.19,52.46-15.4,39.89-21.46,43.35-50.92,83.86-65.73,11.2-4.1,29.91-10.64,49.87-2.84A55.68,55.68,0,0,1,656.58,457.54Z"/><path class="cls-2" d="M523.93,328.92a296.91,296.91,0,0,0-22.67-41.86l-1.05-.05a207.34,207.34,0,0,0-108,24.47q.09,18.69.87,38.38c1,24.71,2.83,48.29,5.24,70.65A221.23,221.23,0,0,0,458,419a204.93,204.93,0,0,0,84.22-34.2A297.3,297.3,0,0,0,523.93,328.92ZM445.4,308.51c-4,2-8.14,3.92-12.26,5.73s-8.27,3.52-12.46,5.13c-2.95,1.16-5.93,2.25-8.92,3.31.29,8.47.31,16.94-.07,25.43-.21,4.88-.53,9.77-1,14.66-.25,2.45-.54,4.89-.89,7.35s-.73,4.9-1.26,7.36c-.7-2.42-1.27-4.83-1.79-7.26s-1-4.83-1.42-7.26c-.86-4.84-1.54-9.69-2.09-14.55-1.15-9.71-1.78-19.44-2.06-29.18l-.12-4,3.68-1.2c4.26-1.4,8.54-2.73,12.86-3.95s8.66-2.38,13-3.45,8.79-2,13.24-2.84,8.93-1.55,13.53-1.95C453.46,304.34,449.44,306.46,445.4,308.51Z"/><path class="cls-2" d="M185.67,692.28H170.3v20.11H153.6V640.21h31.24a40.13,40.13,0,0,1,16.66,3.19,24.77,24.77,0,0,1,10.88,9.08,25,25,0,0,1,3.81,13.92,23.49,23.49,0,0,1-14.85,22.79l16.19,23.2H199.59Zm-1.76-38.46H170.3V679h13.61q7.53,0,11.45-3.3t3.92-9.28q0-6.09-3.92-9.33T183.91,653.82Z"/><path class="cls-2" d="M238.17,689.19a13.05,13.05,0,0,0,5.36,8.15,17.78,17.78,0,0,0,10.52,3,21.24,21.24,0,0,0,7.68-1.29A18.48,18.48,0,0,0,268,695l8.56,9.29q-7.84,9-22.89,9A36.26,36.26,0,0,1,237,709.56,26.89,26.89,0,0,1,225.9,699.4,27.93,27.93,0,0,1,222,684.65,28.39,28.39,0,0,1,225.84,670a27,27,0,0,1,10.63-10.21,32.91,32.91,0,0,1,29.85-.16,25.59,25.59,0,0,1,10.36,10.06,30,30,0,0,1,3.77,15.21c0,.2-.1,1.65-.31,4.33ZM238,679.8h27.33a13.29,13.29,0,0,0-4.54-8.4,13.54,13.54,0,0,0-9.07-3.15,13.86,13.86,0,0,0-9.18,3.1A13.14,13.14,0,0,0,238,679.8Z"/><path class="cls-2" d="M345.49,712.39H330.13V706q-6,7.21-17.33,7.22a28.81,28.81,0,0,1-14.18-3.51,25.13,25.13,0,0,1-9.95-10,33.2,33.2,0,0,1,0-30.11,25.09,25.09,0,0,1,9.95-10,28.8,28.8,0,0,1,14.18-3.5q10.62,0,16.61,6.7V635.87h16.08Zm-15.78-27.74q0-7-4-11.19a14.45,14.45,0,0,0-20.31,0q-4,4.18-4,11.19t4,11.19a14.43,14.43,0,0,0,20.31,0Q329.71,691.67,329.71,684.65Z"/><path class="cls-2" d="M376,672.69h33.41v13.4H376v26.3H359.27V640.21h54.55v13.4H376Z"/><path class="cls-2" d="M420.14,699.4a29.71,29.71,0,0,1,0-29.5A27.19,27.19,0,0,1,431,659.75a35.5,35.5,0,0,1,31.4,0,27.32,27.32,0,0,1,10.83,10.15,29.71,29.71,0,0,1,0,29.5,27.41,27.41,0,0,1-10.83,10.16,35.5,35.5,0,0,1-31.4,0A27.28,27.28,0,0,1,420.14,699.4Zm40.73-14.75q0-7-4-11.19a13.41,13.41,0,0,0-10.16-4.17,13.6,13.6,0,0,0-10.21,4.17q-4,4.18-4,11.19t4,11.19A13.61,13.61,0,0,0,446.74,700a13.42,13.42,0,0,0,10.16-4.18Q460.88,691.67,460.87,684.65Z"/><path class="cls-2" d="M507,695.38l-12.58,17H476.88l21.35-27.94-20.62-27.54h18l11.76,16.19,12.06-16.19h17.12L516,684l21.45,28.36H519.17Z"/><path class="cls-2" d="M587.93,672.69h33.41v13.4H587.93v26.3H571.22V640.21h54.56v13.4H587.93Z"/><path class="cls-2" d="M630.79,640.21a8.38,8.38,0,0,1,2.78-6.4,10.2,10.2,0,0,1,7.22-2.58,10.47,10.47,0,0,1,7.22,2.48,8,8,0,0,1,2.78,6.19,8.78,8.78,0,0,1-2.78,6.65,11.31,11.31,0,0,1-14.44.05A8.38,8.38,0,0,1,630.79,640.21Zm18,16.7v55.48H632.75V656.91Z"/><path class="cls-2" d="M661.55,694V635.87h16.09v57.24a7.57,7.57,0,0,0,1.8,5.41,6.72,6.72,0,0,0,5.11,1.91,10.59,10.59,0,0,0,2.52-.31,8.15,8.15,0,0,0,2-.72l.73,12.48a26.37,26.37,0,0,1-8.36,1.34q-9.37,0-14.64-5T661.55,694Z"/><path class="cls-2" d="M789.25,680.63v31.76H773.16V683.1q0-6.6-2.73-9.84T762.64,670a11.47,11.47,0,0,0-9,3.66q-3.3,3.66-3.3,10.88v27.84H734.29V683.1q0-13.1-10.52-13.09a11.34,11.34,0,0,0-8.87,3.66q-3.3,3.66-3.3,10.88v27.84H695.51V656.91h15.37v6.4a20.31,20.31,0,0,1,7.58-5.37,25.44,25.44,0,0,1,9.84-1.85,23.86,23.86,0,0,1,10.63,2.32,18.84,18.84,0,0,1,7.63,6.75,22.73,22.73,0,0,1,8.61-6.7,27.17,27.17,0,0,1,11.39-2.37q10.43,0,16.55,6.13T789.25,680.63Z"/><path class="cls-2" d="M796.18,707.24l5.36-11.55a33.64,33.64,0,0,0,9,3.86,37.44,37.44,0,0,0,10.31,1.5Q831,701.05,831,696q0-2.37-2.79-3.4a41,41,0,0,0-8.56-1.75,83.94,83.94,0,0,1-11.24-2.37,17.55,17.55,0,0,1-7.68-4.75q-3.24-3.4-3.25-9.69a15.21,15.21,0,0,1,3-9.33,19.65,19.65,0,0,1,8.87-6.35,38,38,0,0,1,13.77-2.26,53.91,53.91,0,0,1,11.7,1.29,32.59,32.59,0,0,1,9.65,3.55l-5.37,11.45a32,32,0,0,0-16-4.13c-3.44,0-6,.49-7.73,1.45s-2.58,2.2-2.58,3.71a3.69,3.69,0,0,0,2.78,3.61,49.4,49.4,0,0,0,8.87,2,95.72,95.72,0,0,1,11.14,2.42,16.79,16.79,0,0,1,7.53,4.69q3.19,3.4,3.19,9.49a14.66,14.66,0,0,1-3.09,9.18,19.77,19.77,0,0,1-9,6.24,40.21,40.21,0,0,1-14.08,2.22,53.63,53.63,0,0,1-13.51-1.71A35.4,35.4,0,0,1,796.18,707.24Z"/></svg>