<svg id="Layer_1" data-name="Layer 1" xmlns="http://www.w3.org/2000/svg" viewBox="0 0 1000 1000"><defs><style>.cls-1{fill:#c9f4fc;}.cls-2{fill:#39b54a;}.cls-3{fill:#231f20;}</style></defs><rect class="cls-1" x="0.15" width="1000" height="1000"/><path class="cls-2" d="M704.24,489.57c-16.1-9.39-31.83-19.48-48.37-28-34.48-17.75-68.23-16.48-99.24,7.91-11.82,9.3-21.88,20.83-32.56,31.52-7.85,7.85-15.4,16-23.56,24.5-16-16.12-31.08-31.06-45.85-46.31-27.58-28.46-60.51-36.57-97.34-23.12-16.26,5.94-30.89,16.37-46.22,24.85-6,3.31-11.83,6.84-18.77,10.86,13.58,7.94,25.7,14.93,37.74,22.08,15.88,9.45,31.93,18.34,51,19.64,20.38,1.38,39.21-3,56.19-14.52,5.16-3.49,6.08-8.32,2.94-13s-7.09-5.28-13.83-1.6c-35.64,19.46-62.25,11.41-94.37-12-.21-.15-.07-.78-.13-1.75,7.15-4.2,14.36-8.8,21.89-12.81,26-13.87,51.49-12.47,75.75,4.13,6.25,4.27,11.42,10.18,16.92,15.53,8.39,8.16,16.73,16.37,25.31,24.82,1.77,1.73,3.54,3.45,5.31,5.21s3.5,3.45,5.27,5.18l3.7,3.65,1.65,1.61v0q6.4,6.33,12.76,12.66c3.92-3.93,7.82-7.85,11.75-11.78a.21.21,0,0,1-.08-.06l8.91-8.79.19-.19C535.14,516,548,503.33,560.8,490.58c32.55-32.48,74-26.85,108.84,2.25-10.51,5.69-20.47,11.62-30.89,16.6-12.41,5.93-25.81,7.69-39.13,4.36-9-2.24-17.64-6.36-26.28-10-6.86-2.86-10.79-2.26-13.6,2.82s-1.53,9.38,4.57,13.12c28.67,17.59,58.33,18.93,88.28,3.89,14.06-7.07,27.38-15.67,41-23.56,4.44-2.56,8.9-5.08,14-8C705.89,490.76,705.11,490.08,704.24,489.57Z"/><path class="cls-2" d="M500.64,456.11c-6.07,7-10,12-14.45,16.52-5.78,5.8-10.43,6.21-14.83,2.05-3.95-3.75-3.9-8.24,1.59-14.37,4.3-4.8,9.65-8.66,14.84-13.2-13.5-13.34-22-27.46-26.3-43.9-5.92-22.77-4.05-44.75,7.69-65.46,8.95-15.81,18.17-31.47,27.12-47.28,2.33-4.12,5.26-4.61,7.36-.78,11.68,21.25,25.37,41.8,33.87,64.29,11.8,31.21,2.78,60.26-18.17,85.69-1.79,2.18-3.73,4.24-6.37,7.21,5.19,4.9,10.5,9.46,15.26,14.53,4.53,4.83,4.44,9.5.57,13.35s-8.58,3.82-13.31-.94C510.61,468.87,506.48,463.15,500.64,456.11Zm-.06-133.49c-31.64,39.3-31.59,80.5.12,109.69,14.44-14.66,22.68-31.73,22.75-52.68C523.54,357.43,511.83,340.23,500.58,322.62Z"/><path class="cls-2" d="M600.93,366.13a22.19,22.19,0,1,1-22.19,22.18,22.21,22.21,0,0,1,22.19-22.18m0-18.88A41.07,41.07,0,1,0,642,388.31a41.06,41.06,0,0,0-41.06-41.06Z"/><path class="cls-2" d="M398.54,366.13a22.19,22.19,0,1,1-22.19,22.18,22.21,22.21,0,0,1,22.19-22.18m0-18.88a41.07,41.07,0,1,0,41.06,41.06,41.06,41.06,0,0,0-41.06-41.06Z"/><path class="cls-3" d="M263.61,620.71v66.46H247.44V659.44H222.25v27.73H206.18V620.71h16.07v25.76h25.19V620.71Z"/><path class="cls-3" d="M324.05,663.86H287.67c.19,3.94,1.19,6.78,3,8.5a9.65,9.65,0,0,0,6.95,2.59,9.55,9.55,0,0,0,5.93-1.79,8.4,8.4,0,0,0,3.1-4.6h17a22.21,22.21,0,0,1-4.51,9.91,24,24,0,0,1-8.84,6.86,30.18,30.18,0,0,1-25.61-.75,23.13,23.13,0,0,1-9.35-9.35A29,29,0,0,1,272,660.94a29.32,29.32,0,0,1,3.34-14.33,22.85,22.85,0,0,1,9.35-9.31,30.86,30.86,0,0,1,27.45,0,22.55,22.55,0,0,1,9.16,9,26.66,26.66,0,0,1,3.25,13.3A22.49,22.49,0,0,1,324.05,663.86Zm-18.57-14.53a10.2,10.2,0,0,0-7.09-2.58,10.57,10.57,0,0,0-7.34,2.63c-1.94,1.76-3,4.32-3.29,7.71h20.5C308.32,653.64,307.39,651.06,305.48,649.33Z"/><path class="cls-3" d="M363.15,636.79a16.37,16.37,0,0,1,6.39,7.42v-9.49h16v52.45h-16v-9.5a16.4,16.4,0,0,1-6.39,7.43,19,19,0,0,1-10.34,2.72,21.23,21.23,0,0,1-11.61-3.24,22.21,22.21,0,0,1-8.09-9.35,36.07,36.07,0,0,1,0-28.62,22.27,22.27,0,0,1,8.09-9.31,21.23,21.23,0,0,1,11.61-3.24A19,19,0,0,1,363.15,636.79Zm-13.49,14.75q-3.15,3.39-3.15,9.4t3.15,9.4a11.81,11.81,0,0,0,16.63-.09q3.25-3.48,3.25-9.31t-3.25-9.35a11.86,11.86,0,0,0-16.63-.05Z"/><path class="cls-3" d="M412.68,617.61v69.56H396.61V617.61Z"/><path class="cls-3" d="M424.9,613.9a11.28,11.28,0,0,1,13.91,0,7.86,7.86,0,0,1,2.63,6.06,7.76,7.76,0,0,1-2.63,6,11.28,11.28,0,0,1-13.91,0,7.73,7.73,0,0,1-2.63-6A7.83,7.83,0,0,1,424.9,613.9Zm14.94,20.82v52.45H423.77V634.72Z"/><path class="cls-3" d="M498.54,640.17q5.31,6,5.31,16.54v30.46H487.78V658.59c0-3.51-.93-6.25-2.77-8.22a9.61,9.61,0,0,0-7.38-3,10,10,0,0,0-7.76,3.1q-2.87,3.11-2.86,8.83v27.83H450.93V634.72H467v9.58a17.27,17.27,0,0,1,6.72-7.42,19.67,19.67,0,0,1,10.48-2.73Q493.23,634.15,498.54,640.17Z"/><path class="cls-3" d="M544.74,636.79a16.37,16.37,0,0,1,6.39,7.42v-9.49h16v52.16a30.15,30.15,0,0,1-2.82,13.21,21.59,21.59,0,0,1-8.65,9.35q-5.82,3.48-14.47,3.48-11.85,0-18.94-5.59a22.77,22.77,0,0,1-8.51-15.18h15.89a7.94,7.94,0,0,0,3.43,5,12.4,12.4,0,0,0,7,1.79,11.29,11.29,0,0,0,8-2.87q3-2.87,3-9.17v-9.21a16.4,16.4,0,0,1-6.39,7.43,19,19,0,0,1-10.34,2.72,21.28,21.28,0,0,1-11.61-3.24,22.19,22.19,0,0,1-8.08-9.35,36.07,36.07,0,0,1,0-28.62,22.25,22.25,0,0,1,8.08-9.31,21.28,21.28,0,0,1,11.61-3.24A19,19,0,0,1,544.74,636.79Zm-13.49,14.75q-3.15,3.39-3.15,9.4t3.15,9.4a11.82,11.82,0,0,0,16.64-.09q3.24-3.48,3.24-9.31t-3.24-9.35a11.87,11.87,0,0,0-16.64-.05Z"/><path class="cls-3" d="M594.27,674.85H615.7v12.32H578.2V620.71h16.07Z"/><path class="cls-3" d="M653.39,636.79a16.33,16.33,0,0,1,6.4,7.42v-9.49h16v52.45h-16v-9.5a16.36,16.36,0,0,1-6.4,7.43,18.92,18.92,0,0,1-10.33,2.72,21.23,21.23,0,0,1-11.61-3.24,22.21,22.21,0,0,1-8.09-9.35,36.07,36.07,0,0,1,0-28.62,22.27,22.27,0,0,1,8.09-9.31,21.23,21.23,0,0,1,11.61-3.24A18.93,18.93,0,0,1,653.39,636.79Zm-13.48,14.75q-3.15,3.39-3.15,9.4t3.15,9.4a11.81,11.81,0,0,0,16.63-.09q3.26-3.48,3.25-9.31t-3.25-9.35a11.86,11.86,0,0,0-16.63-.05Z"/><path class="cls-3" d="M731.17,637.3a22.27,22.27,0,0,1,8.09,9.31,36.07,36.07,0,0,1,0,28.62,22.21,22.21,0,0,1-8.09,9.35,21.22,21.22,0,0,1-11.6,3.24,19,19,0,0,1-10.34-2.72,15.81,15.81,0,0,1-6.3-7.43v9.5H686.86V617.61h16.07v26.6a15.78,15.78,0,0,1,6.3-7.42,19,19,0,0,1,10.34-2.73A21.22,21.22,0,0,1,731.17,637.3Zm-25.09,14.29q-3.24,3.43-3.24,9.35t3.24,9.31a11.81,11.81,0,0,0,16.63.09q3.15-3.37,3.15-9.4t-3.15-9.4a11.86,11.86,0,0,0-16.63.05Z"/><path class="cls-3" d="M785.6,639a21.63,21.63,0,0,1,7.47,13.16H778a8.36,8.36,0,0,0-3-5,9,9,0,0,0-5.78-1.83,6.35,6.35,0,0,0-4.14,1.17,4.12,4.12,0,0,0-1.41,3.34,3.92,3.92,0,0,0,2.59,3.67,41.12,41.12,0,0,0,8.13,2.44,81,81,0,0,1,9.87,2.87,16.27,16.27,0,0,1,6.67,4.74c1.88,2.2,2.82,5.14,2.82,8.84a13.54,13.54,0,0,1-2.44,8,16.11,16.11,0,0,1-7,5.45,27.5,27.5,0,0,1-10.91,2q-10.62,0-17-4.7t-7.8-13.44h15.51a7,7,0,0,0,2.87,5.17,10.77,10.77,0,0,0,6.43,1.79,6,6,0,0,0,4.14-1.27A4.29,4.29,0,0,0,779,672a4,4,0,0,0-2.58-3.9,48.24,48.24,0,0,0-8.42-2.49,66.49,66.49,0,0,1-9.58-2.63,15.83,15.83,0,0,1-6.49-4.56c-1.82-2.1-2.73-5-2.73-8.6a14,14,0,0,1,5.36-11.42q5.36-4.36,15.13-4.37Q779.64,634.06,785.6,639Z"/></svg>