<svg width="22" height="22" viewBox="0 0 22 22" fill="none" xmlns="http://www.w3.org/2000/svg">
<g clip-path="url(#clip0_41:886)">
<path d="M18.4515 2.37386C17.3888 1.3565 15.6679 1.3565 14.6052 2.37386L13.6424 3.30228L3.39343 13.1262L3.37165 13.1472C3.36637 13.1523 3.36637 13.1577 3.36076 13.1577C3.34987 13.1733 3.33353 13.1888 3.32281 13.2045C3.32281 13.2097 3.31719 13.2097 3.31719 13.2149C3.3063 13.2306 3.30103 13.2411 3.28997 13.2567C3.28469 13.2619 3.28469 13.267 3.27925 13.2724C3.2738 13.2881 3.26836 13.2985 3.26274 13.3142C3.26274 13.3192 3.25747 13.3192 3.25747 13.3246L0.983528 19.8825C0.916823 20.0692 0.967532 20.2759 1.11405 20.4145C1.217 20.5119 1.35585 20.5664 1.50032 20.5659C1.55937 20.565 1.61791 20.5561 1.6744 20.5398L8.50711 18.3538C8.51238 18.3538 8.51238 18.3538 8.518 18.3488C8.53519 18.3439 8.55169 18.3368 8.56684 18.3277C8.57109 18.3272 8.57483 18.3254 8.5779 18.3226C8.59406 18.3122 8.61585 18.3016 8.63218 18.2911C8.64835 18.2809 8.66485 18.2652 8.68119 18.2548C8.68663 18.2494 8.69191 18.2494 8.69191 18.2443C8.69753 18.2391 8.70842 18.234 8.71386 18.2234L19.9256 7.47095C20.9865 6.45179 20.9865 4.8014 19.9256 3.7824L18.4515 2.37386ZM8.33303 17.1277L4.54682 13.4968L14.0232 4.40858L17.8094 8.03952L8.33303 17.1277ZM4.01352 14.4619L7.32122 17.634L2.35439 19.2199L4.01352 14.4619ZM19.1587 6.74049L18.582 7.29878L14.7956 3.66751L15.3779 3.10938C16.0149 2.49903 17.0473 2.49903 17.6844 3.10938L19.164 4.52837C19.7961 5.14199 19.7938 6.12981 19.1587 6.74049Z" fill="#797979"/>
</g>
<defs>
<clipPath id="clip0_41:886">
<rect x="0.30127" y="0.985352" width="21.0843" height="20.2206" rx="6" fill="white"/>
</clipPath>
</defs>
</svg>
