<svg width="16" height="17" viewBox="0 0 16 17" fill="none" xmlns="http://www.w3.org/2000/svg">
<path opacity="0.5" d="M7.96964 0.216797C5.67389 0.216797 3.80614 2.08454 3.80614 4.38029C3.80614 6.67605 5.67389 8.54379 7.96964 8.54379C10.2654 8.54379 12.1331 6.67605 12.1331 4.38029C12.1331 2.08454 10.2654 0.216797 7.96964 0.216797ZM7.96964 6.87839C6.59235 6.87839 5.47154 5.75758 5.47154 4.38029C5.47154 3.00301 6.59235 1.8822 7.96964 1.8822C9.34692 1.8822 10.4677 3.00301 10.4677 4.38029C10.4677 5.75758 9.34692 6.87839 7.96964 6.87839ZM15.4639 16.0381V15.2054C15.4639 11.992 12.8484 9.37649 9.63504 9.37649H6.30424C3.09002 9.37649 0.475342 11.992 0.475342 15.2054V16.0381H2.14074V15.2054C2.14074 12.9096 4.00849 11.0419 6.30424 11.0419H9.63504C11.9308 11.0419 13.7985 12.9096 13.7985 15.2054V16.0381H15.4639Z" fill="#03014C"/>
</svg>
