<svg width="68" height="67" viewBox="0 0 68 67" fill="none" xmlns="http://www.w3.org/2000/svg">
<path d="M56.861 30.7285L64.7939 15.8066C65.4205 14.6268 65.546 13.2501 65.1426 11.9792C64.7392 10.7084 63.8401 9.64735 62.6429 9.02954C61.4457 8.41173 60.0485 8.28769 58.7585 8.68472C57.4686 9.08174 56.3914 9.96731 55.764 11.1467L47.8311 26.0686C47.4512 26.7788 47.2508 27.5688 47.2468 28.3716C47.2429 29.1744 47.4356 29.9663 47.8085 30.6801L45.3515 35.3033L41.913 33.61C41.6698 33.4906 41.3895 33.4673 41.1295 33.5449C40.8695 33.6225 40.6495 33.7951 40.5145 34.0274L33.988 45.28C33.0063 46.9758 32.478 48.8895 32.4528 50.8416C31.6067 50.4518 30.684 50.2499 29.75 50.2501C29.7048 50.2501 29.661 50.2527 29.6159 50.254C29.3799 49.3549 28.8477 48.5584 28.1029 47.9893C27.358 47.4202 26.4426 47.1108 25.5 47.1095V38.7345H26.5625C29.6611 38.7309 32.6317 37.5165 34.8228 35.3576C37.0138 33.1988 38.2463 30.2719 38.25 27.2188V23.0313C38.2489 22.1987 37.9127 21.4005 37.3152 20.8118C36.7176 20.2231 35.9075 19.8918 35.0625 19.8907H26.8281C24.9613 19.8864 23.1197 20.3151 21.4522 21.1421C19.7847 21.9691 18.3382 23.1713 17.2298 24.6514C16.0403 24.2708 14.7974 24.0774 13.5469 24.0782H5.3125C4.46747 24.0793 3.65736 24.4106 3.05984 24.9993C2.46231 25.588 2.12612 26.3862 2.125 27.2188V31.4063C2.12866 34.4594 3.36119 37.3863 5.55223 39.5451C7.74327 41.704 10.7139 42.9184 13.8125 42.922H19.125V47.2416C18.3895 47.4301 17.7186 47.8092 17.182 48.3395C16.6197 48.1701 16.0278 48.1174 15.4438 48.1848C14.8598 48.2522 14.2964 48.4383 13.7891 48.7313C13.2818 49.0242 12.8417 49.4177 12.4967 49.8868C12.1516 50.3559 11.9091 50.8904 11.7845 51.4566C11.2394 51.3039 10.6688 51.2601 10.1063 51.328C9.5438 51.3958 9.00076 51.5739 8.50918 51.8517C8.01759 52.1294 7.58739 52.5013 7.2439 52.9455C6.90041 53.3896 6.65059 53.8969 6.50914 54.4376H4.25V56.5313H7.4375C7.57704 56.5314 7.71522 56.5043 7.84415 56.4517C7.97307 56.3991 8.09021 56.322 8.18888 56.2248C8.28755 56.1276 8.36581 56.0122 8.4192 55.8851C8.47258 55.7581 8.50004 55.6219 8.5 55.4845C8.5 54.9292 8.72388 54.3966 9.1224 54.004C9.52091 53.6113 10.0614 53.3907 10.625 53.3907C11.1886 53.3907 11.7291 53.6113 12.1276 54.004C12.5261 54.3966 12.75 54.9292 12.75 55.4845H14.875C14.8757 54.4891 14.5148 53.5264 13.8577 52.7704C13.7928 52.4658 13.7979 52.1508 13.8723 51.8483C13.9468 51.5458 14.0889 51.2635 14.2881 51.022C14.4874 50.7805 14.7389 50.5859 15.0243 50.4524C15.3096 50.3188 15.6216 50.2497 15.9375 50.2501C15.9827 50.2501 16.0265 50.254 16.0703 50.2566C16.609 50.2911 17.1143 50.5258 17.4841 50.9132C17.8539 51.3007 18.0606 51.812 18.0625 52.3438H20.1875C20.1879 51.2976 19.7898 50.2894 19.0719 49.5186C19.4541 49.2837 19.9025 49.1754 20.3517 49.2093C20.8008 49.2432 21.2272 49.4176 21.5687 49.707C21.3581 50.2114 21.2498 50.7516 21.25 51.297H23.375C23.3748 50.7987 23.555 50.3167 23.8832 49.9376C24.2115 49.5586 24.6662 49.3074 25.1656 49.2291C25.665 49.1509 26.1764 49.2508 26.6078 49.5109C27.0391 49.771 27.3621 50.1741 27.5188 50.6479C26.3028 51.0971 25.2548 51.9009 24.5144 52.952C23.774 54.0032 23.3766 55.2518 23.375 56.5313H25.5C25.4998 55.6663 25.7715 54.8224 26.2779 54.1157C26.7842 53.4091 27.5003 52.8743 28.3277 52.5849C29.1551 52.2956 30.0531 52.2659 30.8984 52.5C31.7436 52.734 32.4945 53.2203 33.0477 53.8919C32.3724 54.2506 31.8081 54.7826 31.4146 55.4316C31.0211 56.0805 30.813 56.8223 30.8125 57.5782H32.9375C32.9375 57.0229 33.1614 56.4904 33.5599 56.0977C33.9584 55.705 34.4989 55.4845 35.0625 55.4845C35.6261 55.4845 36.1666 55.705 36.5651 56.0977C36.9636 56.4904 37.1875 57.0229 37.1875 57.5782H39.3125C39.3127 56.974 39.1795 56.377 38.922 55.8286C39.3717 55.6022 39.8695 55.4842 40.3745 55.4845C40.8795 55.4847 41.3772 55.6031 41.8266 55.8299C41.5702 56.3781 41.4375 56.9746 41.4375 57.5782H43.5625C43.5625 57.0229 43.7864 56.4904 44.1849 56.0977C44.5834 55.705 45.1239 55.4845 45.6875 55.4845C46.2511 55.4845 46.7916 55.705 47.1901 56.0977C47.5886 56.4904 47.8125 57.0229 47.8125 57.5782H49.9375C49.9377 57.0328 49.8294 56.4927 49.6188 55.9883C49.9272 55.7278 50.3051 55.5599 50.7075 55.5045C51.1099 55.4492 51.5199 55.5088 51.889 55.6761C52.2581 55.8435 52.5707 56.1116 52.7898 56.4488C53.0089 56.7859 53.1252 57.1779 53.125 57.5782C53.125 57.7157 53.1524 57.8518 53.2058 57.9789C53.2592 58.1059 53.3375 58.2213 53.4361 58.3185C53.5348 58.4158 53.6519 58.4929 53.7809 58.5455C53.9098 58.5981 54.048 58.6251 54.1875 58.6251H62.6875V56.5313H55.1159C54.9575 55.9266 54.6638 55.3644 54.2563 54.886C53.8489 54.4075 53.3379 54.025 52.7609 53.7664C52.1839 53.5078 51.5555 53.3797 50.9217 53.3914C50.2879 53.4032 49.6648 53.5545 49.0981 53.8343C49.3567 53.4297 49.5896 53.0098 49.7954 52.5768L55.1504 41.2705C55.2671 41.0233 55.2815 40.741 55.1905 40.4835C55.0995 40.226 54.9103 40.0136 54.663 39.8912L50.66 37.9192L53.0852 33.3574C53.8801 33.2428 54.6363 32.945 55.2924 32.4882C55.9485 32.0314 56.4859 31.4285 56.861 30.7285ZM23.375 47.6735C23.19 47.7789 23.0133 47.8979 22.8464 48.0294C22.3767 47.659 21.8326 47.3909 21.25 47.2429V41.8751C21.25 41.7376 21.2226 41.6014 21.1692 41.4744C21.1158 41.3474 21.0376 41.232 20.9389 41.1347C20.8402 41.0375 20.7231 40.9604 20.5941 40.9078C20.4652 40.8552 20.327 40.8282 20.1875 40.8282H18.0625C15.5273 40.8253 13.0967 39.8318 11.304 38.0654C9.51132 36.2991 8.50291 33.9043 8.5 31.4063V30.3595H6.375V31.4063C6.37467 33.1056 6.75661 34.7837 7.49332 36.3201C8.23003 37.8565 9.30321 39.2129 10.6356 40.2917C8.77008 39.642 7.15455 38.4389 6.01111 36.8479C4.86766 35.2568 4.25244 33.3559 4.25 31.4063V27.2188C4.25037 26.9413 4.36243 26.6752 4.56161 26.479C4.76079 26.2827 5.03082 26.1723 5.3125 26.172H13.5469C16.1525 26.175 18.6505 27.1962 20.493 29.0116C22.3354 30.827 23.3719 33.2882 23.375 35.8556V47.6735ZM19.2472 25.5059C20.1669 24.402 21.3243 23.5134 22.6354 22.9044C23.9465 22.2954 25.3786 21.9812 26.8281 21.9845H35.0625C35.3442 21.9848 35.6142 22.0952 35.8134 22.2915C36.0126 22.4877 36.1246 22.7538 36.125 23.0313V27.2188C36.1226 29.1693 35.5068 31.0711 34.3623 32.6625C33.2178 34.2539 31.6009 35.4567 29.7341 36.1055C31.0652 35.025 32.1378 33.6682 32.8752 32.132C33.6126 30.5958 33.9967 28.9182 34 27.2188V26.172H31.875V27.2188C31.8705 29.1665 31.2557 31.0652 30.1147 32.6556C28.9736 34.2459 27.362 35.4503 25.5 36.1042V35.8556C25.4985 33.7359 24.9169 31.6558 23.8165 29.8344C22.7161 28.013 21.1376 26.5177 19.2472 25.5059V25.5059ZM52.7877 41.3085L47.8696 51.6922C47.5616 52.3419 47.1793 52.9548 46.7301 53.519C46.1272 53.3682 45.498 53.3501 44.8872 53.4659C44.2765 53.5817 43.699 53.8286 43.1959 54.189C42.3508 53.6662 41.3729 53.3894 40.375 53.3907C40.3272 53.3907 40.2794 53.3933 40.2316 53.3946L43.4323 47.6107L41.5677 46.6083L37.4213 54.0973C36.7838 53.6758 36.0418 53.4333 35.275 53.3959C35.1098 53.1129 34.9224 52.8429 34.7145 52.5886C34.3376 50.434 34.7335 48.2174 35.8342 46.3191L41.8612 35.9262L44.3647 37.1589L42.3552 40.9395C42.1742 41.2796 42.0629 41.6515 42.0278 42.0339C41.9927 42.4164 42.0344 42.802 42.1505 43.1686C42.2666 43.5352 42.4549 43.8756 42.7046 44.1705C42.9544 44.4654 43.2606 44.7089 43.6058 44.8871C43.9511 45.0654 44.3286 45.1749 44.7168 45.2093C45.105 45.2438 45.4963 45.2026 45.8683 45.088C46.2403 44.9734 46.5858 44.7878 46.885 44.5416C47.1841 44.2955 47.4312 43.9937 47.612 43.6534L49.6732 39.7748L52.7877 41.3085ZM45.73 42.6812C45.6582 42.8159 45.5502 42.9287 45.418 43.0074C45.2857 43.0861 45.1341 43.1276 44.9796 43.1274C44.8144 43.1273 44.653 43.0785 44.5161 42.9874C44.3423 42.8743 44.2174 42.7015 44.1659 42.5026C44.1143 42.3038 44.1397 42.0931 44.2372 41.9117L49.2867 32.4113C49.6115 32.653 49.9647 32.8551 50.3386 33.0133C50.4836 33.0751 50.6316 33.1297 50.7822 33.1769L45.73 42.6812ZM51.1753 31.0897C50.7989 30.9304 50.46 30.6963 50.1798 30.4019C49.8996 30.1076 49.6841 29.7593 49.5469 29.379C49.4098 28.9988 49.3538 28.5946 49.3826 28.1921C49.4115 27.7895 49.5244 27.3971 49.7144 27.0395L57.6473 12.1177C57.9969 11.4671 58.5815 10.9694 59.2854 10.7227C59.9894 10.4761 60.7617 10.4985 61.4497 10.7855C61.8261 10.9447 62.165 11.1789 62.4452 11.4732C62.7254 11.7676 62.9409 12.1158 63.0781 12.4961C63.2152 12.8764 63.2712 13.2805 63.2424 13.6831C63.2135 14.0857 63.1006 14.4781 62.9106 14.8356L54.9777 29.7575C54.6281 30.4081 54.0435 30.9058 53.3396 31.1524C52.6356 31.3991 51.8634 31.3767 51.1753 31.0897H51.1753Z" fill="white"/>
</svg>
