<svg width="47" height="44" viewBox="0 0 47 44" fill="none" xmlns="http://www.w3.org/2000/svg">
<path d="M46.1335 17.4222L41.2818 16.918C40.9331 15.8476 40.4741 14.8114 39.911 13.8243L42.9601 10.2566C43.2713 9.89194 43.2401 9.3666 42.8877 9.03652L37.3475 3.85551C36.9949 3.52559 36.4338 3.49637 36.0443 3.7877L32.2332 6.64126C31.1788 6.11412 30.072 5.68426 28.9286 5.35796L28.39 0.815892C28.3351 0.351399 27.9159 0 27.4167 0H19.5834C19.0843 0 18.665 0.351399 18.6101 0.815806L18.0715 5.35332C16.9281 5.67971 15.8213 6.10948 14.7668 6.63662L10.9559 3.78212C10.5664 3.49079 10.0052 3.52001 9.65264 3.84992L4.11251 9.03652C3.76037 9.36686 3.72962 9.8922 4.041 10.2566L7.09408 13.8243C6.53099 14.8114 6.07182 15.8476 5.72327 16.918L0.871521 17.4222C0.375358 17.4736 0 17.8661 0 18.3333V25.6667C0 26.1339 0.375358 26.5265 0.871429 26.5779L5.71831 27.0821C6.06696 28.1525 6.52604 29.1886 7.08912 30.1758L4.03999 33.7435C3.7288 34.1081 3.76001 34.6335 4.11242 34.9636L9.65255 40.1501C10.0067 40.4784 10.5678 40.5052 10.9558 40.2124L14.7668 37.3588C15.8212 37.886 16.928 38.3158 18.0714 38.6421L18.61 43.1842C18.6649 43.6486 19.0841 44.0001 19.5833 44H27.4167C27.9141 44.0003 28.3327 43.6514 28.39 43.1887L28.9286 38.6467C30.072 38.3203 31.1788 37.8905 32.2332 37.3634L36.0442 40.2179C36.4337 40.5092 36.9949 40.48 37.3474 40.1501L42.8817 34.9636C43.2341 34.6335 43.2653 34.1081 42.9541 33.7435L39.906 30.1758C40.4691 29.1886 40.9283 28.1525 41.2768 27.0821L46.1286 26.5779C46.6246 26.5265 47.0001 26.134 47 25.6667V18.3333C47.0004 17.8676 46.6277 17.4758 46.1335 17.4222ZM45.042 24.8463H45.0418L40.4133 25.3285C40.0118 25.3703 39.6789 25.6386 39.5751 26.0041C39.198 27.3365 38.6325 28.6159 37.8938 29.8083C37.6909 30.1355 37.7235 30.5459 37.9761 30.8413L40.8871 34.2476L36.5876 38.2727L32.9491 35.5474C32.6335 35.311 32.1952 35.2804 31.8456 35.4704C30.5719 36.162 29.2053 36.6913 27.782 37.0444C27.3916 37.1415 27.105 37.4532 27.0604 37.8291L26.5453 42.1668H20.4647L19.9447 37.8291C19.9001 37.4532 19.6135 37.1416 19.2231 37.0444C17.7998 36.6913 16.4332 36.162 15.1595 35.4704C14.81 35.2804 14.3717 35.311 14.0561 35.5474L10.4175 38.2727L6.118 34.2476L9.02907 30.8459C9.2816 30.5504 9.31428 30.1401 9.11132 29.8128C8.37263 28.6204 7.80725 27.3411 7.43005 26.0086C7.32632 25.6431 6.99337 25.3748 6.59185 25.3331L1.9584 24.8509V19.1583L6.59185 18.6716C6.99337 18.6298 7.32623 18.3615 7.43005 17.996C7.80716 16.6636 8.37263 15.3842 9.11132 14.1918C9.31428 13.8646 9.2816 13.4542 9.02907 13.1588L6.118 9.75246L10.4175 5.7274L14.061 8.45266C14.3766 8.68907 14.8149 8.71967 15.1645 8.52966C16.4382 7.83812 17.8048 7.30883 19.2281 6.95571C19.6185 6.8586 19.9051 6.5469 19.9497 6.17101L20.4648 1.83331H26.5405L27.0556 6.17101C27.1002 6.5469 27.3868 6.85851 27.7772 6.95571C29.2006 7.30874 30.5671 7.83812 31.8408 8.52966C32.1904 8.71967 32.6287 8.68907 32.9443 8.45266L36.5829 5.7274L40.8824 9.75711L37.9713 13.1634C37.7188 13.4589 37.6861 13.8692 37.889 14.1965C38.6277 15.3889 39.1931 16.6682 39.5703 18.0007C39.674 18.3662 40.007 18.6345 40.4085 18.6762L45.042 19.1584V24.8463Z" fill="white"/>
<path d="M35.4606 15.7339C31.7638 9.54862 23.4111 7.33993 16.8041 10.8007C10.1971 14.2615 7.83781 22.0812 11.5347 28.2665C11.5784 28.3397 11.6327 28.4069 11.696 28.4662C12.0781 28.8245 12.6981 28.8249 13.0808 28.4673L19.4777 22.4787L21.7375 25.3002C21.7654 25.3348 21.7956 25.3677 21.8284 25.3983C22.2108 25.7563 22.8307 25.7563 23.2132 25.3983L29.375 19.6297V22.9169H31.3334V17.4169H31.3332C31.3332 16.9107 30.8949 16.5004 30.3542 16.5002H24.4792V18.3335H27.9906L22.6267 23.355L20.3667 20.5335C20.1969 20.32 19.9364 20.1862 19.6529 20.1668C19.3697 20.1507 19.0927 20.2485 18.8911 20.4354L12.6655 26.2627C10.9821 22.512 11.6523 18.1972 14.407 15.0506C18.5125 10.3609 25.9017 9.67486 30.9113 13.5184C35.9207 17.3619 36.6535 24.2794 32.5479 28.9692C32.1695 29.4014 31.7631 29.7994 31.3334 30.1632V24.7502H29.375V31.5023C28.7475 31.8439 28.0917 32.1276 27.4167 32.3523V26.5835H25.4584V32.8311C24.8117 32.9346 24.1565 32.9875 23.5001 32.989V29.3335H21.5418V32.84C20.88 32.737 20.2247 32.5799 19.5835 32.3687V27.5002H17.625V31.525C17.0777 31.2291 16.5484 30.8887 16.0436 30.5014L14.7991 31.9177C17.2523 33.8018 20.327 34.8322 23.5 34.8336C25.843 34.8333 28.1466 34.2707 30.1912 33.1997C36.7982 29.7389 39.1575 21.9192 35.4606 15.7339Z" fill="white"/>
</svg>
