<svg width="51" height="54" viewBox="0 0 51 54" fill="none" xmlns="http://www.w3.org/2000/svg">
<path d="M23.1592 34.6992H21.5654V36.2813H23.1592V34.6992Z" fill="white"/>
<path d="M26.3467 34.6992H24.7529V36.2813H26.3467V34.6992Z" fill="white"/>
<path d="M29.5342 34.6992H27.9404V36.2813H29.5342V34.6992Z" fill="white"/>
<path d="M50.9502 39.6562V34.6992H39.7939V32.9062H42.1846V27.9492H34.2158V23.625H36.6064V18.668H34.2332C33.8741 14.1328 30.5303 10.5923 26.2471 10.212V7.59375H32.6221V0.949219H26.2471V0H24.7529V10.212C20.5693 10.5923 17.2255 14.1328 16.8664 18.668H14.3936V23.625H16.7842V27.9492H8.81543V32.9062H11.2061V34.6992H0.0498047V39.6562H1.64355V49.043H0.0498047V54H50.9502V49.043H49.3564V39.6562H50.9502ZM49.4561 36.2812V38.0742H39.7939V36.2812H49.4561ZM42.9814 49.043V39.6562H44.6748V49.043H42.9814ZM39.7939 39.6562H41.4873V49.043H39.7939V39.6562ZM32.7217 27.9492H31.0283V23.625H32.7217V27.9492ZM23.1592 23.625V27.9492H21.4658V23.625H23.1592ZM24.6533 23.625H26.3467V27.9492H24.6533V23.625ZM27.8408 23.625H29.5342V27.9492H27.8408V23.625ZM31.1279 2.53125V6.01172H26.2471V2.53125H31.1279ZM25.5498 11.8125C29.2796 11.8125 32.3578 14.7656 32.7328 18.668H18.3667C18.7418 14.7656 21.82 11.8125 25.5498 11.8125ZM15.8877 20.25H35.1123V22.043H15.8877V20.25ZM18.2783 23.625H19.9717V27.9492H18.2783V23.625ZM10.3096 29.5312H40.6904V31.3242H10.3096V29.5312ZM38.2998 32.9062V49.043H31.8252V43.0312H34.2158V38.0742H16.7842V43.0312H19.1748V49.043H12.7002V32.9062H38.2998ZM18.2783 41.4492V39.6562H32.7217V41.4492H18.2783ZM22.3623 43.0312V49.043H20.6689V43.0312H22.3623ZM23.8564 43.0312H27.1436V49.043H23.8564V43.0312ZM28.6377 43.0312H30.3311V49.043H28.6377V43.0312ZM8.01855 39.6562V47.25H9.5127V39.6562H11.2061V49.043H6.3252V39.6562H8.01855ZM1.54395 36.2812H11.2061V38.0742H1.54395V36.2812ZM3.1377 39.6562H4.83105V49.043H3.1377V39.6562ZM49.4561 52.418H1.54395V50.625H49.4561V52.418ZM47.8623 49.043H46.1689V39.6562H47.8623V49.043Z" fill="white"/>
</svg>
