<svg width="55" height="53" viewBox="0 0 55 53" fill="none" xmlns="http://www.w3.org/2000/svg">
<path d="M37.9201 35.6212C37.4963 35.2211 36.8162 35.2278 36.4009 35.6361L36.3704 35.6661C35.9552 36.0745 35.9622 36.7298 36.386 37.13C36.595 37.3274 36.8665 37.4258 37.1377 37.4258C37.4163 37.4258 37.6947 37.3219 37.9052 37.1151L37.9357 37.0851C38.3509 36.6767 38.3439 36.0214 37.9201 35.6212Z" fill="white"/>
<path d="M49.4758 24.7687H46.6212V22.0178C46.6212 21.4461 46.1403 20.9827 45.547 20.9827C44.9537 20.9827 44.4727 21.4461 44.4727 22.0178V24.7687H41.6181C41.0248 24.7687 40.5439 25.2321 40.5439 25.8038C40.5439 26.3755 41.0248 26.839 41.6181 26.839H44.4727V29.5898C44.4727 30.1615 44.9537 30.625 45.547 30.625C46.1403 30.625 46.6212 30.1615 46.6212 29.5898V26.839H49.4758C50.0691 26.839 50.55 26.3755 50.55 25.8038C50.55 25.2321 50.0691 24.7687 49.4758 24.7687Z" fill="white"/>
<path d="M49.059 17.3471C48.0557 10.2014 41.8566 4.85498 34.4985 4.85498C30.7842 4.85498 27.3096 6.1892 24.5997 8.63476C21.8896 6.1892 18.415 4.85498 14.7008 4.85498C6.59475 4.85498 0 11.3613 0 19.3586C0 20.9386 0.478351 22.7097 1.43 24.6647H1.07422C0.480929 24.6647 0 25.1281 0 25.6999C0 26.2716 0.480929 26.735 1.07422 26.735H2.57405C4.58037 30.0082 7.75319 33.7303 12.0795 37.8757C17.9426 43.4936 23.8878 47.8888 23.9472 47.9326C24.1397 48.0745 24.3697 48.1454 24.5997 48.1454C24.8296 48.1454 25.0595 48.0745 25.2521 47.9326C25.2975 47.8991 29.8444 44.5392 34.8834 39.9611C35.3151 39.5689 35.3351 38.9138 34.9281 38.4978C34.5212 38.0819 33.8413 38.0625 33.4096 38.4548C29.5666 41.9463 26.0188 44.7146 24.5998 45.7961C22.9135 44.5104 18.2189 40.8405 13.579 36.3929C9.86435 32.8321 7.02068 29.5871 5.09814 26.735H14.7152C15.1944 26.735 15.6156 26.4291 15.7478 25.9854L17.6246 19.681L22.8221 35.7279C22.9622 36.1601 23.3776 36.4546 23.8476 36.4546C24.3176 36.4546 24.733 36.1601 24.8729 35.7279L27.7513 26.8386H32.5471C33.1404 26.8386 33.6213 26.3752 33.6213 25.8035C33.6213 25.2318 33.1404 24.7683 32.5471 24.7683H26.9612C26.4913 24.7683 26.0757 25.0627 25.9358 25.4951L23.8473 31.9447L18.6066 15.7645C18.4652 15.328 18.0443 15.0315 17.5687 15.0378C17.0942 15.0431 16.6794 15.3479 16.5485 15.7875L13.9056 24.6648H3.8268C2.71638 22.6446 2.14844 20.864 2.14844 19.3586C2.14844 12.5028 7.7794 6.9253 14.7008 6.9253C18.1796 6.9253 21.4147 8.3033 23.8101 10.8053C24.0136 11.0177 24.2997 11.1385 24.5997 11.1385C24.8996 11.1385 25.1859 11.0177 25.3892 10.8053C27.7846 8.3033 31.0197 6.9253 34.4985 6.9253C40.4827 6.9253 45.5703 11.0839 46.7795 16.7722C46.3759 16.7214 45.9646 16.6948 45.5469 16.6948C40.3344 16.6948 36.0937 20.7813 36.0937 25.8042C36.0937 30.8271 40.3344 34.9136 45.5469 34.9136C50.7593 34.9136 55 30.8271 55 25.8042C55.0001 21.9766 52.5375 18.6933 49.059 17.3471ZM45.547 32.8433C41.5192 32.8433 38.2423 29.6855 38.2423 25.8042C38.2423 21.9229 41.5192 18.7651 45.547 18.7651C49.5748 18.7651 52.8517 21.9229 52.8517 25.8042C52.8517 29.6855 49.5748 32.8433 45.547 32.8433Z" fill="white"/>
</svg>
