<svg width="52" height="55" viewBox="0 0 52 55" fill="none" xmlns="http://www.w3.org/2000/svg">
<g clip-path="url(#clip0_108:79)">
<path d="M19.9341 37.5814H16.4679V33.9153C16.4679 33.4092 16.08 32.9988 15.6014 32.9988H12.1352C11.6567 32.9988 11.2687 33.4092 11.2687 33.9153V37.5814H7.80255C7.324 37.5814 6.936 37.9918 6.936 38.498V42.1641C6.936 42.6703 7.324 43.0806 7.80255 43.0806H11.2687V46.7468C11.2687 47.2529 11.6567 47.6633 12.1352 47.6633H15.6014C16.08 47.6633 16.4679 47.2529 16.4679 46.7468V43.0806H19.9341C20.4127 43.0806 20.8007 42.6703 20.8007 42.1641V38.498C20.8007 37.9918 20.4127 37.5814 19.9341 37.5814ZM19.0676 41.2476H15.6014C15.1229 41.2476 14.7349 41.6579 14.7349 42.1641V45.8302H13.0018V42.1641C13.0018 41.6579 12.6138 41.2476 12.1352 41.2476H8.66909V39.4145H12.1352C12.6138 39.4145 13.0018 39.0041 13.0018 38.498V34.8318H14.7349V38.498C14.7349 39.0041 15.1229 39.4145 15.6014 39.4145H19.0676V41.2476Z" fill="white"/>
<path d="M51.9095 38.6571C51.2448 32.3413 45.6366 26.4324 39.66 25.7587C39.1525 25.6995 38.6422 25.6689 38.1315 25.6671H28.5995V22.0009H26.8664V20.1679C26.8664 18.1431 25.3146 16.5017 23.4003 16.5017H19.0676C18.1104 16.5017 17.3345 15.6811 17.3345 14.6687C17.3345 13.6562 18.1104 12.8356 19.0676 12.8356H32.9322C34.8465 12.8356 36.3984 11.1942 36.3984 9.16948C36.3984 7.14474 34.8465 5.50335 32.9322 5.50335H28.5995C27.6423 5.50335 26.8664 4.68271 26.8664 3.67028V0.00415039H25.1334V3.67028C25.1334 5.69502 26.6852 7.33641 28.5995 7.33641H32.9322C33.8894 7.33641 34.6653 8.15705 34.6653 9.16948C34.6653 10.1819 33.8894 11.0025 32.9322 11.0025H19.0676C17.1533 11.0025 15.6014 12.6439 15.6014 14.6687C15.6014 16.6934 17.1533 18.3348 19.0676 18.3348H23.4003C24.3575 18.3348 25.1334 19.1554 25.1334 20.1679V22.0009H23.4003V25.6671H13.8683C13.3571 25.6683 12.8461 25.6989 12.338 25.7587C6.35889 26.437 0.754108 32.3458 0.0912047 38.6617C-0.779343 46.7081 4.68203 53.9776 12.2897 54.8984C15.3876 55.2734 18.5145 54.5328 21.1655 52.7965C22.3068 52.0063 23.6114 51.5187 24.9687 51.375C25.6392 51.319 26.3126 51.3165 26.9834 51.3677C28.3622 51.5087 29.6878 52.0019 30.8465 52.8048C37.3601 57.0625 45.9039 54.9292 49.9294 48.0396C51.5674 45.2363 52.265 41.931 51.9095 38.6571ZM25.1334 23.834H26.8664V25.6671H25.1334V23.834ZM47.1738 48.8865C43.2561 53.5214 36.7593 54.5161 31.7598 51.2466C30.3637 50.285 28.7665 49.6989 27.1073 49.5391C26.7417 49.511 26.3725 49.4969 25.9999 49.4969C25.6056 49.4969 25.22 49.5143 24.8318 49.5464C23.1978 49.712 21.6259 50.2923 20.2495 51.2383C14.5518 54.9669 7.0752 53.1043 3.54989 47.0778C2.11479 44.6245 1.50323 41.7312 1.81389 38.8651C2.38407 33.4374 7.38748 28.1655 12.5243 27.5817C12.9706 27.5289 13.4192 27.5017 13.8683 27.5001H38.1315C38.5804 27.5005 39.0291 27.5258 39.4755 27.5762C44.6115 28.16 49.614 33.4319 50.1859 38.8596C50.5945 42.5048 49.4967 46.1592 47.1738 48.8865Z" fill="white"/>
<path d="M38.1315 31.1655C36.2172 31.1655 34.6653 32.8069 34.6653 34.8317C34.6653 36.8564 36.2172 38.4978 38.1315 38.4978C40.0458 38.4978 41.5976 36.8564 41.5976 34.8317C41.5976 32.8069 40.0458 31.1655 38.1315 31.1655ZM38.1315 36.6647C37.1743 36.6647 36.3984 35.8441 36.3984 34.8317C36.3984 33.8192 37.1743 32.9986 38.1315 32.9986C39.0887 32.9986 39.8645 33.8192 39.8645 34.8317C39.8645 35.8441 39.0886 36.6647 38.1315 36.6647Z" fill="white"/>
<path d="M38.1315 42.1641C36.2172 42.1641 34.6653 43.8055 34.6653 45.8302C34.6653 47.8549 36.2172 49.4963 38.1315 49.4963C40.0458 49.4963 41.5976 47.8549 41.5976 45.8302C41.5976 43.8055 40.0458 42.1641 38.1315 42.1641ZM38.1315 47.6633C37.1743 47.6633 36.3984 46.8426 36.3984 45.8302C36.3984 44.8178 37.1743 43.9971 38.1315 43.9971C39.0887 43.9971 39.8645 44.8178 39.8645 45.8302C39.8645 46.8426 39.0886 47.6633 38.1315 47.6633Z" fill="white"/>
<path d="M32.0657 36.6648C30.1514 36.6648 28.5995 38.3062 28.5995 40.3309C28.5995 42.3557 30.1514 43.9971 32.0657 43.9971C33.98 43.9971 35.5318 42.3557 35.5318 40.3309C35.5318 38.3062 33.98 36.6648 32.0657 36.6648ZM32.0657 42.164C31.1085 42.164 30.3326 41.3433 30.3326 40.3309C30.3326 39.3185 31.1085 38.4979 32.0657 38.4979C33.0229 38.4979 33.7988 39.3185 33.7988 40.3309C33.7988 41.3433 33.0228 42.164 32.0657 42.164Z" fill="white"/>
<path d="M44.1972 36.6648C42.2829 36.6648 40.7311 38.3062 40.7311 40.3309C40.7311 42.3557 42.2829 43.9971 44.1972 43.9971C46.1115 43.9971 47.6634 42.3557 47.6634 40.3309C47.6634 38.3062 46.1115 36.6648 44.1972 36.6648ZM44.1972 42.164C43.24 42.164 42.4642 41.3433 42.4642 40.3309C42.4642 39.3185 43.24 38.4979 44.1972 38.4979C45.1544 38.4979 45.9303 39.3185 45.9303 40.3309C45.9303 41.3433 45.1543 42.164 44.1972 42.164Z" fill="white"/>
</g>
<defs>
<clipPath id="clip0_108:79">
<rect width="52" height="55" fill="white"/>
</clipPath>
</defs>
</svg>
