<svg width="50" height="50" viewBox="0 0 50 50" fill="none" xmlns="http://www.w3.org/2000/svg">
<g clip-path="url(#clip0_108:202)">
<path d="M24.9989 7.31958C20.8571 7.31958 17.4991 10.6771 17.4991 14.8193C17.4991 18.9612 20.8571 22.3187 24.9989 22.3187C29.1407 22.3187 32.4986 18.9612 32.4986 14.8193C32.4941 10.679 29.1388 7.32416 24.9989 7.31958ZM24.9989 20.6521C21.7775 20.6521 19.1657 18.0407 19.1657 14.8193C19.1657 11.5976 21.7775 8.98615 24.9989 8.98615C28.2203 8.98615 30.8321 11.5976 30.8321 14.8193C30.8283 18.0392 28.2187 20.6487 24.9989 20.6521Z" fill="white"/>
<path d="M24.9989 10.6528C22.698 10.6528 20.8323 12.5181 20.8323 14.8194C20.8323 17.1204 22.698 18.9857 24.9989 18.9857C27.2998 18.9857 29.1655 17.1204 29.1655 14.8194C29.1628 12.5193 27.2987 10.6555 24.9989 10.6528ZM24.9989 17.3191C23.6184 17.3191 22.4988 16.1999 22.4988 14.8194C22.4988 13.4386 23.6184 12.3194 24.9989 12.3194C26.3794 12.3194 27.4989 13.4386 27.4989 14.8194C27.4974 16.1995 26.379 17.3176 24.9989 17.3191Z" fill="white"/>
<path d="M37.4984 18.9857C38.4184 18.9849 39.1638 18.2392 39.165 17.3191V12.3194C39.1638 11.3993 38.4184 10.654 37.4984 10.6528H34.9976C34.6424 9.79074 34.1744 8.97977 33.606 8.24052L34.8511 6.08149C35.0754 5.69928 35.138 5.24306 35.0247 4.8143C34.9114 4.38593 34.6318 4.02012 34.248 3.79811L29.9155 1.29807L29.9071 1.29387C29.111 0.841468 28.099 1.11764 27.6432 1.91183L26.395 4.07543C25.4677 3.95756 24.5294 3.95756 23.602 4.07543L22.3589 1.91984C21.9015 1.12031 20.883 0.842231 20.0824 1.29807L15.7475 3.79964C15.3653 4.02126 15.0869 4.38631 14.9736 4.81354C14.8603 5.24077 14.9221 5.69546 15.1445 6.0773L16.3918 8.24052C15.8234 8.97977 15.3554 9.79074 15.0003 10.6528H12.4995C11.5794 10.654 10.834 11.3993 10.8329 12.3194V17.3191C10.834 18.2392 11.5794 18.9849 12.4995 18.9857H15.0003C15.3554 19.8478 15.8234 20.6591 16.3918 21.3984L15.1467 23.557C14.9224 23.9396 14.8599 24.3954 14.9732 24.8242C15.0865 25.253 15.3661 25.6184 15.7498 25.8404L20.0904 28.3446C20.341 28.4862 20.6244 28.5605 20.9124 28.5602C21.5082 28.5636 22.0594 28.2447 22.3539 27.7267L23.602 25.5627C24.5294 25.6809 25.4677 25.6809 26.395 25.5627L27.6386 27.719C28.0963 28.5186 29.1148 28.7963 29.9155 28.3401L34.2503 25.8389C34.6325 25.6169 34.911 25.2522 35.0243 24.825C35.1376 24.3977 35.0758 23.9427 34.8534 23.5608L33.606 21.3984C34.1744 20.6591 34.6424 19.8478 34.9976 18.9857H37.4984ZM33.6362 17.8795C33.2662 18.9418 32.6993 19.9244 31.9658 20.777C31.7358 21.0451 31.7003 21.4293 31.8769 21.7352L33.4153 24.397L29.0877 26.8943L27.5543 24.236C27.3784 23.9305 27.0286 23.7687 26.6819 23.8328C25.5692 24.0357 24.429 24.0357 23.3163 23.8328C22.9692 23.7683 22.6194 23.9301 22.4439 24.236L20.9158 26.897L16.5879 24.3939L18.1209 21.7356C18.2975 21.4296 18.2621 21.0459 18.0324 20.7774C17.2985 19.9252 16.7317 18.9422 16.3617 17.8798C16.2457 17.5445 15.9295 17.3191 15.5744 17.3191H12.4995V12.3194H15.5744C15.9291 12.3194 16.2449 12.0943 16.3613 11.759C16.7317 10.6971 17.2985 9.71407 18.0324 8.86191C18.2621 8.59336 18.2979 8.20924 18.1213 7.90331L16.5825 5.24153L20.9101 2.74416L22.4436 5.40251C22.6187 5.70881 22.9688 5.87093 23.3159 5.8057C24.4286 5.60315 25.5688 5.60315 26.6815 5.8057C27.0283 5.87017 27.378 5.70881 27.5543 5.40289L29.082 2.74492H29.0835L29.0885 2.74606L33.4096 5.24573L31.8765 7.90408C31.6999 8.21 31.7354 8.59412 31.965 8.86229C32.6989 9.71483 33.2658 10.6978 33.6358 11.7598C33.7525 12.0951 34.0687 12.3198 34.4235 12.3194H37.4984V17.3191H34.4235C34.0684 17.3191 33.7525 17.5442 33.6362 17.8795Z" fill="white"/>
<path d="M2.50005 48.9846H6.66628C7.37349 48.9827 8.04638 48.6794 8.51633 48.1511H29.4154C30.6379 48.1515 31.8372 47.8151 32.8813 47.1792L48.5014 37.6711C49.2517 37.2141 49.7743 36.4619 49.941 35.5994C50.1073 34.7637 49.9185 33.8966 49.4196 33.2062C49.4047 33.1814 49.3887 33.1577 49.3715 33.1348C48.5674 32.0603 47.1652 31.6224 45.8926 32.0481L30.4682 37.1897C30.213 37.2744 29.9456 37.3179 29.6767 37.3179H29.198C29.5939 36.233 29.4802 35.0276 28.8878 34.0366L28.8131 33.9122C27.9052 32.4101 26.2802 31.4904 24.5252 31.4851H20.1671C18.6298 31.4832 17.1387 30.9602 15.9371 30.0012C14.4395 28.8065 12.5811 28.1546 10.6651 28.1519H9.0126C8.66204 27.1559 7.72214 26.4888 6.66628 26.4854H2.50005C1.11995 26.4869 0.00152581 27.6053 0 28.9854V46.4846C0.00152581 47.8647 1.11995 48.9831 2.50005 48.9846ZM14.8954 31.3027C16.3926 32.4974 18.251 33.1493 20.1667 33.1516H24.5248C25.6947 33.1551 26.7784 33.7681 27.383 34.7694L27.4582 34.8937C27.9128 35.6521 27.864 36.6103 27.3342 37.3182H22.2696C20.624 37.3171 19.0154 37.8042 17.6472 38.7182L17.0368 39.1252C16.7862 39.2888 16.6428 39.5749 16.6611 39.8736C16.6794 40.1727 16.8568 40.4389 17.1257 40.5709C17.3947 40.7029 17.7139 40.68 17.9615 40.5118L18.5718 40.1048C19.6662 39.3735 20.9532 38.9837 22.2696 38.9848H29.6763C30.1245 38.9848 30.5697 38.9127 30.9946 38.7712L46.4198 33.63C46.9844 33.4354 47.6103 33.6101 47.9929 34.0686C48.0074 34.0931 48.0238 34.1163 48.0406 34.1396C48.2859 34.4669 48.3816 34.8823 48.3046 35.2836C48.2275 35.6849 47.9845 36.035 47.6355 36.2479L32.0154 45.756C31.2319 46.2324 30.3324 46.4846 29.4154 46.4846H9.16632V29.8185H10.6651C12.2023 29.8204 13.6938 30.3438 14.8954 31.3027ZM1.66657 28.9854C1.66695 28.5254 2.04001 28.1523 2.50005 28.1519H6.66628C7.12631 28.1523 7.49937 28.5254 7.49975 28.9854V46.4846C7.49937 46.9446 7.12631 47.3173 6.66628 47.3177H2.50005C2.04001 47.3173 1.66695 46.9446 1.66657 46.4846V28.9854Z" fill="white"/>
</g>
<defs>
<clipPath id="clip0_108:202">
<rect width="50" height="50" fill="white"/>
</clipPath>
</defs>
</svg>
