<svg width="22" height="22" viewBox="0 0 22 22" fill="none" xmlns="http://www.w3.org/2000/svg">
<path d="M15.5455 16.3846V19.8462C15.5455 20.4831 14.9345 21 14.1818 21H2.36364C2.00198 21 1.65513 20.8784 1.3994 20.662C1.14367 20.4457 1 20.1522 1 19.8462V6.76923C1 6.13231 1.61091 5.61539 2.36364 5.61539H4.63636C5.24554 5.61504 5.8537 5.65758 6.45455 5.74257M15.5455 16.3846H19.6364C20.3891 16.3846 21 15.8677 21 15.2308V10.2308C21 5.65641 17.0691 1.86051 11.9091 1.12718C11.3082 1.04219 10.7001 0.999651 10.0909 1H7.81818C7.06545 1 6.45455 1.51693 6.45455 2.15385V5.74257M15.5455 16.3846H7.81818C7.45652 16.3846 7.10968 16.2631 6.85395 16.0467C6.59821 15.8303 6.45455 15.5368 6.45455 15.2308V5.74257M21 12.5385V10.6154C21 9.69733 20.569 8.81687 19.8018 8.16771C19.0346 7.51854 17.9941 7.15385 16.9091 7.15385H15.0909C14.7293 7.15385 14.3824 7.03228 14.1267 6.81589C13.8709 6.59951 13.7273 6.30602 13.7273 6V4.46154C13.7273 4.00696 13.6215 3.55684 13.4159 3.13687C13.2103 2.71689 12.9089 2.3353 12.5291 2.01386C12.1492 1.69243 11.6982 1.43745 11.2019 1.2635C10.7056 1.08954 10.1736 1 9.63636 1H8.27273" stroke="black" stroke-width="1.5" stroke-linecap="round" stroke-linejoin="round"/>
</svg>
