<svg width="20" height="19" viewBox="0 0 20 19" fill="none" xmlns="http://www.w3.org/2000/svg">
<path d="M17.97 18.383L14.614 15.027C13.166 15.687 11.591 16.018 10 16C8.36 16.02 6.737 15.666 5.254 14.965C4.10467 14.4043 3.07262 13.6298 2.213 12.683C1.30047 11.7049 0.583275 10.5614 0.0999999 9.314L0 9L0.105 8.684C0.82781 6.84029 2.04426 5.23116 3.621 4.033L1 1.412L2.413 0L19.382 16.969L17.972 18.383H17.97ZM5.036 5.449C3.75792 6.34491 2.74865 7.57271 2.117 9C2.77892 10.5272 3.8843 11.8203 5.28986 12.7118C6.69542 13.6034 8.33636 14.0521 10 14C11.0498 14.0086 12.0936 13.8396 13.087 13.5L11.287 11.7C10.887 11.896 10.447 11.999 10 12C9.20589 11.995 8.44572 11.6773 7.88418 11.1158C7.32265 10.5543 7.00498 9.79411 7 9C7 8.553 7.103 8.112 7.3 7.71L5.036 5.449ZM17.852 12.61L16.46 11.219C17.0456 10.5569 17.5256 9.80844 17.883 9C17.222 7.47216 16.1168 6.1784 14.711 5.28675C13.3053 4.3951 11.6639 3.94677 10 4C9.753 4 9.505 4.009 9.265 4.026L7.5 2.259C8.322 2.083 9.16 1.996 10 2C11.64 1.98 13.263 2.334 14.746 3.035C15.896 3.595 16.927 4.37 17.787 5.317C18.6991 6.29396 19.4163 7.43607 19.9 8.682L20 9L19.895 9.316C19.4268 10.5341 18.7342 11.6535 17.853 12.616L17.852 12.61Z" fill="black"/>
</svg>
