<svg width="21" height="21" viewBox="0 0 21 21" fill="none" xmlns="http://www.w3.org/2000/svg">
<path d="M16.714 11.9767V10.023C16.712 8.51117 16.1462 7.05443 15.1272 5.93759C14.1082 4.82076 12.7093 4.12414 11.2039 3.98393V2.73137C11.2039 2.569 11.1394 2.41327 11.0246 2.29846C10.9098 2.18364 10.7541 2.11914 10.5917 2.11914C10.4293 2.11914 10.2736 2.18364 10.1588 2.29846C10.044 2.41327 9.97949 2.569 9.97949 2.73137V3.98405C8.47418 4.12426 7.07528 4.82086 6.05628 5.93767C5.03728 7.05448 4.47146 8.51119 4.46942 10.023V11.9766C3.77853 12.1186 3.15771 12.4944 2.71162 13.0408C2.26553 13.5872 2.02144 14.2706 2.02051 14.976C2.02104 15.4629 2.21472 15.9298 2.55905 16.2741C2.90338 16.6184 3.37024 16.8121 3.85719 16.8126H7.59247C7.73363 17.5039 8.10924 18.1252 8.65577 18.5714C9.2023 19.0176 9.88618 19.2613 10.5917 19.2613C11.2973 19.2613 11.9811 19.0176 12.5277 18.5714C13.0742 18.1252 13.4498 17.5039 13.591 16.8126H17.3262C17.8132 16.8121 18.28 16.6184 18.6244 16.2741C18.9687 15.9298 19.1624 15.4629 19.1629 14.976C19.162 14.2706 18.9179 13.5872 18.4718 13.0409C18.0257 12.4945 17.4049 12.1187 16.714 11.9767ZM5.69388 10.023C5.6955 8.73914 6.20624 7.50832 7.11407 6.60048C8.02191 5.69264 9.25274 5.18191 10.5366 5.18029H10.6468C11.9307 5.18191 13.1615 5.69264 14.0694 6.60048C14.9772 7.50832 15.4879 8.73914 15.4895 10.023V11.9148H5.69388V10.023ZM10.5917 18.0371C10.2131 18.0359 9.84417 17.9176 9.53552 17.6984C9.22686 17.4791 8.99364 17.1697 8.86786 16.8126H12.3156C12.1898 17.1697 11.9566 17.4791 11.6479 17.6984C11.3393 17.9176 10.9703 18.0359 10.5917 18.0371ZM17.3262 15.5882H3.85719C3.69485 15.5881 3.53919 15.5236 3.42439 15.4088C3.3096 15.294 3.24506 15.1383 3.24497 14.976C3.2455 14.489 3.43918 14.0221 3.78351 13.6778C4.12784 13.3335 4.5947 13.1398 5.08165 13.1393H16.1018C16.5887 13.1398 17.0556 13.3335 17.3999 13.6778C17.7442 14.0221 17.9379 14.489 17.9385 14.976C17.9384 15.1383 17.8738 15.294 17.759 15.4088C17.6442 15.5236 17.4886 15.5881 17.3262 15.5882Z" fill="#5022B8"/>
</svg>
