<svg width="166" height="32" viewBox="0 0 166 32" fill="none" xmlns="http://www.w3.org/2000/svg">
<path d="M44.92 16.52C45.71 16.67 46.35 17.06 46.86 17.7C47.37 18.34 47.62 19.07 47.62 19.9C47.62 20.65 47.43 21.31 47.06 21.88C46.7 22.44 46.17 22.88 45.48 23.2C44.79 23.52 43.97 23.68 43.02 23.68H37V9.72H42.76C43.71 9.72 44.52 9.87 45.2 10.18C45.89 10.49 46.41 10.91 46.76 11.46C47.12 12.01 47.3 12.63 47.3 13.32C47.3 14.13 47.08 14.81 46.64 15.36C46.22 15.91 45.64 16.29 44.92 16.52ZM39.8 15.48H42.36C43.03 15.48 43.54 15.33 43.9 15.04C44.26 14.73 44.44 14.3 44.44 13.74C44.44 13.18 44.26 12.75 43.9 12.44C43.54 12.13 43.03 11.98 42.36 11.98H39.8V15.48ZM42.62 21.4C43.3 21.4 43.83 21.24 44.2 20.92C44.59 20.6 44.78 20.15 44.78 19.56C44.78 18.96 44.58 18.49 44.18 18.16C43.78 17.81 43.24 17.64 42.56 17.64H39.8V21.4H42.62ZM52.66 14.32C53.02 13.73 53.49 13.27 54.06 12.94C54.65 12.61 55.31 12.44 56.06 12.44V15.38H55.32C54.44 15.38 53.77 15.59 53.32 16C52.88 16.41 52.66 17.13 52.66 18.16V23.68H49.86V12.6H52.66V14.32ZM57.22 18.1C57.22 16.98 57.44 15.99 57.88 15.12C58.33 14.25 58.94 13.59 59.7 13.12C60.47 12.65 61.33 12.42 62.28 12.42C63.11 12.42 63.83 12.59 64.44 12.92C65.07 13.25 65.57 13.67 65.94 14.18V12.6H68.76V23.68H65.94V22.06C65.58 22.58 65.08 23.01 64.44 23.36C63.81 23.69 63.09 23.86 62.26 23.86C61.33 23.86 60.47 23.62 59.7 23.14C58.94 22.66 58.33 21.99 57.88 21.12C57.44 20.24 57.22 19.23 57.22 18.1ZM65.94 18.14C65.94 17.46 65.81 16.88 65.54 16.4C65.27 15.91 64.91 15.53 64.46 15.28C64.01 15.01 63.52 14.88 63 14.88C62.48 14.88 62 15.01 61.56 15.26C61.12 15.51 60.76 15.89 60.48 16.38C60.21 16.86 60.08 17.43 60.08 18.1C60.08 18.77 60.21 19.35 60.48 19.86C60.76 20.35 61.12 20.73 61.56 21C62.01 21.27 62.49 21.4 63 21.4C63.52 21.4 64.01 21.27 64.46 21.02C64.91 20.75 65.27 20.38 65.54 19.9C65.81 19.41 65.94 18.82 65.94 18.14ZM77.64 12.44C78.96 12.44 80.03 12.86 80.84 13.7C81.65 14.53 82.06 15.69 82.06 17.18V23.68H79.26V17.56C79.26 16.68 79.04 16.01 78.6 15.54C78.16 15.06 77.56 14.82 76.8 14.82C76.03 14.82 75.41 15.06 74.96 15.54C74.52 16.01 74.3 16.68 74.3 17.56V23.68H71.5V12.6H74.3V13.98C74.67 13.5 75.15 13.13 75.72 12.86C76.3 12.58 76.94 12.44 77.64 12.44ZM84 18.1C84 16.98 84.22 15.99 84.66 15.12C85.11 14.25 85.73 13.59 86.5 13.12C87.27 12.65 88.13 12.42 89.08 12.42C89.8 12.42 90.49 12.58 91.14 12.9C91.79 13.21 92.31 13.62 92.7 14.14V8.88H95.54V23.68H92.7V22.04C92.35 22.59 91.87 23.03 91.24 23.36C90.61 23.69 89.89 23.86 89.06 23.86C88.13 23.86 87.27 23.62 86.5 23.14C85.73 22.66 85.11 21.99 84.66 21.12C84.22 20.24 84 19.23 84 18.1ZM92.72 18.14C92.72 17.46 92.59 16.88 92.32 16.4C92.05 15.91 91.69 15.53 91.24 15.28C90.79 15.01 90.3 14.88 89.78 14.88C89.26 14.88 88.78 15.01 88.34 15.26C87.9 15.51 87.54 15.89 87.26 16.38C86.99 16.86 86.86 17.43 86.86 18.1C86.86 18.77 86.99 19.35 87.26 19.86C87.54 20.35 87.9 20.73 88.34 21C88.79 21.27 89.27 21.4 89.78 21.4C90.3 21.4 90.79 21.27 91.24 21.02C91.69 20.75 92.05 20.38 92.32 19.9C92.59 19.41 92.72 18.82 92.72 18.14ZM108.57 17.9C108.57 18.3 108.54 18.66 108.49 18.98H100.39C100.46 19.78 100.74 20.41 101.23 20.86C101.72 21.31 102.33 21.54 103.05 21.54C104.09 21.54 104.83 21.09 105.27 20.2H108.29C107.97 21.27 107.36 22.15 106.45 22.84C105.54 23.52 104.43 23.86 103.11 23.86C102.04 23.86 101.08 23.63 100.23 23.16C99.39 22.68 98.73 22.01 98.25 21.14C97.78 20.27 97.55 19.27 97.55 18.14C97.55 16.99 97.78 15.99 98.25 15.12C98.72 14.25 99.37 13.59 100.21 13.12C101.05 12.65 102.02 12.42 103.11 12.42C104.16 12.42 105.1 12.65 105.93 13.1C106.77 13.55 107.42 14.2 107.87 15.04C108.34 15.87 108.57 16.82 108.57 17.9ZM105.67 17.1C105.66 16.38 105.4 15.81 104.89 15.38C104.38 14.94 103.76 14.72 103.03 14.72C102.34 14.72 101.75 14.93 101.27 15.36C100.8 15.77 100.52 16.35 100.41 17.1H105.67ZM113.42 14.32C113.78 13.73 114.25 13.27 114.82 12.94C115.41 12.61 116.07 12.44 116.82 12.44V15.38H116.08C115.2 15.38 114.53 15.59 114.08 16C113.64 16.41 113.42 17.13 113.42 18.16V23.68H110.62V12.6H113.42V14.32ZM133.92 9.72V23.68H131.12V14.6L127.38 23.68H125.26L121.5 14.6V23.68H118.7V9.72H121.88L126.32 20.1L130.76 9.72H133.92ZM138.11 11.28C137.62 11.28 137.2 11.13 136.87 10.82C136.55 10.5 136.39 10.11 136.39 9.64C136.39 9.17 136.55 8.79 136.87 8.48C137.2 8.16 137.62 8 138.11 8C138.6 8 139.01 8.16 139.33 8.48C139.66 8.79 139.83 9.17 139.83 9.64C139.83 10.11 139.66 10.5 139.33 10.82C139.01 11.13 138.61 11.28 138.11 11.28ZM139.49 12.6V23.68H136.69V12.6H139.49ZM148.4 12.44C149.72 12.44 150.79 12.86 151.6 13.7C152.41 14.53 152.82 15.69 152.82 17.18V23.68H150.02V17.56C150.02 16.68 149.8 16.01 149.36 15.54C148.92 15.06 148.32 14.82 147.56 14.82C146.79 14.82 146.17 15.06 145.72 15.54C145.28 16.01 145.06 16.68 145.06 17.56V23.68H142.26V12.6H145.06V13.98C145.43 13.5 145.91 13.13 146.48 12.86C147.07 12.58 147.71 12.44 148.4 12.44ZM165.78 17.9C165.78 18.3 165.75 18.66 165.7 18.98H157.6C157.67 19.78 157.95 20.41 158.44 20.86C158.93 21.31 159.54 21.54 160.26 21.54C161.3 21.54 162.04 21.09 162.48 20.2H165.5C165.18 21.27 164.57 22.15 163.66 22.84C162.75 23.52 161.64 23.86 160.32 23.86C159.25 23.86 158.29 23.63 157.44 23.16C156.6 22.68 155.94 22.01 155.46 21.14C154.99 20.27 154.76 19.27 154.76 18.14C154.76 16.99 154.99 15.99 155.46 15.12C155.93 14.25 156.58 13.59 157.42 13.12C158.26 12.65 159.23 12.42 160.32 12.42C161.37 12.42 162.31 12.65 163.14 13.1C163.98 13.55 164.63 14.2 165.08 15.04C165.55 15.87 165.78 16.82 165.78 17.9ZM162.88 17.1C162.87 16.38 162.61 15.81 162.1 15.38C161.59 14.94 160.97 14.72 160.24 14.72C159.55 14.72 158.96 14.93 158.48 15.36C158.01 15.77 157.73 16.35 157.62 17.1H162.88Z" fill="#010101"/>
<path d="M0 15.2221L6.99865 0C6.99865 0 15.0202 0 17.4159 0C19.8116 0 24.1184 0.942127 24.1184 5.72005C24.1184 8.14266 23.3378 9.63661 23.3378 9.63661H18.3984C18.3984 9.63661 19.825 7.76581 19.825 6.13728C19.825 4.50875 18.856 4.26649 16.7564 4.26649C14.6568 4.26649 9.75774 4.26649 9.75774 4.26649L6.56797 11.1978C6.56797 11.1978 18.0754 11.1978 22.0592 11.1978C26.0431 11.1978 30 12.1265 30 17.0121C30 19.9462 27.6178 24.253 26.1911 27.1063C24.7645 29.9596 23.8627 31.4132 20.0942 31.4132C16.3392 31.4132 8.23688 31.4132 8.23688 31.4132L15.1548 16.6487H19.9865L14.9933 27.1871C14.9933 27.1871 17.0659 27.1871 18.6406 27.1871C20.2153 27.1871 21.5747 26.393 22.7322 24.2799C23.8896 22.1669 24.7645 20.2961 25.3701 18.8694C25.9758 17.4428 26.6083 15.2221 23.1225 15.2221C19.6366 15.2221 0 15.2221 0 15.2221Z" fill="#5B2FBC"/>
</svg>
