<svg width="26" height="24" viewBox="0 0 26 24" fill="none" xmlns="http://www.w3.org/2000/svg">
<path d="M22.4418 6.57373H4.14718C2.8842 6.57373 1.86035 7.59758 1.86035 8.86056V20.2947C1.86035 21.5577 2.8842 22.5815 4.14718 22.5815H22.4418C23.7048 22.5815 24.7286 21.5577 24.7286 20.2947V8.86056C24.7286 7.59758 23.7048 6.57373 22.4418 6.57373Z" stroke="#DCD3F1" stroke-width="2.28683" stroke-linecap="round" stroke-linejoin="round"/>
<path d="M17.868 22.5814V4.28683C17.868 3.68032 17.6271 3.09866 17.1982 2.6698C16.7693 2.24093 16.1877 2 15.5812 2H11.0075C10.401 2 9.81936 2.24093 9.3905 2.6698C8.96164 3.09866 8.7207 3.68032 8.7207 4.28683V22.5814" stroke="#DCD3F1" stroke-width="2.28683" stroke-linecap="round" stroke-linejoin="round"/>
</svg>
