<svg width="25" height="24" viewBox="0 0 25 24" fill="none" xmlns="http://www.w3.org/2000/svg">
<g clip-path="url(#clip0_6_8104)">
<path d="M21.7946 0H3.84677C3.05343 0 2.29258 0.31607 1.7316 0.87868C1.17062 1.44129 0.855469 2.20435 0.855469 3L0.855469 21C0.855469 21.7956 1.17062 22.5587 1.7316 23.1213C2.29258 23.6839 3.05343 24 3.84677 24H21.7946C22.5879 24 23.3488 23.6839 23.9098 23.1213C24.4708 22.5587 24.7859 21.7956 24.7859 21V12V3C24.7859 2.20435 24.4708 1.44129 23.9098 0.87868C23.3488 0.31607 22.5879 0 21.7946 0ZM3.84677 2H21.7946C22.059 2 22.3127 2.10536 22.4997 2.29289C22.6867 2.48043 22.7917 2.73478 22.7917 3V14H2.84967V3C2.84967 2.73478 2.95472 2.48043 3.14172 2.29289C3.32871 2.10536 3.58233 2 3.84677 2ZM21.7946 22H3.84677C3.58233 22 3.32871 21.8946 3.14172 21.7071C2.95472 21.5196 2.84967 21.2652 2.84967 21V16H22.7917V21C22.7917 21.2652 22.6867 21.5196 22.4997 21.7071C22.3127 21.8946 22.059 22 21.7946 22Z" fill="#7C59CA"/>
<path d="M10.3406 11.859C10.4917 11.9483 10.6638 11.9954 10.8392 11.9954C11.0145 11.9954 11.1866 11.9483 11.3377 11.859L16.3232 8.85903C16.4706 8.77013 16.5926 8.64448 16.6773 8.49431C16.762 8.34414 16.8065 8.17456 16.8065 8.00203C16.8065 7.82951 16.762 7.65992 16.6773 7.50975C16.5926 7.35958 16.4706 7.23394 16.3232 7.14503L11.3377 4.14503C11.1866 4.05447 11.0143 4.00564 10.8383 4.00349C10.6623 4.00135 10.4889 4.04596 10.3356 4.13281C10.1824 4.21966 10.0548 4.34565 9.96584 4.49796C9.87688 4.65028 9.8297 4.82351 9.8291 5.00003V11C9.8303 11.1759 9.87835 11.3483 9.96829 11.4994C10.0582 11.6504 10.1868 11.7746 10.3406 11.859ZM11.8233 6.76603L13.8743 8.00003L11.8233 9.23403V6.76603Z" fill="#7C59CA"/>
<path d="M7.83505 18H5.84085C5.5764 18 5.32279 18.1054 5.13579 18.2929C4.9488 18.4804 4.84375 18.7348 4.84375 19C4.84375 19.2652 4.9488 19.5196 5.13579 19.7071C5.32279 19.8947 5.5764 20 5.84085 20H7.83505C8.0995 20 8.35311 19.8947 8.5401 19.7071C8.7271 19.5196 8.83215 19.2652 8.83215 19C8.83215 18.7348 8.7271 18.4804 8.5401 18.2929C8.35311 18.1054 8.0995 18 7.83505 18Z" fill="#7C59CA"/>
<path d="M19.8001 18H11.8233C11.5588 18 11.3052 18.1054 11.1182 18.2929C10.9312 18.4804 10.8262 18.7348 10.8262 19C10.8262 19.2652 10.9312 19.5196 11.1182 19.7071C11.3052 19.8947 11.5588 20 11.8233 20H19.8001C20.0645 20 20.3182 19.8947 20.5051 19.7071C20.6921 19.5196 20.7972 19.2652 20.7972 19C20.7972 18.7348 20.6921 18.4804 20.5051 18.2929C20.3182 18.1054 20.0645 18 19.8001 18Z" fill="#7C59CA"/>
</g>
<defs>
<clipPath id="clip0_6_8104">
<rect width="23.9304" height="24" fill="white" transform="translate(0.855469)"/>
</clipPath>
</defs>
</svg>
