<svg width="45" height="21" viewBox="0 0 45 21" fill="none" xmlns="http://www.w3.org/2000/svg">
<path d="M44.0847 3.52142C43.5207 3.0329 41.4055 1.2006 38.8929 1.84538C35.5769 2.71666 33.5242 7.18298 32.8071 9.61118C29.5277 20.6359 35.1193 19.4333 35.7152 19.3051C35.7332 19.3012 35.7466 19.2983 35.7551 19.2968L37.9086 11.8972C38.0047 11.5352 38.0775 10.6532 36.9885 10.1555H44.4901C43.5544 10.5216 43.0344 11.1046 42.8047 12.0137L40.6306 19.397C40.625 19.4 40.6182 19.4036 40.6104 19.4079C40.1039 19.6812 34.9591 22.458 30.2993 19.9769C25.8675 17.6309 26.7412 8.87133 30.2222 4.58975C35.7297 -2.17445 43.4549 0.398862 44.8918 0.877497C44.9332 0.891261 44.9693 0.903294 45 0.913322L44.2157 3.63066C44.1935 3.61571 44.1493 3.57738 44.0847 3.52142Z" fill="#AEB1BD"/>
<path fill-rule="evenodd" clip-rule="evenodd" d="M19.0301 7.45233C21.167 1.78633 17.1529 0.235831 14.5496 0.235831H5.92695C6.64167 0.770486 6.52264 1.47913 6.38903 1.90043L1.35861 19.1918C1.16014 19.8867 0.397917 20.5887 0 20.7151H6.98723C6.59209 20.632 6.04931 20.0427 6.25403 19.2476L8.07848 12.992C8.0782 12.9921 16.4803 14.213 19.0301 7.45233ZM12.2313 1.82979C13.1476 1.82979 15.6845 1.96121 14.0411 7.11078C12.3365 12.5133 8.53709 11.4055 8.53709 11.4055L11.3321 1.82964L12.2313 1.82979Z" fill="#AEB1BD"/>
<path fill-rule="evenodd" clip-rule="evenodd" d="M24.6015 20.715H29.3175C27.8121 20.1835 25.5853 18.6548 24.6933 17.5707C25.4179 16.7396 26.2962 15.6796 26.4612 13.5281H24.0197C24.0197 13.5281 24.5047 13.8056 24.5047 14.4258C24.5047 15.0014 24.2883 15.7832 23.8762 16.3397C23.1668 15.2018 22.3932 13.9018 22.1221 11.9918C22.3226 11.8847 22.5405 11.7758 22.7696 11.6613C23.633 11.23 24.6538 10.72 25.4892 9.93127C26.5125 8.96576 26.7417 8.08134 26.7554 7.48575V7.40854C26.7554 6.79264 26.5432 6.22931 26.1168 5.78351C25.4179 5.02962 24.2993 4.73317 23.1325 4.95166C22.1807 5.14865 21.3921 5.68256 21.0049 6.07742C19.56 7.50472 19.3805 9.8787 19.3805 10.9455C19.3805 11.1203 19.3896 11.2827 19.3962 11.4016L19.3962 11.4017C19.3986 11.4448 19.4007 11.4821 19.4019 11.5122C19.3339 11.5352 19.1698 11.6099 19.1698 11.6099C19.0683 11.6501 18.9494 11.6941 18.8167 11.7433L18.8166 11.7434C17.6154 12.1885 15.2824 13.053 14.3892 15.2566C14.2647 15.5581 14.0837 16.2396 14.0837 17.027C14.0837 17.689 14.2075 18.4368 14.6092 19.1315C15.3185 20.3002 16.4908 21.0267 18.39 20.9965C20.4482 20.9685 22.4826 19.451 22.8332 19.1751C23.1958 19.5398 24.1321 20.4671 24.6015 20.715ZM21.8493 18.0562C21.5736 18.2393 20.4824 18.8355 19.4612 18.9359C18.503 19.0261 16.9292 18.6378 16.9292 16.5995C16.9292 14.8382 18.7061 13.5817 19.6468 13.1267C20.0729 14.8165 20.9222 16.7396 21.8493 18.0562ZM24.6015 7.04428C24.3687 8.69813 22.3933 10.3626 21.9068 10.5753C21.818 9.65081 21.8496 8.18394 22.5642 6.99575C23.0583 6.20661 23.6839 5.86341 24.1892 6.05472C24.6015 6.20661 24.6512 6.60491 24.6015 7.04428Z" fill="#AEB1BD"/>
</svg>
