<svg width="60" height="21" viewBox="0 0 60 21" fill="none" xmlns="http://www.w3.org/2000/svg">
<path d="M43.6194 0.865467C42.6607 0.454148 41.1401 0 39.26 0C34.4601 0 31.0802 2.768 31.0594 6.7254C31.0196 9.64517 33.4794 11.2669 35.3192 12.2404C37.1996 13.2352 37.8388 13.8845 37.8388 14.7713C37.8197 16.1331 36.3193 16.7609 34.92 16.7609C32.9795 16.7609 31.9397 16.4373 30.3596 15.6796L29.7196 15.3548L29.0395 19.9181C30.1794 20.4797 32.2796 20.9782 34.4601 21C39.56 21 42.8802 18.2748 42.9196 14.0576C42.939 11.7434 41.6401 9.97026 38.8398 8.5213C37.1398 7.59116 36.0987 6.96397 36.0987 6.01228C36.1186 5.1471 36.9793 4.26094 38.8982 4.26094C40.4783 4.21753 41.6393 4.62828 42.5188 5.03931L42.9584 5.25517L43.6194 0.865467Z" fill="#AEB1BD"/>
<path d="M25.9999 20.697H21.1395L24.1796 0.368492H29.0397L25.9999 20.697Z" fill="#AEB1BD"/>
<path fill-rule="evenodd" clip-rule="evenodd" d="M52.3193 0.368492H56.0789L60 20.6968H55.4997C55.4997 20.6968 55.0593 18.3611 54.9198 17.6474H48.6794C48.4989 18.1877 47.6593 20.6968 47.6593 20.6968H42.5594L49.779 2.05516C50.2792 0.735834 51.16 0.368492 52.3193 0.368492ZM52.0198 7.8076C52.0198 7.8076 50.4796 12.3275 50.0793 13.4954H54.1192C53.9194 12.479 52.9989 7.613 52.9989 7.613L52.6593 5.86137C52.5163 6.31211 52.3097 6.93169 52.1701 7.34995L52.1699 7.35059L52.1699 7.35081L52.1698 7.35089L52.1697 7.3513C52.0752 7.63457 52.0116 7.82512 52.0198 7.8076Z" fill="#AEB1BD"/>
<path d="M17.0799 0.368492L12.32 14.2306L11.7998 11.4192C11.7997 11.4186 11.7995 11.418 11.7993 11.4175L10.0998 2.07729C9.81997 0.778949 8.95989 0.41132 7.89994 0.368492H0.0800011L0 0.779236C1.90725 1.30668 3.61312 2.06674 5.10781 3.01176L9.4399 20.6755H14.5797L22.2194 0.368492H17.0799Z" fill="#AEB1BD"/>
</svg>
