<svg width="60" height="60" viewBox="0 0 60 60" fill="none" xmlns="http://www.w3.org/2000/svg">
<path d="M57.1875 37.5H56.25V2.8125C56.25 2.56386 56.1512 2.32541 55.9754 2.1496C55.7996 1.97379 55.5611 1.87501 55.3125 1.875H23.4375C23.1889 1.87501 22.9504 1.97379 22.7746 2.1496C22.5988 2.32541 22.5 2.56386 22.5 2.8125V9.375H18.75C18.5014 9.37501 18.2629 9.47379 18.0871 9.6496C17.9113 9.82541 17.8125 10.0639 17.8125 10.3125V20.625H6.5625C6.31386 20.625 6.07541 20.7238 5.8996 20.8996C5.72379 21.0754 5.62501 21.3139 5.625 21.5625V26.25C5.37636 26.25 5.13791 26.3488 4.9621 26.5246C4.78629 26.7004 4.68751 26.9389 4.6875 27.1875V31.875H2.8125C2.56386 31.875 2.32541 31.9738 2.1496 32.1496C1.97379 32.3254 1.87501 32.5639 1.875 32.8125V40.3125H3.75V33.75H4.6875V52.5C4.68752 52.6851 4.74231 52.866 4.84497 53.02L6.71997 55.8325C6.80558 55.9609 6.92156 56.0662 7.05764 56.1391C7.19371 56.2119 7.34566 56.25 7.5 56.25C7.65434 56.25 7.80629 56.2119 7.94236 56.1391C8.07844 56.0662 8.19442 55.9609 8.28003 55.8325L10.155 53.02C10.2577 52.866 10.3125 52.6851 10.3125 52.5V46.875H17.8125V53.4375C17.8125 53.6861 17.9113 53.9246 18.0871 54.1004C18.2629 54.2762 18.5014 54.375 18.75 54.375H28.125V57.1875C28.125 57.4361 28.2238 57.6746 28.3996 57.8504C28.5754 58.0262 28.8139 58.125 29.0625 58.125H57.1875C57.4361 58.125 57.6746 58.0262 57.8504 57.8504C58.0262 57.6746 58.125 57.4361 58.125 57.1875V38.4375C58.125 38.1889 58.0262 37.9504 57.8504 37.7746C57.6746 37.5988 57.4361 37.5 57.1875 37.5V37.5ZM55.3125 39.375L46.875 50.625C46.4384 51.2072 45.8722 51.6797 45.2213 52.0051C44.5704 52.3306 43.8527 52.5 43.125 52.5C42.3973 52.5 41.6796 52.3306 41.0287 52.0051C40.3778 51.6797 39.8116 51.2072 39.375 50.625L30.9375 39.375H55.3125ZM24.375 3.75H54.375V37.5H51.5625V10.3125C51.5625 10.0639 51.4637 9.82541 51.2879 9.6496C51.1121 9.47379 50.8736 9.37501 50.625 9.375H24.375V3.75ZM7.5 22.5H21.5625V30.9375H10.3125V27.1875C10.3125 26.9389 10.2137 26.7004 10.0379 26.5246C9.86209 26.3488 9.62364 26.25 9.375 26.25H7.5V22.5ZM10.3125 34.6875V32.8125H17.8125V34.6875H10.3125ZM6.5625 28.125H8.4375V31.875H6.5625V28.125ZM7.5 53.6224L6.5625 52.2162V33.75H8.4375V52.2162L7.5 53.6224ZM10.3125 36.5625H21.5625V45H10.3125V36.5625ZM19.6875 52.5V46.875H22.5C22.7486 46.875 22.9871 46.7762 23.1629 46.6004C23.3387 46.4246 23.4375 46.1861 23.4375 45.9375V35.625C23.4375 35.3764 23.3387 35.1379 23.1629 34.9621C22.9871 34.7863 22.7486 34.6875 22.5 34.6875H19.6875V32.8125H22.5C22.7486 32.8125 22.9871 32.7137 23.1629 32.5379C23.3387 32.3621 23.4375 32.1236 23.4375 31.875V21.5625C23.4375 21.3139 23.3387 21.0754 23.1629 20.8996C22.9871 20.7238 22.7486 20.625 22.5 20.625H19.6875V11.25H49.6875V37.5H29.0625C28.8139 37.5 28.5754 37.5988 28.3996 37.7746C28.2238 37.9504 28.125 38.1889 28.125 38.4375V52.5H19.6875ZM30 56.25V41.2501L37.8749 51.75C38.4862 52.565 39.2789 53.2265 40.1901 53.6822C41.1014 54.1378 42.1062 54.375 43.125 54.375C44.1438 54.375 45.1486 54.1378 46.0599 53.6822C46.9711 53.2265 47.7638 52.565 48.3751 51.75L56.25 41.2501V56.25H30Z" fill="#404145"/>
<path d="M34.6875 36.5625C36.3888 36.5697 38.0595 36.1106 39.5182 35.2352C40.977 34.3597 42.1681 33.1014 42.9621 31.5968C42.9912 31.5827 43.0205 31.5692 43.0495 31.5547L44.4818 30.8385C44.6375 30.7606 44.7685 30.641 44.86 30.4929C44.9515 30.3448 45 30.1741 45 30V24.375C45 24.2152 44.9592 24.058 44.8814 23.9184C44.8035 23.7788 44.6913 23.6615 44.5554 23.5775C44.4194 23.4934 44.2643 23.4456 44.1046 23.4384C43.945 23.4312 43.7861 23.465 43.6432 23.5365L43.378 23.6691C42.7085 22.0162 41.5815 20.5884 40.1292 19.5533C38.6769 18.5183 36.9596 17.9189 35.1787 17.8254C33.3977 17.7319 31.6271 18.1483 30.0744 19.0256C28.5218 19.9029 27.2515 21.2049 26.4127 22.7786C26.3837 22.7927 26.3544 22.8059 26.3255 22.8203L24.8932 23.5365C24.7375 23.6144 24.6065 23.7341 24.515 23.8822C24.4235 24.0302 24.375 24.2009 24.375 24.375V30C24.375 30.1598 24.4158 30.317 24.4936 30.4566C24.5715 30.5962 24.6837 30.7135 24.8196 30.7976C24.9556 30.8816 25.1107 30.9294 25.2704 30.9366C25.43 30.9438 25.5889 30.91 25.7318 30.8385L25.997 30.7059C26.6995 32.4353 27.9014 33.9161 29.4493 34.9592C30.9972 36.0024 32.8209 36.5606 34.6875 36.5625ZM34.6875 34.6875C33.1733 34.686 31.6949 34.2268 30.4463 33.3702C29.1977 32.5136 28.2371 31.2996 27.6907 29.8874C28.7467 29.4651 29.8939 29.3225 31.0211 29.4737C32.1484 29.6248 33.2176 30.0644 34.125 30.75C35.5957 31.8594 37.3874 32.4604 39.2295 32.4623C39.5096 32.4623 39.7899 32.4475 40.0697 32.4195C39.3716 33.1406 38.535 33.7132 37.6101 34.1029C36.6852 34.4927 35.6911 34.6915 34.6875 34.6875V34.6875ZM34.6875 19.6875C36.2017 19.689 37.6801 20.1482 38.9287 21.0048C40.1773 21.8614 41.1378 23.0754 41.6843 24.4875C40.6283 24.9099 39.4811 25.0524 38.3539 24.9013C37.2266 24.7502 36.1575 24.3105 35.25 23.625C33.5485 22.341 31.4258 21.7452 29.3048 21.956C30.0029 21.2348 30.8395 20.662 31.7645 20.2722C32.6895 19.8824 33.6837 19.6835 34.6875 19.6875V19.6875ZM26.25 24.9544L27.1642 24.4973C28.2672 23.9411 29.504 23.7051 30.7343 23.816C31.9647 23.927 33.1393 24.3804 34.125 25.125C35.3888 26.0796 36.8948 26.6609 38.4722 26.8032C40.0496 26.9454 41.6353 26.6428 43.0495 25.9297L43.125 25.8919V29.4206L42.2108 29.8777C41.1078 30.4339 39.871 30.67 38.6407 30.559C37.4103 30.4481 36.2357 29.9946 35.25 29.25C33.9861 28.2955 32.4802 27.7142 30.9028 27.5719C29.3254 27.4297 27.7397 27.7323 26.3255 28.4453L26.25 28.4831V24.9544Z" fill="#404145"/>
</svg>
