<svg width="40" height="40" viewBox="0 0 40 40" fill="none" xmlns="http://www.w3.org/2000/svg">
<g clip-path="url(#clip0_66:381)">
<path d="M39.4855 36.6119L36.7884 32.5084L38.2327 32.1129C39.0951 31.8767 39.254 30.6779 38.4819 30.2256L34.4247 27.8489V2.89149C34.4247 1.29714 33.1277 0 31.5333 0H3.2367C1.64235 0 0.345215 1.29714 0.345215 2.89149V29.3737C0.345215 30.9679 1.64227 32.265 3.23662 32.265H14.5757C15.0072 32.265 15.357 31.9152 15.357 31.4837C15.357 31.0522 15.0072 30.7024 14.5757 30.7024H3.23662C2.50399 30.7024 1.90784 30.1063 1.90784 29.3737V6.99729H32.8621V26.9336L30.1037 25.3179C29.7145 25.0899 29.3108 24.9518 28.8777 25.1974C28.5177 25.4015 28.3097 25.8046 28.3606 26.2198L28.91 30.7024H21.4203C20.9888 30.7024 20.639 31.0522 20.639 31.4838C20.639 31.9153 20.9888 32.2651 21.4203 32.2651H29.1016L29.5696 36.0831C29.6784 36.9704 30.8415 37.3016 31.4008 36.603L32.3369 35.4342L35.0338 39.5377C35.3425 40.0074 35.993 40.1432 36.4641 39.8336L39.1898 38.0422C39.6656 37.7293 39.7981 37.0878 39.4855 36.6119ZM1.90784 2.89149C1.90784 2.15877 2.50399 1.56263 3.2367 1.56263H31.5333C32.266 1.56263 32.8622 2.15877 32.8622 2.89149V5.43435H1.90784V2.89149ZM36.0486 38.2366L33.2421 33.9664C32.863 33.3898 32.0049 33.3486 31.5729 33.8881L30.9674 34.6442L30.0419 27.0927L36.6066 30.938L35.6723 31.1939C35.0073 31.376 34.7022 32.179 35.082 32.7572L37.8885 37.0274L36.0486 38.2366Z" fill="white"/>
<path d="M7.23053 17.0229H12.4735C12.905 17.0229 13.2548 16.6731 13.2548 16.2416V11.0191C13.2548 10.5876 12.905 10.2378 12.4735 10.2378H7.23053C6.79901 10.2378 6.44922 10.5876 6.44922 11.0191V16.2416C6.44922 16.6731 6.79901 17.0229 7.23053 17.0229ZM8.01185 11.8005H11.6921V15.4603H8.01185V11.8005Z" fill="white"/>
<path d="M17.3238 11.8004H27.5535C27.9851 11.8004 28.3349 11.4506 28.3349 11.0191C28.3349 10.5876 27.9851 10.2378 27.5535 10.2378H17.3238C16.8923 10.2378 16.5425 10.5876 16.5425 11.0191C16.5425 11.4506 16.8924 11.8004 17.3238 11.8004Z" fill="white"/>
<path d="M17.3238 16.7365H27.5535C27.9851 16.7365 28.3349 16.3867 28.3349 15.9551C28.3349 15.5236 27.9851 15.1738 27.5535 15.1738H17.3238C16.8923 15.1738 16.5425 15.5236 16.5425 15.9551C16.5425 16.3867 16.8924 16.7365 17.3238 16.7365Z" fill="white"/>
<path d="M7.23053 21.672H27.5537C27.9852 21.672 28.335 21.3222 28.335 20.8907C28.335 20.4592 27.9852 20.1094 27.5537 20.1094H7.23053C6.79901 20.1094 6.44922 20.4592 6.44922 20.8907C6.44922 21.3222 6.79901 21.672 7.23053 21.672Z" fill="white"/>
<path d="M7.23053 26.6071H24.112C24.5435 26.6071 24.8933 26.2573 24.8933 25.8257C24.8933 25.3942 24.5435 25.0444 24.112 25.0444H7.23053C6.79901 25.0444 6.44922 25.3942 6.44922 25.8257C6.44922 26.2573 6.79901 26.6071 7.23053 26.6071Z" fill="white"/>
<path d="M4.91379 3.26818C4.63783 2.59445 3.63408 2.65938 3.44031 3.3585C3.25303 4.0341 4.02161 4.59969 4.61205 4.22537C4.92778 4.02519 5.05771 3.61336 4.91379 3.26818Z" fill="white"/>
<path d="M7.77652 3.26781C7.6151 2.8738 7.14858 2.68253 6.75612 2.84512C6.36289 3.00795 6.17053 3.47228 6.33343 3.86552C6.49633 4.25883 6.96098 4.45041 7.35383 4.28821C7.74652 4.12601 7.9402 3.66034 7.77652 3.26781Z" fill="white"/>
<path d="M10.6447 3.26781C10.4833 2.8738 10.0167 2.68253 9.62428 2.84512C9.23105 3.00795 9.03869 3.47228 9.20159 3.86552C9.3645 4.25883 9.82915 4.45041 10.222 4.28821C10.6147 4.12601 10.8084 3.66034 10.6447 3.26781Z" fill="white"/>
<path d="M18.7524 31.1846C18.5886 30.7915 18.1257 30.5999 17.732 30.7627C17.3386 30.9254 17.1469 31.3891 17.3093 31.7823C17.4717 32.1756 17.9368 32.368 18.3297 32.205C18.7241 32.0413 18.9141 31.579 18.7524 31.1846Z" fill="white"/>
</g>
<defs>
<clipPath id="clip0_66:381">
<rect width="40" height="40" fill="white"/>
</clipPath>
</defs>
</svg>
