<svg width="60" height="60" viewBox="0 0 60 60" fill="none" xmlns="http://www.w3.org/2000/svg">
<g clip-path="url(#clip0_6_284)">
<path d="M59.7038 21.9708L49.9 6.21927C49.5419 5.64412 48.9125 5.29443 48.2352 5.29443H11.765C11.0879 5.29443 10.4585 5.64412 10.1003 6.21927L0.296428 21.9708C-0.174193 22.727 -0.076811 23.7048 0.534317 24.3525L28.5733 54.0901C28.9439 54.4829 29.4602 54.7058 30.0001 54.7058C30.5399 54.7058 31.0563 54.4829 31.4268 54.0895L59.4658 24.3525C60.0764 23.7041 60.1744 22.727 59.7038 21.9708ZM30.0002 49.887L4.42386 22.761L12.8545 9.21596H47.1463L55.5764 22.761L30.0002 49.887Z" fill="#404145"/>
<path d="M58.0389 21.0459H1.96094V24.9674H58.0389V21.0459Z" fill="#404145"/>
<path d="M20.1412 22.8191L23.1648 7.63812L19.3184 6.87207L16.1811 22.6236C16.1073 22.9961 16.1426 23.3818 16.2838 23.7347L28.1792 53.4731L31.8203 52.0169L20.1412 22.8191Z" fill="#404145"/>
<path d="M43.9436 22.4664L40.6756 7.17236L36.841 7.99197L39.9841 22.6997L28.1816 52.0132L31.8189 53.4772L43.8456 23.6088C43.9906 23.2461 44.0253 22.8481 43.9436 22.4664Z" fill="#404145"/>
</g>
<defs>
<clipPath id="clip0_6_284">
<rect width="60" height="60" fill="white"/>
</clipPath>
</defs>
</svg>
