<svg width="60" height="60" viewBox="0 0 60 60" fill="none" xmlns="http://www.w3.org/2000/svg">
<g clip-path="url(#clip0_6_281)">
<path d="M54.9656 6.81564C48.0346 -0.154408 36.5961 0.192075 29.9971 7.43718C23.3977 0.192331 11.9596 -0.154536 5.02871 6.81577C-1.86351 13.6795 -1.62871 24.982 5.47265 31.6067C1.83958 35.0766 3.92091 41.3117 8.86592 41.9195C8.5697 45.3056 11.4517 48.4108 14.8608 48.3532C15.0698 52.0808 18.8111 54.749 22.398 53.7639C23.5748 58.2049 29.2317 59.7224 32.4771 56.4539C34.3204 54.6217 35.7862 53.4663 35.8797 50.6914C38.9253 50.6065 41.5605 47.9355 41.6069 44.8917C44.6818 44.8442 47.3608 42.1643 47.4081 39.0904C50.598 39.0419 53.3638 36.1628 53.2153 32.9127L54.9653 31.1628C61.678 24.4502 61.678 13.5281 54.9656 6.81564ZM8.11127 34.4085L9.75495 32.7648C10.1798 32.34 10.7376 32.1276 11.2957 32.1276C13.2091 32.1149 14.2079 34.4807 12.8361 35.846L11.1924 37.4896C9.06481 39.4484 6.15227 36.537 8.11127 34.4085ZM12.6944 42.3307C12.6944 41.7486 12.9211 41.2014 13.3326 40.7899L14.9772 39.1455C15.3886 38.7345 15.9353 38.5082 16.5169 38.5082C18.4466 38.5048 19.4248 40.8651 18.0575 42.2276L16.6072 43.6779C16.1639 44.1803 15.5549 44.5202 14.8731 44.5093C13.7022 44.5334 12.6702 43.5018 12.6944 42.3307ZM19.3273 49.4791C18.4822 48.6681 18.4822 47.209 19.3273 46.398L20.7776 44.9476C21.6232 43.9438 23.1076 43.8131 24.0523 44.7542C24.9017 45.6038 24.9017 46.9857 24.0523 47.8354L22.4085 49.4792C21.5591 50.329 20.1769 50.3289 19.3273 49.4791ZM31.4008 52.09L29.7571 53.7337C29.3456 54.1452 28.7984 54.3719 28.2165 54.3719C27.6345 54.3719 27.0873 54.1452 26.6758 53.7337C25.8308 52.9226 25.8304 51.4635 26.6759 50.6525L28.3195 49.0088C29.1689 48.1593 30.5512 48.1593 31.4006 49.0087C32.2459 49.8198 32.2461 51.2789 31.4008 52.09ZM48.7325 34.6133C47.9214 35.4584 46.4623 35.4586 45.6513 34.6133L37.0909 26.0529L34.3708 28.7731L42.9311 37.3334C43.7805 38.183 43.7805 39.5651 42.9311 40.4146C42.0816 41.2644 40.6995 41.2641 39.85 40.4146L31.4347 31.9994L31.2896 31.8542L28.5694 34.5744L28.7146 34.7196L37.1298 43.1348C37.9793 43.9843 37.9793 45.3665 37.1298 46.2161C36.2803 47.0656 34.898 47.0656 34.0485 46.2161L34.0468 46.2177C32.4838 44.7067 30.2994 44.2091 28.3264 44.7251C27.6983 42.1587 25.1184 40.2157 22.524 40.2723C22.3982 37.5099 20.0629 35.0145 17.3031 34.7164C17.6673 29.9769 12.4621 26.713 8.35427 29.0477C2.63333 23.9374 2.28095 14.9665 7.74915 9.53583C13.1859 4.06096 22.1691 4.42373 27.2772 10.1574L22.5216 14.913L26.3323 18.7237C29.2594 21.6511 33.7701 22.0538 37.1333 19.9324L48.7329 31.5321C49.5819 32.3815 49.5819 33.7637 48.7325 34.6133ZM52.2454 28.4426L51.6592 29.0286C51.5924 28.955 51.5236 28.8827 51.4528 28.8119L37.2844 14.6434L35.9243 16.0035C34.0298 17.898 30.9471 17.8982 29.0522 16.0035L27.9617 14.913L33.3389 9.53583C46.4007 -2.48631 64.265 15.3892 52.2454 28.4426Z" fill="#404145"/>
</g>
<defs>
<clipPath id="clip0_6_281">
<rect width="60" height="60" fill="white"/>
</clipPath>
</defs>
</svg>
