<svg width="50" height="50" viewBox="0 0 50 50" fill="none" xmlns="http://www.w3.org/2000/svg">
<path d="M12.838 17.4729C12.7493 17.4744 12.6611 17.4585 12.5785 17.426C12.496 17.3935 12.4206 17.345 12.3568 17.2833C12.2278 17.1589 12.1536 16.9882 12.1505 16.809C12.1474 16.6298 12.2155 16.4567 12.34 16.3278C12.4645 16.1989 12.6351 16.1247 12.8143 16.1215C16.1297 16.0845 19.4379 15.8045 22.7123 15.2837C22.7705 15.2716 22.83 15.2675 22.8893 15.2715C23.7101 15.3149 24.5063 15.566 25.2035 16.0013C25.3186 16.0849 25.4044 16.2028 25.4486 16.338C25.4928 16.4733 25.4932 16.619 25.4497 16.7545C25.4062 16.89 25.321 17.0083 25.2063 17.0925C25.0916 17.1767 24.9532 17.2226 24.811 17.2236C24.6518 17.2235 24.4975 17.1689 24.3738 17.0688C23.9183 16.8078 23.4081 16.6567 22.8839 16.6276C19.5657 17.149 16.2143 17.4314 12.8556 17.4729H12.838Z" fill="white"/>
<path d="M37.5538 33.5471C36.9773 33.5479 36.4155 33.3657 35.9491 33.0269L35.8038 32.9262C35.7849 32.9134 35.7531 32.8877 35.7234 32.8586L27.77 27.1309C27.6958 27.0802 27.6324 27.0153 27.5836 26.9398C27.5348 26.8643 27.5015 26.7798 27.4857 26.6913C27.47 26.6028 27.472 26.512 27.4918 26.4243C27.5116 26.3366 27.5486 26.2537 27.6008 26.1805C27.653 26.1073 27.7193 26.0453 27.7958 25.998C27.8723 25.9508 27.9574 25.9193 28.0462 25.9053C28.135 25.8914 28.2258 25.8953 28.313 25.9169C28.4003 25.9385 28.4824 25.9772 28.5545 26.0309L29.095 26.4161L36.5376 31.7829C36.5599 31.7989 36.5811 31.8163 36.6011 31.835L36.7302 31.9248C37.0233 32.1349 37.3858 32.2245 37.743 32.1751C38.1001 32.1256 38.4247 31.941 38.6498 31.6593C38.7878 31.4851 38.8819 31.2801 38.9241 31.0619C38.9664 30.8436 38.9555 30.6184 38.8923 30.4052C38.8165 30.1367 38.6595 29.8982 38.443 29.7221L27.8052 21.0553C23.7315 23.2174 20.8457 22.1053 19.468 21.2249C19.2403 21.0767 19.0555 20.8714 18.9319 20.6295C18.8083 20.3875 18.7503 20.1175 18.7636 19.8461C18.7769 19.5748 18.8611 19.3117 19.0079 19.0831C19.1546 18.8544 19.3587 18.6683 19.5998 18.5431L25.689 15.3093C26.0776 15.106 26.5027 14.9816 26.9397 14.9433C27.3766 14.9051 27.8168 14.9537 28.2349 15.0863L31.8369 16.2553C32.8974 16.604 34.0476 16.5626 35.0802 16.1384L36.6491 15.4958C36.7312 15.4621 36.8192 15.445 36.9079 15.4453C36.9967 15.4456 37.0845 15.4634 37.1664 15.4976C37.2483 15.5319 37.3226 15.5819 37.3851 15.6449C37.4477 15.7079 37.4972 15.7826 37.5309 15.8647C37.5645 15.9468 37.5817 16.0348 37.5814 16.1235C37.5811 16.2123 37.5633 16.3001 37.529 16.382C37.4948 16.4639 37.4447 16.5382 37.3817 16.6007C37.3187 16.6633 37.2441 16.7128 37.1619 16.7465L35.5944 17.3884C34.2647 17.9357 32.7831 17.9894 31.4173 17.5397L27.8187 16.3715C27.5722 16.294 27.3129 16.2661 27.0555 16.2893C26.7982 16.3125 26.548 16.3864 26.3194 16.5066L20.2288 19.7411C20.1949 19.757 20.1661 19.7821 20.1456 19.8135C20.1251 19.8449 20.1137 19.8813 20.1126 19.9188C20.1098 19.9527 20.1164 19.9867 20.1317 20.0171C20.1469 20.0475 20.1703 20.0731 20.1991 20.0911C21.618 20.9978 24.0538 21.6627 27.541 19.6593C27.6596 19.5912 27.7961 19.5606 27.9324 19.5717C28.0687 19.5828 28.1985 19.635 28.3045 19.7215L39.291 28.6742C39.7218 29.0217 40.0351 29.4936 40.1883 30.0255C40.3096 30.4442 40.33 30.8857 40.2478 31.3138C40.1656 31.7419 39.9831 32.1444 39.7153 32.4884C39.4602 32.8186 39.1326 33.0858 38.7578 33.2694C38.3831 33.453 37.9711 33.548 37.5538 33.5471Z" fill="white"/>
<path d="M34.7579 36.6788C34.1853 36.6794 33.6267 36.5016 33.1599 36.1701L25.8559 30.9876C25.7131 30.8826 25.6174 30.7258 25.5892 30.5509C25.561 30.3759 25.6026 30.1969 25.7051 30.0524C25.8077 29.9079 25.9628 29.8094 26.1373 29.7782C26.3117 29.747 26.4914 29.7856 26.6376 29.8856L33.9417 35.0674C34.2481 35.2675 34.62 35.3415 34.9798 35.2739C35.3395 35.2062 35.6592 35.0022 35.872 34.7044C36.0848 34.4066 36.1743 34.0381 36.1218 33.6759C36.0694 33.3137 35.8789 32.9857 35.5903 32.7606L28.3106 27.514C28.1764 27.4054 28.0889 27.2497 28.0659 27.0786C28.0429 26.9076 28.0862 26.7342 28.187 26.5941C28.2878 26.454 28.4384 26.3578 28.6078 26.3252C28.7773 26.2926 28.9528 26.326 29.0984 26.4187L36.3802 31.666C36.8542 32.0092 37.2073 32.4936 37.389 33.0499C37.5707 33.6061 37.5715 34.2056 37.3915 34.7624C37.2114 35.3191 36.8597 35.8046 36.3867 36.1491C35.9137 36.4937 35.3437 36.6796 34.7586 36.6802L34.7579 36.6788Z" fill="white"/>
<path d="M31.6049 39.3861C31.0611 39.3859 30.5303 39.2192 30.084 38.9084L23.5387 34.3746C23.3913 34.2726 23.2905 34.1161 23.2585 33.9398C23.2264 33.7634 23.2657 33.5815 23.3678 33.4341C23.4698 33.2867 23.6263 33.1859 23.8026 33.1538C23.979 33.1218 24.1609 33.1611 24.3083 33.2631L30.8536 37.7969C30.9973 37.8963 31.1592 37.9665 31.3301 38.0033C31.5009 38.0401 31.6773 38.0429 31.8493 38.0116C32.0212 37.9802 32.1852 37.9152 32.3321 37.8205C32.4789 37.7257 32.6056 37.6029 32.7049 37.4591C32.9027 37.1708 32.9795 36.8165 32.9188 36.4722C32.8582 36.128 32.6649 35.8212 32.3806 35.6179L25.8671 30.9976C25.793 30.947 25.7298 30.8821 25.6811 30.8067C25.6324 30.7314 25.5992 30.6471 25.5834 30.5588C25.5676 30.4705 25.5695 30.3799 25.5891 30.2924C25.6087 30.2048 25.6455 30.1221 25.6974 30.0489C25.7493 29.9757 25.8152 29.9136 25.8914 29.8662C25.9676 29.8188 26.0524 29.787 26.141 29.7728C26.2295 29.7585 26.3201 29.762 26.4073 29.7831C26.4945 29.8042 26.5766 29.8424 26.6489 29.8956L33.1624 34.5158C33.7357 34.9256 34.1254 35.5439 34.2479 36.2378C34.3703 36.9318 34.2156 37.6461 33.8171 38.2273C33.618 38.5178 33.3632 38.7659 33.0676 38.9572C32.772 39.1486 32.4413 39.2794 32.0948 39.3422C31.9332 39.3717 31.7692 39.3864 31.6049 39.3861Z" fill="white"/>
<path d="M27.744 41.6084C27.2712 41.6061 26.8074 41.4798 26.3987 41.2422L22.7656 39.1476C22.6117 39.0574 22.4997 38.9099 22.4541 38.7374C22.4085 38.5649 22.433 38.3814 22.5222 38.2269C22.6114 38.0724 22.7581 37.9594 22.9303 37.9127C23.1025 37.8659 23.2862 37.8892 23.4413 37.9774L27.0737 40.072C27.3808 40.2453 27.7435 40.2917 28.0843 40.2013C28.4252 40.1109 28.7172 39.8909 28.898 39.5882C29.0698 39.298 29.1244 38.9532 29.0507 38.6241C28.977 38.295 28.7806 38.0064 28.5014 37.8172L23.8595 34.6017C23.7866 34.5512 23.7243 34.4868 23.6763 34.4122C23.6282 34.3376 23.5953 34.2542 23.5795 34.1669C23.5636 34.0796 23.5652 33.99 23.5839 33.9033C23.6027 33.8166 23.6384 33.7344 23.6889 33.6615C23.7394 33.5886 23.8038 33.5263 23.8784 33.4782C23.953 33.4302 24.0364 33.3973 24.1237 33.3815C24.211 33.3656 24.3005 33.3671 24.3873 33.3859C24.474 33.4047 24.5562 33.4403 24.6291 33.4909L29.2703 36.7057C29.7415 37.0319 30.0962 37.5 30.2828 38.0418C30.4694 38.5836 30.4781 39.1709 30.3077 39.718C30.1373 40.2651 29.7966 40.7436 29.3354 41.0836C28.8741 41.4236 28.3163 41.6075 27.7433 41.6084H27.744Z" fill="white"/>
<path d="M20.0934 41.2047C19.5406 41.2055 19.0008 41.0377 18.5459 40.7236C18.091 40.4095 17.7428 39.9641 17.5478 39.4469C17.3527 38.9297 17.3201 38.3652 17.4543 37.829C17.5885 37.2928 17.8831 36.8103 18.2988 36.4459L20.1035 34.8648C20.3717 34.6294 20.6837 34.449 21.0215 34.3341C21.3594 34.2192 21.7166 34.172 22.0727 34.1952C22.4289 34.2183 22.7769 34.3114 23.0971 34.4691C23.4173 34.6267 23.7032 34.8459 23.9387 35.1141C24.1741 35.3824 24.3544 35.6943 24.4692 36.0322C24.584 36.3701 24.6312 36.7273 24.608 37.0835C24.5848 37.4396 24.4916 37.7877 24.3339 38.1078C24.1762 38.4279 23.9569 38.7139 23.6887 38.9493L21.8839 40.5337C21.3886 40.9677 20.752 41.2063 20.0934 41.2047ZM21.8954 35.5405C21.5641 35.5396 21.2438 35.6597 20.9948 35.8783L19.1893 37.4614C19.0545 37.5797 18.9442 37.7235 18.8649 37.8844C18.7856 38.0453 18.7387 38.2203 18.727 38.3993C18.7153 38.5784 18.739 38.758 18.7967 38.9278C18.8544 39.0977 18.945 39.2546 19.0633 39.3895C19.3023 39.6618 19.6397 39.8281 20.0013 39.8518C20.1803 39.8635 20.3599 39.8398 20.5298 39.7821C20.6996 39.7244 20.8565 39.6338 20.9914 39.5155L22.7961 37.931C23.0043 37.7478 23.1517 37.5055 23.2188 37.2364C23.2859 36.9673 23.2695 36.6841 23.1717 36.4246C23.0739 36.165 22.8994 35.9414 22.6714 35.7835C22.4434 35.6256 22.1728 35.5408 21.8954 35.5405Z" fill="white"/>
<path d="M16.0028 39.3645C15.9427 39.3645 15.8826 39.3645 15.8224 39.3591C15.4661 39.3368 15.1177 39.2441 14.7974 39.0864C14.4771 38.9286 14.1912 38.709 13.9562 38.4402C13.7176 38.1719 13.5342 37.8592 13.4167 37.5199C13.2992 37.1806 13.2499 36.8214 13.2716 36.463C13.2932 36.1046 13.3854 35.754 13.5429 35.4314C13.7004 35.1087 13.9201 34.8203 14.1893 34.5827L17.2042 31.9361C17.4724 31.7006 17.7843 31.5203 18.1222 31.4054C18.4601 31.2905 18.8173 31.2433 19.1734 31.2665C19.5295 31.2896 19.8776 31.3827 20.1978 31.5404C20.5179 31.698 20.8039 31.9172 21.0393 32.1854L20.5508 32.6537L21.0582 32.2077C21.2938 32.4759 21.4742 32.7878 21.5891 33.1257C21.7041 33.4636 21.7513 33.8208 21.7281 34.1769C21.705 34.5331 21.6119 34.8812 21.4542 35.2014C21.2964 35.5215 21.0772 35.8075 20.8089 36.0429L17.7914 38.6895C17.2976 39.1254 16.6614 39.3655 16.0028 39.3645ZM18.9927 32.6118C18.6617 32.6109 18.3419 32.731 18.0934 32.9496L15.0785 35.5962C14.8767 35.7785 14.7329 36.0161 14.665 36.2794C14.5972 36.5427 14.6083 36.8202 14.6969 37.0773C14.7856 37.3344 14.9479 37.5597 15.1636 37.7253C15.3793 37.8909 15.639 37.9893 15.9103 38.0084C16.0894 38.0207 16.2693 37.9971 16.4392 37.9391C16.6092 37.8811 16.7659 37.7898 16.9001 37.6706L19.915 35.0239C20.0499 34.9056 20.1602 34.7618 20.2395 34.6009C20.3188 34.4399 20.3656 34.2649 20.3773 34.0858C20.389 33.9067 20.3653 33.7271 20.3075 33.5572C20.2497 33.3873 20.1591 33.2304 20.0407 33.0956L20.0211 33.0733C19.9032 32.9389 19.7598 32.8292 19.5993 32.7504C19.4389 32.6717 19.2644 32.6255 19.0859 32.6145C19.0542 32.6131 19.0224 32.6124 18.992 32.6124L18.9927 32.6118Z" fill="white"/>
<path d="M12.5932 36.8833C12.5337 36.8833 12.4736 36.8833 12.4128 36.8779C12.0564 36.8555 11.708 36.7629 11.3877 36.6051C11.0674 36.4474 10.7815 36.2278 10.5466 35.9589L10.4729 35.8711C9.998 35.3294 9.75762 34.6212 9.80462 33.9023C9.85163 33.1834 10.1822 32.5126 10.7236 32.0373L14.2189 28.9691C14.487 28.7336 14.7989 28.5532 15.1368 28.4382C15.4747 28.3233 15.8319 28.276 16.1881 28.2992C16.5442 28.3223 16.8923 28.4154 17.2125 28.5732C17.5327 28.7309 17.8186 28.9501 18.054 29.2184L18.1303 29.3056C18.6054 29.8472 18.8459 30.5554 18.7989 31.2744C18.7519 31.9933 18.4213 32.6642 17.8797 33.1393L14.3844 36.2076C13.89 36.6442 13.2528 36.8846 12.5932 36.8833ZM16.0074 29.6454C15.6764 29.6446 15.3566 29.7647 15.1081 29.9833L11.6128 33.0515C11.3402 33.2907 11.1737 33.6283 11.15 33.9902C11.1263 34.3521 11.2473 34.7086 11.4864 34.9812L11.5628 35.0684C11.8021 35.3403 12.1395 35.5061 12.5009 35.5294C12.8623 35.5527 13.2183 35.4316 13.4905 35.1927L16.9858 32.1245C17.1207 32.0061 17.2309 31.8624 17.3102 31.7014C17.3896 31.5404 17.4364 31.3654 17.4481 31.1863C17.4597 31.0073 17.436 30.8276 17.3783 30.6577C17.3205 30.4878 17.2298 30.331 17.1114 30.1961L17.0364 30.1103C16.9184 29.9754 16.7748 29.8652 16.614 29.7861C16.4531 29.707 16.2782 29.6605 16.0993 29.6495C16.0675 29.6468 16.0378 29.6454 16.0074 29.6454Z" fill="white"/>
<path d="M9.6561 33.8762C9.59664 33.8762 9.53583 33.8762 9.4757 33.8702C8.93596 33.8361 8.41842 33.6429 7.98849 33.3148C7.55856 32.9867 7.23554 32.5386 7.06025 32.0269C6.88496 31.5153 6.86528 30.9632 7.00369 30.4404C7.1421 29.9176 7.43238 29.4476 7.83786 29.0897L10.0264 27.1688C10.2945 26.9333 10.6064 26.7529 10.9443 26.6379C11.2822 26.523 11.6394 26.4757 11.9956 26.4989C12.3517 26.522 12.6998 26.6151 13.02 26.7729C13.3402 26.9306 13.6261 27.1498 13.8615 27.4181L13.8852 27.4451C14.1207 27.7133 14.3011 28.0252 14.416 28.3631C14.531 28.701 14.5782 29.0582 14.5551 29.4144C14.5319 29.7705 14.4388 30.1186 14.2811 30.4388C14.1234 30.7589 13.9041 31.0449 13.6358 31.2803L11.4473 33.2012C10.9529 33.6377 10.3156 33.8779 9.6561 33.8762ZM11.8183 27.8445C11.4873 27.8436 11.1675 27.9638 10.9189 28.1823L8.73042 30.1033C8.59553 30.2216 8.48526 30.3654 8.40594 30.5263C8.32661 30.6873 8.27978 30.8623 8.26811 31.0414C8.25643 31.2205 8.28016 31.4001 8.33792 31.57C8.39568 31.7399 8.48635 31.8968 8.60475 32.0316C8.72221 32.1708 8.86611 32.2852 9.02812 32.3682C9.19013 32.4513 9.36701 32.5014 9.54853 32.5156C9.73004 32.5298 9.91256 32.5079 10.0855 32.451C10.2585 32.3941 10.4184 32.3035 10.5561 32.1843L12.7446 30.2634C12.8795 30.145 12.9898 30.0013 13.0691 29.8403C13.1484 29.6793 13.1953 29.5043 13.2069 29.3252C13.2186 29.1462 13.1949 28.9665 13.1371 28.7966C13.0794 28.6267 12.9887 28.4699 12.8703 28.335L12.8466 28.308C12.7286 28.1728 12.585 28.0625 12.424 27.9833C12.263 27.904 12.0879 27.8576 11.9088 27.8465C11.8757 27.8458 11.8453 27.8445 11.8149 27.8445H11.8183Z" fill="white"/>
<path d="M8.43053 30.1431C8.28429 30.1434 8.14195 30.0959 8.02513 30.0079L5.71634 28.2512C5.64571 28.1975 5.58636 28.1304 5.54167 28.0537C5.49697 27.977 5.46782 27.8923 5.45586 27.8044C5.44391 27.7164 5.4494 27.627 5.472 27.5412C5.49461 27.4554 5.5339 27.3749 5.58763 27.3042C5.69613 27.1616 5.85686 27.0679 6.03445 27.0438C6.12238 27.0318 6.21181 27.0373 6.29762 27.0599C6.38344 27.0825 6.46396 27.1218 6.53459 27.1755L8.84337 28.9323C8.9571 29.0176 9.04104 29.1366 9.08322 29.2723C9.12541 29.4081 9.1237 29.5537 9.07834 29.6884C9.03298 29.8231 8.94628 29.9401 8.83058 30.0227C8.71488 30.1053 8.57607 30.1493 8.43391 30.1485L8.43053 30.1431Z" fill="white"/>
<path d="M39.5398 30.892C39.4062 30.8919 39.2756 30.8523 39.1645 30.778C39.0534 30.7038 38.9668 30.5983 38.9157 30.4748C38.8646 30.3514 38.8512 30.2155 38.8772 30.0845C38.9033 29.9535 38.9676 29.8331 39.0621 29.7386L42.8533 25.946C42.9807 25.8229 43.1514 25.7548 43.3286 25.7564C43.5057 25.7579 43.6752 25.829 43.8005 25.9542C43.9258 26.0795 43.9968 26.249 43.9984 26.4262C43.9999 26.6033 43.9318 26.774 43.8087 26.9014L40.0175 30.6926C39.9549 30.7556 39.8805 30.8056 39.7985 30.8399C39.7165 30.8741 39.6286 30.8918 39.5398 30.892Z" fill="white"/>
<path d="M44.7094 29.4898C44.5939 29.49 44.4802 29.4605 44.3793 29.4042C44.2784 29.3479 44.1936 29.2666 44.1331 29.1682L35.8831 15.7493C35.7959 15.6073 35.7643 15.4382 35.7942 15.2743C35.8241 15.1105 35.9135 14.9634 36.0453 14.8615L44.2162 8.53308C44.3059 8.46362 44.4116 8.41785 44.5237 8.40001C44.6357 8.38217 44.7504 8.39282 44.8573 8.43099C44.9641 8.46916 45.0596 8.53362 45.135 8.61841C45.2103 8.70321 45.2631 8.80562 45.2885 8.91619L49.3067 26.4479C49.3401 26.5906 49.3262 26.7402 49.267 26.8743C49.2079 27.0084 49.1069 27.1196 48.979 27.1912L45.0392 29.4054C44.9383 29.4614 44.8248 29.4904 44.7094 29.4898ZM37.352 15.5574L44.9439 27.9054L47.877 26.2567L44.2081 10.2486L37.352 15.5574Z" fill="white"/>
<path d="M5.29051 29.7301C5.17478 29.7301 5.06101 29.7003 4.9601 29.6436L1.02024 27.4328C0.89242 27.3612 0.79134 27.25 0.732232 27.1159C0.673125 26.9819 0.659192 26.8322 0.692535 26.6896L4.71145 9.15984C4.73682 9.04927 4.78962 8.94686 4.86499 8.86206C4.94035 8.77727 5.03586 8.71281 5.14269 8.67465C5.24952 8.63648 5.36425 8.62582 5.47628 8.64366C5.58832 8.6615 5.69406 8.70727 5.78375 8.77673L13.9554 15.1044C14.0871 15.2064 14.1765 15.3534 14.2064 15.5173C14.2364 15.6812 14.2047 15.8503 14.1175 15.9923L5.86686 29.4112C5.80598 29.5091 5.72106 29.5898 5.62018 29.6456C5.5193 29.7015 5.40581 29.7305 5.29051 29.7301ZM2.12294 26.5017L5.05605 28.1497L12.6479 15.8011L5.79186 10.4923L2.12294 26.5017Z" fill="white"/>
</svg>
