<svg width="25" height="26" viewBox="0 0 25 26" fill="none" xmlns="http://www.w3.org/2000/svg">
<path d="M12.5 26C10.7917 26 9.17708 25.6587 7.65625 24.9762C6.13542 24.2937 4.80729 23.3621 3.67188 22.1812C2.53646 21.0004 1.64062 19.6192 0.984375 18.0375C0.328125 16.4558 0 14.7767 0 13C0 11.1583 0.333333 9.44667 1 7.865C1.66667 6.28333 2.57813 4.9075 3.73438 3.7375C4.89063 2.5675 6.24479 1.65208 7.79688 0.99125C9.34896 0.330417 11.0104 0 12.7813 0C14.4271 0 15.9896 0.287083 17.4688 0.86125C18.9479 1.43542 20.2448 2.23167 21.3594 3.25C22.474 4.26833 23.3594 5.47625 24.0156 6.87375C24.6719 8.27125 25 9.80417 25 11.4725C25 13.8125 24.3437 15.6596 23.0312 17.0137C21.7187 18.3679 19.9792 19.045 17.8125 19.045H15.4688C15.0937 19.045 14.7708 19.1967 14.5 19.5C14.2292 19.8033 14.0937 20.1392 14.0937 20.5075C14.0937 21.0925 14.2448 21.5908 14.5469 22.0025C14.849 22.4142 15 22.8908 15 23.4325C15 24.2558 14.7813 24.8896 14.3438 25.3337C13.9063 25.7779 13.2917 26 12.5 26ZM5.21875 13.845C5.63542 13.845 6 13.6825 6.3125 13.3575C6.625 13.0325 6.78125 12.6533 6.78125 12.22C6.78125 11.7867 6.625 11.4075 6.3125 11.0825C6 10.7575 5.63542 10.595 5.21875 10.595C4.80208 10.595 4.4375 10.7575 4.125 11.0825C3.8125 11.4075 3.65625 11.7867 3.65625 12.22C3.65625 12.6533 3.8125 13.0325 4.125 13.3575C4.4375 13.6825 4.80208 13.845 5.21875 13.845ZM9.15625 8.32C9.57292 8.32 9.9375 8.1575 10.25 7.8325C10.5625 7.5075 10.7187 7.12833 10.7187 6.695C10.7187 6.26167 10.5625 5.8825 10.25 5.5575C9.9375 5.2325 9.57292 5.07 9.15625 5.07C8.73958 5.07 8.375 5.2325 8.0625 5.5575C7.75 5.8825 7.59375 6.26167 7.59375 6.695C7.59375 7.12833 7.75 7.5075 8.0625 7.8325C8.375 8.1575 8.73958 8.32 9.15625 8.32ZM15.8438 8.32C16.2604 8.32 16.625 8.1575 16.9375 7.8325C17.25 7.5075 17.4063 7.12833 17.4063 6.695C17.4063 6.26167 17.25 5.8825 16.9375 5.5575C16.625 5.2325 16.2604 5.07 15.8438 5.07C15.4271 5.07 15.0625 5.2325 14.75 5.5575C14.4375 5.8825 14.2813 6.26167 14.2813 6.695C14.2813 7.12833 14.4375 7.5075 14.75 7.8325C15.0625 8.1575 15.4271 8.32 15.8438 8.32ZM19.9375 13.845C20.3542 13.845 20.7188 13.6825 21.0313 13.3575C21.3438 13.0325 21.5 12.6533 21.5 12.22C21.5 11.7867 21.3438 11.4075 21.0313 11.0825C20.7188 10.7575 20.3542 10.595 19.9375 10.595C19.5208 10.595 19.1563 10.7575 18.8438 11.0825C18.5313 11.4075 18.375 11.7867 18.375 12.22C18.375 12.6533 18.5313 13.0325 18.8438 13.3575C19.1563 13.6825 19.5208 13.845 19.9375 13.845ZM12.5 24.05C12.7292 24.05 12.8906 24.0013 12.9844 23.9038C13.0781 23.8063 13.125 23.6492 13.125 23.4325C13.125 23.1292 12.974 22.8475 12.6719 22.5875C12.3698 22.3275 12.2187 21.7533 12.2187 20.865C12.2187 19.8683 12.5312 18.9908 13.1562 18.2325C13.7812 17.4742 14.5729 17.095 15.5313 17.095H17.8125C19.3958 17.095 20.6771 16.6129 21.6563 15.6487C22.6354 14.6846 23.125 13.2925 23.125 11.4725C23.125 8.6125 22.0833 6.31042 20 4.56625C17.9167 2.82208 15.5104 1.95 12.7813 1.95C9.73958 1.95 7.16146 3.01708 5.04687 5.15125C2.93229 7.28542 1.875 9.90167 1.875 13C1.875 16.055 2.91146 18.6604 4.98438 20.8163C7.05729 22.9721 9.5625 24.05 12.5 24.05Z" fill="white"/>
</svg>
