<svg width="14" height="18" viewBox="0 0 14 18" fill="none" xmlns="http://www.w3.org/2000/svg">
<path opacity="0.5" d="M6.9697 0.650391C4.67395 0.650391 2.8062 2.51814 2.8062 4.81389V6.47929H1.9735C1.05504 6.47929 0.308105 7.22622 0.308105 8.14469V15.639C0.308105 16.5575 1.05504 17.3044 1.9735 17.3044H11.9659C12.8844 17.3044 13.6313 16.5575 13.6313 15.639V8.14469C13.6313 7.22622 12.8844 6.47929 11.9659 6.47929H11.1332V4.81389C11.1332 2.51814 9.26546 0.650391 6.9697 0.650391ZM4.4716 4.81389C4.4716 3.4366 5.59242 2.31579 6.9697 2.31579C8.34699 2.31579 9.4678 3.4366 9.4678 4.81389V6.47929H4.4716V4.81389ZM11.9676 15.639H7.8024V13.7421C8.29786 13.4531 8.6351 12.9219 8.6351 12.3082C8.6351 11.3897 7.88817 10.6428 6.9697 10.6428C6.05123 10.6428 5.3043 11.3897 5.3043 12.3082C5.3043 12.9211 5.64155 13.4531 6.137 13.7421V15.639H1.9735V8.14469H11.9659L11.9676 15.639Z" fill="#03014C"/>
</svg>
