<svg width="14" height="14" viewBox="0 0 14 14" fill="none" xmlns="http://www.w3.org/2000/svg">
<path d="M5.5715 0.428558C4.75 0.428647 3.94047 0.62553 3.21069 1.00273C2.48091 1.37992 1.8521 1.92645 1.37691 2.59657C0.901718 3.26669 0.593973 4.04089 0.479434 4.85436C0.364894 5.66784 0.446895 6.49692 0.718571 7.27219C0.990247 8.04747 1.44369 8.74639 2.04095 9.31043C2.6382 9.87448 3.36189 10.2872 4.15142 10.5142C4.94096 10.7411 5.77337 10.7756 6.57897 10.6147C7.38457 10.4539 8.13992 10.1024 8.78179 9.5897L12.5961 13.404C12.7038 13.5081 12.8482 13.5657 12.998 13.5644C13.1478 13.5631 13.2912 13.503 13.3971 13.397C13.5031 13.2911 13.5632 13.1478 13.5645 12.9979C13.5658 12.8481 13.5082 12.7038 13.4041 12.596L9.58979 8.7817C10.1944 8.02505 10.573 7.11307 10.6821 6.15071C10.7912 5.18836 10.6263 4.21476 10.2064 3.34198C9.7866 2.4692 9.12883 1.73272 8.30885 1.2173C7.48887 0.701877 6.54002 0.428475 5.5715 0.428558ZM1.5715 5.57141C1.5715 4.51055 1.99293 3.49313 2.74307 2.74299C3.49322 1.99284 4.51063 1.57142 5.5715 1.57142C6.63237 1.57142 7.64978 1.99284 8.39993 2.74299C9.15007 3.49313 9.5715 4.51055 9.5715 5.57141C9.5715 6.63228 9.15007 7.6497 8.39993 8.39984C7.64978 9.14999 6.63237 9.57141 5.5715 9.57141C4.51063 9.57141 3.49322 9.14999 2.74307 8.39984C1.99293 7.6497 1.5715 6.63228 1.5715 5.57141Z" fill="black" fill-opacity="0.5"/>
</svg>
