<svg width="28" height="28" viewBox="0 0 28 28" fill="none" xmlns="http://www.w3.org/2000/svg">
<path d="M0 28V21.2227H2.51364V6.77727H0V0H6.77727V2.51364H21.2227V0H28V6.77727H25.4864V21.2227H28V28H21.2227V25.4864H6.77727V28H0ZM6.77727 23.5773H21.2227V21.2227H23.5773V6.77727H21.2227V4.42273H6.77727V6.77727H4.42273V21.2227H6.77727V23.5773ZM8.49545 19.5364L13.2364 7.06364H14.7318L19.5045 19.5364H17.8818L16.6091 16.1H11.55L10.2773 19.5364H8.49545ZM11.9955 14.6364H16.0045L14.0955 9.35455H13.8727L11.9955 14.6364ZM1.90909 4.86818H4.86818V1.90909H1.90909V4.86818ZM23.1318 4.86818H26.0909V1.90909H23.1318V4.86818ZM23.1318 26.0909H26.0909V23.1318H23.1318V26.0909ZM1.90909 26.0909H4.86818V23.1318H1.90909V26.0909Z" fill="black"/>
<path d="M6.62727 25.4864V27.85H0.15V21.3727H2.51364H2.66364V21.2227V6.77727V6.62727H2.51364H0.15V0.15H6.62727V2.51364V2.66364H6.77727H21.2227H21.3727V2.51364V0.15H27.85V6.62727H25.4864H25.3364V6.77727V21.2227V21.3727H25.4864H27.85V27.85H21.3727V25.4864V25.3364H21.2227H6.77727H6.62727V25.4864ZM6.62727 23.5773V23.7273H6.77727H21.2227H21.3727V23.5773V21.3727H23.5773H23.7273V21.2227V6.77727V6.62727H23.5773H21.3727V4.42273V4.27273H21.2227H6.77727H6.62727V4.42273V6.62727H4.42273H4.27273V6.77727V21.2227V21.3727H4.42273H6.62727V23.5773ZM16.7498 16.0479L16.7135 15.95H16.6091H11.55H11.4456L11.4093 16.0479L10.1729 19.3864H8.71294L13.3398 7.21364H14.6286L19.2865 19.3864H17.9862L16.7498 16.0479ZM11.8541 14.5861L11.7829 14.7864H11.9955H16.0045H16.2183L16.1456 14.5854L14.2365 9.30356L14.2007 9.20455H14.0955H13.8727H13.7668L13.7314 9.30431L11.8541 14.5861ZM1.75909 4.86818V5.01818H1.90909H4.86818H5.01818V4.86818V1.90909V1.75909H4.86818H1.90909H1.75909V1.90909V4.86818ZM22.9818 4.86818V5.01818H23.1318H26.0909H26.2409V4.86818V1.90909V1.75909H26.0909H23.1318H22.9818V1.90909V4.86818ZM22.9818 26.0909V26.2409H23.1318H26.0909H26.2409V26.0909V23.1318V22.9818H26.0909H23.1318H22.9818V23.1318V26.0909ZM1.75909 26.0909V26.2409H1.90909H4.86818H5.01818V26.0909V23.1318V22.9818H4.86818H1.90909H1.75909V23.1318V26.0909Z" stroke="black" stroke-opacity="0.5" stroke-width="0.3"/>
</svg>
