<svg width="24" height="24" viewBox="0 0 24 24" fill="none" xmlns="http://www.w3.org/2000/svg">
<path d="M1.5 23.9667C1.1 23.7889 0.811111 23.5944 0.633333 23.3833C0.455555 23.1722 0.288889 22.8667 0.133333 22.4667L22.5 0.0666666C22.8333 0.177778 23.1278 0.361111 23.3833 0.616667C23.6389 0.872222 23.8111 1.17778 23.9 1.53333L1.5 23.9667ZM0 14.7333V11.8667L11.8667 0H14.7333L0 14.7333ZM0 4.06667V2C0 1.46667 0.2 1 0.6 0.6C1 0.2 1.46667 0 2 0H4.06667L0 4.06667ZM19.9333 24L24 19.9333V22C24 22.5333 23.8 23 23.4 23.4C23 23.8 22.5333 24 22 24H19.9333ZM9.26667 24L24 9.26667V12.1333L12.1333 24H9.26667Z" fill="black"/>
</svg>
