<svg width="26" height="25" viewBox="0 0 26 25" fill="none" xmlns="http://www.w3.org/2000/svg">
<path d="M0 11.8421L6.5 0L13 11.8421H0ZM6.5325 25C5.1025 25 3.87833 24.4846 2.86 23.4539C1.84167 22.4232 1.3325 21.1842 1.3325 19.7368C1.3325 18.2675 1.84167 17.023 2.86 16.0033C3.87833 14.9836 5.1025 14.4737 6.5325 14.4737C7.9625 14.4737 9.18667 14.989 10.205 16.0197C11.2233 17.0504 11.7325 18.2895 11.7325 19.7368C11.7325 21.1842 11.2233 22.4232 10.205 23.4539C9.18667 24.4846 7.9625 25 6.5325 25ZM6.5325 23.0263C7.4425 23.0263 8.21167 22.7083 8.84 22.0724C9.46833 21.4364 9.7825 20.6579 9.7825 19.7368C9.7825 18.8158 9.46833 18.0373 8.84 17.4013C8.21167 16.7654 7.4425 16.4474 6.5325 16.4474C5.6225 16.4474 4.85333 16.7654 4.225 17.4013C3.59667 18.0373 3.2825 18.8158 3.2825 19.7368C3.2825 20.6579 3.59667 21.4364 4.225 22.0724C4.85333 22.7083 5.6225 23.0263 6.5325 23.0263ZM3.315 9.86842H9.685L6.5 4.07895L3.315 9.86842ZM14.3 25V14.4737H24.7V25H14.3ZM16.25 23.0263H22.75V16.4474H16.25V23.0263ZM19.5 11.8421C18.265 10.7895 17.2304 9.90132 16.3962 9.17763C15.5621 8.45395 14.8958 7.81798 14.3975 7.26974C13.8992 6.72149 13.5417 6.20614 13.325 5.72368C13.1083 5.24123 13 4.72588 13 4.17763C13 3.19079 13.3413 2.35746 14.0238 1.67763C14.7063 0.997807 15.5567 0.657895 16.575 0.657895C17.1383 0.657895 17.68 0.789474 18.2 1.05263C18.72 1.31579 19.1533 1.69956 19.5 2.20395C19.8467 1.69956 20.28 1.31579 20.8 1.05263C21.32 0.789474 21.8617 0.657895 22.425 0.657895C23.4433 0.657895 24.2937 0.997807 24.9762 1.67763C25.6587 2.35746 26 3.19079 26 4.17763C26 4.72588 25.8917 5.24123 25.675 5.72368C25.4583 6.20614 25.1008 6.72149 24.6025 7.26974C24.1042 7.81798 23.4379 8.45395 22.6038 9.17763C21.7696 9.90132 20.735 10.7895 19.5 11.8421ZM19.5 9.24342C21.3417 7.70833 22.5604 6.61184 23.1562 5.95395C23.7521 5.29605 24.05 4.72588 24.05 4.24342C24.05 3.76096 23.9092 3.37171 23.6275 3.07566C23.3458 2.77961 22.9667 2.63158 22.49 2.63158C22.2083 2.63158 21.9321 2.70833 21.6612 2.86184C21.3904 3.01535 21.0492 3.27851 20.6375 3.65132L19.5 4.73684L18.3625 3.65132C17.9508 3.27851 17.6096 3.01535 17.3387 2.86184C17.0679 2.70833 16.7917 2.63158 16.51 2.63158C16.0333 2.63158 15.6542 2.77961 15.3725 3.07566C15.0908 3.37171 14.95 3.76096 14.95 4.24342C14.95 4.72588 15.2479 5.29605 15.8437 5.95395C16.4396 6.61184 17.6583 7.70833 19.5 9.24342Z" fill="black"/>
</svg>
