<svg id="Layer_1" data-name="Layer 1" xmlns="http://www.w3.org/2000/svg" viewBox="0 0 1000 1000"><defs><style>.cls-1{fill:#fff2ee;}.cls-2{fill:#f15a29;}</style></defs><rect class="cls-1" width="1000" height="1000"/><path class="cls-2" d="M287.63,399.09q8.63-18.82,26-34.63A146.73,146.73,0,0,1,352,339.15q21-9.5,40.79-9.54t33.49,12.71q13.69,12.75,16.27,41.44-1.11,20.72-16.18,43.22t-38.09,44.45a555.26,555.26,0,0,1-48,40.84q-25,18.91-46,32.42,17-2.48,37.08-4.59t38.07-2.6q18-.48,29.26,1.94t10.75,8.9a28.68,28.68,0,0,1-2.75,11.15,61.49,61.49,0,0,1-7.39,12.61A49,49,0,0,1,389,582.41a20.17,20.17,0,0,1-11.74,4.24q-26.18-19.95-62.71-19T238.7,587.87c-.51.17-1.47-.74-2.87-2.76a33.64,33.64,0,0,1-3.82-7.92,28.09,28.09,0,0,1-1.51-10.47q5.9-20.75,24.63-38a427.83,427.83,0,0,1,43-34.4q19.41-13.89,38.29-29.57a213,213,0,0,0,33.46-34.83,125.59,125.59,0,0,0,21.22-43.52q-.9-13.71-11.51-14.52t-24.9,7.72a101,101,0,0,0-26.12,22.93,71.5,71.5,0,0,0-15.32,31.12,18.86,18.86,0,0,1-13-4.55,34.92,34.92,0,0,1-8.37-10.79,44.5,44.5,0,0,1-4.11-11.67C287.08,403,287,400.48,287.63,399.09Z"/><path class="cls-2" d="M524.37,328.5q36.11,7.65,33.45,41t-24.59,61.74q16.72,5.87,35.22-27.46a9.63,9.63,0,0,1,8.36-5.21c3.65-.14,5.81,1.66,6.48,5.43a88.59,88.59,0,0,1-27.24,34.44q-17.84,13.62-38.1,7.31-9.41,10.52-25.86,14.56t-30.56-.28Q447.42,455.74,445,440.9a45.83,45.83,0,0,1,9-27.07A165,165,0,0,1,473.54,391q-8.09-26,7.59-44.57T524.37,328.5Zm-21,105.1a60.55,60.55,0,0,0-10.74-13.29c-.52-.52-1-1-1.44-1.44q-9.75,9.86-9.24,15.67t6.92,6Q495.25,440.69,503.33,433.6Zm-6.42-66a33.1,33.1,0,0,1,8.92-6.32q4.69-2.2,7.25-.66,12.84,11.63,9.3,21.93t-14.73,19l12.85,16.5q19.82-34.87,14.17-51.88t-19.43-16.5Q501.46,350.21,496.91,367.6Z"/><path class="cls-2" d="M572.24,472.23a62.27,62.27,0,0,0-16.67-4.54q-9-1.23-17.54-1.66l-4.77-.22q-13.95.21-35.33,1.49t-44.62,4.43a271.63,271.63,0,0,0-43,9.19q-19.77,6-30.51,16.11a12.21,12.21,0,0,0-.11,7.87,48.08,48.08,0,0,0,3.54,9.3,114.93,114.93,0,0,0,6.43,11q9.84-3.88,19.49-8.64,10.29-5,20.92-9.13a95.69,95.69,0,0,1,21.93-5.7q-21.27,33.55-43.24,84.6T375.46,682A35.81,35.81,0,0,0,387,698.08q8,6.36,14.62,7.42t5.7-5.37q9.42-34.21,34.11-93.36a1151.92,1151.92,0,0,1,53.16-110.95,143.75,143.75,0,0,1,30.12-4.54c3.74-.19,7.51-.33,11.29-.43q10.43-.27,21-.13,5.46,0,10.83-.05c.76-2.34,1.5-4.8,2.21-7.35,1.16-3.69,2.28-7.14,3.38-10.38C573.1,472.7,572.68,472.46,572.24,472.23Z"/><path class="cls-2" d="M531.16,552.18q-45.73,80.3-45.29,90.25.33,18.17,35.88-36.21,3.87-6.87,7.8-9.74t11.57.44a21.25,21.25,0,0,1,9,11.74,91.65,91.65,0,0,1,3.82,16.5q.66,3.87.33,30.23,11.07-7.3,19.16-31.78-14.73-17-9.69-42.58t15.45-38.59q10.41-13,26.47-9.75,14.05,4.77,14.83,30.12t-19.71,63.9q8.31,15.62,28.46-19.71,3.11-5.76,8.2-4.65t5,7.42q-23.58,45-47.06,31.44-29.57,39.66-52.49,31.57-10.2-4-13.35-13.46A77.77,77.77,0,0,1,525.73,640a102.78,102.78,0,0,0-1.44-10.19q-14.73,27.13-30.23,35.6t-27.46-3.6q-10.08-9.52-4-35.6a320.13,320.13,0,0,1,18.6-55q12.57-28.95,22.42-47.23,3.44-3.32,16.39,3.71T531.16,552.18Zm49.72,55.15q4.43-8.87,10.8-31.17t3-24.75q-3.32-2.45-5.92,2.38t-7.37,24.14Q576.67,597.25,580.88,607.33Z"/><path class="cls-2" d="M692.28,533.13q36.11,7.65,33.45,41T701.14,635.9q16.73,5.86,35.22-27.46a9.61,9.61,0,0,1,8.36-5.21q5.47-.22,6.48,5.43A88.52,88.52,0,0,1,724,643.1q-17.82,13.62-38.09,7.31Q676.46,660.93,660,665t-30.56-.28q-14.12-4.32-16.56-19.16a45.83,45.83,0,0,1,9-27.07,165,165,0,0,1,19.54-22.87q-8.09-26,7.59-44.57T692.28,533.13Zm-21,105.09a60.71,60.71,0,0,0-10.74-13.28l-1.44-1.44q-9.75,9.86-9.24,15.67t6.92,6Q663.16,645.32,671.24,638.22Zm-6.42-66a33,33,0,0,1,8.91-6.31c3.14-1.47,5.56-1.7,7.26-.66q12.84,11.63,9.3,21.92t-14.73,19.05l12.85,16.5q19.82-34.87,14.17-51.88t-19.43-16.5Q669.37,554.83,664.82,572.22Z"/><path class="cls-2" d="M306.74,299c.3-.31.57-.56.76-.72l.11-.15a94.09,94.09,0,0,1,12.24-15,99.79,99.79,0,0,1,16.6-13.92q8.6-5.66,14.31-4.6t5.37,12.84q20-4.47,41.55-7.15s20.12-2.38,39.88-2.73c53.46-.93,159.63,30.8,158,37.65-1.3,5.3-63.44-10.11-144.11-9.11,0,0-39,.48-72.17,7.41-10,2.08-25.76,6.06-35.9,9q-16.44,4.78-26.27,8.58-6.15,3.75-10.26,3.14T302,316.33c-.41-4.16.17-7.29,1.67-11.88A13.69,13.69,0,0,1,306.74,299Z"/><path class="cls-2" d="M764.62,701c-.3.31-.57.56-.75.72l-.12.15a93,93,0,0,1-12.24,15,99,99,0,0,1-16.6,13.92q-8.58,5.65-14.3,4.6t-5.38-12.84q-20,4.47-41.54,7.15s-20.12,2.38-39.89,2.73c-53.45.93-159.62-30.8-157.95-37.65,1.29-5.3,63.43,10.11,144.11,9.11,0,0,38.94-.48,72.17-7.41,10-2.08,25.76-6.06,35.9-9q16.44-4.79,26.27-8.58,6.15-3.75,10.26-3.14t4.84,7.89c.41,4.16-.17,7.29-1.68,11.88A13.69,13.69,0,0,1,764.62,701Z"/><path class="cls-2" d="M607.39,522.53h-.18q-20.91-4.89-19.28-25.25t13-43q10.68-21.09,21.81-38.92,7.43-12.59,11.05-19.92-9.6,6.07-17.74,6.07a21.36,21.36,0,0,1-9.33-2.63L581.68,442q-3.07,4.71-8.1,3.9t-2.76-7.07l27.43-48a24.68,24.68,0,0,1-3.53-12.76,23.84,23.84,0,0,1,.36-4.07q2.35-15.21,13.85-30.87l3.9-5.35q9.85.11,14.44,3.9A16,16,0,0,1,633,350a33.09,33.09,0,0,1,1.13,6q0,1.27-2.9,5.43c-1.51,2.3-3,4.77-4.43,7.43-1.69,3.07-2.54,5.7-2.54,7.87a5.07,5.07,0,0,0,3,4.62,7.82,7.82,0,0,0,3.17.72q3.71,0,9.32-4.61,7.34-6.08,13.22-6.07a17.82,17.82,0,0,1,4.53.64q10.23,5.61,13.21,14.93a20,20,0,0,1,1,6.25,24.58,24.58,0,0,1-4,12.85q-3.63,5.43-9.6,13.76Q645.42,437.17,632,459.34t-15.43,39.84a4.81,4.81,0,0,0,3.8,1.81q3.25,0,9.37-5.12t14.71-16.7Q653,467.59,660,456.4t9.46-16.25q2.45-4.51,5.61-4.52,7.34-.92,6.79,5.52Q655.47,487.5,640.39,505T607.39,522.53Z"/></svg>