<svg id="Layer_1" data-name="Layer 1" xmlns="http://www.w3.org/2000/svg" viewBox="0 0 1000 1000"><defs><style>.cls-1{fill:#96c0ff;}.cls-2{fill:#1c3369;}</style></defs><rect class="cls-1" x="-0.15" width="1000.15" height="1000.15"/><path class="cls-2" d="M609.51,252.47a154.85,154.85,0,0,0-209.2-9c0,.62,0,1.23,0,1.85.15,9.94.06,19.53.84,29a93.91,93.91,0,0,0,6.46,27.16,28,28,0,0,0,1.4,3.17l1.49,3.12.37.78.43.75.87,1.49,1.71,3a79.94,79.94,0,0,0,8.3,10.9,82.5,82.5,0,0,0,10.13,9.43l2.83,2.09,1.42,1.05,1.48,1,3,2c1,.63,2.07,1.22,3.1,1.83a189.64,189.64,0,0,0,26.78,12.68c18.85,7.43,39,13.92,58.5,22.94a203.84,203.84,0,0,1,28.41,15.85A154,154,0,0,1,583,414.59a144,144,0,0,1,19.79,26.07A164.19,164.19,0,0,1,616.44,470c.9,2.53,1.64,5.11,2.47,7.66.39,1.28.83,2.55,1.18,3.83l1,3.9c.62,2.59,1.34,5.17,1.88,7.77l1.51,7.84c.23,1.31.53,2.6.71,3.92l.54,3.94,1.08,7.87.7,7.89.34,3.94.17,2c0,.66,0,1.32.07,2l.24,7.89c.07,2.63.19,5.25.1,7.88l-.13,7.87c0,2.62,0,5.24-.25,7.85l-.51,7.84-.27,3.91-.13,2-.21,1.95c-.56,5.2-1.13,10.39-1.75,15.56l-1.08-.08c0-5.21,0-10.4,0-15.59v-2l-.07-1.94-.15-3.89-.28-7.76c0-2.59-.25-5.17-.44-7.74l-.58-7.73c-.14-2.57-.48-5.13-.79-7.69l-.93-7.66a228.73,228.73,0,0,0-15.4-58.93l-3.11-6.86c-.48-1.15-1.11-2.24-1.68-3.35l-1.74-3.32c-1.11-2.25-2.44-4.35-3.7-6.5-.64-1.06-1.26-2.14-1.92-3.2L591.21,448a136.23,136.23,0,0,0-19.06-22.59c-14.25-13.61-31.41-23.76-50-31.46-9.25-3.91-18.82-7.35-28.58-10.67s-19.72-6.56-29.71-10.3a206.69,206.69,0,0,1-29.83-13.4c-1.21-.7-2.43-1.37-3.64-2.1l-3.57-2.28L425.07,354l-1.74-1.25-3.47-2.5A103.57,103.57,0,0,1,407,338.65a99.33,99.33,0,0,1-10.74-13.76c-.76-1.23-1.47-2.5-2.21-3.75L393,319.26l-.54-.95-.48-1-1.89-3.91c-.62-1.3-1.28-2.6-1.77-3.95a115.06,115.06,0,0,1-8.1-33.26l-.22-2.11c-.06-.71-.08-1.41-.12-2.12l-.19-4.22c-.07-1.11,0-2.2,0-3.3A154.17,154.17,0,0,0,345.12,362V619.76h71.39l.18-102.9a83.31,83.31,0,1,1,166.62,0l.06,102.9h71.51V362A154.4,154.4,0,0,0,609.51,252.47Zm-64.34,85.39A15.78,15.78,0,1,1,561,322.09,15.77,15.77,0,0,1,545.17,337.86Z"/><path class="cls-2" d="M297.51,710.5v18.42H254.25V743.1h36.11v17.2H254.25v14.18h43.26V792.9H234.38V710.5Z"/><path class="cls-2" d="M439.41,792.9h-20v-42l-19.76,42H377.49l-19.75-42v42H337.86V710.5h22.06L388.64,771l28.6-60.47h22.17Z"/><path class="cls-2" d="M553.68,768.91c0,13.45-8.6,24-31.14,24h-40.6V710.5h35.75c23.87,0,31.39,9.45,31.39,22.66,0,8.48-5.94,14.42-7.76,15.75A21.45,21.45,0,0,1,553.68,768.91ZM530.17,735.7c0-5.57-3.63-8.24-11.27-8.24H501.82v17.21H518.9C527.51,744.67,530.17,742.13,530.17,735.7Zm-9.93,24.12H501.82v16h18.42q12,0,12-8C532.23,761.76,528.11,759.82,520.24,759.82Z"/><path class="cls-2" d="M655,710.5v18.42H611.73V743.1h36.11v17.2H611.73v14.18H655V792.9H591.85V710.5Z"/><path class="cls-2" d="M763.32,741.4c0,11.87-5.81,21.93-14.66,26.66l17,24.84H740.9l-12.36-20.48H714V792.9H694.13V710.5H734C750.72,710.5,763.32,723.46,763.32,741.4ZM714,728.92V754h17.09a12.55,12.55,0,0,0,.12-25.08Z"/></svg>