<svg id="Layer_1" data-name="Layer 1" xmlns="http://www.w3.org/2000/svg" viewBox="0 0 1000 1000"><defs><style>.cls-1{fill:#f5edf8;}.cls-2{fill:#414042;}</style></defs><rect class="cls-1" x="-0.15" width="1000" height="1000"/><path class="cls-2" d="M257.74,432.21H223.93c0-7-8.3-16.59-22.82-16.59-10.16,0-22.61,4.56-22.61,12.65,0,6.85,9.34,9.54,29.25,14.73,22.19,5.81,53.52,13.27,53.52,44.39,0,27-23.65,43.77-56.63,43.77-44.18,0-62.65-29.87-62.65-51.86h33.82s2.69,22.4,30.69,22.4c15.15,0,20.75-6.43,20.75-12.44,0-8.92-11.83-12-24.89-15.15-21.16-5-58.29-12.86-58.29-44.18,0-25.72,25.31-44.8,57.46-44.8C238.24,385.13,257.74,410.22,257.74,432.21Z"/><path class="cls-2" d="M406.05,419.14h-50V528.67H321.62V419.14h-50V387.61H406.05Z"/><path class="cls-2" d="M720.39,442c0,27.8-17.63,54.76-53.72,54.76H636v31.95H601.74V387.61h65.13C703,387.61,720.39,414.58,720.39,442ZM636,419.14V465.4h27c13.69,0,23-8.09,23-23.44,0-15.14-9.34-22.61-23-22.82Z"/><path class="cls-2" d="M855.84,432.21H822c0-7-8.3-16.59-22.82-16.59-10.16,0-22.61,4.56-22.61,12.65,0,6.85,9.34,9.54,29.25,14.73,22.19,5.81,53.52,13.27,53.52,44.39,0,27-23.65,43.77-56.63,43.77-44.18,0-62.65-29.87-62.65-51.86h33.82s2.69,22.4,30.69,22.4c15.15,0,20.75-6.43,20.75-12.44,0-8.92-11.83-12-24.89-15.15-21.16-5-58.29-12.86-58.29-44.18,0-25.72,25.31-44.8,57.46-44.8C836.34,385.13,855.84,410.22,855.84,432.21Z"/><rect class="cls-2" x="417.01" y="498.26" width="143.85" height="30.41"/><rect class="cls-2" x="436.81" y="442.94" width="104.23" height="30.41"/><rect class="cls-2" x="457.25" y="387.62" width="63.36" height="30.41"/><path class="cls-2" d="M194.41,601a28.58,28.58,0,0,1-24.93,13.87c-16.7,0-28.85-12.22-28.85-28,0-14.81,12.15-27.2,28.85-27.2,11.36,0,20.3,5.33,25.08,13.33l-10.89,6.35c-2.51-4.86-7.45-8.08-14.19-8.08-9.33,0-15.83,6.82-15.83,15.6a15.7,15.7,0,0,0,15.83,15.91,15.51,15.51,0,0,0,14-8.07Z"/><path class="cls-2" d="M253,587.28a27.51,27.51,0,1,1-27.51-27.59A27.61,27.61,0,0,1,253,587.28Zm-43.27,0a15.68,15.68,0,1,0,15.76-15.59A15.7,15.7,0,0,0,209.76,587.28Z"/><path class="cls-2" d="M313.54,613.93H300.6l-27-32.6v32.6H260.71v-53.3h12.93l27,32.53V560.63h12.94Z"/><path class="cls-2" d="M366.05,577.49H353.27c0-2.67-3.14-6.28-8.62-6.28-3.84,0-8.55,1.73-8.55,4.79,0,2.58,3.53,3.6,11.06,5.56,8.38,2.2,20.22,5,20.22,16.77,0,10.2-8.94,16.54-21.4,16.54-16.69,0-23.67-11.28-23.67-19.59h12.78s1,8.46,11.6,8.46c5.72,0,7.83-2.43,7.83-4.7,0-3.37-4.46-4.55-9.4-5.72-8-1.88-22-4.86-22-16.7,0-9.72,9.57-16.93,21.72-16.93C358.68,559.69,366.05,569.18,366.05,577.49Z"/><path class="cls-2" d="M422.09,572.55H403.2v41.38h-13V572.55H371.29V560.63h50.8Z"/><path class="cls-2" d="M475.62,580.62c0,7.68-3.77,14.19-9.49,17.24l11,16.07h-16l-8-13.24h-9.41v13.24H430.86v-53.3h25.79C467.47,560.63,475.62,569,475.62,580.62Zm-31.91-8.07v16.22h11.06a8.11,8.11,0,0,0,.07-16.22Z"/><path class="cls-2" d="M535,586.58c0,17.63-11.14,28.29-26,28.29-15.13,0-25.39-10.66-25.39-28.29v-26h12.85v26c0,10.27,4.39,16.38,12.54,16.38s13-6.11,13-16.38v-26h13Z"/><path class="cls-2" d="M595.45,601a28.56,28.56,0,0,1-24.92,13.87c-16.7,0-28.85-12.22-28.85-28,0-14.81,12.15-27.2,28.85-27.2,11.36,0,20.3,5.33,25.08,13.33l-10.9,6.35c-2.5-4.86-7.44-8.08-14.18-8.08-9.33,0-15.84,6.82-15.84,15.6a15.7,15.7,0,0,0,15.84,15.91,15.51,15.51,0,0,0,14-8.07Z"/><path class="cls-2" d="M651.73,572.55H632.84v41.38h-13V572.55H600.93V560.63h50.8Z"/><path class="cls-2" d="M673.35,613.93H660.5v-53.3h12.85Z"/><path class="cls-2" d="M736.84,587.28a27.51,27.51,0,1,1-27.51-27.59A27.61,27.61,0,0,1,736.84,587.28Zm-43.27,0a15.68,15.68,0,1,0,15.76-15.59A15.7,15.7,0,0,0,693.57,587.28Z"/><path class="cls-2" d="M797.35,613.93H784.41l-27-32.6v32.6H744.52v-53.3h12.93l27,32.53V560.63h12.94Z"/><path class="cls-2" d="M849.86,577.49H837.08c0-2.67-3.13-6.28-8.62-6.28-3.84,0-8.54,1.73-8.54,4.79,0,2.58,3.52,3.6,11.05,5.56,8.39,2.2,20.22,5,20.22,16.77,0,10.2-8.93,16.54-21.4,16.54-16.69,0-23.67-11.28-23.67-19.59H818.9s1,8.46,11.6,8.46c5.72,0,7.84-2.43,7.84-4.7,0-3.37-4.47-4.55-9.41-5.72-8-1.88-22-4.86-22-16.7,0-9.72,9.56-16.93,21.71-16.93C842.49,559.69,849.86,569.18,849.86,577.49Z"/></svg>