<svg id="Layer_1" data-name="Layer 1" xmlns="http://www.w3.org/2000/svg" viewBox="0 0 1000 1000"><defs><style>.cls-1{fill:#ffa38e;}.cls-2{fill:#c64141;}</style></defs><rect class="cls-1" x="0.15" width="1000" height="1000"/><path class="cls-2" d="M341.63,400.42v153c13.61,0,26.45-.21,39.28,0,27.06.54,42,15.57,42.28,42.43.12,10.69,0,21.37,0,32.06v49H391.55c0-10.38.1-20.31,0-30.24-.2-15.85,0-31.73-1-47.53-.71-11.15-7.45-16.74-18.53-17-9.66-.25-19.34,0-30.16,0V677H309.87c-.16-3.36-.45-6.77-.46-10.18,0-85.14.14-170.28-.24-255.42,0-9.37,3-11.87,11.62-11.05C327.16,400.9,333.63,400.42,341.63,400.42Z"/><path class="cls-2" d="M444.52,401.53V363.62h32.33V374q0,60.62,0,121.22a86.35,86.35,0,0,1-.94,12.54c-1.69,11.27-6.07,16.74-17.47,17.09-21.6.66-43.28.5-64.85-.7-16.46-.91-27.31-11-32.51-26.41-7.32-21.64-8.06-43.79-1.59-65.72,5.39-18.22,18.32-28.94,37.27-30.29C412.11,400.66,427.64,401.53,444.52,401.53Zm.26,25.38c-13.37,0-25.61-.68-37.74.21-9.35.69-15.83,7.16-16.6,16.32a221.06,221.06,0,0,0,0,38.42c.85,9.33,7.84,14.71,17.38,15.16a257.13,257.13,0,0,0,30,0c2.45-.17,6.55-4.28,6.61-6.67C445,469.65,444.78,449,444.78,426.91Z"/><path class="cls-2" d="M604.85,498.7v26.09c-2.75.24-5.51.67-8.26.67-21.38.06-42.76.14-64.13,0-30-.17-42.4-12.55-42.39-42.75,0-17.78-.17-35.64,1.41-53.32,1.43-16.2,11.6-26.49,27.68-27.47a503,503,0,0,1,61,0c17.23,1,28.41,13.51,29.26,30.72.7,14.2.14,28.46.14,44.09H520.84c-2.73,18.47.08,21.93,16.75,22,18.79,0,37.57,0,56.36,0Zm-84.6-46.95h59.63c2.87-21.62.35-24.57-20.31-24.57-7.73,0-15.46,0-23.19,0-14.83.11-16.75,2-16.69,16.68C519.7,446.37,520,448.87,520.25,451.75Z"/><path class="cls-2" d="M624,400c30.06,0,58.88-.36,87.69.13,19.88.34,33.89,15,34.21,34.8.3,18.13.28,36.28.06,54.41-.25,21.14-14,35.45-35,36.07-17.47.52-35,.57-52.46,0-21-.7-34.81-15.34-34.91-36.27-.14-26.88-.05-53.76,0-80.64C623.56,405.93,623.83,403.43,624,400Zm94.7,63c0-8.09-.1-16.18,0-24.27.12-7.15-2.83-10.8-10.36-10.72-15.86.18-31.71.15-47.57,0q-9.72-.09-9.78,9.29-.16,25.23,0,50.47c0,6.73,3.3,9.82,10.31,9.7,15.53-.28,31.07-.31,46.6,0,8.11.16,11-3.64,10.83-11.2C718.59,478.46,718.73,470.69,718.73,462.92Z"/><path class="cls-2" d="M709,677.36V649.21h47.93c6.8,0,13.66.47,20.37-.28,2.91-.33,5.54-3.2,8.3-4.91-2-2.94-3.33-7.57-6-8.52-11.53-4.09-23.46-7.09-35.23-10.52-4.33-1.26-8.69-2.46-12.94-4-23.25-8.3-27.24-24.6-23.25-45.71,2.47-13.06,12.43-21.2,26.49-21.56,25.85-.68,51.73-.2,78.31-.2V581.6c-19.55,0-38.9-.25-58.24.15-5.84.12-14.85-3.42-16.21,5.67s8.21,9.49,14.19,11.47c14.08,4.65,28.45,8.41,42.63,12.8,27.28,8.43,27.06,36.29,19.3,52.36-4,8.24-11.1,13.05-20.08,13.17C766.4,677.6,738.27,677.36,709,677.36Z"/><path class="cls-2" d="M520.53,553.91h31.63c0,6.25,0,12,0,17.69,0,26.86.13,53.72-.1,80.58-.16,18.59-6.79,25.18-25.15,25.35-17.15.16-34.31.25-51.45-.14-20.87-.48-36.52-12.64-37.64-33-1.64-29.9-.42-60-.42-90.5h30.43c.21,3.35.6,6.74.62,10.13.07,20.06-.24,40.13.14,60.19.39,20.6,5,24.81,25.51,25,5.5,0,11-.23,16.5.06,7.65.42,10.13-3.09,10-10.48-.29-24.59-.11-49.18-.11-73.78Z"/><path class="cls-2" d="M632.51,639.68c13.34-29.89,25.81-57.84,38.34-85.94H703a76.15,76.15,0,0,1-2.42,7.3c-22.32,49.41-44.78,98.76-66.93,148.25-2.3,5.14-4.85,7.43-10.63,7.05-8-.52-16-.13-25.48-.13,5.38-11.73,9.76-22.4,15.14-32.54,3.37-6.36,3.29-11.58.3-18.11-15.58-34-30.66-68.31-45.89-102.51-1.27-2.84-2.39-5.75-4-9.67,10.15,0,19.18-.52,28.09.31,2.79.27,6.43,3.68,7.67,6.52,10.29,23.67,20.11,47.54,30.09,71.34C629.75,633.61,630.71,635.64,632.51,639.68Z"/><path class="cls-2" d="M229.11,490.93c10.92-28.82,21.24-54.87,30.53-81.28,2.7-7.66,6.41-10,14-9.37,7,.62,14.09.14,22.32.14-1.32,4.05-2.08,7.07-3.26,9.93q-20.43,49.68-41,99.31c-5.67,13.71-9.67,16.59-22.87,16.6s-17.17-2.8-22.85-16.54c-14.8-35.77-29.56-71.56-45.1-109.21,10.74,0,20.59-.48,30.33.35,2.25.19,4.88,4.56,6,7.52,9.36,24.05,18.39,48.22,27.55,72.34C225.78,483.32,227,485.85,229.11,490.93Z"/><path class="cls-2" d="M813.63,462.73c0,10.67.12,21.34,0,32-.13,9.74-3.83,12.11-12.82,8-12.61-5.77-25.22-11.59-37.49-18-2.64-1.38-3.82-5.53-5.64-8.43-.14-.23,0-.63,0-1,.19-10.65-3.15-23.4,1.59-31.33,4.44-7.45,17.41-9.84,26.66-14.38,5.21-2.56,10.41-5.2,15.77-7.41,8.06-3.33,11.76-1,11.93,7.55C813.8,440.74,813.63,451.74,813.63,462.73Z"/></svg>