<svg id="Layer_1" data-name="Layer 1" xmlns="http://www.w3.org/2000/svg" viewBox="0 0 1000 1000"><defs><style>.cls-1{fill:#e8f5ff;}.cls-2{fill:#1a75bc;}.cls-3{fill:#1c66a3;}.cls-4{fill:#fff;}</style></defs><rect class="cls-1" width="1000" height="1000"/><path class="cls-2" d="M655.61,428A155.5,155.5,0,0,1,519.15,582.47q-6.1.75-12.36,1c-2.24.1-4.51.15-6.79.15A155.61,155.61,0,1,1,655.61,428Z"/><path class="cls-3" d="M644.85,485a155.77,155.77,0,0,1-125.7,97.49L412.43,469.86l14.22-25.52L564.57,492.5q7.2-43.58,14.41-87.14Z"/><path class="cls-4" d="M462,384h38V357.78H462a49.55,49.55,0,0,0-49.55,49.55v62.53H500V443.64H438.65V407.33A23.36,23.36,0,0,1,462,384Z"/><path class="cls-4" d="M561.35,433.55v36.31H500v26.21h87.57V433.55A49.55,49.55,0,0,0,538,384H500v26.21h38A23.36,23.36,0,0,1,561.35,433.55Z"/><path class="cls-2" d="M142.34,723.27a32.22,32.22,0,0,1-12.63-12,34.94,34.94,0,0,1,0-34.62,32.22,32.22,0,0,1,12.63-12,37.48,37.48,0,0,1,18-4.32,38.06,38.06,0,0,1,15.27,3,30.69,30.69,0,0,1,11.47,8.55l-9.66,8.91a20.74,20.74,0,0,0-16.34-7.62,21.7,21.7,0,0,0-10.76,2.65,18.71,18.71,0,0,0-7.38,7.38,23.21,23.21,0,0,0,0,21.54,18.84,18.84,0,0,0,7.38,7.38,21.69,21.69,0,0,0,10.76,2.64,20.67,20.67,0,0,0,16.34-7.7l9.66,8.91a30.17,30.17,0,0,1-11.51,8.63,38.23,38.23,0,0,1-15.32,3A37.39,37.39,0,0,1,142.34,723.27Z"/><path class="cls-2" d="M256.84,661.49v65h-15V699.83H212.28v26.64h-15v-65h15v25.62H241.8V661.49Z"/><path class="cls-2" d="M313.65,726.47l-12.53-18.1H287.29v18.1h-15v-65h28.13a36.08,36.08,0,0,1,15,2.88,21.52,21.52,0,0,1,13.23,20.7,21.2,21.2,0,0,1-13.37,20.51l14.57,20.89Zm-3.81-49.8q-3.52-2.92-10.3-2.93H287.29v22.65h12.25q6.78,0,10.3-3a10.29,10.29,0,0,0,3.53-8.35C313.37,681.42,312.2,678.62,309.84,676.67Z"/><path class="cls-2" d="M340.48,661.49h15v65h-15Z"/><path class="cls-2" d="M377.37,725.49a34.88,34.88,0,0,1-11.55-5.43l5.1-11.32a34.84,34.84,0,0,0,9.94,4.92,37.18,37.18,0,0,0,11.51,1.85q6.4,0,9.46-1.9a5.74,5.74,0,0,0,3.07-5.06,4.86,4.86,0,0,0-1.81-3.85,13.86,13.86,0,0,0-4.64-2.46q-2.83-.93-7.66-2a105.48,105.48,0,0,1-12.16-3.53,19.6,19.6,0,0,1-8.12-5.66q-3.39-3.9-3.39-10.4a18.13,18.13,0,0,1,3.06-10.26,20.56,20.56,0,0,1,9.24-7.28,37.55,37.55,0,0,1,15.08-2.7,49.93,49.93,0,0,1,12.16,1.49,35.85,35.85,0,0,1,10.4,4.27l-4.64,11.42a36.21,36.21,0,0,0-18-5.11q-6.32,0-9.33,2a6.26,6.26,0,0,0-3,5.39q0,3.35,3.48,5A54.05,54.05,0,0,0,396.17,688a105.71,105.71,0,0,1,12.16,3.52,20.26,20.26,0,0,1,8.13,5.57q3.38,3.81,3.38,10.31a17.68,17.68,0,0,1-3.11,10.16,20.79,20.79,0,0,1-9.33,7.29,38.09,38.09,0,0,1-15.13,2.69A53,53,0,0,1,377.37,725.49Z"/><path class="cls-2" d="M456.42,661.49h29.51a41.4,41.4,0,0,1,18.71,4,30.22,30.22,0,0,1,12.62,11.37,34.6,34.6,0,0,1,0,34.16,30.22,30.22,0,0,1-12.62,11.37,41.54,41.54,0,0,1-18.71,4H456.42Zm28.77,52.63q9.75,0,15.55-5.43t5.8-14.71q0-9.29-5.8-14.71t-15.55-5.44H471.45v40.29Z"/><path class="cls-2" d="M546.32,723.22a32.38,32.38,0,0,1-12.72-12,34.6,34.6,0,0,1,0-34.44,32.31,32.31,0,0,1,12.72-12,40.15,40.15,0,0,1,36.43,0,33.14,33.14,0,0,1,0,58.48,40.23,40.23,0,0,1-36.43,0ZM575,712.13a19.05,19.05,0,0,0,7.28-7.38,23.21,23.21,0,0,0,0-21.54,18.92,18.92,0,0,0-7.28-7.38,21.73,21.73,0,0,0-20.8,0,18.92,18.92,0,0,0-7.28,7.38,23.21,23.21,0,0,0,0,21.54,19.05,19.05,0,0,0,7.28,7.38,21.8,21.8,0,0,0,20.8,0Z"/><path class="cls-2" d="M618.63,719.88q-7.75-7.71-7.75-22V661.49h15v35.83q0,17.46,14.48,17.45,7.05,0,10.77-4.22t3.71-13.23V661.49h14.85v36.39q0,14.29-7.75,22t-21.67,7.7Q626.38,727.58,618.63,719.88Z"/><path class="cls-2" d="M728.49,693h13.74v26.36A39.45,39.45,0,0,1,730,725.45a47.7,47.7,0,0,1-14,2.13,38.06,38.06,0,0,1-18.19-4.31,32.07,32.07,0,0,1-12.67-12,34.87,34.87,0,0,1,0-34.62,31.92,31.92,0,0,1,12.76-12,38.68,38.68,0,0,1,18.38-4.32,40.19,40.19,0,0,1,15.5,2.88,30.81,30.81,0,0,1,11.7,8.36l-9.66,8.91a22.33,22.33,0,0,0-16.8-7.34,22.93,22.93,0,0,0-11,2.6,18.64,18.64,0,0,0-7.52,7.34,23,23,0,0,0,0,21.63,19.07,19.07,0,0,0,7.47,7.38,22.19,22.19,0,0,0,10.91,2.64A24.41,24.41,0,0,0,728.49,712Z"/><path class="cls-2" d="M799,712.54H768.78L763,726.47H747.62l29-65h14.85l29.06,65H804.71Zm-4.73-11.41-10.31-24.88-10.3,24.88Z"/><path class="cls-2" d="M827.26,661.49h15v52.72h32.58v12.26H827.26Z"/></svg>