<svg width="10" height="7" viewBox="0 0 10 7" fill="none" xmlns="http://www.w3.org/2000/svg">
<path d="M5 5.48333C5.53788 5.48333 5.99432 5.29083 6.36932 4.90583C6.74432 4.52083 6.93182 4.05222 6.93182 3.5C6.93182 2.94778 6.74432 2.47917 6.36932 2.09417C5.99432 1.70917 5.53788 1.51667 5 1.51667C4.46212 1.51667 4.00568 1.70917 3.63068 2.09417C3.25568 2.47917 3.06818 2.94778 3.06818 3.5C3.06818 4.05222 3.25568 4.52083 3.63068 4.90583C4.00568 5.29083 4.46212 5.48333 5 5.48333ZM5 4.80667C4.64394 4.80667 4.3428 4.68028 4.09659 4.4275C3.85038 4.17472 3.72727 3.86556 3.72727 3.5C3.72727 3.13444 3.85038 2.82528 4.09659 2.5725C4.3428 2.31972 4.64394 2.19333 5 2.19333C5.35606 2.19333 5.6572 2.31972 5.90341 2.5725C6.14962 2.82528 6.27273 3.13444 6.27273 3.5C6.27273 3.86556 6.14962 4.17472 5.90341 4.4275C5.6572 4.68028 5.35606 4.80667 5 4.80667ZM5 7C3.89394 7 2.89394 6.67722 2 6.03167C1.10606 5.38611 0.439394 4.54222 0 3.5C0.439394 2.45778 1.10606 1.61389 2 0.968333C2.89394 0.322778 3.89394 0 5 0C6.10606 0 7.10606 0.322778 8 0.968333C8.89394 1.61389 9.56061 2.45778 10 3.5C9.56061 4.54222 8.89394 5.38611 8 6.03167C7.10606 6.67722 6.10606 7 5 7ZM5 6.3C5.91667 6.3 6.75947 6.04528 7.52841 5.53583C8.29735 5.02639 8.88258 4.34778 9.28409 3.5C8.88258 2.65222 8.29735 1.97361 7.52841 1.46417C6.75947 0.954722 5.91667 0.7 5 0.7C4.08333 0.7 3.24053 0.954722 2.47159 1.46417C1.70265 1.97361 1.11364 2.65222 0.704545 3.5C1.11364 4.34778 1.70265 5.02639 2.47159 5.53583C3.24053 6.04528 4.08333 6.3 5 6.3Z" fill="white"/>
</svg>
