<svg width="4" height="8" viewBox="0 0 4 8" fill="none" xmlns="http://www.w3.org/2000/svg">
<path d="M3.6167 0.208344C3.70003 0.312511 3.7417 0.435845 3.7417 0.578345C3.7417 0.720567 3.70003 0.843761 3.6167 0.947927L1.17503 4.00001L3.62503 7.06251C3.70281 7.15973 3.7417 7.28126 3.7417 7.42709C3.7417 7.57293 3.70003 7.69793 3.6167 7.80209C3.53337 7.90626 3.4347 7.95834 3.3207 7.95834C3.20692 7.95834 3.10837 7.90626 3.02503 7.80209L0.225032 4.29168C0.191699 4.25001 0.168032 4.20487 0.154032 4.15626C0.140255 4.10765 0.133365 4.05557 0.133366 4.00001C0.133366 3.94445 0.140255 3.89237 0.154032 3.84376C0.168032 3.79515 0.191699 3.75001 0.225032 3.70834L3.03337 0.197928C3.11114 0.100706 3.20692 0.0520944 3.3207 0.0520944C3.4347 0.0520944 3.53337 0.104178 3.6167 0.208344Z" fill="black" fill-opacity="0.5"/>
</svg>
