<svg width="28" height="28" viewBox="0 0 28 28" fill="none" xmlns="http://www.w3.org/2000/svg">
<g clip-path="url(#clip0_6_204)">
<path d="M14 0.500977C6.54377 0.500977 0.5 6.54558 0.5 14.001C0.5 21.4564 6.54377 27.5009 14 27.5009C21.4562 27.5009 27.5 21.4563 27.5 14.0009C27.5 6.54548 21.4561 0.500977 14 0.500977ZM22.8584 7.03494C24.3096 8.87772 25.1982 11.1794 25.2681 13.6845C22.2391 13.1538 19.6269 13.1377 17.3698 13.4955C17.0838 12.839 16.7893 12.2012 16.4873 11.5836C18.908 10.588 21.079 9.13584 22.8584 7.03494ZM21.3051 5.42172C19.7155 7.35135 17.72 8.67939 15.4621 9.58312C14.0168 6.90509 12.5302 4.67332 11.3422 3.04407C12.1952 2.83563 13.0837 2.72431 13.9992 2.72431C16.786 2.72339 19.3358 3.74177 21.3051 5.42172ZM9.15266 3.82111C10.301 5.35416 11.829 7.5749 13.3233 10.2977C10.1559 11.1676 6.613 11.4022 3.02706 11.4123C3.81846 8.05758 6.10835 5.27658 9.15266 3.82111ZM2.72408 14L2.73335 13.6354H2.79405C6.81199 13.6354 10.8012 13.3722 14.3779 12.3183C14.6445 12.8609 14.9069 13.4177 15.1634 13.9907C10.4579 15.3703 7.52415 18.4667 5.51352 21.4131C3.7788 19.4313 2.72408 16.8368 2.72408 14ZM7.15713 22.9539C9.06063 20.0869 11.7134 17.2502 16.03 16.0588C17.0383 18.6424 17.8609 21.4621 18.2963 24.4237C16.9717 24.9738 15.5213 25.2775 14.0008 25.2775C11.4282 25.2775 9.05562 24.4111 7.15713 22.9539ZM20.3703 23.2999C19.9087 20.594 19.1527 18.013 18.2423 15.6201C20.215 15.3695 22.483 15.4303 25.1121 15.9137C24.5865 18.9696 22.8298 21.6099 20.3703 23.2999Z" fill="#EA4C89"/>
</g>
<defs>
<clipPath id="clip0_6_204">
<rect width="27" height="27" fill="white" transform="translate(0.5 0.5)"/>
</clipPath>
</defs>
</svg>
