<svg id="Layer_1" data-name="Layer 1" xmlns="http://www.w3.org/2000/svg" xmlns:xlink="http://www.w3.org/1999/xlink" viewBox="0 0 638.81 538.4"><defs><style>.cls-1{fill:url(#linear-gradient);}.cls-2{fill:#6553db;}</style><linearGradient id="linear-gradient" x1="1354.52" y1="663.71" x2="1361.72" y2="1143.23" gradientUnits="userSpaceOnUse"><stop offset="0" stop-color="#c644fc"/><stop offset="0.3" stop-color="#9c4cee"/><stop offset="0.42" stop-color="#9a4ced"/><stop offset="0.46" stop-color="#934deb"/><stop offset="0.47" stop-color="#8f4eea"/><stop offset="0.59" stop-color="#8b4fe8"/><stop offset="0.7" stop-color="#8050e4"/><stop offset="1" stop-color="#6055d8"/></linearGradient></defs><path class="cls-1" d="M1673.27,746.32a49.63,49.63,0,0,0-20.85-26.79c-22-12.89-49.57-9.78-67.44,11.28-13.77,16.23-15,45.07-2.83,60.52,4.81,6.1,10.56,11.46,16.4,17.7-4.89,9.63-9.79,20.08-15.39,30.14-14.91,26.8-33.21,50.66-60.27,66.45-23.77,13.87-47.83,15.14-71.76.55-16.91-10.3-29.07-25.08-39.53-41.8-19.83-31.68-30.2-66.72-39-102.85,16.12-5.35,29.32-14.2,38.24-28.69s12.13-30.29,8.34-46.66c-7-30.07-29.73-50.78-62.57-51.36-25.91-.46-49.74,13.46-61.1,43.62-5,13.28-4.6,27-.18,40.45,7.26,22.16,23.2,35.52,45.74,43.11-7,21.88-12.84,43.57-21,64.32-11.15,28.36-25.61,54.88-50.45,74.27s-52.79,20.77-79.93,5.11c-19.16-11.05-33.91-26.84-46.63-44.47a238.44,238.44,0,0,1-29-53.67c1.34-1,2.48-1.89,3.61-2.77,19.46-15.07,25.1-33.64,19.34-55.4-5.45-20.61-19.85-32.69-41.26-36.84-15.67-3-35,2.82-47.67,18.27a52,52,0,0,0-8.74,49.54c1.64,4.74,7,15.67,16.56,23.09a49.2,49.2,0,0,0,17.43,8.53c6.53,1.77,9.07,3.95,10.09,10.95,2.57,17.62,6.59,35,10,52.55q7.38,38,14.72,76.08,8.53,43.8,17.18,87.59c1.81,9.27,3.39,18.59,5.47,27.81.34,1.5,2.62,2.85,4.3,3.67,1.18.57,2.86.12,4.31.12q216.87,0,433.72.21c7.21,0,8.94-2.69,10.07-8.73,5.15-27.43,10.73-54.79,16-82.21,6.85-35.86,13.53-71.75,20.28-107.63,3.37-17.93,6.64-35.88,10.31-53.75a8,8,0,0,1,4.79-5c6.56-1.68,11.21-4.61,12.68-4.83C1659.48,806.9,1682.52,775.91,1673.27,746.32Z" transform="translate(-1036.6 -634.8)"/><path class="cls-2" d="M1559.37,1095.32q-101.4,0-202.8,0c-67.81,0-135.62-.13-203.43.09-16.34.06-29,7.1-36.26,22.45-8.88,18.76-1,42.69,17.74,50.1a70.42,70.42,0,0,0,25.17,5q181,.48,361.92.16c14.29,0,28.58-.61,42.86-1.3,18.81-.9,34.45-17.28,34.8-36C1599.8,1112.68,1582.74,1095.34,1559.37,1095.32Z" transform="translate(-1036.6 -634.8)"/></svg>