<svg id="Layer_2" data-name="Layer 2" xmlns="http://www.w3.org/2000/svg" viewBox="0 0 367 22.02"><defs><style>.cls-1{fill:#1d1b1c;}.cls-2{fill:#13b57a;}.cls-3{fill:#fff;}.cls-4{fill:#231f20;}.cls-5{fill:#055229;}</style></defs><path class="cls-1" d="M76.92,171.56v2.85h3.36v1.3H76.92v3H80.7V180H75.33v-9.75H80.7v1.31Z" transform="translate(-75.33 -163.87)"/><path class="cls-1" d="M86,176.09,88.46,180H86.65L85,177.38,83.42,180H81.75l2.49-3.8-2.49-3.92h1.81l1.66,2.62,1.57-2.62h1.67Z" transform="translate(-75.33 -163.87)"/><path class="cls-1" d="M89.6,174a3.45,3.45,0,0,1,1.34-1.39,4.28,4.28,0,0,1,4.27.17,3.29,3.29,0,0,1,1.24,1.9H94.73a1.85,1.85,0,0,0-.67-.9,2,2,0,0,0-1.16-.32,1.92,1.92,0,0,0-1.56.69,3.5,3.5,0,0,0,0,3.89,1.89,1.89,0,0,0,1.56.7,1.77,1.77,0,0,0,1.83-1.22h1.72a3.38,3.38,0,0,1-1.26,1.87,3.71,3.71,0,0,1-2.29.69,3.83,3.83,0,0,1-2-.49,3.48,3.48,0,0,1-1.34-1.4,4.81,4.81,0,0,1,0-4.19Z" transform="translate(-75.33 -163.87)"/><path class="cls-1" d="M105.06,176.74H99.17a2.15,2.15,0,0,0,.68,1.48,2.21,2.21,0,0,0,1.52.56,1.88,1.88,0,0,0,1.82-1.08h1.72a3.45,3.45,0,0,1-1.27,1.74,3.66,3.66,0,0,1-2.27.68,3.93,3.93,0,0,1-2-.49,3.51,3.51,0,0,1-1.38-1.4,4.29,4.29,0,0,1-.49-2.1A4.38,4.38,0,0,1,98,174a3.37,3.37,0,0,1,1.36-1.39,4.3,4.3,0,0,1,4,0,3.36,3.36,0,0,1,1.33,1.34,4,4,0,0,1,.48,2A4.79,4.79,0,0,1,105.06,176.74Zm-1.61-1.29a1.84,1.84,0,0,0-.63-1.42,2.27,2.27,0,0,0-1.52-.53,2.07,2.07,0,0,0-1.42.53,2.22,2.22,0,0,0-.7,1.42Z" transform="translate(-75.33 -163.87)"/><path class="cls-1" d="M108.28,169.64V180h-1.59V169.64Z" transform="translate(-75.33 -163.87)"/><path class="cls-1" d="M112,169.64V180h-1.6V169.64Z" transform="translate(-75.33 -163.87)"/><path class="cls-1" d="M121.09,176.74H115.2a2.11,2.11,0,0,0,.68,1.48,2.19,2.19,0,0,0,1.52.56,1.88,1.88,0,0,0,1.82-1.08h1.72a3.51,3.51,0,0,1-1.27,1.74,3.66,3.66,0,0,1-2.27.68,3.93,3.93,0,0,1-2-.49,3.51,3.51,0,0,1-1.38-1.4,4.29,4.29,0,0,1-.49-2.1A4.38,4.38,0,0,1,114,174a3.37,3.37,0,0,1,1.36-1.39,4.3,4.3,0,0,1,4,0,3.43,3.43,0,0,1,1.33,1.34,4,4,0,0,1,.48,2A4.79,4.79,0,0,1,121.09,176.74Zm-1.61-1.29a1.84,1.84,0,0,0-.63-1.42,2.27,2.27,0,0,0-1.52-.53,2.07,2.07,0,0,0-1.42.53,2.22,2.22,0,0,0-.7,1.42Z" transform="translate(-75.33 -163.87)"/><path class="cls-1" d="M128.24,172.54a2.65,2.65,0,0,1,1.13,1.12,3.67,3.67,0,0,1,.4,1.79V180h-1.58v-4.31a2.22,2.22,0,0,0-.52-1.59,1.84,1.84,0,0,0-1.41-.56,1.86,1.86,0,0,0-1.42.56,2.23,2.23,0,0,0-.53,1.59V180h-1.59v-7.72h1.59v.89a2.69,2.69,0,0,1,1-.75,3.54,3.54,0,0,1,2.93.12Z" transform="translate(-75.33 -163.87)"/><path class="cls-1" d="M133.66,173.59v4.27a.8.8,0,0,0,.21.62,1,1,0,0,0,.69.19h1V180h-1.26a2.4,2.4,0,0,1-1.65-.51,2,2,0,0,1-.58-1.63v-4.27h-.91v-1.31h.91v-1.91h1.61v1.91h1.88v1.31Z" transform="translate(-75.33 -163.87)"/><g id="Trustpilot_ratings_5star-RGB" data-name="Trustpilot ratings 5star-RGB"><rect id="Rectangle-path" class="cls-2" x="70.82" width="22.02" height="22.02"/><rect id="Rectangle-path-2" data-name="Rectangle-path" class="cls-2" x="94.67" width="22.02" height="22.02"/><rect id="Rectangle-path-3" data-name="Rectangle-path" class="cls-2" x="118.53" width="22.02" height="22.02"/><rect id="Rectangle-path-4" data-name="Rectangle-path" class="cls-2" x="142.38" width="22.02" height="22.02"/><rect id="Rectangle-path-5" data-name="Rectangle-path" class="cls-2" x="166.24" width="22.02" height="22.02"/><path id="Shape" class="cls-3" d="M157.15,178.71l3.35-.85,1.4,4.32Zm7.71-5.57H159l-1.81-5.55-1.81,5.55h-5.89l4.77,3.44-1.82,5.55,4.78-3.44,2.93-2.11,4.75-3.44Z" transform="translate(-75.33 -163.87)"/><path id="Shape-2" data-name="Shape" class="cls-3" d="M181,178.71l3.35-.85,1.4,4.32Zm7.7-5.57h-5.89L181,167.59l-1.81,5.55h-5.9l4.77,3.44-1.81,5.55,4.77-3.44,2.94-2.11,4.74-3.44Z" transform="translate(-75.33 -163.87)"/><path id="Shape-3" data-name="Shape" class="cls-3" d="M204.86,178.71l3.35-.85,1.4,4.32Zm7.71-5.57h-5.9l-1.81-5.55-1.81,5.55h-5.89l4.77,3.44-1.82,5.55,4.78-3.44,2.93-2.11,4.75-3.44Z" transform="translate(-75.33 -163.87)"/><path id="Shape-4" data-name="Shape" class="cls-3" d="M228.72,178.71l3.35-.85,1.4,4.32Zm7.71-5.57h-5.9l-1.81-5.55-1.81,5.55H221l4.77,3.44L224,182.13l4.77-3.44,2.94-2.11,4.75-3.44Z" transform="translate(-75.33 -163.87)"/><path id="Shape-5" data-name="Shape" class="cls-3" d="M252.57,178.71l3.35-.85,1.4,4.32Zm7.71-5.57h-5.89l-1.82-5.55-1.81,5.55h-5.89l4.77,3.44-1.81,5.55,4.77-3.44,2.93-2.11,4.75-3.44Z" transform="translate(-75.33 -163.87)"/></g><path class="cls-4" d="M277.58,172.49a2.7,2.7,0,0,1,1.37-.33v1.65h-.4a1.92,1.92,0,0,0-1.42.48,2.27,2.27,0,0,0-.49,1.65V180h-1.59v-7.71h1.59v1.12A2.51,2.51,0,0,1,277.58,172.49Z" transform="translate(-75.33 -163.87)"/><path class="cls-4" d="M287.44,176.74h-5.9a2.13,2.13,0,0,0,2.2,2,1.86,1.86,0,0,0,1.82-1.08h1.72a3.5,3.5,0,0,1-1.26,1.75,3.74,3.74,0,0,1-2.28.68,3.94,3.94,0,0,1-2-.5,3.55,3.55,0,0,1-1.37-1.4,4.68,4.68,0,0,1,0-4.19,3.41,3.41,0,0,1,1.35-1.39,4,4,0,0,1,2-.49,3.91,3.91,0,0,1,1.95.48A3.34,3.34,0,0,1,287,174a4,4,0,0,1,.47,2A4.85,4.85,0,0,1,287.44,176.74Zm-1.61-1.29a1.8,1.8,0,0,0-.63-1.41,2.24,2.24,0,0,0-1.53-.54,2,2,0,0,0-1.41.53,2.17,2.17,0,0,0-.7,1.42Z" transform="translate(-75.33 -163.87)"/><path class="cls-4" d="M292,178.57l2.19-6.28h1.69L293,180h-1.9l-2.93-7.71h1.71Z" transform="translate(-75.33 -163.87)"/><path class="cls-4" d="M297.21,171a1.06,1.06,0,0,1,0-1.46,1,1,0,0,1,.73-.29,1,1,0,0,1,.71.29,1,1,0,0,1,0,1.46.94.94,0,0,1-.71.29A1,1,0,0,1,297.21,171Zm1.51,1.32V180h-1.59v-7.71Z" transform="translate(-75.33 -163.87)"/><path class="cls-4" d="M307.84,176.74h-5.9a2.13,2.13,0,0,0,2.2,2A1.87,1.87,0,0,0,306,177.7h1.72a3.46,3.46,0,0,1-1.27,1.75,3.73,3.73,0,0,1-2.27.68,3.94,3.94,0,0,1-2-.5,3.48,3.48,0,0,1-1.37-1.4,4.17,4.17,0,0,1-.5-2.09,4.4,4.4,0,0,1,.48-2.1,3.43,3.43,0,0,1,1.36-1.39,4,4,0,0,1,2-.49,3.91,3.91,0,0,1,1.95.48,3.34,3.34,0,0,1,1.33,1.33,4.14,4.14,0,0,1,.47,2A6.3,6.3,0,0,1,307.84,176.74Zm-1.61-1.29a1.8,1.8,0,0,0-.63-1.41,2.25,2.25,0,0,0-1.53-.54,2,2,0,0,0-1.41.53,2.13,2.13,0,0,0-.7,1.42Z" transform="translate(-75.33 -163.87)"/><path class="cls-4" d="M319.82,172.29,317.43,180h-1.69l-1.55-5.7-1.55,5.7H311l-2.41-7.71h1.62l1.61,6.2,1.64-6.2h1.67l1.57,6.17,1.59-6.17Z" transform="translate(-75.33 -163.87)"/><path class="cls-4" d="M322.18,179.8a2.86,2.86,0,0,1-1.14-.9,2.25,2.25,0,0,1-.45-1.27h1.65a1.15,1.15,0,0,0,.47.82,1.69,1.69,0,0,0,1.07.33,1.72,1.72,0,0,0,1-.26.77.77,0,0,0,.38-.66.69.69,0,0,0-.42-.65,7.71,7.71,0,0,0-1.31-.46,12.35,12.35,0,0,1-1.41-.46,2.55,2.55,0,0,1-.95-.69,1.8,1.8,0,0,1-.39-1.21,1.9,1.9,0,0,1,.36-1.13,2.46,2.46,0,0,1,1-.81,4,4,0,0,1,1.56-.29,3.22,3.22,0,0,1,2.12.66,2.41,2.41,0,0,1,.87,1.82h-1.6a1.16,1.16,0,0,0-.42-.83,1.59,1.59,0,0,0-1-.31,1.67,1.67,0,0,0-1,.24.74.74,0,0,0-.33.63.67.67,0,0,0,.22.52,1.58,1.58,0,0,0,.55.33c.21.08.53.18.95.3a11.23,11.23,0,0,1,1.38.45,2.6,2.6,0,0,1,.93.68,1.82,1.82,0,0,1,.4,1.19,2,2,0,0,1-.36,1.18,2.41,2.41,0,0,1-1,.81,3.74,3.74,0,0,1-1.56.3A3.86,3.86,0,0,1,322.18,179.8Z" transform="translate(-75.33 -163.87)"/><path class="cls-4" d="M333.5,179.63a3.6,3.6,0,0,1-1.39-1.4,4.28,4.28,0,0,1-.5-2.09,4.2,4.2,0,0,1,.51-2.09,3.61,3.61,0,0,1,1.42-1.4,4.33,4.33,0,0,1,4,0,3.61,3.61,0,0,1,1.42,1.4,4.21,4.21,0,0,1,.52,2.09,4,4,0,0,1-.54,2.08,3.58,3.58,0,0,1-1.45,1.41,4.17,4.17,0,0,1-2,.5A3.92,3.92,0,0,1,333.5,179.63Zm3.13-1.18a2.2,2.2,0,0,0,.87-.89,2.74,2.74,0,0,0,.34-1.42,3,3,0,0,0-.32-1.43,2.25,2.25,0,0,0-.86-.87,2.29,2.29,0,0,0-1.15-.29,2.25,2.25,0,0,0-1.14.29,2.11,2.11,0,0,0-.83.87,3,3,0,0,0-.31,1.43,2.67,2.67,0,0,0,.64,1.92,2.11,2.11,0,0,0,1.6.68A2.46,2.46,0,0,0,336.63,178.45Z" transform="translate(-75.33 -163.87)"/><path class="cls-4" d="M346.58,172.54a2.65,2.65,0,0,1,1.13,1.12,3.67,3.67,0,0,1,.4,1.79V180h-1.58v-4.31a2.22,2.22,0,0,0-.52-1.59,1.82,1.82,0,0,0-1.41-.55,1.85,1.85,0,0,0-1.42.55,2.23,2.23,0,0,0-.53,1.59V180h-1.59v-7.71h1.59v.88a2.57,2.57,0,0,1,1-.74,3.19,3.19,0,0,1,1.3-.27A3.47,3.47,0,0,1,346.58,172.54Z" transform="translate(-75.33 -163.87)"/><path d="M385.42,170.35h7.82v1.46h-3.07V180h-1.69v-8.19h-3.06v-1.46ZM392.9,173h1.45v1.35h0a1.45,1.45,0,0,1,.26-.55,2.42,2.42,0,0,1,.47-.49,2.39,2.39,0,0,1,.62-.36,1.8,1.8,0,0,1,.68-.14l.38,0,.21,0v1.49l-.33,0-.34,0a1.81,1.81,0,0,0-.73.16,1.67,1.67,0,0,0-.6.45,2.34,2.34,0,0,0-.41.75,3.24,3.24,0,0,0-.15,1V180H392.9v-7Zm11.18,7h-1.52v-1h0a2.08,2.08,0,0,1-.85.84,2.19,2.19,0,0,1-1.14.32,2.56,2.56,0,0,1-2-.68,3,3,0,0,1-.61-2.06V173h1.54v4.29a1.87,1.87,0,0,0,.35,1.3,1.3,1.3,0,0,0,1,.38,1.92,1.92,0,0,0,.81-.15,1.35,1.35,0,0,0,.53-.4,1.6,1.6,0,0,0,.29-.6,3,3,0,0,0,.09-.76v-4h1.54Zm2.62-2.24a1.2,1.2,0,0,0,.51,1,2,2,0,0,0,1.07.27l.49,0a2.2,2.2,0,0,0,.52-.13,1,1,0,0,0,.4-.28.67.67,0,0,0,.14-.48.63.63,0,0,0-.21-.48,1.56,1.56,0,0,0-.52-.31,7.23,7.23,0,0,0-.72-.2l-.83-.17c-.28-.06-.56-.15-.83-.23a2.88,2.88,0,0,1-.72-.37,1.6,1.6,0,0,1-.5-.59,1.82,1.82,0,0,1-.19-.88,1.63,1.63,0,0,1,.28-1,2.09,2.09,0,0,1,.7-.62,3.56,3.56,0,0,1,.95-.33,5.93,5.93,0,0,1,1-.1,4.42,4.42,0,0,1,1,.12,2.8,2.8,0,0,1,.89.37,2.22,2.22,0,0,1,.66.67,2.19,2.19,0,0,1,.33,1h-1.6a1,1,0,0,0-.51-.75,2,2,0,0,0-.91-.19l-.39,0a2,2,0,0,0-.42.1.83.83,0,0,0-.33.22.53.53,0,0,0-.14.37.57.57,0,0,0,.2.46,1.55,1.55,0,0,0,.51.29,4.14,4.14,0,0,0,.72.2l.84.18a7.66,7.66,0,0,1,.82.23,2.45,2.45,0,0,1,.72.37,1.7,1.7,0,0,1,.52.58,1.85,1.85,0,0,1,.19.86,1.88,1.88,0,0,1-.28,1.06,2.36,2.36,0,0,1-.74.7,3.61,3.61,0,0,1-1,.4,5.12,5.12,0,0,1-1.09.12,4.71,4.71,0,0,1-1.23-.15,2.89,2.89,0,0,1-1-.45,2.25,2.25,0,0,1-.65-.76,2.38,2.38,0,0,1-.25-1.07h1.55Zm5.08-4.75H413v-2.09h1.54V173h1.39v1.16h-1.39v3.73a2.68,2.68,0,0,0,0,.42.66.66,0,0,0,.09.3.43.43,0,0,0,.23.18.92.92,0,0,0,.41.07h.32a1.88,1.88,0,0,0,.33-.05V180l-.5.06a4,4,0,0,1-.5,0,3.68,3.68,0,0,1-1-.12,1.37,1.37,0,0,1-.58-.34,1.19,1.19,0,0,1-.28-.56,4.18,4.18,0,0,1-.09-.77v-4.12H411.8V173Zm5.19,0h1.45v1h0a1.91,1.91,0,0,1,.91-.87,2.94,2.94,0,0,1,1.26-.27,3.17,3.17,0,0,1,1.43.3,2.87,2.87,0,0,1,1,.79,3.42,3.42,0,0,1,.6,1.19,5,5,0,0,1,0,2.81,3.51,3.51,0,0,1-.55,1.17,2.74,2.74,0,0,1-.94.81,2.82,2.82,0,0,1-1.34.3,3.91,3.91,0,0,1-.68-.06,3.38,3.38,0,0,1-.64-.19,2.36,2.36,0,0,1-.57-.35,2.59,2.59,0,0,1-.45-.49h0v3.49H417Zm5.38,3.51a3.15,3.15,0,0,0-.13-.92,2.48,2.48,0,0,0-.36-.79,1.91,1.91,0,0,0-.61-.56,1.74,1.74,0,0,0-.84-.21,1.69,1.69,0,0,0-1.46.68,3,3,0,0,0-.49,1.8,3.42,3.42,0,0,0,.13,1,2.07,2.07,0,0,0,.39.77,1.76,1.76,0,0,0,.61.51,1.72,1.72,0,0,0,.83.19,1.75,1.75,0,0,0,.89-.21,2,2,0,0,0,.6-.56,2.25,2.25,0,0,0,.34-.79,4.41,4.41,0,0,0,.1-.89Zm2.72-6.17h1.53v1.46h-1.53Zm0,2.66h1.53v7h-1.53v-7Zm2.91-2.66h1.54V180H428v-9.65Zm6.26,9.84a3.7,3.7,0,0,1-1.49-.28,3.23,3.23,0,0,1-1.11-.76A3.38,3.38,0,0,1,431,178a4.44,4.44,0,0,1-.24-1.49A4.36,4.36,0,0,1,431,175a3.28,3.28,0,0,1,.69-1.16,3.16,3.16,0,0,1,1.11-.77,4.1,4.1,0,0,1,3,0,3.29,3.29,0,0,1,1.11.77,3.14,3.14,0,0,1,.69,1.16,4.36,4.36,0,0,1,.24,1.47,4.44,4.44,0,0,1-.24,1.49,3.23,3.23,0,0,1-.69,1.16,3,3,0,0,1-1.11.76,3.67,3.67,0,0,1-1.49.28Zm0-1.22a1.8,1.8,0,0,0,.89-.21,1.89,1.89,0,0,0,.62-.57,2.37,2.37,0,0,0,.36-.79,3.37,3.37,0,0,0,.12-.9,3.41,3.41,0,0,0-.12-.89,2.11,2.11,0,0,0-.36-.79,1.76,1.76,0,0,0-.62-.56,1.91,1.91,0,0,0-1.78,0,1.85,1.85,0,0,0-.62.56,2.48,2.48,0,0,0-.36.79,3.41,3.41,0,0,0-.12.89,3.37,3.37,0,0,0,.12.9,2.37,2.37,0,0,0,.36.79,2,2,0,0,0,.62.57,1.7,1.7,0,0,0,.89.21Zm4-6h1.16v-2.09h1.54V173h1.39v1.16h-1.39v3.73c0,.16,0,.3,0,.42a.81.81,0,0,0,.1.3.44.44,0,0,0,.22.18,1,1,0,0,0,.41.07H442a1.88,1.88,0,0,0,.33-.05V180l-.5.06a4.07,4.07,0,0,1-.5,0,3.62,3.62,0,0,1-1-.12,1.37,1.37,0,0,1-.58-.34,1.19,1.19,0,0,1-.28-.56,4.18,4.18,0,0,1-.09-.77v-4.12h-1.17V173Z" transform="translate(-75.33 -163.87)"/><path class="cls-2" d="M383.62,172.29h-8.84l-2.73-8.41-2.74,8.41h-8.83l7.15,5.2-2.74,8.4,7.16-5.19,7.15,5.19-2.73-8.4Z" transform="translate(-75.33 -163.87)"/><path class="cls-5" d="M377.08,179.39l-.61-1.9-4.42,3.21Z" transform="translate(-75.33 -163.87)"/></svg>