<svg width="108" height="18" viewBox="0 0 108 18" fill="none" xmlns="http://www.w3.org/2000/svg">
<path d="M44.0003 0C43.0963 0 42.3619 0.737204 42.3619 1.64865C42.3619 2.55892 43.0963 3.29691 44.0003 3.29691C44.9073 3.29691 45.6445 2.55892 45.6445 1.64865C45.6445 0.737204 44.9073 0 44.0003 0Z" fill="#AEB1BD"/>
<path d="M69.8987 10.9647C68.9947 10.9647 68.2607 11.7027 68.2607 12.6145C68.2607 13.524 68.9947 14.2628 69.8987 14.2628C70.8054 14.2628 71.5424 13.524 71.5424 12.6145C71.5424 11.7027 70.8054 10.9647 69.8987 10.9647Z" fill="#AEB1BD"/>
<path fill-rule="evenodd" clip-rule="evenodd" d="M15.4224 4.03803C12.4316 4.03803 10.2611 6.19689 10.2611 9.16994C10.2611 12.143 12.4316 14.3015 15.4224 14.3015C18.4245 14.3015 20.604 12.143 20.604 9.16994C20.604 6.19689 18.4245 4.03803 15.4224 4.03803ZM15.4224 11.9019C14.0088 11.9019 13.0263 10.7772 13.0263 9.16994C13.0263 7.56309 14.0088 6.43911 15.4224 6.43911C16.8442 6.43911 17.8374 7.56309 17.8374 9.16994C17.8374 10.8026 16.8649 11.9019 15.4224 11.9019Z" fill="#AEB1BD"/>
<path d="M38.7913 8.87459C38.9333 9.02187 39.0666 9.20744 39.1829 9.42661L40.2572 11.4652L41.8776 14.1503H39.7019C38.8818 14.1503 38.4458 14.0131 38.0083 13.2095L36.4422 10.2482C36.3411 10.072 36.1207 10.0345 35.7971 10.0345H35.5311V14.1503H32.6921L32.6898 0.429354H34.027C34.8081 0.429354 35.5311 0.58758 35.5311 1.75023V7.56309H35.9831C36.3224 7.56309 36.549 7.47987 36.6612 7.31501L38.6443 4.2404H41.8483L39.209 8.17099C39.0737 8.37022 38.9333 8.54212 38.7961 8.68706L38.7009 8.77848L38.7913 8.87459Z" fill="#AEB1BD"/>
<path d="M52.9653 4.01614C51.5213 4.01614 50.5999 4.6588 50.0835 5.20223L49.9111 5.37687L49.8503 5.13934C49.6986 4.55723 49.1873 4.23687 48.4179 4.23687H47.1455L47.1535 14.1468H49.9732V9.57936C49.9732 9.13282 50.0312 8.74528 50.149 8.39171C50.4629 7.32165 51.3384 6.65633 52.4327 6.65633C53.3129 6.65633 53.6568 7.12162 53.6568 8.32413V12.6403C53.6568 13.6666 54.1307 14.1468 55.1559 14.1468H56.4978L56.4932 7.84399C56.4932 5.33975 55.2733 4.01614 52.9653 4.01614Z" fill="#AEB1BD"/>
<path d="M42.7012 4.24118H44.0377L44.0387 4.24119C45.0389 4.24119 45.5225 4.73227 45.5225 5.74568L45.5168 14.1452H45.5122V14.1491H44.8508L44.1863 14.151C44.1773 14.151 44.1693 14.1506 44.1612 14.1501L44.1507 14.1495C44.146 14.1493 44.1411 14.1491 44.136 14.1491H42.7094V11.9035L42.7012 4.24118Z" fill="#AEB1BD"/>
<path fill-rule="evenodd" clip-rule="evenodd" d="M26.4981 4.03803C23.5043 4.03803 21.3333 6.19689 21.3333 9.16994C21.3333 12.143 23.5043 14.3015 26.4981 14.3015C29.497 14.3015 31.6801 12.143 31.6801 9.16994C31.6801 6.19689 29.497 4.03803 26.4981 4.03803ZM26.4981 11.9019C25.0845 11.9019 24.1001 10.7772 24.1001 9.16994C24.1001 7.56309 25.0845 6.43911 26.4981 6.43911C27.9169 6.43911 28.9129 7.56309 28.9129 9.16994C28.9129 10.8026 27.9407 11.9019 26.4981 11.9019Z" fill="#AEB1BD"/>
<path fill-rule="evenodd" clip-rule="evenodd" d="M81.7751 9.16994C81.7751 6.1969 83.9461 4.03803 86.9392 4.03803C89.9385 4.03803 92.1211 6.1969 92.1211 9.16994C92.1211 12.143 89.9385 14.3015 86.9392 14.3015C83.9461 14.3015 81.7751 12.143 81.7751 9.16994ZM84.5411 9.16994C84.5411 10.7772 85.5262 11.9019 86.9392 11.9019C88.382 11.9019 89.3547 10.8026 89.3547 9.16994C89.3547 7.5631 88.3582 6.43912 86.9392 6.43912C85.5262 6.43912 84.5411 7.5631 84.5411 9.16994Z" fill="#AEB1BD"/>
<path fill-rule="evenodd" clip-rule="evenodd" d="M65.8433 4.21462C65.3082 4.21462 64.8964 4.42832 64.6901 4.81861L64.6121 4.97018L64.4815 4.8565C64.0263 4.46191 63.2103 3.99389 61.8851 3.99389C59.2484 3.99389 57.4733 5.97774 57.4733 8.93007C57.4733 11.8789 59.31 13.9397 61.9381 13.9397C62.8358 13.9397 63.5452 13.7299 64.1075 13.3033L64.3251 13.1396V13.415C64.3251 14.7386 63.4707 15.4688 61.9218 15.4688C61.169 15.4688 60.4839 15.2852 60.0257 15.1188C59.4274 14.9379 59.0768 15.0875 58.8343 15.6888L58.6104 16.2435L58.2937 17.0538L58.4899 17.1585C59.4812 17.6855 60.7717 18 61.9381 18C64.3395 18 67.1435 16.7686 67.1435 13.3033L67.1537 4.21462H65.8433ZM62.4388 11.4659C60.8972 11.4659 60.3485 10.1185 60.3485 8.85584C60.3485 8.29953 60.4889 6.4864 62.2906 6.4864C63.186 6.4864 64.3793 6.74346 64.3793 8.94922C64.3793 11.0296 63.3233 11.4659 62.4388 11.4659Z" fill="#AEB1BD"/>
<path fill-rule="evenodd" clip-rule="evenodd" d="M7.43757 6.88216L7.85256 7.11578C8.85987 7.68383 9.45859 8.80077 9.45859 10.1072C9.45859 12.5337 7.60425 14.1003 4.73128 14.1003L1.35925 14.1011C1.35868 14.1007 1.35811 14.1007 1.35725 14.1007C1.35639 14.1007 1.35525 14.1007 1.35353 14.1003H0V1.85925C0.00857468 1.08688 0.621633 0.462585 1.38786 0.434448L4.67303 0.435228C7.25747 0.435228 8.92729 1.82721 8.92729 3.98375C8.92729 5.3933 8.22105 6.20903 7.79982 6.57196L7.43757 6.88216ZM2.62571 11.786L4.92106 11.7883C6.05628 11.7875 6.76022 11.0933 6.76102 9.92128C6.76022 8.77935 6.03832 8.0734 4.92106 8.0734H3.35571C2.85309 8.14371 2.62571 8.44922 2.62571 9.0368V11.786ZM2.62571 3.64854V5.959H4.69172C5.85232 5.959 6.26531 5.06005 6.26531 4.28964C6.26531 3.27935 5.66198 2.67536 4.65468 2.67536H3.48018C2.89319 2.71405 2.62571 3.01526 2.62571 3.64854Z" fill="#AEB1BD"/>
<path d="M104.717 4.04821C103.547 4.04821 102.416 4.5971 101.69 5.51753L101.486 5.77694L101.325 5.48667C100.803 4.53264 99.9042 4.04821 98.6544 4.04821C97.3437 4.04821 96.4646 4.78072 96.0563 5.21632L95.7891 5.5062L95.6863 5.1249C95.5372 4.57601 95.0495 4.27362 94.3104 4.27362H93.1253L93.1138 14.1452H95.8067V9.78762C95.8067 9.40593 95.8539 9.02814 95.9493 8.63317C96.2068 7.58031 96.9131 6.44774 98.1005 6.56103C98.8329 6.63135 99.1905 7.19822 99.1905 8.29329V14.1452H101.902V9.78762C101.902 9.31061 101.947 8.95352 102.054 8.59528C102.273 7.59007 103.01 6.55947 104.156 6.55947C104.985 6.55947 105.291 7.02984 105.291 8.29329V12.7021C105.291 13.6995 105.735 14.1452 106.73 14.1452H107.998L108 7.84323C108 5.32572 106.894 4.04821 104.717 4.04821Z" fill="#AEB1BD"/>
<path d="M77.5235 11.9516C79.0491 11.9516 80.2079 10.7276 80.2159 10.7178L80.3695 10.5538L81.5379 12.4954L81.4603 12.5908C81.4466 12.6083 79.9928 14.3687 77.3196 14.3687C74.2383 14.3687 72.0037 12.2001 72.0037 9.21064C72.0037 6.22001 74.2629 4.04825 77.3765 4.04825C78.8326 4.04825 80.9963 4.6663 80.9963 6.37043V7.66239L79.521 7.66079C79.3974 7.66079 78.7691 7.62367 78.5616 6.931L78.5483 6.87943C78.4583 6.57392 77.8827 6.39226 77.3765 6.39226C75.8181 6.39226 74.7293 7.54319 74.7293 9.18989C74.7293 11.0972 76.1336 11.9516 77.5235 11.9516Z" fill="#AEB1BD"/>
</svg>
