<svg width="111" height="21" viewBox="0 0 111 21" fill="none" xmlns="http://www.w3.org/2000/svg">
<path d="M7.00259 5.08474C7.00259 3.839 7.39306 3.27963 8.69466 3.27963L10.5429 3.30508V0.152567C9.91815 0.0508971 8.92894 0 8.09591 0C4.21717 0 2.81144 1.77966 2.81144 5.16096V7.16953H0V10.5254H2.81144V20.6441H7.00259V10.4999H10.1524L10.4908 7.14408H7.00259V5.08474Z" fill="#AEB1BD"/>
<path fill-rule="evenodd" clip-rule="evenodd" d="M16.4522 6.88985C12.5994 6.88985 10.7772 9.73723 10.7772 13.5L10.7512 14.3644C10.7512 18.127 12.5994 20.9746 16.4261 20.9746C18.5087 20.9746 19.8363 19.9576 20.409 18.661V20.6949H24.444V7.19486H20.435V9.2542C19.8103 7.93224 18.5347 6.88985 16.4522 6.88985ZM17.6757 17.7711C15.7233 17.7711 14.9683 16.4237 14.9683 14.4153V13.4491C14.9683 11.4152 15.7233 10.0933 17.6757 10.0933C19.3938 10.0933 20.2528 11.3135 20.2528 13.2458V14.6186C20.2528 16.5509 19.3938 17.7711 17.6757 17.7711Z" fill="#AEB1BD"/>
<path d="M33.1386 6.88985C34.7526 6.88985 36.3145 7.22031 37.1475 7.80513L36.2104 10.7034C35.5596 10.3983 34.5183 10.0678 33.425 10.0678C31.1602 10.0678 30.171 11.339 30.171 13.5255V14.3135C30.171 16.5 31.1602 17.7711 33.425 17.7711C34.5183 17.7711 35.5856 17.4661 36.2104 17.1355L37.1475 20.0338C36.3145 20.5932 34.7786 20.9491 33.1386 20.9491C28.2186 20.9491 26.0059 18.356 26.0059 14.2373V13.6017C26.0059 9.48299 28.2186 6.88985 33.1386 6.88985Z" fill="#AEB1BD"/>
<path fill-rule="evenodd" clip-rule="evenodd" d="M37.6942 13.2458V14.4406C37.6942 18.4067 39.6726 21 44.9831 21C46.9876 21 49.2523 20.5677 50.3457 20.0085L49.5908 17.2119C48.3673 17.7204 46.7012 18.0254 45.1393 18.0254C42.8225 18.0254 41.9634 17.2119 41.8853 15.3559H50.6841V13.1949C50.6841 9.43222 48.7838 6.88985 44.4885 6.88985C39.9329 6.88985 37.6942 9.40677 37.6942 13.2458ZM46.9355 12.6864H41.8853C41.8853 10.856 42.6142 9.7119 44.4885 9.7119C46.3368 9.7119 46.9355 10.8813 46.9355 12.3559V12.6864Z" fill="#AEB1BD"/>
<path fill-rule="evenodd" clip-rule="evenodd" d="M66.1991 14.3389C66.1991 18.1017 64.3508 20.9491 60.4981 20.9491C58.4156 20.9491 56.9578 19.9322 56.3851 18.6355V20.6694H52.4282V0.406804L56.6194 0.0508971V9.07631C57.2181 7.88135 58.5718 6.9153 60.5242 6.9153C64.3508 6.9153 66.2251 9.76268 66.2251 13.5255L66.1991 14.3389ZM62.008 13.4237C62.008 11.5169 61.253 10.0933 59.2486 10.0933C57.5305 10.0933 56.5933 11.2881 56.5933 13.2203V14.6441C56.5933 16.5763 57.5305 17.7711 59.2486 17.7711C61.253 17.7711 62.008 16.3474 62.008 14.4406V13.4237Z" fill="#AEB1BD"/>
<path fill-rule="evenodd" clip-rule="evenodd" d="M67.5788 13.5762V14.2627C67.5788 18.1525 69.8436 20.9491 74.4512 20.9491C79.0589 20.9491 81.3236 18.1525 81.3236 14.2627V13.5762C81.3236 9.68645 79.0589 6.88985 74.4512 6.88985C69.8436 6.88985 67.5788 9.68645 67.5788 13.5762ZM74.4512 10.0933C76.4036 10.0933 77.1585 11.5169 77.1585 13.2965V14.5424C77.1585 16.3221 76.4036 17.7457 74.4512 17.7457C72.4988 17.7457 71.7439 16.3221 71.7439 14.5424V13.2965C71.7439 11.5169 72.4988 10.0933 74.4512 10.0933Z" fill="#AEB1BD"/>
<path fill-rule="evenodd" clip-rule="evenodd" d="M82.7554 14.2627V13.5762C82.7554 9.68645 85.0202 6.88985 89.6278 6.88985C94.2355 6.88985 96.5002 9.68645 96.5002 13.5762V14.2627C96.5002 18.1525 94.2355 20.9491 89.6278 20.9491C84.9941 20.9491 82.7554 18.1525 82.7554 14.2627ZM92.3351 13.2965C92.3351 11.5169 91.5802 10.0933 89.6278 10.0933C87.6754 10.0933 86.9205 11.5169 86.9205 13.2965V14.5424C86.9205 16.3221 87.6754 17.7457 89.6278 17.7457C91.5802 17.7457 92.3351 16.3221 92.3351 14.5424V13.2965Z" fill="#AEB1BD"/>
<path d="M106.392 7.16953L102.253 13.6017V0.0254485L98.0882 0.406804V20.6694H102.253V14.0593L106.549 20.6694H111L106.496 13.8305L110.818 7.16953H106.392Z" fill="#AEB1BD"/>
</svg>
