<svg width="123" height="17" viewBox="0 0 123 17" fill="none" xmlns="http://www.w3.org/2000/svg">
<path fill-rule="evenodd" clip-rule="evenodd" d="M15.1468 0H16.9632C16.9632 4.76743 15.2578 6.69254 12.5937 7.96251V16.9531H9.79848V9.06114C9.4352 9.19217 9.05174 9.32319 8.66827 9.45422C8.12335 9.64573 7.6188 9.82715 7.14451 9.9985V16.9632H4.34927V11.2785C2.56314 12.4074 1.8164 13.9193 1.8164 16.9632H0C0 12.4981 1.52376 10.5226 4.34927 9.09137V0H7.14451V7.93227C7.21412 7.90761 7.28472 7.88244 7.3561 7.85699C7.60553 7.76808 7.86444 7.67579 8.12335 7.58958C8.71873 7.388 9.27374 7.1965 9.79848 7.01507V0H12.5937V5.80558C14.3193 4.77751 15.1468 3.2858 15.1468 0ZM100.181 0.196429C95.4669 0.196429 91.7644 3.81745 91.7644 8.44968C91.7644 13.0656 95.4669 16.6866 100.181 16.6866C104.895 16.6866 108.597 13.0656 108.597 8.44968C108.581 3.81745 104.895 0.196429 100.181 0.196429ZM100.181 13.6528C97.1958 13.6528 94.8471 11.353 94.8471 8.43336C94.8471 5.49742 97.1958 3.21392 100.181 3.21392C103.166 3.21392 105.498 5.51375 105.498 8.43336C105.498 11.3693 103.166 13.6528 100.181 13.6528ZM35.7695 0.636851V6.47607H27.8588V0.636851H24.7924V16.3278H27.8588V9.68931H35.7695V16.3278H38.8197V0.636851H35.7695ZM54.6737 8.82488V0.636851H57.7727V9.02056C57.7727 12.7068 56.7289 16.7682 50.5471 16.7682C44.349 16.7682 43.3051 12.7557 43.3051 9.02056V0.636851H46.3552V8.82488C46.3552 11.2715 46.6325 13.7343 50.5308 13.7343C54.429 13.7343 54.6737 11.2062 54.6737 8.82488ZM80.2327 16.3278V0.636851H83.2991V13.1472H90.8184V16.3278H80.2327ZM109.837 0.636851V3.83377H114.763V16.3278H117.845V3.83377H122.657V0.636851H109.837ZM73.8226 8.09073C74.7686 7.35675 75.3068 6.26398 75.3068 4.95912C75.3068 3.65426 74.7849 0.620444 69.908 0.620444H61.8505V16.3114H70.4299C73.8878 16.3114 75.8614 14.5661 75.8614 11.5323C75.8614 10.0807 75.16 8.89002 73.8226 8.09073ZM69.7612 3.50748C71.4738 3.50748 71.9958 4.12725 71.9958 5.1548C71.9958 6.18242 71.539 6.91641 69.8264 6.91641H64.9006V3.49115H69.7612V3.50748ZM70.2342 13.457H64.9006V9.5098H70.2505C71.8326 9.5098 72.5177 10.1296 72.5177 11.5323C72.534 12.6088 72.0936 13.457 70.2342 13.457Z" fill="#AEB1BD"/>
</svg>
