<svg width="120" height="12" viewBox="0 0 120 12" fill="none" xmlns="http://www.w3.org/2000/svg">
<path fill-rule="evenodd" clip-rule="evenodd" d="M116.508 4.20217L114.548 0.0144404C114.287 0.0144404 114.022 0.0144404 113.762 0C113.743 0.0293936 113.724 0.0583801 113.704 0.0873147L113.704 0.0874178L113.704 0.0875394L113.704 0.0876815L113.704 0.0878502L113.704 0.0880496L113.704 0.0882876L113.703 0.0889105L113.703 0.0890526C113.656 0.159039 113.61 0.228762 113.575 0.303249C111.861 3.98556 110.147 7.66787 108.432 11.3454C108.201 11.8508 108.201 11.9037 108.796 11.8989C109.017 11.8989 109.13 11.8363 109.218 11.6342C109.438 11.1395 109.663 10.6463 109.889 10.1522L109.889 10.1519L109.889 10.1517L109.889 10.1514L109.889 10.1511L109.89 10.1505L109.89 10.1504L109.89 10.1503L109.89 10.1502L109.89 10.1501L109.89 10.1499L109.89 10.1498L109.89 10.1497L109.89 10.1496C110.088 9.7166 110.286 9.28294 110.481 8.84717C110.564 8.65945 110.677 8.59206 110.888 8.59206C113.04 8.59687 115.196 8.59687 117.348 8.59206C117.549 8.59206 117.657 8.66426 117.736 8.84236C118.143 9.75211 118.556 10.657 118.978 11.562C119.037 11.6871 119.135 11.8749 119.224 11.8797C119.282 11.883 119.342 11.891 119.402 11.8991C119.607 11.9266 119.818 11.9551 120 11.8026V11.6582L119.984 11.6326C119.944 11.5679 119.903 11.5 119.872 11.432C119.521 10.6776 119.17 9.92269 118.819 9.16747L118.802 9.13182C118.039 7.48962 117.274 5.84589 116.508 4.20217ZM116.817 7.81709H114.115C113.217 7.81709 112.313 7.81709 111.419 7.8219C111.07 7.8219 111.016 7.74489 111.153 7.44164C112.067 5.44886 112.986 3.45608 113.904 1.4633C113.936 1.39797 113.992 1.34492 114.049 1.29188C114.072 1.27066 114.094 1.24944 114.115 1.22744C114.141 1.25377 114.169 1.27861 114.197 1.3034L114.197 1.30343C114.257 1.35565 114.316 1.40765 114.346 1.47292C114.995 2.8807 115.638 4.29089 116.282 5.7018C116.546 6.27846 116.809 6.85523 117.072 7.43201C117.215 7.74007 117.166 7.81709 116.817 7.81709Z" fill="#AEB1BD"/>
<path fill-rule="evenodd" clip-rule="evenodd" d="M17.0937 0.0144404C17.3835 0.685925 17.6721 1.35621 17.9607 2.02649C18.2493 2.69676 18.5379 3.36703 18.8277 4.03851L22.0254 11.5042C22.1777 11.8604 22.1482 11.9037 21.7552 11.9037C21.5873 11.9037 21.4191 11.9034 21.2507 11.9031H21.2465C20.7366 11.9022 20.2253 11.9013 19.7167 11.9085C19.5301 11.9134 19.4368 11.846 19.3729 11.6775C19.228 11.3117 19.0782 10.9483 18.9284 10.5848C18.7786 10.2214 18.6287 9.858 18.4838 9.49218C18.4151 9.31408 18.3119 9.2515 18.1203 9.2515C16.6222 9.25632 15.124 9.25632 13.6259 9.2515C13.4196 9.2515 13.3213 9.32852 13.2476 9.51143C13.0948 9.89869 12.9364 10.2846 12.7776 10.6713L12.7775 10.6714L12.7775 10.6716C12.6402 11.0058 12.5027 11.3406 12.3684 11.6775C12.3045 11.8412 12.2161 11.9134 12.0246 11.9085C11.5088 11.9013 10.993 11.9022 10.4773 11.9031C10.3053 11.9034 10.1334 11.9037 9.96152 11.9037C9.68645 11.9037 9.63733 11.8315 9.74539 11.5812L9.74788 11.5754C11.368 7.78914 12.9881 4.00287 14.6132 0.216606C14.6339 0.165828 14.6668 0.119811 14.6998 0.0735318C14.7138 0.054007 14.7278 0.0344356 14.7409 0.0144404H17.0937ZM15.8657 6.96992H17.0692C17.359 6.96992 17.4179 6.8929 17.3099 6.63779C16.8973 5.62696 16.4846 4.62094 16.0573 3.61492C16.0344 3.56037 15.9809 3.51865 15.9274 3.47694C15.9007 3.45608 15.8739 3.43522 15.851 3.41276C15.8304 3.43446 15.8073 3.45466 15.7845 3.47466C15.7363 3.51675 15.6892 3.5579 15.6693 3.61011C15.3074 4.47187 14.9528 5.33717 14.5991 6.19994L14.5991 6.20008L14.599 6.20027L14.599 6.20032C14.5398 6.34462 14.4807 6.48884 14.4216 6.63297C14.3185 6.88809 14.3725 6.9651 14.6623 6.9651C14.9645 6.97233 15.2667 6.97142 15.5668 6.97052H15.5672C15.6669 6.97022 15.7665 6.96992 15.8657 6.96992Z" fill="#AEB1BD"/>
<path d="M0.0977228 0.169298C0.1683 0.140004 0.238878 0.11071 0.309456 0.11071C0.682767 0.105897 1.05485 0.105897 1.42693 0.105897C1.79902 0.105897 2.1711 0.105897 2.54441 0.101083C2.74089 0.0962695 2.83422 0.163658 2.89808 0.34657C3.51359 2.0085 4.13348 3.66616 4.75336 5.32381L4.75468 5.32734C5.06436 6.15547 5.37404 6.98361 5.68318 7.81227C5.68679 7.82289 5.6901 7.83408 5.69348 7.84549C5.70391 7.88067 5.71496 7.91798 5.73721 7.94705L5.73989 7.95021L5.74285 7.95373L5.7445 7.9557C5.7479 7.95975 5.75138 7.96392 5.75492 7.96817L5.75496 7.96821C5.80195 8.02459 5.86077 8.09516 5.90422 8.08664C5.97298 8.07702 6.0614 8.00481 6.09087 7.93743C6.22223 7.61065 6.34436 7.28162 6.46675 6.95187L6.46677 6.95181C6.52286 6.8007 6.579 6.64945 6.6361 6.4982C6.88826 5.82107 7.14097 5.14394 7.39368 4.46682C7.89905 3.11266 8.40443 1.75849 8.90544 0.404332C8.98895 0.178099 9.09701 0.0962695 9.34752 0.101083C9.83939 0.114566 10.3337 0.111526 10.827 0.108493C11.0381 0.107194 11.2491 0.105897 11.4597 0.105897C11.7593 0.105897 11.8084 0.178099 11.6955 0.45728C11.0603 2.03144 10.4243 3.6056 9.78808 5.18011L9.78697 5.18286C8.89841 7.38204 8.00956 9.5819 7.12239 11.7834C7.10765 11.8195 7.09169 11.8556 7.07573 11.8917C7.05976 11.9278 7.0438 11.9639 7.02906 12H4.76955C4.75491 11.9726 4.73991 11.9459 4.72504 11.9195C4.68502 11.8483 4.64592 11.7788 4.61727 11.7016C4.09052 10.4 3.56462 9.09851 3.03886 7.79734L3.03854 7.79656C2.30441 5.9797 1.57056 4.16352 0.835039 2.34898C0.684658 1.9832 0.531341 1.61885 0.378298 1.25516L0.378273 1.25511C0.251386 0.953573 0.12468 0.652469 0 0.351384V0.20698C0.0325739 0.196339 0.0651489 0.182819 0.0977228 0.169298Z" fill="#AEB1BD"/>
<path d="M43.3631 6.00241V11.5138C43.3631 11.9085 43.3631 11.9085 42.9505 11.9085C42.8215 11.9085 42.6926 11.9082 42.5636 11.9079C42.1768 11.907 41.79 11.9061 41.4032 11.9134C41.2116 11.9182 41.0937 11.8604 40.9758 11.7064C39.2665 9.4633 37.5522 7.22984 35.833 4.99639C35.7544 4.89049 35.607 4.74609 35.5137 4.76053C35.3505 4.78394 35.3615 4.92755 35.3715 5.05803V5.05818C35.3739 5.08861 35.3762 5.11831 35.3762 5.14561C35.3729 6.57361 35.374 8.00161 35.3751 9.4296C35.3756 10.1436 35.3762 10.8576 35.3762 11.5716C35.3762 11.9085 35.3713 11.9134 35.0373 11.9134C34.8548 11.9134 34.6724 11.9126 34.4899 11.9118C34.0338 11.9098 33.5777 11.9079 33.1216 11.9182C32.8956 11.923 32.8023 11.8604 32.8023 11.6197C32.8072 7.88448 32.8072 4.1444 32.8023 0.409146C32.8023 0.173285 32.8907 0.105897 33.1216 0.11071C33.7257 0.120337 34.3348 0.120337 34.939 0.11071C35.1404 0.105897 35.2632 0.168472 35.386 0.327316C37.0408 2.49748 38.7005 4.66284 40.3602 6.8282L40.3607 6.82884L40.3617 6.83011L40.3619 6.83033C40.3729 6.84477 40.3837 6.85951 40.3944 6.87426C40.4266 6.91848 40.4589 6.9627 40.4994 6.9988C40.6124 7.09025 40.745 7.04693 40.7745 6.90253C40.785 6.84762 40.783 6.79027 40.781 6.73221C40.7802 6.70884 40.7794 6.68534 40.7794 6.66185V0.476534C40.7794 0.120337 40.7892 0.11071 41.1478 0.11071H43.0389C43.3385 0.11071 43.3631 0.129964 43.3631 0.423586C43.3664 1.66243 43.3653 2.90342 43.3642 4.14369V4.14743C43.3636 4.76605 43.3631 5.3845 43.3631 6.00241Z" fill="#AEB1BD"/>
<path fill-rule="evenodd" clip-rule="evenodd" d="M56.5862 0.438026V5.99759C56.5862 6.37122 56.5864 6.74486 56.5866 7.11856C56.5873 8.61287 56.5881 10.1084 56.5763 11.6101C56.5763 11.8363 56.6451 11.923 56.8858 11.9182C57.3487 11.9079 57.8091 11.9098 58.2706 11.9118H58.2707C58.4556 11.9126 58.6406 11.9134 58.826 11.9134C59.0103 11.9134 59.1011 11.9134 59.1459 11.8688C59.1895 11.8255 59.1895 11.7401 59.1895 11.5716V8.46691C59.1895 8.16847 59.2141 8.1444 59.5088 8.1444C59.6491 8.1444 59.7895 8.14519 59.9298 8.14598C60.2807 8.14794 60.6315 8.14991 60.9824 8.13959C61.1887 8.13478 61.3066 8.21179 61.4147 8.37545C61.7828 8.92864 62.1546 9.48062 62.5265 10.0326L62.5272 10.0337L62.5287 10.0359C62.9003 10.5875 63.2719 11.1391 63.6398 11.6919C63.7528 11.8604 63.8756 11.923 64.077 11.9182C64.5528 11.9091 65.0286 11.9095 65.5045 11.9099H65.5048C65.7902 11.9101 66.0756 11.9103 66.361 11.9085C66.4389 11.9085 66.5143 11.8835 66.589 11.8587C66.6179 11.8491 66.6466 11.8396 66.6754 11.8315C66.6646 11.7982 66.6562 11.7635 66.6478 11.7287L66.6478 11.7285C66.6295 11.6527 66.6111 11.5765 66.5673 11.5138C65.9277 10.5717 65.2818 9.63271 64.6347 8.69184C64.4718 8.45495 64.3087 8.21795 64.1457 7.98075C63.9935 7.75933 64.0082 7.68712 64.2292 7.58604C65.8797 6.83995 66.5575 5.52587 66.4937 3.80265C66.4396 2.38267 65.8305 1.27076 64.4994 0.611312C63.7429 0.240674 62.9325 0.11071 62.0974 0.11071H56.9153C56.596 0.11071 56.5862 0.120337 56.5862 0.438026ZM59.1895 5.56919V4.14922C59.1895 3.98877 59.1901 3.82832 59.1906 3.66787C59.1917 3.34697 59.1928 3.02607 59.1895 2.70517C59.1846 2.52708 59.2632 2.44525 59.4499 2.44525C59.7544 2.44846 60.0595 2.44846 60.3648 2.44846C60.9753 2.44846 61.5866 2.44846 62.1957 2.47413C63.07 2.51264 63.6742 3.01324 63.8117 3.73045C64.0377 4.91937 63.3352 5.7858 62.0581 5.83394C61.4898 5.85584 60.9215 5.8513 60.3532 5.84676C60.0472 5.84432 59.7411 5.84188 59.4351 5.84356C59.2386 5.84838 59.1895 5.73767 59.1895 5.56919Z" fill="#AEB1BD"/>
<path d="M45.5391 5.99759V0.462094C45.5391 0.120337 45.5489 0.105897 45.8977 0.105897H54.1498C54.4937 0.105897 54.5133 0.120337 54.5133 0.45728V2.0698C54.5133 2.37786 54.4789 2.41155 54.1547 2.41155H48.5305C48.1424 2.41155 48.1375 2.41637 48.1375 2.80626V4.44284C48.1375 4.78941 48.1621 4.81348 48.5108 4.81348H53.3492C53.7421 4.81348 53.7421 4.81348 53.7421 5.20337V6.79182C53.7421 7.09507 53.7176 7.11913 53.4032 7.11913H48.5158C48.1523 7.11913 48.1375 7.12876 48.1375 7.48014V9.23706C48.1375 9.58845 48.1474 9.59807 48.5158 9.59807H54.2137C54.5722 9.59807 54.587 9.6077 54.587 9.9639C54.587 10.1023 54.5867 10.2407 54.5864 10.3791C54.5854 10.7942 54.5845 11.2094 54.5919 11.6245C54.5968 11.8315 54.5231 11.9037 54.307 11.9037C51.4826 11.8989 48.6582 11.8989 45.8338 11.9037C45.5735 11.9037 45.5391 11.7834 45.544 11.5764C45.5391 9.72322 45.5391 7.86041 45.5391 5.99759Z" fill="#AEB1BD"/>
<path d="M24.3258 8.93385C24.325 9.12638 24.3242 9.31891 24.3242 9.51143C24.3242 9.68604 24.3245 9.86066 24.3248 10.0351C24.3257 10.558 24.3266 11.0795 24.3193 11.5957C24.3193 11.8219 24.4028 11.9037 24.6386 11.8989C25.1054 11.8886 25.5747 11.8906 26.0429 11.8925C26.23 11.8933 26.4169 11.8941 26.6034 11.8941C26.9226 11.8941 26.9374 11.8845 26.9374 11.5716C26.9374 11.2379 26.9377 10.9038 26.938 10.5697V10.5672C26.9389 9.56225 26.9398 8.55595 26.9325 7.55235C26.9325 7.31167 26.9914 7.10951 27.124 6.90253C28.4945 4.7846 29.86 2.66185 31.2206 0.534296C31.2696 0.465756 31.2937 0.380137 31.3176 0.29481C31.3273 0.260288 31.337 0.225815 31.3483 0.192539C31.3089 0.183253 31.2689 0.170981 31.2285 0.158604C31.1434 0.132486 31.0568 0.105897 30.9701 0.105897C30.6066 0.101083 30.2419 0.101083 29.8772 0.101083C29.5125 0.101083 29.1478 0.101083 28.7843 0.0962696C28.6025 0.0962696 28.4994 0.154031 28.411 0.303249C28.1571 0.728076 27.8983 1.15128 27.6394 1.57475L27.6392 1.57496L27.6391 1.57512L27.6391 1.57524L27.639 1.57536C27.4521 1.88099 27.2651 2.18676 27.0798 2.49338C26.8784 2.8231 26.677 3.15403 26.4756 3.48496C26.2743 3.81588 26.0729 4.14681 25.8715 4.47653C25.6996 4.7509 25.6013 4.7509 25.4294 4.46691C25.422 4.45728 25.4159 4.44645 25.4097 4.43562C25.4036 4.42479 25.3975 4.41396 25.3901 4.40433C24.5747 3.04212 23.7593 1.6799 22.939 0.322503C22.885 0.231047 22.772 0.11071 22.6836 0.11071C21.8154 0.0962899 20.9521 0.10107 20.0839 0.105876L20.0802 0.105897C19.9034 0.11071 19.8543 0.216606 19.9378 0.370638C19.9696 0.426093 20.004 0.479053 20.0391 0.533111C20.0527 0.554128 20.0665 0.575311 20.0802 0.596871C21.4507 2.74368 22.8211 4.89049 24.1867 7.04212C24.2702 7.17208 24.3144 7.34055 24.3193 7.48977C24.3298 7.97113 24.3278 8.45249 24.3258 8.93385Z" fill="#AEB1BD"/>
<path d="M68.596 5.99759V0.486161C68.596 0.13421 68.6004 0.133827 68.9247 0.105832C68.9419 0.104346 68.9601 0.102782 68.9791 0.101083C69.3131 0.0722022 69.5047 0.197353 69.6864 0.471721C70.7499 2.0514 71.8276 3.62553 72.9043 5.19832L72.9051 5.19947L72.9069 5.20212L72.9108 5.20776L72.9114 5.2086C73.2497 5.70273 73.5879 6.19673 73.9255 6.69073C74.1711 7.05174 74.2251 7.05174 74.4658 6.70036C75.007 5.90841 75.5476 5.11647 76.0879 4.32477L76.0994 4.30795C76.9971 2.99282 77.8942 1.67839 78.7933 0.365824C78.8571 0.269555 78.9456 0.139591 79.0389 0.12515C79.2383 0.0940661 79.4418 0.112141 79.6457 0.130245C79.6628 0.131766 79.68 0.133286 79.6971 0.134777C79.7364 0.139591 79.7806 0.226233 79.7953 0.283995C79.8101 0.334574 79.8082 0.390576 79.8064 0.445896V0.446222C79.8058 0.464498 79.8052 0.482698 79.8052 0.500602V11.5235C79.8052 11.9085 79.8052 11.9134 79.4073 11.9134C79.1658 11.9134 79.0454 11.9134 78.9855 11.8544C78.9259 11.7958 78.9259 11.6791 78.9259 11.4465V2.49338C78.9259 2.47177 78.9272 2.44972 78.9286 2.42763C78.9317 2.37593 78.9348 2.32399 78.921 2.27677C78.8915 2.19495 78.8473 2.09386 78.7786 2.05536C78.7393 2.0361 78.6312 2.11312 78.5673 2.16125C78.5311 2.19033 78.5059 2.23242 78.4799 2.27587C78.4671 2.29716 78.4542 2.31878 78.4396 2.33935L78.4315 2.3511L78.4315 2.35114C77.0981 4.27741 75.7648 6.2037 74.4314 8.13478C74.2055 8.45728 74.1416 8.45728 73.9157 8.13478C73.2408 7.16077 72.5671 6.18556 71.8935 5.21034L71.8919 5.20818L71.8858 5.19933C71.2137 4.22635 70.5415 3.25337 69.8682 2.28159C69.86 2.26895 69.8521 2.25577 69.8441 2.24249C69.8186 2.20014 69.7926 2.15688 69.7552 2.12756C69.7012 2.08905 69.6128 2.0361 69.5686 2.05536C69.5096 2.07942 69.4654 2.16606 69.4408 2.23345C69.4271 2.28067 69.4302 2.3326 69.4333 2.3843C69.4346 2.40639 69.4359 2.42844 69.4359 2.45006V11.5235C69.4359 11.7224 69.4359 11.8211 69.3856 11.87C69.3361 11.9182 69.2378 11.9182 69.043 11.9182H68.9202C68.6107 11.9182 68.5862 11.8989 68.5862 11.5909C68.596 9.71841 68.596 7.8556 68.596 5.99759Z" fill="#AEB1BD"/>
<path fill-rule="evenodd" clip-rule="evenodd" d="M93.1265 0.45728V11.5909C93.1265 11.8941 93.1363 11.9085 93.4409 11.9085C93.8092 11.9085 94.1776 11.9098 94.546 11.9111C95.4056 11.9142 96.2652 11.9172 97.1248 11.9037C97.6111 11.8989 98.1072 11.8556 98.5837 11.7593C103.319 10.7822 104.473 5.82431 102.454 2.78219C101.275 1.00602 99.5219 0.20698 97.4146 0.12515C96.4919 0.0878976 95.5716 0.0959165 94.6503 0.103944C94.2622 0.107326 93.8738 0.11071 93.4851 0.11071C93.3049 0.11071 93.2153 0.11071 93.1707 0.154631C93.1265 0.198151 93.1265 0.284791 93.1265 0.45728ZM94.0063 7.20474C94.006 6.80577 94.0057 6.40665 94.0057 6.00722V1.27076C94.0057 0.929001 94.0205 0.914561 94.3594 0.914561C94.6929 0.916081 95.0264 0.914721 95.3599 0.913361C96.0825 0.910414 96.805 0.907467 97.5276 0.933815C99.9934 1.01564 101.948 2.6426 102.386 5.02527C102.941 8.05776 101.089 10.6763 97.9648 11.0373C97.3384 11.1085 96.7022 11.1057 96.0666 11.1028C95.8001 11.1016 95.5337 11.1004 95.2681 11.1047C95.1404 11.1066 95.0127 11.1055 94.885 11.1043C94.6934 11.1026 94.5018 11.1008 94.3103 11.1095C94.0696 11.1191 94.0008 11.0229 94.0008 10.7966C94.0082 9.59915 94.0073 8.40436 94.0063 7.20824V7.20474Z" fill="#AEB1BD"/>
<path d="M82.0106 0.447653C82.0106 0.115523 82.0205 0.105897 82.3496 0.105897H90.1351C90.4445 0.105897 90.4642 0.12515 90.4642 0.438026V0.534296C90.4642 0.890493 90.4445 0.909747 90.0712 0.909747H83.2927C83.0896 0.909747 82.9877 0.909747 82.9366 0.959686C82.885 1.01002 82.885 1.11108 82.885 1.31401V5.213C82.885 5.5355 82.9046 5.55475 83.2337 5.55475H89.3492C89.6881 5.55475 89.693 5.56438 89.693 5.89651C89.693 5.91592 89.6924 5.93479 89.6919 5.95348V5.95355C89.6908 5.99045 89.6897 6.02666 89.693 6.06498C89.7225 6.30084 89.6046 6.36823 89.3786 6.36823C87.3402 6.36342 85.3017 6.36342 83.2632 6.36342C82.8997 6.36342 82.885 6.37304 82.885 6.72443V10.7677C82.885 11.0903 82.9046 11.1095 83.2337 11.1095C85.5325 11.1095 87.8314 11.1095 90.1351 11.1143C90.2628 11.1143 90.4887 11.1528 90.5035 11.2058C90.5428 11.4128 90.528 11.6294 90.4986 11.8412C90.4937 11.8749 90.3266 11.9085 90.2382 11.9085C89.0252 11.9134 87.817 11.9134 86.6039 11.9134H82.3299C82.0303 11.9134 82.0106 11.8941 82.0106 11.5957V0.447653Z" fill="#AEB1BD"/>
<path d="M106.34 11.5668V6.03129C106.34 4.22142 106.34 2.40674 106.335 0.596871C106.335 0.11071 106.335 0.11071 105.849 0.11071C105.656 0.11071 105.559 0.11071 105.51 0.158238C105.46 0.206564 105.461 0.304031 105.461 0.500602V11.3983C105.461 11.6753 105.448 11.803 105.508 11.8614C105.568 11.9208 105.701 11.9085 105.996 11.9085C106.33 11.9085 106.34 11.8989 106.34 11.5668Z" fill="#AEB1BD"/>
</svg>
